<svg width="864" height="523" viewBox="0 0 864 523" fill="none" xmlns="http://www.w3.org/2000/svg">
<path d="M0 456.32C0 456.32 385.44 376.14 432 383.32C478.56 390.5 545.56 412.5 545.56 412.5C571.84 396.53 608.33 371.93 601.5 397.5C624.71 387.18 638.79 385.42 639.81 395.91L625.5 406.98C636.74 404.52 645.16 407.14 650.33 415.58C650.33 415.58 542.56 504.5 519.56 503.85C477.57 502.67 436.56 462.5 406.56 465.5C376.56 468.5 254.56 517.5 254.56 517.5L0 512.25V456.32Z" fill="#324766"/>
<g style="mix-blend-mode:multiply" opacity="0.29">
<path d="M650.338 415.58L643.568 415.5L622.348 431.7L561.418 443.92C561.418 443.92 443.068 439 415.068 442C382.608 445.48 182.838 507.64 55.8281 513.4L254.568 517.5C254.568 517.5 376.568 468.5 406.568 465.5C436.568 462.5 477.578 502.67 519.568 503.85C542.568 504.5 650.338 415.58 650.338 415.58Z" fill="#324766"/>
</g>
<path d="M553.988 427.15C568.598 415.21 592.538 401.46 601.508 397.5" stroke="#1B2735" stroke-linecap="round" stroke-linejoin="round"/>
<path d="M565.559 437.5C588.459 421.45 612.439 410.46 625.499 406.98" stroke="#1B2735" stroke-linecap="round" stroke-linejoin="round"/>
<path d="M529.41 499.32C548.56 488.51 643.56 415.51 643.56 415.51C643.56 415.51 630.79 400.44 566.54 440.89" stroke="#1B2735" stroke-linecap="round" stroke-linejoin="round"/>
<path d="M500.33 266.18C477.56 286.5 456.56 306.5 488.56 332.5C520.56 358.5 542.56 358.5 553.56 382.5" stroke="#7D9DCD" stroke-linecap="round" stroke-linejoin="round"/>
<path d="M545.559 354.5C559.559 368.5 579.559 393.5 556.559 421.5" stroke="#7D9DCD" stroke-linecap="round" stroke-linejoin="round"/>
<path d="M513.031 254.5C493.561 263.5 471.561 289.5 490.561 319.5C509.561 349.5 547.561 357.5 553.561 385.5C559.561 413.5 518.421 425.83 518.421 425.83C518.421 425.83 506.561 439.5 528.561 437.5C550.561 435.5 555.491 422.9 567.531 437.7C579.561 452.5 580.561 487.5 575.561 503.5C570.561 519.5 607.561 524.5 613.561 501.5C619.561 478.5 613.561 458.5 600.561 444.5C587.561 430.5 556.561 424.5 556.561 424.5C556.561 424.5 571.561 408.15 561.561 384.33C551.561 360.51 527.121 300.57 540.841 283.54C554.561 266.51 513.031 254.51 513.031 254.51V254.5Z" fill="#7D9DCD"/>
<g style="mix-blend-mode:screen" opacity="0.74">
<path d="M580.159 514.31C586.229 517.99 596.569 518.36 604.299 513.82C608.219 503.59 609.399 485.83 603.429 465.08C597.069 443 587.489 439.22 580.649 431.9C574.409 429.29 568.239 427.41 563.699 426.2C563.769 426.24 591.569 443.77 590.569 474.12C589.949 492.94 584.339 506.62 580.169 514.31H580.159Z" fill="#7D9DCD"/>
<path d="M540.841 283.54C551.051 270.86 530.651 260.97 519.551 256.74C500.531 284.81 499.001 301.29 505.691 314.12C517.771 337.32 539.131 341.41 552.381 361.47C541.871 333.71 530.481 296.4 540.841 283.54Z" fill="#7D9DCD"/>
</g>
<g style="mix-blend-mode:multiply" opacity="0.34">
<path d="M542.53 332.18C536.73 311.81 533.89 292.17 540.84 283.54C554.56 266.51 513.03 254.51 513.03 254.51C497.4 283.53 515.72 307.23 542.53 332.18Z" fill="#7D9DCD"/>
</g>
<g style="mix-blend-mode:multiply" opacity="0.34">
<path d="M598.061 490C595.781 476.35 584.881 468.44 576.461 459.72C579.491 475.25 578.761 493.26 575.561 503.5C572.581 513.04 584.521 518.66 595.921 516.79C597.941 508.2 599.411 498.14 598.061 490Z" fill="#7D9DCD"/>
</g>
<path d="M515.3 382.81C520.05 386.59 522.24 391.76 520.17 394.35C518.11 396.94 512.58 395.98 507.83 392.2C503.08 388.42 500.89 383.25 502.96 380.66C505.02 378.07 510.55 379.03 515.3 382.81Z" stroke="#7D9DCD" stroke-linecap="round" stroke-linejoin="round"/>
<path d="M526.3 394.81C531.05 398.59 533.24 403.76 531.17 406.35C529.11 408.94 523.58 407.98 518.83 404.2C514.08 400.42 511.89 395.25 513.96 392.66C516.02 390.07 521.55 391.03 526.3 394.81Z" fill="#7D9DCD"/>
<path d="M541.059 378.78C542.689 383.18 541.489 387.67 538.379 388.82C535.269 389.97 531.429 387.34 529.809 382.94C528.189 378.54 529.379 374.05 532.489 372.9C535.599 371.75 539.439 374.38 541.059 378.78Z" stroke="#7D9DCD" stroke-linecap="round" stroke-linejoin="round"/>
<path d="M576.199 406.53C573.809 410.67 574.189 415.38 577.059 417.03C579.929 418.69 584.199 416.67 586.589 412.53C588.979 408.39 588.599 403.68 585.729 402.03C582.859 400.37 578.589 402.39 576.199 406.53Z" stroke="#7D9DCD" stroke-linecap="round" stroke-linejoin="round"/>
<path d="M468.797 437.5C472.057 443 506.837 454.48 523.447 454.24C540.057 454 561.407 443.92 561.407 443.92L552.377 431.14L468.797 437.5Z" fill="#7D9DCD"/>
<path d="M542.679 443.92C525.559 464.5 534.258 508.5 529.408 517.5C524.558 526.5 470.559 522.5 466.559 510.5C462.559 498.5 467.559 447.5 514.559 439.5C542.229 434.79 542.679 443.92 542.679 443.92Z" fill="#7D9DCD"/>
<g style="mix-blend-mode:screen" opacity="0.74">
<path d="M531.08 443.5C540.56 438.51 508.56 435.51 494.56 467.51C485.08 489.19 483.27 509.01 483.09 519.55C492.26 521.74 503.59 522.73 512.8 522.33L512.11 512.26C509.57 492.52 521.61 448.5 531.09 443.51L531.08 443.5Z" fill="#7D9DCD"/>
</g>
<g style="mix-blend-mode:multiply" opacity="0.34">
<path d="M542.677 443.92C542.677 443.92 542.227 434.79 514.557 439.5C505.837 440.98 498.567 443.95 492.527 447.87C518.387 474.24 522.677 502.76 531.237 494.11C531.407 477.44 532.307 456.39 542.677 443.92Z" fill="#7D9DCD"/>
</g>
<path d="M424.091 440.51C453.451 439.36 566.541 446.56 566.571 442.84C566.571 442.84 569.571 427.5 532.061 420.12C505.091 414.81 486.351 408.37 486.351 408.37C486.351 408.37 464.431 369.84 417.371 379.58C413.781 380.32 399.071 383 391.071 385C358.751 393.08 424.091 440.51 424.091 440.51Z" fill="#324766"/>
<path d="M424.091 440.51C453.451 439.36 566.541 446.56 566.571 442.84C566.571 442.84 569.571 427.5 532.061 420.12C505.091 414.81 486.351 408.37 486.351 408.37C486.351 408.37 464.431 369.84 417.371 379.58" stroke="#1B2735" stroke-linecap="round" stroke-linejoin="round"/>
<path d="M663.749 185.04L579.509 187.9C567.439 188.31 556.099 193.79 548.279 202.98L505.699 253.04L551.569 283.54L570.339 260.88C579.459 249.87 593.009 243.5 607.299 243.5H666.809L663.759 185.03L663.749 185.04Z" fill="#DBB950"/>
<g style="mix-blend-mode:multiply" opacity="0.39">
<path d="M607.29 243.5H666.8L666.39 235.65L657.56 235.43V225.83C657.56 225.83 606.56 222.5 587.56 229.5C568.56 236.5 549.59 273.34 549.59 273.34L545.45 270.5L540.43 276.13L551.56 283.53L570.33 260.87C579.45 249.86 593 243.49 607.29 243.49V243.5Z" fill="#DBB950"/>
</g>
<path d="M511.559 239.5L561.559 276.5" stroke="#1B2735" stroke-linecap="round" stroke-linejoin="round"/>
<path d="M517.18 234.29L566.56 270.5" stroke="#1B2735" stroke-linecap="round" stroke-linejoin="round"/>
<path d="M507.558 244.5L558.558 279.5L550.558 290.5L500.328 254.5L507.558 244.5Z" fill="#324766"/>
<g style="mix-blend-mode:multiply" opacity="0.36">
<path d="M536.559 280.47L550.559 290.5L558.559 279.5L545.449 270.5L536.559 280.47Z" fill="#324766"/>
</g>
<path d="M672.277 182H718.917C761.797 182 796.557 216.76 796.557 259.64V291.5H731.007V274.53C731.007 258.97 718.387 246.35 702.827 246.35H672.277V182Z" fill="#324766"/>
<g style="mix-blend-mode:multiply" opacity="0.36">
<path d="M672.277 235.81V246.36H702.827C715.487 246.36 726.187 254.7 729.747 266.19C729.747 266.19 731.977 248.74 723.557 237.51C711.557 221.51 672.277 226.78 672.277 226.78L672.467 235.82H672.277V235.81Z" fill="#324766"/>
</g>
<g style="mix-blend-mode:multiply" opacity="0.36">
<path d="M796.559 259.64C796.559 237.56 787.329 217.66 772.539 203.52C787.539 222.75 782.209 291.5 782.209 291.5H796.559V259.64Z" fill="#324766"/>
</g>
<path d="M677.559 179.5V250" stroke="#1B2735" stroke-linecap="round" stroke-linejoin="round"/>
<path d="M687.559 179.5V250" stroke="#1B2735" stroke-linecap="round" stroke-linejoin="round"/>
<path d="M798.809 275.75H728.309" stroke="#1B2735" stroke-linecap="round" stroke-linejoin="round"/>
<path d="M798.809 285.75H728.309" stroke="#1B2735" stroke-linecap="round" stroke-linejoin="round"/>
<path d="M657.559 177.51V254.51H672.559V177.51H657.559Z" fill="#324766"/>
<g style="mix-blend-mode:multiply" opacity="0.36">
<path d="M672.559 226.75C672.379 226.77 672.279 226.77 672.279 226.77L672.469 235.81L657.559 235.43V254.5H672.559V226.75Z" fill="#324766"/>
</g>
<path d="M802.809 291.5H725.809V306.5H802.809V291.5Z" fill="#324766"/>
<g style="mix-blend-mode:multiply" opacity="0.36">
<path d="M802.807 291.5H789.547V306.5H802.807V291.5Z" fill="#324766"/>
</g>
<path d="M793.309 306.5H735.309V500.5H793.309V306.5Z" fill="#DBB950"/>
<g style="mix-blend-mode:multiply" opacity="0.39">
<path d="M793.31 306.5H789.549H783.15L781.27 500.5H793.31V306.5Z" fill="#DBB950"/>
</g>
<path d="M653.609 185.38L647.559 166.5H601.689L594.039 187.4L653.609 185.38Z" fill="#324766"/>
<g style="mix-blend-mode:multiply" opacity="0.36">
<path d="M653.609 185.38L647.559 166.5H631.619L623.699 186.4L653.609 185.38Z" fill="#324766"/>
</g>
<path d="M610.56 129.5L607.34 166.5H641.22L636.1 129.5H610.56Z" fill="#324766"/>
<g style="mix-blend-mode:multiply" opacity="0.36">
<path d="M641.219 166.5L636.099 129.5H621.559L631.619 166.5H641.219Z" fill="#324766"/>
</g>
<path d="M650.559 116.5H592.559V129.5H650.559V116.5Z" fill="#DBB950"/>
<g style="mix-blend-mode:multiply" opacity="0.39">
<path d="M623.359 116.5H592.559V129.5H608.089C614.999 125.11 619.899 120.58 623.359 116.5Z" fill="#DBB950"/>
</g>
<path d="M659.559 139.5C668.395 139.5 675.559 132.337 675.559 123.5C675.559 114.663 668.395 107.5 659.559 107.5C650.722 107.5 643.559 114.663 643.559 123.5C643.559 132.337 650.722 139.5 659.559 139.5Z" fill="#DBB950"/>
<g style="mix-blend-mode:multiply" opacity="0.39">
<path d="M648.52 135.06C651.39 137.8 655.28 139.5 659.56 139.5C668.4 139.5 675.56 132.34 675.56 123.5C675.56 114.66 668.4 107.5 659.56 107.5C664.69 109.83 666.76 129.11 648.52 135.06Z" fill="#DBB950"/>
</g>
<path d="M586.559 139.5C595.395 139.5 602.559 132.337 602.559 123.5C602.559 114.663 595.395 107.5 586.559 107.5C577.722 107.5 570.559 114.663 570.559 123.5C570.559 132.337 577.722 139.5 586.559 139.5Z" fill="#DBB950"/>
</svg>
