<svg width="513" height="468" viewBox="0 0 513 468" fill="none" xmlns="http://www.w3.org/2000/svg">
<g style="mix-blend-mode:multiply">
<g style="mix-blend-mode:screen" opacity="0.57">
<path d="M46.279 311.38C70.999 310.21 90.759 303.36 90.419 296.08C90.079 288.79 69.759 283.83 45.039 285C27.899 285.81 13.159 289.35 5.82898 293.87C1.82898 282.46 -0.061013 270.05 0.738987 256.76C1.65899 241.51 10.119 229.33 23.099 220.64C26.959 226.47 31.909 232.79 37.709 239.06C55.319 258.13 73.939 269.59 79.299 264.64C84.659 259.69 74.729 240.22 57.119 221.14C53.399 217.11 49.639 213.43 45.959 210.16C57.329 206.74 70.049 205.02 83.209 205.12C84.359 211.64 86.459 218.99 89.469 226.56C98.209 248.55 111.329 263.98 118.779 261.02C126.219 258.06 125.169 237.84 116.419 215.84C115.409 213.3 114.339 210.85 113.229 208.51C125.119 211.14 136.789 215.3 147.549 221.11C147.139 230.44 148.349 243.27 151.259 257.17C156.879 284.02 166.709 304.69 173.209 303.33C179.709 301.97 180.419 279.1 174.789 252.25C173.769 247.39 172.609 242.73 171.369 238.37C187.809 254.13 199.299 275.75 201.519 303.88C205.679 356.58 168.029 377.74 124.229 375.16C143.319 361.02 156.129 346 152.859 341.58C149.589 337.15 131.409 345.04 112.269 359.2C106.959 363.13 102.129 367.13 97.999 370.95C63.559 362.04 29.609 340.03 12.329 308.44C20.669 310.83 32.809 312.01 46.269 311.38H46.279ZM127.799 287.75C131.129 286.2 132.479 280.52 130.219 275.66C127.959 270.8 124.029 267.24 120.549 268.4C117.069 269.56 114.639 272.98 118.129 280.49C120.389 285.35 124.469 289.3 127.799 287.75ZM110.209 328.77C110.919 331.11 115.289 331.55 119.979 329.75C124.669 327.95 127.889 324.6 127.179 322.26C126.469 319.92 122.099 319.48 117.409 321.28C112.719 323.08 109.499 326.43 110.209 328.77ZM51.529 341.08C52.289 345.87 63.769 347.39 77.179 344.48C90.589 341.57 100.849 335.33 100.089 330.54C99.329 325.75 87.849 324.23 74.439 327.14C61.029 330.05 50.769 336.29 51.529 341.08Z" fill="#728463"/>
</g>
<g style="mix-blend-mode:screen" opacity="0.57">
<path d="M230.089 234.45C236.489 261.29 248.019 280.98 256.659 279.16C265.799 277.25 268.249 252.01 262.129 222.8C258.949 207.61 254.079 194.34 248.849 185.37C258.709 166.4 271.119 148.46 284.939 133.19C282.879 141.12 281.259 150.28 280.319 160.09C277.309 191.53 282.399 217.75 291.699 218.64C300.999 219.53 310.969 194.76 313.989 163.32C316.199 140.25 314.039 120.02 309.069 110.51C317.589 103.82 326.359 98.2798 335.159 94.1998C334.719 113.28 340.239 128.36 348.549 129.15C357.849 130.04 367.109 112.73 369.239 90.4898C369.369 89.0898 369.479 87.6998 369.549 86.3398C379.439 86.6498 389.009 89.4298 397.919 95.1898C409.089 102.41 417.209 112.09 422.699 123.45C414.389 127.84 404.179 135.23 394.029 144.6C373.639 163.43 361.189 183.11 366.219 188.57C371.259 194.02 391.869 183.18 412.259 164.36C419.139 158.01 425.109 151.56 429.819 145.59C432.289 158.77 432.329 173.19 430.349 188.09C421.119 190.83 409.039 196.6 396.619 204.58C373.119 219.68 357.319 236.98 361.329 243.23C365.339 249.48 387.649 242.3 411.149 227.2C415.689 224.28 419.939 221.28 423.819 218.3C419.709 232.19 414.119 246.04 407.369 259.28C400.149 257.42 387.529 259.19 374.229 264.48C355.449 271.95 342.439 283.59 345.179 290.49C347.919 297.39 365.369 296.93 384.159 289.46C386.679 288.46 389.099 287.38 391.389 286.24C376.879 307.46 359.429 325.45 340.729 336.98C340.019 336.42 339.299 335.87 338.549 335.33C323.939 324.76 307.809 322.11 302.529 329.41C299.059 334.2 301.119 342.09 307.069 349.93C289.189 352.58 271.079 348.31 253.999 334.65C225.359 311.74 220.549 273.84 230.089 234.48V234.45ZM344.139 172.33C348.519 172.75 352.619 167.36 353.299 160.3C353.979 153.23 350.969 147.17 346.589 146.75C342.209 146.33 338.109 151.72 337.429 158.78C336.749 165.85 339.759 171.91 344.139 172.33ZM307.859 301.69C309.329 305.84 315.949 307.28 322.639 304.91C329.329 302.54 333.559 297.25 332.089 293.1C330.619 288.95 323.999 287.51 317.309 289.88C310.619 292.25 306.389 297.54 307.859 301.69ZM286.169 258.08C289.919 258.44 293.509 253 294.189 245.94C294.869 238.87 292.369 232.85 288.619 232.49C284.869 232.13 281.279 237.57 280.599 244.63C279.919 251.7 282.419 257.72 286.169 258.08ZM255.499 301.84C256.989 307.11 261.029 310.57 264.529 309.59C268.029 308.6 269.649 303.53 268.159 298.26C266.669 292.99 262.629 289.53 259.129 290.51C255.629 291.5 254.009 296.57 255.499 301.84Z" fill="#728463"/>
</g>
<g style="mix-blend-mode:screen" opacity="0.57">
<path d="M281.478 98.59C277.878 116.63 269.418 130.15 262.608 128.79C255.788 127.43 253.188 111.7 256.788 93.66C259.408 80.53 264.598 69.8 269.858 65.46C246.908 29.11 204.718 0.51 151.938 0.25C156.448 5.86 161.128 12.97 165.448 21.02C177.108 42.79 181.598 63.09 175.468 66.38C169.338 69.66 154.918 54.68 143.248 32.92C136.998 21.26 132.808 10.02 131.208 1.59C123.458 2.61 115.528 4.24 107.428 6.53C85.4078 12.77 73.9278 35.4 72.0078 63.57C81.7278 65.8 94.9678 71.22 108.788 79.01C133.858 93.16 151.268 109.78 147.688 116.14C144.098 122.49 120.878 116.17 95.8078 102.02C86.8178 96.95 78.8278 91.56 72.4178 86.44C73.8178 100.81 77.3078 115.79 82.7778 130.24C93.3378 130.61 109.718 134.48 127.358 141.25C155.908 152.21 176.938 166.62 174.328 173.43C171.718 180.24 146.448 176.87 117.898 165.91C109.368 162.63 101.508 159.05 94.7578 155.45C119.278 197.52 162.698 227.5 221.728 209.73C284.158 190.93 299.198 139.07 282.588 91.66C282.328 93.92 281.958 96.25 281.488 98.62L281.478 98.59ZM207.068 62.85C200.538 43.37 200.588 25.78 207.188 23.57C213.778 21.36 224.418 35.36 230.948 54.85C237.478 74.33 237.428 91.92 230.828 94.13C224.238 96.34 213.598 82.34 207.068 62.85ZM218.808 189.65C217.488 193.08 211.118 193.82 204.568 191.31C198.018 188.8 193.778 183.98 195.098 180.55C196.418 177.12 202.788 176.38 209.338 178.89C215.888 181.4 220.128 186.22 218.808 189.65ZM239.898 130.04C241.218 138.8 239.348 146.34 235.718 146.89C232.088 147.44 228.068 140.79 226.748 132.03C225.428 123.27 227.298 115.73 230.928 115.18C234.558 114.63 238.578 121.28 239.898 130.04ZM197.078 98.69C193.928 100.57 188.458 97.21 184.858 91.19C181.268 85.17 180.908 78.76 184.068 76.88C187.228 75 192.688 78.36 196.288 84.38C199.878 90.4 200.238 96.81 197.078 98.69Z" fill="#728463"/>
</g>
</g>
<path d="M467.081 197.55C455.691 200.64 445.521 199.65 444.351 195.35C443.181 191.05 451.471 185.05 462.851 181.96C471.141 179.71 478.781 179.62 482.781 181.4C497.091 157.83 501.441 125.43 486.501 95.0598C484.571 99.2498 481.821 103.98 478.441 108.75C469.281 121.67 458.901 130.05 455.271 127.47C451.631 124.89 456.111 112.33 465.271 99.4098C470.181 92.4898 475.431 86.8698 479.821 83.5398C477.021 79.3798 473.821 75.2898 470.181 71.2998C460.301 60.4398 444.031 60.3198 427.311 67.2698C428.811 73.4898 429.491 82.6398 428.961 92.7998C428.001 111.24 423.441 125.99 418.771 125.75C414.101 125.51 411.091 110.36 412.041 91.9298C412.381 85.3198 413.191 79.1898 414.301 74.0498C406.451 78.9598 398.851 85.2498 392.121 92.5198C394.931 98.6898 397.391 109.2 398.551 121.26C400.421 140.79 398.161 156.98 393.501 157.42C388.841 157.87 383.551 142.4 381.681 122.87C381.121 117.03 380.931 111.5 381.071 106.59C363.931 132.7 359.131 166.19 386.211 195C414.861 225.47 448.931 219.27 471.401 196.18C470.031 196.68 468.581 197.13 467.091 197.54L467.081 197.55ZM466.321 144.61C475.641 135.29 485.751 130.29 488.901 133.45C492.051 136.6 487.061 146.71 477.741 156.03C468.421 165.35 458.311 170.35 455.161 167.19C452.011 164.03 457.001 153.93 466.321 144.61ZM396.881 187.6C394.531 187.82 392.291 184.38 391.861 179.9C391.431 175.42 392.981 171.61 395.331 171.39C397.681 171.17 399.921 174.61 400.351 179.09C400.781 183.57 399.231 187.38 396.881 187.6ZM437.131 182.66C432.481 185.92 427.621 187.01 426.261 185.08C424.901 183.15 427.581 178.94 432.231 175.68C436.881 172.42 441.741 171.33 443.101 173.26C444.451 175.19 441.781 179.4 437.131 182.66ZM442.891 149.11C440.911 147.84 441.271 143.74 443.701 139.95C446.131 136.17 449.711 134.13 451.691 135.4C453.671 136.67 453.311 140.77 450.881 144.56C448.451 148.34 444.871 150.38 442.891 149.11Z" fill="#95A385"/>
<g style="mix-blend-mode:multiply" opacity="0.46">
<path d="M492.521 110.84C485.731 122.38 478.181 132.6 469.301 141.81C477.701 134.34 486.081 130.64 488.901 133.46C492.051 136.61 487.061 146.72 477.741 156.04C468.421 165.36 458.311 170.36 455.161 167.2C452.271 164.31 456.241 155.56 464.101 146.95C447.781 162.29 427.111 174.78 399.101 186.04C398.511 186.96 397.751 187.53 396.881 187.62C396.471 187.66 396.051 187.58 395.661 187.4C391.731 188.93 387.661 190.44 383.441 191.93C384.321 192.96 385.241 193.99 386.201 195.02C414.851 225.49 448.921 219.29 471.391 196.2C470.021 196.7 468.571 197.15 467.081 197.56C455.691 200.65 445.521 199.66 444.351 195.36C443.181 191.06 451.471 185.06 462.851 181.97C471.141 179.72 478.781 179.63 482.781 181.41C494.631 161.89 499.641 136.31 492.521 110.84ZM437.131 182.68C432.481 185.94 427.621 187.03 426.261 185.1C424.901 183.17 427.581 178.96 432.231 175.7C436.881 172.44 441.741 171.35 443.101 173.28C444.451 175.21 441.781 179.42 437.131 182.68Z" fill="#95A385"/>
</g>
<path d="M459.981 64.4395C418.211 149.639 408.531 181.719 401.351 207.559C394.171 233.399 367.051 402.109 367.051 402.109" stroke="#1B2735" stroke-linecap="round" stroke-linejoin="round"/>
<path d="M489.16 290.63C471.53 297.43 455.62 298.73 453.62 293.53C451.62 288.33 464.28 278.61 481.91 271.81C494.13 267.1 505.52 265.03 512.03 265.94C511.31 256.74 508.81 247.48 504.16 238.45C498.82 228.08 489.16 222.18 477.42 220.1C476.52 225.36 475 231.3 472.89 237.47C466.46 256.22 456.98 269.95 451.71 268.14C446.44 266.33 447.38 249.67 453.81 230.92C455.17 226.96 456.66 223.23 458.22 219.81C449.23 220.92 439.81 223.64 430.65 227.76C431.85 232.67 432.65 238.45 432.88 244.66C433.54 262.71 429.13 277.53 423.02 277.76C416.91 277.98 411.42 263.53 410.75 245.48C410.67 243.39 410.67 241.35 410.72 239.37C403.22 244.87 396.36 251.37 390.63 258.74C393.79 265.14 396.89 274.47 399.14 285.07C403.48 305.56 402.98 323.02 398.02 324.07C393.06 325.12 385.52 309.36 381.18 288.87C380.39 285.16 379.77 281.55 379.3 278.12C372.67 294.19 371.3 312.84 378.41 333.17C391.73 371.26 424.55 374.45 454.35 359.16C436.66 355.16 423.09 348.61 424.01 344.52C424.93 340.42 440.06 340.34 457.79 344.33C462.71 345.44 467.31 346.75 471.38 348.14C492.7 331.31 509.63 305.48 511.98 278.09C506.89 282.32 498.77 286.89 489.17 290.59L489.16 290.63ZM424.94 299.22C422.14 299.16 419.44 295.61 419.53 291.52C419.61 287.43 421.26 283.73 424.05 283.47C426.96 283.2 429.59 284.85 429.46 291.17C429.38 295.26 427.74 299.27 424.94 299.22ZM449.86 322.46C450.09 324.31 447.17 325.97 443.34 326.16C439.51 326.35 436.23 325 436 323.14C435.77 321.29 438.69 319.63 442.52 319.44C446.35 319.25 449.63 320.6 449.86 322.46ZM494.64 312.99C495.59 316.57 488.03 321.17 477.77 323.26C467.51 325.36 458.42 324.16 457.47 320.58C456.52 317 464.08 312.4 474.34 310.31C484.6 308.21 493.69 309.41 494.64 312.99Z" fill="#95A385"/>
<g style="mix-blend-mode:multiply" opacity="0.46">
<path d="M481.909 271.82C494.129 267.11 505.519 265.04 512.029 265.95C511.309 256.75 508.809 247.49 504.159 238.46C498.819 228.09 489.159 222.19 477.419 220.11C476.519 225.37 474.999 231.31 472.889 237.48C466.459 256.23 456.979 269.96 451.709 268.16C446.439 266.35 447.379 249.69 453.809 230.94C455.169 226.98 456.659 223.25 458.219 219.83C449.229 220.94 439.809 223.66 430.649 227.78C431.849 232.69 432.649 238.47 432.879 244.68C433.539 262.73 429.129 277.55 423.019 277.78C416.909 278 411.419 263.55 410.749 245.5C410.669 243.41 410.669 241.37 410.719 239.39C403.219 244.89 396.359 251.39 390.629 258.76C393.789 265.16 396.889 274.49 399.139 285.09C403.479 305.58 402.979 323.04 398.019 324.09C393.059 325.14 385.519 309.38 381.179 288.89C381.069 288.37 380.969 287.85 380.869 287.33L378.699 333.97C380.629 339.32 382.959 343.97 385.609 347.96C404.419 333.58 434.279 331.56 463.649 323.96C460.239 323.44 457.929 322.27 457.479 320.56C456.529 316.98 464.089 312.38 474.349 310.29C484.409 308.24 493.339 309.35 494.579 312.76C497.759 311.15 500.879 309.38 503.919 307.42C508.249 298.11 511.109 288.21 511.969 278.1C506.879 282.33 498.759 286.9 489.159 290.6C471.529 297.4 455.619 298.7 453.619 293.5C451.619 288.3 464.279 278.58 481.909 271.78V271.82ZM424.939 299.23C422.139 299.17 419.439 295.62 419.529 291.53C419.609 287.44 421.259 283.74 424.049 283.48C426.959 283.21 429.589 284.86 429.459 291.18C429.379 295.27 427.739 299.28 424.939 299.23ZM443.339 326.17C439.509 326.36 436.229 325.01 435.999 323.15C435.769 321.3 438.689 319.64 442.519 319.45C446.349 319.26 449.629 320.61 449.859 322.47C450.089 324.32 447.169 325.98 443.339 326.17Z" fill="#95A385"/>
</g>
<path d="M504.158 238.459C424.698 287.229 402.868 345.279 398.788 361.209C394.748 376.969 394.738 461.869 394.738 461.869" stroke="#1B2735" stroke-linecap="round" stroke-linejoin="round"/>
<path d="M370.72 337.46C366.61 354.67 359.22 367.3 353.68 366.14C347.82 364.91 346.25 348.73 350.17 329.99C352.21 320.25 355.34 311.74 358.69 305.98C352.37 293.81 344.4 282.31 335.54 272.51C336.86 277.6 337.9 283.47 338.5 289.76C340.43 309.93 337.16 326.74 331.2 327.31C325.24 327.88 318.84 312 316.91 291.83C315.49 277.04 316.88 264.06 320.07 257.96C314.6 253.67 308.98 250.12 303.34 247.5C303.62 259.74 300.08 269.41 294.75 269.92C288.79 270.49 282.85 259.39 281.48 245.12C281.39 244.22 281.33 243.33 281.28 242.46C274.94 242.66 268.8 244.44 263.09 248.14C255.93 252.77 250.72 258.98 247.2 266.27C252.53 269.08 259.08 273.83 265.59 279.84C278.67 291.91 286.65 304.54 283.42 308.04C280.19 311.54 266.97 304.59 253.89 292.51C249.48 288.43 245.65 284.3 242.63 280.47C241.05 288.92 241.02 298.17 242.29 307.73C248.21 309.49 255.96 313.19 263.93 318.3C279 327.98 289.14 339.08 286.56 343.09C283.99 347.1 269.68 342.49 254.61 332.81C251.7 330.94 248.97 329.02 246.48 327.1C249.12 336.01 252.7 344.89 257.03 353.38C261.66 352.19 269.75 353.32 278.28 356.71C290.33 361.5 298.67 368.97 296.91 373.39C295.15 377.81 283.96 377.52 271.91 372.73C270.29 372.09 268.74 371.39 267.27 370.67C276.58 384.28 287.77 395.81 299.76 403.21C300.22 402.85 300.68 402.5 301.16 402.15C310.53 395.37 320.87 393.67 324.26 398.35C326.48 401.42 325.16 406.48 321.35 411.51C332.82 413.21 344.43 410.47 355.39 401.71C373.76 387.01 376.84 362.71 370.73 337.46H370.72ZM297.58 297.62C294.77 297.89 292.14 294.43 291.7 289.9C291.27 285.37 293.19 281.48 296 281.21C298.81 280.94 301.44 284.4 301.88 288.93C302.31 293.46 300.39 297.35 297.58 297.62ZM320.85 380.58C319.91 383.24 315.66 384.17 311.37 382.65C307.08 381.13 304.36 377.74 305.31 375.08C306.26 372.42 310.5 371.49 314.79 373.01C319.08 374.53 321.8 377.92 320.85 380.58ZM334.76 352.61C332.35 352.84 330.05 349.35 329.62 344.82C329.19 340.29 330.79 336.43 333.19 336.2C335.6 335.97 337.9 339.46 338.33 343.99C338.76 348.52 337.16 352.38 334.76 352.61ZM354.43 380.68C353.47 384.06 350.88 386.28 348.64 385.65C346.4 385.02 345.35 381.76 346.31 378.39C347.27 375.01 349.86 372.79 352.1 373.42C354.34 374.05 355.39 377.31 354.43 380.68Z" fill="#95A385"/>
<g style="mix-blend-mode:multiply" opacity="0.46">
<path d="M368.468 375.37C367.828 367.5 366.878 360 365.668 352.89C361.858 361.59 357.358 366.91 353.678 366.14C347.818 364.91 346.248 348.73 350.168 329.99C351.458 323.85 353.168 318.2 355.108 313.42C349.918 300.01 343.798 289.52 337.578 282.44C337.948 284.8 338.268 287.25 338.508 289.77C340.438 309.94 337.168 326.75 331.208 327.32C325.248 327.89 318.848 312.01 316.918 291.84C316.238 284.72 316.208 278.02 316.718 272.31C305.768 275.43 298.478 295.31 302.068 336.2C303.308 350.32 305.438 362.37 308.198 372.64C309.998 372.08 312.398 372.16 314.798 373.01C319.088 374.53 321.808 377.92 320.858 380.58C319.918 383.24 315.668 384.17 311.378 382.65C311.338 382.63 311.298 382.62 311.248 382.6C312.938 387.44 314.778 391.81 316.748 395.75C320.108 395.53 322.828 396.35 324.278 398.35C325.918 400.61 325.628 403.96 323.838 407.57C324.968 409.14 326.118 410.6 327.278 411.97C336.798 412.08 346.328 408.96 355.398 401.7C361.748 396.62 366.268 390.39 369.218 383.37L368.478 375.37H368.468ZM334.758 352.61C332.348 352.84 330.048 349.35 329.618 344.82C329.188 340.29 330.788 336.43 333.188 336.2C335.598 335.97 337.898 339.46 338.328 343.99C338.758 348.52 337.158 352.38 334.758 352.61ZM354.428 380.68C353.468 384.06 350.878 386.28 348.638 385.65C346.398 385.02 345.348 381.76 346.308 378.39C347.268 375.01 349.858 372.79 352.098 373.42C354.338 374.05 355.388 377.31 354.428 380.68Z" fill="#95A385"/>
</g>
<path d="M258.328 251.69C277.048 264.42 336.528 385.81 345.958 407.72C355.388 429.62 354.788 467.24 354.788 467.24" stroke="#1B2735" stroke-linecap="round" stroke-linejoin="round"/>
</svg>
