<svg id="Layer_1" enable-background="new 0 0 512 512" viewBox="0 0 512 512" xmlns="http://www.w3.org/2000/svg" xmlns:xlink="http://www.w3.org/1999/xlink"><linearGradient id="SVGID_1_" gradientTransform="matrix(1 0 0 -1 0 512)" gradientUnits="userSpaceOnUse" x1="256" x2="256" y1="507.6" y2="8.18"><stop offset="0" stop-color="#f68c1e"/><stop offset="1" stop-color="#ff4b05"/></linearGradient><g id="Layer_2_00000069399838435917678940000005005294215742171045_"><g id="Layer_1_copy_3"><g id="_28"><path d="m341.6 0h-171.2c-94 0-170.4 76.4-170.4 170.4v171.2c0 94 76.4 170.4 170.4 170.4h171.2c94 0 170.4-76.4 170.4-170.4v-171.2c0-94-76.4-170.4-170.4-170.4zm-16.1 131.1c26.3 0 47.7 21.3 47.7 47.7s-21.3 47.7-47.7 47.7c-26.3 0-47.7-21.3-47.7-47.7.1-26.4 21.4-47.7 47.7-47.7zm-139 0c26.3 0 47.7 21.4 47.7 47.7s-21.4 47.7-47.7 47.7-47.7-21.4-47.7-47.7c.1-26.4 21.4-47.7 47.7-47.7zm173 260.6c-16.1 8.2-35.7 1.7-43.9-14.3-16.2-32-55.3-44.9-87.3-28.7-13 6.6-23.4 17.3-29.6 30.5-7.8 16.2-27.4 23-43.6 15.2-16-7.7-22.8-26.8-15.5-42.9 30.6-65.2 108.1-93.2 173.3-62.7 26.3 12.3 47.7 33.1 60.9 59 8.2 16.1 1.8 35.7-14.3 43.9z" fill="url(#SVGID_1_)"/></g></g></g></svg>