<svg width="600" height="600" viewBox="0 0 600 600" fill="none" xmlns="http://www.w3.org/2000/svg">
<rect width="600" height="600" fill="#FFA706"/>
<path d="M504.245 391.692L497.299 392.938C494.74 393.398 491.883 394.288 489.558 393.949C488.761 393.715 488.695 393.35 488.565 392.618C488.434 391.887 487.441 390.555 487.309 389.824C487.281 387.564 486.954 385.737 486.56 383.541C484.358 371.222 481.785 358.972 478.845 346.807C477.104 339.194 475.061 332.012 471.923 325.026C467.829 314.815 461.908 304.932 458.114 294.29C450.92 275.2 437.97 259.785 425.452 244.668C417.769 235.479 408.754 227.282 399.74 219.086C391.587 211.491 383.003 203.595 373.886 196.927C365.199 190.56 355.781 184.323 344.46 182.201C334.731 180.549 325.472 177.303 315.378 175.718C307.244 174.535 298.875 174.15 290.636 174.494C276.718 174.726 263.587 179.345 250.953 184.631C234.427 191.369 218.4 198.772 204.189 210.002C199.53 213.479 194.507 217.021 190.345 221.166C184.552 226.733 179.687 233.267 174.325 239.135C165.532 249.015 158.03 259.796 153.914 272.612C153.211 275.003 151.279 276.858 150.876 278.818C148.832 286.356 147.154 293.828 145.044 301C143.936 305.35 142.399 309.4 142.088 313.984C141.063 325.113 140.772 336.111 139.383 347.305C138.228 357.703 137.804 367.968 138.908 378.338C139.881 387.976 142.015 397.784 144.45 407.16C146.193 414.773 148.666 422.256 151.738 428.875C156.994 439.255 162.981 449.504 168.969 459.752C172.21 465.209 170.972 468.828 165.021 471.405C163.624 472.032 161.797 472.361 160.465 473.354C159.499 474.282 158.234 475.642 158.064 476.804C157.765 477.236 159.855 478.371 160.717 478.97C161.578 479.569 163.171 480.04 164.269 479.843C171.775 479.629 178.851 479.115 186.359 478.901C188.982 478.807 191.843 477.918 194.832 477.758C202.34 477.544 209.583 475.868 215.011 470.365C217.909 467.58 218.584 462.931 217.198 459.405C216.008 456.976 214.387 454.248 214.66 451.557C215.045 443.185 216.162 434.681 217.278 426.177C218.499 416.146 220.019 405.683 220.508 395.782C220.96 387.777 219.584 380.098 219.239 371.856C219.107 371.125 220.073 370.197 220.973 368.903C222.687 374.256 225.198 379.846 225.085 385.527C224.736 392.004 224.323 398.118 223.974 404.597C223.644 417.489 223.379 430.745 224.576 443.739C224.932 447.828 225.718 452.215 227.836 455.611C229.887 458.638 233.271 460.674 236.587 462.343C245.012 467.248 253.737 471.722 262.096 476.262C261.29 480.18 255.31 480.498 254.504 484.417C253.021 492.985 268.543 489.07 272.198 488.415C275.553 488.191 278.777 487.235 281.008 484.947C282.274 483.588 283.108 481.929 284.308 480.204C285.508 478.479 286.774 477.119 288.536 476.426C289.998 476.164 291.956 476.568 293.485 476.671C297.402 477.478 301.357 476.391 305.078 476.101C318.002 474.538 330.365 471.943 343.093 469.283C347.845 468.43 353.328 467.447 357.517 465.564C362.438 463.549 366.862 460.869 371.717 458.487C375.542 456.67 379.366 454.852 382.694 452.368C388.018 448.393 391.983 443.153 397.804 439.844C398.469 439.347 398.836 439.283 399.567 439.151C400.663 438.954 401.591 439.92 402.087 440.585C405.235 443.418 408.45 446.616 412.732 447.357C415.487 447.995 418.412 447.47 421.336 446.947C424.26 446.424 427.12 445.531 428.553 443.009C433.823 434.517 422.539 430.502 416.298 429.357C415.136 429.187 414.339 428.953 413.477 428.353C412.249 427.818 411.021 427.284 410.824 426.187C410.694 425.455 410.928 424.659 410.862 424.293C412.035 420.308 413.704 416.99 414.145 413.136C414.456 408.552 414.334 403.666 415.01 399.017C415.348 396.692 415.685 394.367 417.683 392.876C425.173 386.25 434.373 399.695 438.58 404.225C440.932 406.823 443.949 408.923 446.77 409.927C454.436 412.704 462.168 415.846 470.434 417.76C475.944 419.036 481.859 418.353 487.576 416.573C490.435 415.683 492.927 414.858 495.787 413.967C498.279 413.143 500.708 411.954 502.639 410.097C503.238 409.235 503.904 408.738 504.505 407.875C505.705 406.15 506.969 404.79 508.17 403.066L509.969 400.479C510.804 398.82 511.273 397.226 511.742 395.631C511.977 394.836 511.779 393.738 511.649 393.007C511.086 391.976 510.224 391.376 509.062 391.206C507.9 391.037 506.804 391.234 505.706 391.43L504.245 391.692Z" fill="#EB8A3F"/>
<path d="M355.518 332.316C344.606 338.802 333.696 345.288 322.223 350.743C314.941 354.314 307.527 357.153 299.419 358.23C293.871 358.847 287.826 358.8 282.08 358.321C263.748 357.079 245.483 356.203 227.15 354.962C223.054 359.471 220.616 364.815 219.405 370.693C219.303 372.222 218.834 373.815 219.461 375.213C219.723 376.675 220.717 378.006 221.709 379.338C226.01 386.492 226.186 395.896 225.005 404.034C223.887 412.538 221.243 420.938 220.856 429.31C220.443 435.422 221.557 441.638 222.306 447.921C222.896 451.212 223.186 454.934 224.872 458.028C228.245 464.217 235.911 466.994 242.715 469.17C250.681 471.515 258.347 474.292 266.313 476.638C263.051 479.487 259.789 482.337 256.16 485.252C255.495 485.748 255.196 486.179 254.962 486.976C255.092 487.708 255.222 488.439 256.02 488.673C260.527 492.772 267.472 491.525 273.189 489.746C277.444 488.228 282.927 487.245 285.562 482.998C286.397 481.339 287.231 479.679 288.928 478.621C289.593 478.124 290.324 477.992 290.689 477.926C292.152 477.664 293.248 477.467 294.476 478.002C296.069 478.471 296.734 477.974 298.497 477.281C301.721 476.326 304.776 476.532 308.131 476.308C336.201 475.048 363.299 464.149 388.045 450.652C392.834 447.906 398.355 445.03 400.858 440.051C404.869 443.483 408.514 446.981 413.425 449.12C418.269 450.893 424.314 450.941 428.242 447.594C432.169 444.247 432.752 436.973 428.441 433.971C424.496 430.906 417.186 432.216 415.538 427.229C414.911 425.831 415.378 424.238 415.548 423.074C417.134 412.977 418.719 402.88 420.239 392.417C420.643 390.458 420.68 388.564 420.287 386.371C419.5 381.982 415.191 378.98 411.911 375.418C408.2 371.553 405.39 366.397 402.645 361.606C394.972 348.263 387.664 334.854 382.417 320.321C379.252 311.076 377.152 314.095 371.358 319.662C367.758 324.837 361.637 328.576 355.518 332.316Z" fill="#C26822"/>
<path d="M263.292 478.688C261.464 479.015 259.936 478.913 258.906 479.475C255.446 481.227 250.759 482.446 250.58 487.761C250.374 490.818 255.312 495.216 259.164 495.657C271.582 497.581 284.385 491.133 289.926 479.95C292.551 479.856 295.606 480.063 298.231 479.969L344.485 472.806C361.43 470.522 374.805 460.952 388.678 452.048C393.768 448.871 397.93 444.727 401.857 441.381C405.371 444.148 408.586 447.346 412.399 449.68C414.92 451.115 417.911 450.956 421.031 451.529C428.37 452.478 434.397 446.112 433.452 438.733C432.441 430.99 423.782 426.881 416.276 427.095C414.016 427.122 411.86 425.622 409.302 426.082C409.433 426.813 409.227 429.869 409.357 430.6C411.681 430.938 413.941 430.911 416.265 431.249C419.752 431.756 423.238 432.262 426.189 433.997C427.914 435.198 429.599 438.292 429.627 440.552C429.591 442.445 427.293 444.368 425.662 445.792C423.299 447.348 421.173 448.108 418.417 447.469C416.028 446.765 413.572 445.695 411.416 444.195C409.262 442.694 407.471 441.129 405.682 439.563C404.82 438.963 403.893 437.996 403.396 437.331C402.899 436.665 402.402 436 401.605 435.764C400.443 435.596 398.381 436.721 397.415 437.649C389.654 446.966 378.979 452.655 369.164 458.945C365.406 461.128 361.581 462.947 357.261 464.099C347.052 466.691 336.754 468.915 326.387 470.768C315.056 472.8 303.593 474.102 292.196 475.768C290.002 476.162 287.143 477.052 285.512 478.476C279.382 486.37 271.237 489.341 261.34 488.851C259.813 488.747 258.453 487.481 257.16 486.581C258.126 485.654 258.96 483.993 260.356 483.366C264.247 481.914 267.836 480.893 271.791 479.805C272.523 479.675 273.123 478.812 274.088 477.884C273.226 477.283 272.599 475.887 271.802 475.652C268.616 474.714 265.194 474.572 262.374 473.568C261.577 473.334 260.415 473.165 259.984 472.865C259.187 472.63 258.69 471.965 257.829 471.364C256.601 470.83 255.438 470.661 254.342 470.857L253.246 471.055C252.88 471.119 252.581 471.552 252.645 471.917C252.711 472.283 252.711 472.283 253.142 472.582C253.639 473.249 254.501 473.848 255.364 474.449C255.795 474.749 255.86 475.114 256.291 475.415C256.722 475.715 257.087 475.649 257.884 475.884C258.681 476.118 259.111 476.419 259.974 477.018C260.405 477.318 261.633 477.853 263.292 478.688Z" fill="black"/>
<path d="M282.353 355.633C276.805 356.251 270.89 356.934 265.408 357.917C262.483 358.442 259.924 358.901 256.935 359.059C255.838 359.257 255.041 359.022 254.075 359.95C253.044 360.513 252.444 361.374 251.414 361.937C250.018 362.564 248.686 363.558 247.355 364.552C245.059 366.473 242.893 369.127 241.458 371.649C239.358 374.666 236.827 377.384 234.727 380.403C232.693 383.788 230.659 387.172 228.99 390.49C227.686 393.743 227.245 397.597 226.373 401.15C225.567 405.07 224.695 408.622 224.252 412.476C222.198 424.166 219.843 436.288 222.671 447.859C223.56 450.718 224.516 453.944 225.772 456.738C226.399 458.135 227.092 459.898 228.086 461.23C229.145 462.927 230.372 463.462 231.666 464.362C234.12 465.431 236.641 466.866 239.097 467.936C240.325 468.469 241.552 469.004 242.479 469.97C243.408 470.936 244.571 471.106 246.163 471.575C248.488 471.912 251.177 472.184 253.801 472.092C257.157 471.868 259.753 469.514 262.678 468.99C265.236 468.531 268.029 467.275 270.456 466.085C274.946 463.77 279.24 460.358 282.306 456.412C285.37 452.465 287.209 447.984 288.616 443.202C288.85 442.405 291.708 441.515 293.237 441.619C299.047 442.463 304.754 444.837 310.734 444.519C319.703 444.043 328.841 442.403 337.783 439.667C347.822 436.735 355.114 429.011 359.023 419.252C363.937 406.67 359.582 394.998 352.498 384.945C352.498 384.945 352.433 384.58 352.067 384.644C348.094 379.319 343.456 374.49 338.217 370.523C335.566 368.356 332.679 366.987 330.093 365.186C328.8 364.286 327.872 363.321 326.214 362.485L321.237 359.981C318.782 358.913 316.627 357.412 313.872 356.773C308.36 355.497 302.615 355.017 296.937 354.905C291.922 354.293 287.105 354.78 282.353 355.633ZM324.993 372.518C328.245 373.82 331.562 375.491 334.149 377.291C345.056 385.525 352.206 395.943 353.534 409.668C353.861 411.497 352.726 413.588 351.958 415.612C346.783 426.73 338.431 432.758 326.303 434.556C316.369 435.96 306.367 436.999 296.611 433.088C293.791 432.084 291.504 429.852 288.918 428.051C288.056 427.451 286.932 425.388 285.536 426.017C284.804 426.147 284.634 427.309 284.335 427.742C283.932 429.701 284.259 431.528 283.856 433.489C283.584 436.18 283.612 438.438 283.339 441.13C283.188 448.705 278.856 454.011 274.526 459.316C273.626 460.61 271.863 461.303 270.402 461.566C265.715 462.783 260.729 464.433 255.611 465.351C238.065 468.497 224.413 455.472 224.154 439.289C224.213 429.09 226.828 418.43 228.414 408.332C229.156 404.048 229.166 399.894 230.704 395.845C233.076 390.135 236.61 384.594 239.348 378.821C247.054 364.982 262.352 357.711 278.191 359.776C285.163 360.79 292.605 360.211 299.343 362.021C308.968 365.201 316.83 369.075 324.993 372.518Z" fill="#F194A6"/>
<path d="M501.25 282.142C498.1 279.31 495.083 277.208 495.326 272.259C495.7 268.04 492.382 266.37 488.361 267.091C483.244 268.007 482.747 267.341 483.355 262.325C483.73 258.107 479.353 254.74 475.528 256.557C470.739 259.302 466.447 262.712 461.788 266.188C459.792 267.677 458.293 269.832 456.061 272.119C452.021 266.427 448.411 261.035 444.869 256.009C440.763 249.951 436.657 243.893 431.951 238.698C424.031 230.304 415.744 221.974 407.158 214.078C398.585 206.513 389.84 199.144 380.931 191.979C368.099 181.446 353.298 174.661 336.595 171.99C323.809 170.129 310.922 169.795 298.099 169.826C292.419 169.712 286.373 169.662 280.394 169.978C274.047 170.359 267.533 171.904 260.953 173.082C256.933 173.802 253.277 174.457 249.322 175.543C245.731 176.563 242.639 178.248 239.181 180.001C232.563 183.072 226.011 186.51 220.322 190.547C217.661 192.535 215.429 194.821 213.132 196.742C210.836 198.662 208.044 199.917 205.382 201.903C193.938 209.613 184.35 219.256 175.624 229.499C170.695 235.666 165.398 241.897 161.266 248.298C156.833 255.13 152.766 261.897 149.56 269.264C146.421 276.997 144.574 285.63 141.866 293.664C138.352 305.614 135.203 317.501 134.445 330.09C134.343 331.619 133.507 333.278 133.104 335.235C131.878 334.7 131.081 334.466 130.584 333.801C127.339 328.343 121.331 326.4 115.819 325.122C112.267 324.249 108.116 324.237 104.459 324.892C102.998 325.155 100.766 327.441 100.297 329.034C99.1925 333.383 97.7593 335.905 92.5101 336.09C86.896 336.34 86.427 337.933 88.1431 343.288C88.8362 345.051 89.5953 347.179 90.7208 349.242C88.8934 349.569 87.0645 349.896 85.6679 350.524C83.9724 351.582 81.5442 352.772 81.0752 354.365C80.6737 356.325 81.9296 359.119 83.6544 360.319C96.2235 369.391 111.231 373.119 125.169 379.303C129.284 381.208 131.572 383.44 131.928 387.528C132.622 404.009 138.735 419.142 145.146 433.845C150.237 445.387 156.659 455.937 162.78 466.917C161.083 467.976 158.955 468.735 157.624 469.728C154.963 471.714 153.089 478.087 155.178 479.223C158.564 481.258 161.946 483.295 165.5 484.169C177.318 486.957 189.148 485.595 201.145 483.068C205.1 481.982 209.618 481.928 213.077 480.177C220.791 476.909 227.51 472.309 228.992 463.74C225.813 458.649 223.301 453.06 221.886 447.276C219.054 435.706 221.04 423.65 223.458 411.896C224.198 407.612 225.303 403.263 225.979 398.613C226.719 394.329 228.386 391.012 227.233 386.689C224.992 378.41 224.28 370.235 225.76 361.668C226.097 359.342 226.865 357.318 226.837 355.058C226.809 352.799 225.984 350.305 224.26 349.104C223.829 348.804 223.462 348.87 223.032 348.569C222.667 348.635 221.935 348.766 221.635 349.197C218.307 351.679 216.837 356.095 216.096 360.378C215.319 366.556 216.069 372.837 217.551 378.988C218.441 381.976 219.354 384.958 220.288 387.933C221.113 390.427 220.775 392.751 220.804 395.011C220.382 405.276 218.799 415.372 217.582 425.403C216.833 433.839 215.351 442.408 214.967 450.779C214.696 453.469 216.318 456.198 217.508 458.626C219.262 462.086 218.222 466.802 215.325 469.585C209.533 475.15 202.653 476.759 195.146 476.972C192.521 477.064 189.662 477.954 186.672 478.112C179.229 478.689 172.088 478.837 164.579 479.048C163.483 479.245 162.255 478.71 161.027 478.175C159.799 477.64 158.076 476.44 158.375 476.009C158.543 474.847 159.808 473.489 160.774 472.559C162.104 471.567 163.933 471.239 165.33 470.612C170.916 468.102 172.153 464.485 169.275 458.962C163.284 448.712 157.295 438.463 152.035 428.083C148.53 421.162 146.419 413.615 144.742 406.367C142.305 396.992 140.166 387.184 139.19 377.547C138.084 367.178 138.505 356.912 139.658 346.516C141.044 335.323 141.334 324.328 142.354 313.199C142.729 308.982 144.201 304.566 145.306 300.217C146.984 292.746 149.028 285.209 151.135 278.039C151.839 275.649 153.404 273.86 154.172 271.834C158.285 259.022 165.418 248.309 174.575 238.366C179.936 232.5 184.8 225.969 190.592 220.403C194.754 216.26 199.844 213.085 204.435 209.244C218.644 198.018 234.673 190.619 251.197 183.887C263.831 178.605 276.963 173.989 290.882 173.761C299.12 173.418 307.491 173.805 315.627 174.992C325.356 176.645 334.917 179.461 344.712 181.482C356.035 183.606 365.09 189.908 374.145 196.213C383.265 202.882 391.787 210.413 400.006 218.378C409.025 226.574 418.041 234.772 425.728 243.963C438.682 259.381 451.206 274.498 458.406 293.589C462.569 304.165 468.062 313.749 472.223 324.325C474.999 331.375 477.474 338.858 479.152 346.106C482.115 358.407 484.281 370.472 486.878 382.839C487.404 385.764 487.628 389.121 487.422 392.177C487.488 392.542 487.553 392.908 487.253 393.339C486.954 393.77 487.385 394.07 487.451 394.436C487.845 396.63 488.903 398.327 490.994 399.463C491.594 398.6 491.828 397.804 492.794 396.876L494.593 394.288C495.192 393.427 495.858 392.93 496.589 392.8C497.321 392.669 498.483 392.838 498.98 393.503C499.045 393.869 499.476 394.17 499.476 394.17L499.841 394.104C500.507 393.607 501.173 393.11 501.905 392.98C502.57 392.483 503.666 392.287 504.163 392.953C505.025 393.553 504.79 394.35 505.353 395.382C506.319 394.454 507.715 393.827 509.178 393.565C509.909 393.434 510.274 393.368 510.705 393.669C511.502 393.903 511.698 395.001 511.464 395.796C511.231 396.594 510.565 397.09 510.331 397.886C510.397 398.252 509.065 399.246 509.131 399.611C508.832 400.042 508.165 400.539 507.866 400.969C506.966 402.263 506.001 403.191 505.466 404.419C503.367 407.436 500.471 410.219 497.574 413.002C497.209 413.068 497.275 413.433 496.909 413.499C488.698 416.102 480.553 419.069 472.286 417.154C464.385 415.173 456.351 412.459 448.618 409.315C445.366 408.011 442.714 405.844 440.426 403.612C434.793 397.449 429.824 390.792 424.555 384.565C419.157 377.606 413.458 371.079 408.424 364.055C402.697 355.268 397.269 346.05 392.506 336.336C388.935 329.05 387.191 321.437 383.985 314.086C382.925 312.389 383.394 310.795 383.132 309.332C382.373 307.204 381.181 304.776 380.422 302.647C379.232 300.219 378.473 298.091 376.983 296.093C374.563 293.129 371.546 291.027 368.527 288.927C360.531 284.32 351.767 281.738 342.769 279.953C338.054 278.911 334.07 277.737 329.487 277.425C324.973 277.112 320.44 277.166 315.934 277.588C307.029 278.427 298.021 280.795 289.446 283.464C279.107 286.824 270.324 292.548 261.674 299.004C258.412 301.852 254.288 304.1 251.092 307.314C246.631 311.888 242.667 317.125 238.636 321.999C236.471 324.65 234.241 326.938 232.806 329.459C229.704 335.298 226.669 341.503 223.997 347.642C222.394 351.326 224.513 354.72 228.131 355.96C234.27 358.634 240.617 358.252 246.962 357.871L253.739 357.789L253.804 358.155C263.441 356.43 273.139 355.071 282.879 354.081C287.697 353.594 292.45 352.744 297.399 352.991C303.444 353.039 309.256 353.886 315.132 355.098C320.419 353.019 325.04 351.437 329.23 349.554C335.846 346.483 335.846 346.483 340.984 351.978C343.767 354.877 352.101 357.158 354.828 355.538C357.92 353.851 360.647 352.23 363.675 350.179C368.399 347.069 369.786 335.876 366.505 332.312C362.793 328.447 362.793 328.447 367.086 325.037C368.051 324.11 369.383 323.116 370.347 322.188L380.133 313.643C382.607 321.126 384.22 328.008 386.864 334.327C390.267 342.775 393.604 350.858 398.403 358.678C403.831 367.896 410.225 376.186 416.683 384.842C418.736 387.871 420.591 389.803 416.468 392.051C416.103 392.117 416.365 393.579 416.131 394.376C415.418 400.92 414.642 407.096 413.563 413.706C413.226 416.03 411.793 418.552 410.659 420.642C409.612 423.067 409.305 425.748 409.778 428.347L409.844 428.713L410.209 428.647C412.468 428.621 415.092 428.527 417.351 428.501C416.723 427.104 416.161 426.073 415.533 424.674C415.467 424.31 414.97 423.643 414.904 423.278C414.379 420.353 416.311 418.498 417.744 415.976C418.878 413.886 419.947 411.43 420.649 409.04C421.35 406.65 421.623 403.959 421.96 401.635C422.13 400.473 422.233 398.944 422.401 397.782C422.335 397.416 422.907 394.294 422.476 393.994C425.062 395.796 426.619 398.159 428.475 400.09C433.978 405.521 439.377 412.479 446.014 415.82C454.308 419.995 464.169 422.381 473.834 423.669C482.7 424.724 492.271 423.388 499.825 417.129C503.751 413.783 507.678 410.438 511.109 406.428C512.374 405.068 513.209 403.409 514.043 401.751C514.811 399.727 516.011 398.002 516.845 396.343C517.378 395.115 518.214 393.456 517.95 391.994C517.687 390.531 516.76 389.565 516.197 388.534C516.133 388.167 515.7 387.867 515.335 387.933C514.969 387.999 514.969 387.999 514.538 387.698C513.076 387.961 511.615 388.222 510.217 388.849C509.954 387.386 508.662 386.486 507.5 386.316C507.133 386.382 506.702 386.082 506.402 386.513C506.037 386.579 505.737 387.01 505.737 387.01C504.406 388.003 503.44 388.931 502.176 390.289L500.685 388.292C500.253 387.991 500.189 387.627 499.822 387.691L499.092 387.823C498.792 388.254 494.302 390.568 494.368 390.933L489.445 363.51C486.951 349.616 484.822 335.654 478.372 322.846C477.81 321.815 477.182 320.418 476.92 318.956C476.722 317.858 477.191 316.265 477.857 315.768C483.115 311.431 488.373 307.091 494.062 303.054C498.72 299.578 502.948 295.802 502.563 289.455C502.366 288.359 503.631 286.999 503.435 285.903C502.571 285.302 502.179 283.108 501.25 282.142ZM133.686 342.68C131.136 353.703 132.376 364.804 132.086 375.8C132.152 376.165 131.851 376.598 130.952 377.89C117.848 370.047 102.008 367.978 89.802 358.841C89.7375 358.476 90.0364 358.045 89.9045 357.312C92.0338 356.555 94.2276 356.162 96.288 355.038C97.985 353.98 100.413 352.79 100.582 351.628C100.75 350.464 98.5287 348.599 97.5337 347.267C97.0383 346.601 96.2411 346.367 95.548 344.604C96.7101 344.772 97.4399 344.642 98.6034 344.811C100.796 344.418 103.486 344.692 105.55 343.568C108.275 341.947 105.689 340.146 104.994 338.383C103.177 334.557 105.145 330.808 109.596 330.388C114.715 329.472 119.063 330.58 122.842 334.809C124.697 336.742 128.185 337.249 130.405 339.116C131.999 339.585 133.853 341.518 133.686 342.68ZM363.835 323.733C354.387 329.954 345.502 337.205 335.061 342.095C321.892 348.605 308.197 352.189 293.051 351.881C281.326 351.717 269.729 352.284 258.07 352.485C250.131 352.397 242.126 351.943 234.122 351.49C232.96 351.32 231.47 349.323 231.638 348.161C231.553 341.383 235.517 336.144 239.182 331.337C242.847 326.531 247.008 322.388 250.306 317.646C254.805 311.179 260.298 306.044 267.084 301.809C271.509 299.13 275.5 296.15 279.558 293.538C296.055 284.544 314.099 282.067 332.197 284.11C338.009 284.957 343.887 286.169 349.228 288.609C351.685 289.679 353.475 291.244 355.565 292.38C358.153 294.181 360.908 294.82 363.495 296.621C368.603 299.858 372.944 305.119 375.091 310.773C376.413 313.932 374.651 314.625 372.355 316.547C369.458 319.329 366.862 321.681 363.835 323.733ZM493.285 294.514C490.455 297.661 487.193 300.51 484.363 303.659C481.533 306.809 478.27 309.656 474.841 313.667C473.087 310.207 471.4 307.112 470.377 303.522C468.202 295.608 466.028 287.695 461.06 281.037C460.563 280.371 460.235 278.543 460.834 277.68C465.296 273.108 469.822 268.9 474.715 264.627C475.38 264.132 476.177 264.366 478.305 263.607C477.433 267.16 476.365 269.616 476.028 271.941C475.859 273.103 476.187 274.931 477.115 275.896C477.612 276.563 479.439 276.235 480.902 275.974C487.951 273.202 487.951 273.202 490.903 274.938C490.669 275.734 490.068 276.597 489.769 277.028C487.37 280.476 488.494 282.539 491.813 284.21C497.784 288.047 497.98 289.144 493.285 294.514Z" fill="black"/>
<path d="M292.907 454.509C292.54 454.575 292.24 455.006 291.941 455.438C290.506 457.96 293.524 460.06 295.417 460.098C296.944 460.201 298.341 459.573 299.438 459.377C300.169 459.245 300.468 458.814 301.134 458.318C301.839 457.765 302.361 457.014 302.634 456.162C303.234 455.299 303.835 454.437 304.003 453.273C304.172 452.111 303.975 451.014 303.478 450.348L303.048 450.048L302.683 450.114C300.19 450.939 297.395 452.195 294.969 453.385C294.303 453.882 293.572 454.012 292.907 454.509ZM367.243 427.212C367.674 427.511 367.674 427.511 368.039 427.446C369.214 427.794 370.453 427.862 371.659 427.646C372.865 427.43 374.004 426.935 374.985 426.201C376.981 424.71 377.985 421.888 377.226 419.76C377.161 419.394 377.095 419.029 376.729 419.093L376.298 418.793C374.771 418.69 373.805 419.618 372.839 420.546C371.509 421.539 370.243 422.899 368.912 423.893C368.247 424.39 367.215 424.952 366.981 425.748C366.68 426.18 366.812 426.912 367.243 427.212Z" fill="black"/>
<path d="M240.641 379.721C237.473 385.196 234.305 390.67 231.998 396.745C230.395 400.43 230.084 405.014 229.709 409.233C228.188 419.697 225.14 430.056 225.447 440.191C225.707 456.374 238.994 469.465 256.905 466.251C262.022 465.333 266.644 463.751 271.695 462.467C273.158 462.205 274.854 461.145 275.819 460.218C280.15 454.911 284.481 449.606 284.632 442.03C284.605 439.77 284.877 437.08 284.849 434.82C285.188 432.496 284.729 429.936 287.653 429.411C291.309 428.756 294.222 432.384 297.474 433.689C307.23 437.6 317.23 436.561 327.166 435.157C339.294 433.359 347.579 426.967 352.821 416.213C353.655 414.554 354.725 412.098 354.396 410.269C353.069 396.544 345.854 385.76 335.012 377.892C332.359 375.726 329.107 374.422 325.855 373.117C317.693 369.675 309.897 366.168 301.564 363.888C294.826 362.077 287.385 362.657 280.412 361.643C263.646 358.611 248.348 365.884 240.641 379.721ZM332.151 284.049C313.988 281.646 296.012 284.493 279.515 293.489C275.025 295.805 271.098 299.15 267.04 301.766C260.253 306.003 254.759 311.139 250.259 317.608C246.96 322.351 242.798 326.494 239.132 331.304C235.166 336.544 231.136 341.418 231.585 348.131C231.781 349.228 233.336 351.591 234.067 351.459C242.071 351.911 250.074 352.364 258.013 352.449C269.672 352.245 281.266 351.675 292.991 351.838C307.77 352.205 321.896 348.917 334.998 342.038C345.009 336.846 354.326 329.891 363.775 323.667C366.438 321.68 369.099 319.693 371.696 317.339C373.992 315.418 376.12 314.659 375.596 311.734C374.612 306.249 372.038 300.295 367.66 296.929C362.788 292.896 356.781 290.954 351.674 287.718C345.469 284.681 339.124 285.063 332.151 284.049Z" fill="#FFEDDC"/>
<path d="M123.103 334.373C119.326 330.143 114.978 329.037 109.861 329.954C105.475 330.741 103.439 334.125 105.258 337.951C105.951 339.714 108.536 341.514 105.809 343.136C103.747 344.26 101.423 343.923 98.8642 344.382C97.768 344.578 96.6059 344.409 95.8087 344.175C96.4359 345.571 97.2991 346.172 97.7958 346.838C99.1543 348.104 101.01 350.035 100.841 351.197C100.737 352.726 98.3087 353.916 96.5473 354.609C94.4854 355.734 92.2916 356.127 90.1638 356.886C90.2297 357.253 89.9293 357.683 90.0612 358.415C102.263 367.549 118.037 369.249 131.202 377.455C131.737 376.227 132.402 375.73 132.336 375.364C132.63 364.367 131.394 353.267 133.945 342.241C134.114 341.078 132.26 339.147 130.966 338.246C128.446 336.811 124.958 336.304 123.103 334.373ZM491.152 284.966C487.835 283.297 486.344 281.3 489.111 277.784C489.711 276.921 489.945 276.125 490.245 275.693C487.293 273.958 487.358 274.324 480.244 276.732C479.213 277.295 477.32 277.257 476.458 276.657C475.529 275.692 475.203 273.863 475.371 272.701C475.644 270.009 476.712 267.553 477.65 264.365C475.822 264.693 474.726 264.89 474.061 265.387C469.533 269.595 464.64 273.87 460.177 278.445C459.512 278.942 459.84 280.769 460.402 281.801C465.368 288.459 467.541 296.372 469.713 304.285C470.668 307.511 472.786 310.905 474.172 314.431C478.035 310.719 480.867 307.57 483.698 304.419C486.529 301.268 489.791 298.421 492.622 295.27C497.918 289.036 497.722 287.94 491.152 284.966Z" fill="#EB8A3F"/>
<path d="M345.201 342.095C342.904 344.017 340.843 345.141 340.674 346.303C340.44 347.101 341.367 348.066 341.864 348.733C342.792 349.699 343.587 349.933 344.515 350.899C345.809 351.799 347.402 352.268 348.864 352.005L349.596 351.875C349.596 351.875 349.961 351.809 349.895 351.444C350.495 350.581 351.161 350.084 351.395 349.287C351.63 348.49 351.498 347.759 351.367 347.027C351.237 346.296 350.806 345.997 349.943 345.396C348.52 344.085 346.924 342.974 345.201 342.095ZM358.322 341.63C358.389 341.995 358.389 341.995 358.322 341.63C360.478 343.131 362.502 343.9 365.061 343.441L365.427 343.375C365.295 342.644 365.464 341.482 365.333 340.749L364.808 337.824C364.049 335.697 361.829 333.83 359.205 333.923L358.108 334.12L357.808 334.552L356.401 339.332C356.467 339.699 356.167 340.129 356.598 340.43C356.729 341.161 357.525 341.396 358.322 341.63ZM354.451 349.492C354.583 350.223 354.347 351.021 354.543 352.118L357.103 351.658C357.834 351.528 358.866 350.965 359.531 350.468C360.236 349.916 360.758 349.165 361.032 348.313L360.9 347.581C360.834 347.215 360.403 346.916 359.973 346.616C359.111 346.015 357.883 345.48 356.721 345.311L356.354 345.377L355.989 345.443C355.323 345.94 354.657 346.437 354.423 347.232C354.188 348.03 354.32 348.761 354.451 349.492Z" fill="#F194A6"/>
<path d="M305.091 417.222C306.357 415.862 308.054 414.804 309.815 414.109C312.608 412.854 315.898 412.264 318.823 411.74C321.747 411.215 324.672 410.691 327.361 410.963C331.879 410.907 334.361 414.237 334.052 418.821C333.882 419.984 334.08 421.081 333.846 421.878C333.311 423.106 332.214 423.302 331.249 424.23C330.882 424.296 330.583 424.727 330.217 424.793C328.82 425.421 326.993 425.748 325.465 425.645C323.573 425.607 322.11 425.87 320.217 425.832C316.795 425.691 313.375 425.549 309.822 424.677C308.23 424.208 306.206 423.439 304.912 422.537C304.05 421.938 303.487 420.906 303.722 420.109C303.525 419.013 304.06 417.785 305.091 417.222ZM260.043 433.229C261.219 432.693 262.373 432.108 263.501 431.476C265.264 430.783 268.019 431.422 269.874 433.354C270.802 434.319 270.502 434.75 270.333 435.912C270.165 437.076 269.93 437.872 269.395 439.1C268.495 440.394 267.53 441.323 266.199 442.316C265.233 443.244 264.268 444.172 262.871 444.8C260.809 445.924 258.813 447.415 257.181 448.839C253.253 452.186 248.436 452.673 243.788 451.997C240.3 451.49 239.346 448.265 241.877 445.546C243.142 444.186 244.839 443.127 246.47 441.702L253.557 437.035C254.587 436.472 255.919 435.479 257.315 434.851C257.614 434.419 257.981 434.355 258.346 434.289C258.58 433.491 259.311 433.361 260.043 433.229Z" fill="#EF92A4"/>
<path d="M309.973 417.102C309.672 417.533 309.306 417.599 309.007 418.03C307.741 419.39 308.799 421.087 310.327 421.189C313.082 421.828 315.773 422.101 318.398 422.007C321.387 421.849 324.377 421.689 327.236 420.799C328.332 420.603 329.298 419.674 329.833 418.446C330.666 416.787 330.039 415.39 328.146 415.352C325.886 415.38 323.197 415.108 320.572 415.201C318.314 415.228 316.487 415.556 314.227 415.584C313.131 415.78 311.969 415.612 311.237 415.742C310.637 416.605 310.272 416.671 309.973 417.102ZM267.343 436.071C267.278 435.704 267.643 435.638 267.577 435.274C267.511 434.909 267.081 434.608 266.65 434.308L266.219 434.007L265.488 434.139C264.025 434.401 262.629 435.029 261.298 436.022C260.268 436.585 259.302 437.513 258.27 438.076C255.477 439.331 252.814 441.319 250.021 442.574C248.691 443.568 246.929 444.261 245.597 445.255C244.932 445.752 244.397 446.98 244.894 447.645C245.887 448.977 248.446 448.518 249.909 448.256C251.67 447.561 253.367 446.503 254.698 445.51C256.03 444.516 257.426 443.887 258.823 443.26C260.518 442.201 262.582 441.077 263.846 439.717C264.447 438.855 265.477 438.292 266.078 437.429C266.744 436.932 267.108 436.868 267.343 436.071Z" fill="#C06822"/>
<path d="M271.084 164.862C273.549 166.25 276.6 167.957 279.541 169.786C284.726 173.238 289.912 176.692 294.988 180.265C301.605 185.035 306.347 191.603 309.515 198.925C311.93 204.672 309.999 210.598 306.527 215.329C302.078 221.361 296.014 224.363 288.105 224.349C275.152 224.312 263.95 219.503 254.227 211.651C247.95 206.752 241.982 201.038 238.904 193.139C238.648 192.462 238.39 191.785 238.242 190.988C237.253 183.691 237.297 176.465 239.291 169.276C241.867 159.538 251.421 157.766 259.306 159.961C262.924 161.531 266.541 163.1 271.084 164.862Z" fill="#FFAA00"/>
<path d="M307.888 176.288C310.524 176.294 313.169 176.527 315.806 176.533C328.869 176.451 341.94 176.596 354.993 176.284C362.435 176.09 369.838 174.979 377.252 174.1C382.385 173.543 383.987 173.476 390.032 175.519C390.476 172.405 389.466 170.154 386.82 169.921C380.485 169.15 374.02 168.042 367.732 168.419C348.421 169.792 329.27 169.554 309.954 168.062C307.885 167.919 305.706 167.894 303.528 167.87C303.399 167.532 303.27 167.192 303.031 166.974C307.176 164.623 311.181 161.705 315.69 159.913C321.106 157.854 327.018 156.692 332.711 155.767C336.353 155.158 340.277 153.046 344.143 155.064C344.49 155.165 345.139 154.22 345.707 154.082C346.806 153.904 347.927 153.896 349.029 154.059C350.411 154.232 351.923 154.742 353.405 154.566C355.345 154.371 357.248 153.26 359.197 153.294C363.427 153.003 367.665 152.942 371.922 153.339C374.218 153.474 376.317 154.303 378.405 154.906C382.58 156.107 386.765 157.539 390.722 158.98C392.352 159.601 393.983 160.221 395.284 161.198C398.592 163.584 401.909 166.198 405.107 168.701C406.528 169.79 406.823 171.383 405.16 172.712C402.169 175.245 399.179 177.777 396.071 180.198C391.069 183.96 385.949 187.613 380.59 191.044C378.358 192.512 375.769 193.652 373.272 194.215C362.473 196.382 351.627 197.405 340.887 195.443C329.222 193.289 318.587 188.341 310.319 179.626C309.594 178.74 308.531 177.981 307.469 177.223C307.678 176.754 307.668 176.527 307.888 176.288Z" fill="#008D45"/>
<path d="M291.829 142.786C294.911 134.174 298.101 125.443 301.065 116.72C301.885 114.393 302.652 113.56 305.317 114.251C310.417 115.645 315.389 116.7 320.6 117.973C322.687 118.576 322.901 120.975 321.147 122.883C318.634 125.853 316.002 128.714 313.489 131.684C310.547 135.36 307.486 138.926 304.782 142.822C303.484 144.711 303.012 147.137 301.954 149.246C301.214 150.767 300.594 152.397 299.617 153.7C297.671 156.532 295.377 159.264 293.084 161.995C291.878 163.307 291.066 165.864 288.254 164.374C284.379 162.127 283.892 161.459 285.233 157.85C286.272 155.285 287.193 152.609 288.233 150.043C289.282 147.707 290.442 145.251 291.829 142.786C291.719 142.905 291.601 142.795 291.829 142.786Z" fill="#C06822"/>
<path d="M309.119 225.423C316.348 217.326 320.221 205.701 316.92 195.176C316.791 194.837 317.12 194.48 317.44 193.892C320.481 195.372 323.521 196.851 326.435 197.991C334.586 201.093 342.966 204.185 351.9 204.043C356.824 203.955 361.5 203.416 366.406 202.868C376.556 201.646 386.191 199.067 394.282 192.427C396.275 190.738 398.387 189.16 400.38 187.473C401.926 186.033 403.122 184.493 404.786 183.162C409.001 179.777 412.987 176.402 417.083 172.907L417.521 172.431C417.622 172.082 417.375 171.633 417.246 171.295C414.548 167.051 411.092 163.869 407.399 160.468C403.834 157.405 399.41 155.754 395.106 154.214C382.192 149.589 368.898 146.816 355.259 146.809C345.977 146.848 336.633 148.154 327.38 148.881C320.404 149.285 313.945 151.044 308.524 155.739C308.304 155.978 307.618 156.006 306.483 156.283C307.232 154.99 307.542 154.176 308.082 153.351C309.469 150.886 311.653 148.273 312.226 145.496C312.797 142.722 314.534 140.356 316.161 138.11C319.612 132.922 323.422 128.064 326.756 122.767C327.934 120.769 329.202 118.194 328.082 116.062C327.458 114.827 326.167 114.078 325.104 113.319C323.812 112.572 322.749 111.812 321.347 111.182C318.655 109.803 316.209 108.873 313.206 108.31C310.551 107.845 308.058 105.772 305.832 104.602C303.139 103.225 300.202 104.262 299.062 107.176C297.612 110.905 296.162 114.635 294.831 118.473C294.11 120.451 293.619 122.421 293.128 124.39C292.417 126.599 291.944 129.026 290.996 131.014C288.367 136.741 285.272 142.257 282.763 148.094C281.195 151.714 280.093 155.543 278.871 159.262C273.881 157.75 268.312 156.147 262.974 154.533C255.547 152.319 248.048 151.139 240.63 154.656C240.291 154.785 239.944 154.686 239.724 154.924C239.386 155.052 239.185 155.749 238.737 155.997C238.079 156.712 237.183 157.208 236.405 157.814C232.859 160.711 230.384 164.599 228.376 168.694C228.065 169.51 227.526 170.335 227.098 171.04C226.787 171.855 226.716 172.891 226.754 173.805C226.601 175.647 226.676 177.478 226.862 179.189C227.538 184.436 229.349 189.405 231.946 193.999C235.91 201.171 241.219 207.601 246.31 214.269C248.244 216.711 250.856 218.896 253.45 220.623C258.634 224.077 263.831 227.76 269.956 228.995C270.075 229.105 270.075 229.105 270.304 229.097C275.691 231.853 281.506 233.906 287.612 234.684C290.149 235.037 293.609 235.583 295.978 234.681C298.568 233.543 301.376 232.164 303.597 230.467C304.484 229.743 305.262 229.138 306.03 228.302C307.145 227.568 308.133 226.495 309.119 225.423ZM315.807 160.024C321.224 157.965 327.135 156.802 332.827 155.878C336.469 155.269 340.393 153.157 344.259 155.175C344.606 155.275 345.256 154.331 345.823 154.193C346.922 154.015 348.043 154.007 349.145 154.17C350.528 154.341 352.039 154.853 353.521 154.677C355.461 154.482 357.364 153.371 359.314 153.405C363.543 153.115 367.781 153.053 372.037 153.449C374.334 153.584 376.433 154.414 378.52 155.017C382.696 156.218 386.882 157.65 390.838 159.091C392.468 159.711 394.099 160.332 395.4 161.309C398.708 163.695 402.025 166.308 405.223 168.812C406.643 169.9 406.939 171.494 405.274 172.823C402.285 175.356 399.295 177.886 396.187 180.309C391.186 184.071 386.064 187.723 380.706 191.155C378.474 192.623 375.885 193.763 373.388 194.324C362.589 196.492 351.743 197.515 341.004 195.552C329.339 193.398 318.705 188.451 310.435 179.737C309.711 178.851 308.647 178.092 307.585 177.334C307.576 177.104 307.794 176.865 307.785 176.636C310.422 176.642 313.067 176.877 315.703 176.881C328.765 176.799 341.837 176.944 354.889 176.632C362.331 176.439 369.734 175.328 377.148 174.449C382.283 173.892 383.885 173.826 389.928 175.867C390.372 172.753 389.363 170.504 386.716 170.269C380.381 169.5 373.917 168.392 367.628 168.767C348.317 170.14 329.168 169.903 309.852 168.411C307.783 168.267 305.603 168.244 303.424 168.219C303.297 167.88 303.168 167.542 302.929 167.322C307.402 164.614 311.288 161.586 315.807 160.024ZM291.598 142.798C294.886 134.209 298.005 125.555 300.952 116.843C301.773 114.516 302.541 113.681 305.205 114.374C310.306 115.766 315.278 116.821 320.488 118.096C322.576 118.697 322.79 121.096 321.035 123.004C318.523 125.975 315.889 128.837 313.378 131.806C310.435 135.482 307.374 139.048 304.67 142.943C303.373 144.833 302.9 147.259 301.842 149.367C301.103 150.889 300.482 152.518 299.504 153.821C297.56 156.654 295.266 159.385 292.971 162.117C291.765 163.428 290.955 165.986 288.143 164.495C284.267 162.249 283.781 161.58 285.121 157.971C286.161 155.407 287.082 152.731 288.122 150.166L291.598 142.798ZM287.872 224.354C274.92 224.319 263.718 219.51 253.995 211.658C247.717 206.759 241.75 201.043 238.672 193.146C238.414 192.469 238.158 191.792 238.01 190.995C237.021 183.698 237.065 176.474 239.059 169.283C241.635 159.545 251.188 157.773 259.073 159.968C262.9 161.07 266.639 162.75 271.061 164.401C273.526 165.789 276.576 167.498 279.517 169.325C284.703 172.778 289.889 176.232 294.966 179.805C301.581 184.576 306.323 191.143 309.491 198.464C311.908 204.212 309.976 210.138 306.505 214.869C301.855 221.596 295.791 224.599 287.872 224.354Z" fill="#96FF00"/>
<path d="M288.223 188.34C287.984 188.121 287.637 188.021 287.288 187.92C286.95 188.049 286.611 188.178 286.391 188.417L284.198 190.8C283.979 191.037 283.76 191.276 283.66 191.623C283.459 192.319 283.607 193.118 284.193 193.436C284.551 193.766 285.127 193.856 285.585 193.837C286.391 193.918 287.316 194.11 287.993 193.852C288.899 193.585 290.672 192.136 290.972 191.091C291.164 190.166 289.167 188.988 288.223 188.34ZM299.498 192.114C299.27 192.124 298.931 192.253 298.701 192.262C298.024 192.52 297.009 192.907 296.689 193.493C296.16 194.547 297.223 195.304 297.938 195.964L298.177 196.184C298.295 196.292 298.524 196.283 298.644 196.393C299.019 196.423 299.395 196.369 299.747 196.236C300.098 196.102 300.415 195.892 300.675 195.621C301.661 194.548 301.329 192.039 299.498 192.114ZM303.376 202.731C303.037 202.86 302.579 202.878 302.479 203.227C302.376 203.526 302.39 203.853 302.517 204.142C302.775 204.819 302.913 205.388 303.279 205.945C303.656 206.733 304.142 207.4 304.948 207.482C305.754 207.564 306.302 206.966 306.741 206.49C307.179 206.014 307.618 205.538 307.589 204.849C307.495 202.56 305.306 202.308 303.376 202.731ZM288.922 202.415C289.393 202.523 289.827 202.752 290.182 203.079C290.537 203.405 290.802 203.819 290.949 204.279C291.343 205.524 291.062 207.026 289.947 207.761C289.17 208.366 287.219 208.332 286.513 207.903C285.451 207.144 285.622 205.762 286.153 204.708C286.472 204.122 287.111 202.948 287.669 202.58C288.236 202.442 288.575 202.315 288.922 202.415ZM299.473 213.672C299.145 214.028 298.458 214.058 297.523 213.637C296.904 213.287 296.374 212.799 295.974 212.211C295.479 211.314 295.76 209.812 296.666 209.544C297.114 209.298 298.826 209.112 299.194 209.67C300.046 210.895 300.36 212.948 299.473 213.672ZM271.856 213.782L272.076 213.543C272.852 212.938 274.217 212.652 275.042 213.192C276.095 213.721 276.519 215.654 275.522 216.496C274.754 217.331 272.943 217.865 272.108 217.097C271.494 216.09 271.437 214.717 271.856 213.782ZM275.395 205.154C274.552 204.157 275.263 201.949 275.692 201.242C276.012 200.656 277.504 200.709 277.98 201.147C278.924 201.796 278.661 203.756 278.471 204.682C278.16 205.498 276.101 205.583 275.395 205.154ZM267.043 208.252L266.935 208.369C266.275 209.085 264.316 208.823 263.492 208.284C262.557 207.863 262.363 205.923 263.378 205.536C264.275 205.041 265.776 205.322 266.7 205.513C267.635 205.933 267.582 207.426 267.043 208.252ZM290.906 219.871C290.577 220.229 289.872 219.799 289.066 219.719C288.837 219.727 288.717 219.618 288.489 219.628C286.967 218.888 286.882 216.829 288.585 216.413C290.625 215.87 291.15 217.453 291.106 219.175C291.006 219.522 291.015 219.752 290.906 219.871Z" fill="#EA5A28"/>
</svg>
