<svg width="1440" height="1024" viewBox="0 0 1440 1024" fill="none" xmlns="http://www.w3.org/2000/svg">
<g clip-path="url(#clip0_427_6)">
<path d="M1440 0H0V1024H1440V0Z" fill="#F05A28"/>
<path d="M260.915 78.6129C274.429 72.7229 293.028 61.6029 307.674 60.1369L344.626 39.6089C365.842 25.4639 395.192 19.3019 418.529 8.92986C470.299 -14.0791 528.22 -23.0061 582.643 -37.2601C612.103 -44.9751 643.189 -46.8571 673.083 -52.7701C690.685 -56.2511 710.033 -59.5301 728.054 -58.9281C800.683 -56.5081 872.72 -50.0741 944.517 -38.8561C963.918 -35.8251 982.398 -28.0401 1001.43 -23.0031L1001.57 -22.9651C1033.21 -14.5911 1065.74 -5.97914 1095.86 6.76286C1120.4 17.1469 1147.38 26.2608 1169.88 40.6348C1203.05 61.8288 1234.99 84.3148 1265.79 108.95C1294.98 132.302 1320.92 157.787 1345.28 186.046C1357.97 200.767 1374.23 211.836 1387.25 226.305C1400.96 241.537 1405.95 260.029 1405.95 279.907C1405.95 300.039 1401.85 319.377 1401.85 339.326C1401.85 363.565 1405.95 387.244 1405.95 411.633C1405.95 505.963 1410.77 610.47 1362.39 696.068C1350.23 717.586 1334.81 736.396 1324.75 759.25C1317.32 776.143 1309.42 793.11 1301.14 809.659C1292.7 826.538 1287.46 847.209 1276.62 862.691C1261.52 884.27 1243.7 903.178 1228.38 924.391C1210.06 949.757 1188.69 977.134 1165.54 998.18C1151.12 1011.29 1128.72 1018.71 1111.48 1027.49C1095.88 1035.44 1081.77 1044.55 1064.72 1049.62C1035.99 1058.15 1006.6 1064.43 978.503 1073.79C958.714 1080.39 939.365 1078.85 918.514 1080.52C882.432 1083.41 845.939 1082.46 809.599 1082.46C760.239 1082.46 712.532 1074.4 663.503 1068.09C563.244 1055.19 462.54 1038.21 371.313 992.592C348.489 981.18 325.798 964.607 306.306 948.113C259.523 908.528 213.959 868.011 168.08 827.451C140.7 803.245 116.47 774.218 95.2031 744.652C70.3231 710.061 61.6241 671.302 47.0751 632.201C34.3721 598.06 27.2891 563.256 22.3271 527.277C14.8981 473.418 15.2581 419.927 37.7231 370.005C46.2191 351.127 56.0531 333.2 65.4371 314.692C70.2431 305.213 73.9431 294.831 79.8071 285.952C84.2731 279.189 90.3971 273.923 94.6331 267.02C112.301 238.228 130.425 211.403 145.498 181.256C151.466 169.32 157.817 158.042 164.43 146.358C174.165 129.16 193.631 116.474 209.137 104.844C224.661 93.2009 243.24 86.3169 260.915 78.6129Z" fill="#FB6534"/>
<path d="M492.834 146.911C515.315 134.404 544.3 137.049 569.182 136.641L593.122 123.264C632.177 97.1914 649.215 61.8014 702.962 71.3694C716.691 73.8144 731.031 73.9354 744.44 78.1024C760.356 83.0484 776.353 90.0644 792.756 93.0514C813.037 96.7434 833.735 95.5614 854.29 95.5614C902.342 95.5614 955.505 89.5734 1001.97 103.321C1067.66 122.756 1139.82 161.355 1168.57 227.473C1180.43 254.752 1186.12 286.084 1186.58 315.795C1187.27 360.742 1192.37 403.518 1174.72 446.338C1164.66 470.76 1141.45 489.296 1141.45 517.087C1141.45 543.987 1151.71 569.571 1151.71 596.736C1151.71 636.81 1147.65 672.622 1139.4 711.76C1131.06 751.301 1117.1 791.18 1090.06 821.649C1045.7 871.619 971.914 894.566 906.822 894.566C876.396 894.566 839.683 889.825 811.33 878.134C788.224 868.607 772.759 864.706 749.796 875.053C739.389 879.743 730.208 887.057 720.51 892.969C705.571 902.075 690.462 909.918 674.977 917.955L672.992 918.986C658.151 926.692 637.866 927.434 621.6 929.028C603.734 930.778 584.658 928.32 567.017 925.376C525.683 918.478 484.441 893.921 455.23 864.669C442.946 852.368 434.401 837.695 425.147 823.133C419.78 814.687 411.57 808.678 405.205 801.109C396.417 790.659 385.187 782.262 378.426 770.413C374.695 763.875 363.091 759.689 357.459 754.438C349.323 746.852 339.138 742.253 331.022 734.126C302.682 705.746 276.466 676.019 264.588 636.675C252.135 595.425 259.062 554.656 272.793 514.462C285.162 478.255 300.064 442.485 304.585 404.003C309.212 364.62 314.909 322.816 334.441 287.61C358.452 244.329 385.003 207.167 428.907 182.742C450.257 170.864 471.487 158.787 492.834 146.911Z" fill="#F05A28"/>
<path d="M694.109 296.294C681.179 287.668 664.179 282.57 648.986 279.44C634.877 276.533 621.158 284.255 608.64 290.005C586.76 300.056 571.456 317.395 558.364 337.048C543.424 359.473 535.739 382.671 535.739 409.499C535.739 425.913 539.693 441.535 540.264 457.548C540.601 466.994 541.471 478.109 538.002 486.981C524.807 520.726 514.984 553.448 519.4 590.123C525.448 640.364 561.858 668.366 603.612 688.485C665.865 718.48 729.741 728.498 797.678 713.39C819.031 708.641 829.88 676.661 850.72 676.661H851.53C889.381 676.663 924.623 676.664 949.261 644.964C976.174 610.336 985.043 561.615 977.415 518.678C974.938 504.733 972.206 488.11 965.098 475.661C960.891 468.293 954.769 458.908 954.288 450.253C952.724 422.075 955.068 393.083 954.288 364.217C953.565 337.411 931.397 304.343 909.543 289.502C888.88 275.471 867.141 266.861 841.67 266.861C833.311 266.861 821.577 264.882 813.515 267.364C805.325 269.886 797.543 273.323 788.629 273.654C758.361 274.775 738.235 296.294 707.317 296.294H694.109Z" fill="#F05A28"/>
</g>
<defs>
<clipPath id="clip0_427_6">
<rect width="1440" height="1024" fill="white"/>
</clipPath>
</defs>
</svg>
