<svg width="1080" height="1080" viewBox="0 0 1080 1080" fill="none" xmlns="http://www.w3.org/2000/svg">
<rect width="1080" height="1080" fill="white"/>
<path d="M446.49 580V474.993H487.293C505.444 474.993 519.245 488.794 519.245 506.495C519.245 523.896 505.444 537.847 487.293 537.847H462.241V580H446.49ZM486.093 488.794H462.241V524.346H486.093C496.444 524.346 503.344 516.546 503.344 506.645C503.344 496.594 496.444 488.794 486.093 488.794ZM598.206 541.747C598.206 563.799 579.905 581.8 557.103 581.8C534.301 581.8 516 563.799 516 541.747C516 519.696 534.301 501.844 557.103 501.844C579.905 501.844 598.206 519.696 598.206 541.747ZM583.055 541.747C583.055 527.046 571.504 515.345 557.103 515.345C542.702 515.345 531.151 527.046 531.151 541.747C531.151 556.598 542.702 568.299 557.103 568.299C571.504 568.299 583.055 556.598 583.055 541.747ZM683.772 580H668.771V570.399C661.87 577.45 652.269 581.8 641.619 581.8C618.967 581.8 601.266 563.949 601.266 541.897C601.266 519.696 619.117 501.844 641.619 501.844C652.119 501.844 661.72 506.045 668.621 513.095V474.993H683.772V580ZM668.921 541.897C668.921 527.046 657.22 515.345 642.669 515.345C628.118 515.345 616.417 527.046 616.417 541.897C616.417 556.598 628.118 568.449 642.669 568.449C657.22 568.449 668.921 556.598 668.921 541.897ZM711.96 589.001L716.16 578.5L684.358 503.495H700.709L723.96 560.199L746.462 503.495H762.213L725.611 593.951C720.81 605.352 714.81 610.152 703.559 610.152H693.508V597.251H700.559C706.259 597.251 709.559 595.001 711.96 589.001Z" fill="#101010"/>
<path d="M415.853 474.344H340.743C332.719 474.344 328.7 484.045 334.373 489.72L369.669 525.023C375.343 530.698 371.324 540.4 363.299 540.4H328.459C323.484 540.4 319.451 544.433 319.451 549.407V597.894C319.451 605.923 329.162 609.94 334.834 604.258L356.377 582.677C358.067 580.984 360.351 580.033 362.742 580.033H424.758C425.645 580.033 425.238 520.189 424.855 483.229C424.803 478.295 420.787 474.344 415.853 474.344Z" fill="#101010"/>
<circle cx="375.254" cy="558.725" r="4.68783" fill="white"/>
<circle cx="389.317" cy="558.725" r="4.68783" fill="white"/>
<circle cx="403.381" cy="558.725" r="4.68783" fill="white"/>
</svg>
