<svg width="128" height="128" viewBox="0 0 128 128" fill="none" xmlns="http://www.w3.org/2000/svg">
<rect width="128" height="128" fill="#3F3B60"/>
<path d="M85.3953 32H49.4156C45.5717 32 43.6464 36.6473 46.3642 39.3657L63.2721 56.277C65.9899 58.9954 64.0647 63.6427 60.2207 63.6427H43.5311C41.148 63.6427 39.2162 65.5746 39.2162 67.9577V91.1842C39.2162 95.0302 43.8677 96.9545 46.5848 94.2327L56.9049 83.8948C57.7143 83.084 58.8082 82.6284 59.9538 82.6284H89.6614C90.0864 82.6284 89.8913 53.9613 89.7076 36.2564C89.6831 33.8926 87.7592 32 85.3953 32Z" fill="#FFBE6A"/>
<circle cx="65.9468" cy="72.4209" r="2.24561" fill="#3F3B60"/>
<circle cx="72.6836" cy="72.4209" r="2.24561" fill="#3F3B60"/>
<circle cx="79.4204" cy="72.4209" r="2.24561" fill="#3F3B60"/>
</svg>
