<svg width="117" height="29" viewBox="0 0 117 29" fill="none" xmlns="http://www.w3.org/2000/svg">
<path d="M0 28.5404H12.0761V24.4842H4.05022V16.1785H11.0424V12.3632H4.05022V4.05414H12.0761V0.23877H0V28.5404Z" fill="black"/>
<path d="M19.7042 0.23877H13.7051V28.5404H19.3449C21.7547 28.5404 23.6019 27.9129 24.8864 26.6513C26.171 25.3931 26.8115 23.4396 26.8115 20.7875V7.55411C26.8115 5.22419 26.2082 3.41994 25.005 2.14815C23.7984 0.876361 22.0326 0.23877 19.7008 0.23877H19.7042ZM22.7613 21.1843C22.7613 22.4018 22.5241 23.2972 22.0462 23.867C21.5683 24.4367 20.7616 24.7216 19.6228 24.7216H17.7553V4.05414H19.6228C20.8158 4.05414 21.6361 4.35937 22.0868 4.96983C22.5376 5.58029 22.7613 6.44172 22.7613 7.55411V21.1877V21.1843Z" fill="black"/>
<path d="M60.4746 1.86868C59.2816 0.624025 57.7327 0 55.8279 0C54.8483 0 53.9536 0.166181 53.1469 0.495151C52.3403 0.827512 51.6421 1.28536 51.0625 1.86529C50.4795 2.44862 50.0287 3.13708 49.7135 3.93068C49.3949 4.72428 49.2357 5.58571 49.2357 6.51496V11.3003L48.9815 11.4461L46.131 13.091L43.2806 11.4461L42.7417 11.1341V0.237401H38.6915V21.7798C38.6915 22.7871 38.4543 23.5298 37.9764 24.0046C37.4985 24.4828 36.9053 24.7202 36.1902 24.7202C35.4751 24.7202 34.8785 24.4828 34.404 24.0046C33.9261 23.5264 33.6889 22.7871 33.6889 21.7798V0.237401H29.6387V22.18C29.6387 23.1093 29.8115 23.9639 30.1538 24.744C30.4962 25.5274 30.9741 26.2226 31.5841 26.8297C32.1942 27.4402 32.889 27.915 33.6686 28.2609C34.4481 28.6034 35.2886 28.7764 36.1902 28.7764C37.0918 28.7764 37.9391 28.6034 38.7322 28.2609C39.5253 27.9184 40.2269 27.4402 40.8369 26.8297C41.447 26.2192 41.9147 25.524 42.2469 24.744C42.5791 23.9639 42.7451 23.1093 42.7451 22.18V15.8923L43.284 15.5803L46.1344 13.9354L48.9848 15.5803L49.239 15.7261V22.0986C49.239 23.3976 49.4424 24.4625 49.8559 25.2968C50.266 26.1311 50.788 26.8127 51.4251 27.3452C52.0623 27.8743 52.7775 28.2473 53.5706 28.4576C54.3637 28.6679 55.1466 28.7764 55.9126 28.7764C56.8141 28.7764 57.6547 28.5966 58.4342 28.2405C59.2138 27.8844 59.8984 27.3995 60.4814 26.789C61.0643 26.1785 61.5219 25.4833 61.8507 24.7033C62.1828 23.9232 62.3489 23.0923 62.3489 22.2207V20.4707H58.2987V21.8612C58.2987 22.4174 58.2207 22.8821 58.0614 23.2517C57.9021 23.6214 57.7021 23.9131 57.4649 24.1267C57.2005 24.3404 56.9158 24.493 56.6108 24.5846C56.3058 24.6761 56.021 24.7236 55.7567 24.7236C54.828 24.7236 54.1874 24.4455 53.8316 23.8893C53.4757 23.3331 53.296 22.6447 53.296 21.8239V7.35265C53.296 6.39965 53.4621 5.60945 53.7909 4.98881C54.123 4.36818 54.7907 4.05617 55.7974 4.05617C56.5667 4.05617 57.1734 4.34783 57.6242 4.93116C58.075 5.51449 58.2987 6.20295 58.2987 6.99655V8.34973H62.3489V6.75914C62.3489 5.77902 62.1828 4.87011 61.8507 4.03582C61.5185 3.20152 61.061 2.47914 60.4814 1.86868H60.4746Z" fill="black"/>
<path d="M73.6988 12.3627H68.6928V0.238281H64.6426V28.5399H68.6928V15.9407H73.6988V28.5399H77.749V0.238281H73.6988V12.3627Z" fill="black"/>
<path d="M85.0643 0.23877L78.75 28.537H82.8002L83.9933 22.4561H89.5144L90.7075 28.537H94.7577L88.44 0.23877H85.0643ZM84.7084 18.6407L86.6945 8.38501H86.7725L88.7586 18.6407H84.7084Z" fill="black"/>
<path d="M99.9116 0.23877H95.8613V28.537H99.9116V0.23877Z" fill="black"/>
<path d="M112.783 0.23877V17.2909H112.705L106.588 0.23877H102.693V28.5404H106.747V11.5289H106.825L113.021 28.5404H116.834V0.23877H112.783Z" fill="black"/>
</svg>
