<svg id="Layer_2_00000044863248284865380110000016154647293271382148_" enable-background="new 0 0 512 512" viewBox="0 0 512 512" xmlns="http://www.w3.org/2000/svg" xmlns:xlink="http://www.w3.org/1999/xlink"><linearGradient id="lg1"><stop offset="0" stop-color="#fd7600"/><stop offset=".71" stop-color="#fdbf30"/></linearGradient><linearGradient id="SVGID_1_" gradientTransform="matrix(1 0 0 -1 0 513.18)" gradientUnits="userSpaceOnUse" x1="255.997" x2="255.997" xlink:href="#lg1" y1="10.772" y2="503.57"/><linearGradient id="SVGID_00000134242538032489740260000003714335050422215090_" gradientTransform="matrix(1 0 0 -1 0 513.18)" gradientUnits="userSpaceOnUse" x1="256" x2="256" y1="104.96" y2="369.96"><stop offset="0" stop-color="#ffe187"/><stop offset="1" stop-color="#fff8e0"/></linearGradient><linearGradient id="SVGID_00000123414017559462026730000001935657969621266872_" gradientTransform="matrix(1 0 0 -1 0 513.18)" gradientUnits="userSpaceOnUse" x1="255.995" x2="255.995" xlink:href="#lg1" y1="149.99" y2="324.93"/><g id="Icon"><g id="_204"><path d="m309.2 41.8 48.9 93.3 103.9 17.6c47.8 8.1 66.8 66.6 32.9 101.2l-73.6 75.3 15.3 104.2c7 47.9-42.7 84.1-86.1 62.5l-94.5-46.6-94.4 46.7c-43.4 21.5-93.1-14.6-86.1-62.5l15.3-104.2-73.6-75.3c-33.9-34.6-14.9-93.1 32.9-101.2l103.8-17.7 48.9-93.3c22.5-42.9 83.9-42.9 106.4 0z" fill="url(#SVGID_1_)"/><g><circle cx="256" cy="275.7" fill="url(#SVGID_00000134242538032489740260000003714335050422215090_)" r="132.5"/><path d="m204 363.2v-24.6l31.1-3.8v-110.6l-31.4-.4v-23.3l73.4-12.3v146.5l31.1 3.8v24.6h-104.2z" fill="url(#SVGID_00000123414017559462026730000001935657969621266872_)"/></g></g></g></svg>