<svg id="Layer_2_00000033365544316248685110000013488560807278609588_" enable-background="new 0 0 512 512" viewBox="0 0 512 512" xmlns="http://www.w3.org/2000/svg"><g id="Icon"><g id="_205"><path d="m309.2 41.8 48.9 93.3 103.9 17.6c47.8 8.1 66.8 66.6 32.9 101.2l-73.6 75.3 15.3 104.2c7 47.9-42.7 84.1-86.1 62.5l-94.5-46.6-94.4 46.7c-43.4 21.5-93.1-14.6-86.1-62.5l15.3-104.2-73.6-75.3c-33.9-34.6-14.9-93.1 32.9-101.2l103.8-17.7 48.9-93.3c22.5-42.9 83.9-42.9 106.4 0z" fill="#d8d8d8"/><g><circle cx="256" cy="275.7" fill="#7f7f7f" r="132.5"/><path d="m195.8 364.5v-27l56.4-59.4c5-5.8 9-10.9 12-15.3s5.1-8.5 6.4-12.1c1.3-3.7 2-7.2 2-10.7 0-5.7-1.5-10.5-4.6-14.5-3-4-7.6-5.9-13.7-5.9-6.6 0-11.6 2.3-14.8 7s-4.8 11-4.8 18.9h-41.2l-.2-.7c-.2-10.8 2.1-20.6 7-29.3s12-15.7 21.3-20.8 20.2-7.7 32.8-7.7 23.4 2.2 32.4 6.6 15.9 10.5 20.8 18.4c4.8 7.9 7.3 17.1 7.3 27.7 0 7.2-1.2 13.8-3.7 19.9-2.5 6-6.5 12.5-12 19.4-5.6 6.9-13 15.2-22.3 25l-26.4 28 .2.6h34.7l1.8-14.5h31.6v46.5z" fill="#d8d8d8"/></g></g></g></svg>