<svg id="Layer_2_00000155832724841017088260000007154065425347643786_" enable-background="new 0 0 512 512" viewBox="0 0 512 512" xmlns="http://www.w3.org/2000/svg" xmlns:xlink="http://www.w3.org/1999/xlink"><linearGradient id="SVGID_1_" gradientTransform="matrix(1 0 0 -1 0 513.18)" gradientUnits="userSpaceOnUse" x1="255.997" x2="255.997" y1="10.772" y2="503.57"><stop offset="0" stop-color="#ff6300"/><stop offset=".09" stop-color="#ff7100"/><stop offset=".29" stop-color="#f80"/><stop offset=".49" stop-color="#f90"/><stop offset=".72" stop-color="#ffa300"/><stop offset="1" stop-color="#ffa700"/></linearGradient><linearGradient id="SVGID_00000018205559737720492520000002442199734164614290_" gradientTransform="matrix(1 0 0 -1 0 513.18)" gradientUnits="userSpaceOnUse" x1="256" x2="256" y1="104.96" y2="369.96"><stop offset="0" stop-color="#ffc68f"/><stop offset="1" stop-color="#fff8e0"/></linearGradient><linearGradient id="SVGID_00000042009243674796950540000002564310168623699845_" gradientTransform="matrix(1 0 0 -1 0 513.18)" gradientUnits="userSpaceOnUse" x1="255.998" x2="255.998" y1="147.46" y2="327.46"><stop offset="0" stop-color="#fd6800"/><stop offset=".71" stop-color="#fd8f30"/></linearGradient><g id="Icon"><g id="_206"><path d="m309.2 41.8 48.9 93.3 103.9 17.6c47.8 8.1 66.8 66.6 32.9 101.2l-73.6 75.3 15.3 104.2c7 47.9-42.7 84.1-86.1 62.5l-94.5-46.6-94.4 46.7c-43.4 21.5-93.1-14.6-86.1-62.5l15.3-104.2-73.6-75.3c-33.9-34.6-14.9-93.1 32.9-101.2l103.8-17.7 48.9-93.3c22.5-42.9 83.9-42.9 106.4 0z" fill="url(#SVGID_1_)"/><g><circle cx="256" cy="275.7" fill="url(#SVGID_00000018205559737720492520000002442199734164614290_)" r="132.5"/><path d="m255.1 365.7c-11.5 0-22-2-31.7-6-9.6-4-17.3-9.8-23-17.5s-8.4-17.1-8.2-28.2l.1-.7h41.1c0 3.7.9 7.1 2.6 10.1s4.3 5.5 7.5 7.4c3.2 1.8 7.1 2.8 11.5 2.8 6.9 0 12.4-2 16.4-6s6.1-9.2 6.1-15.6-2.2-12-6.6-16.2-10.8-6.3-19.2-6.3h-17.9v-31.1h19.1c4.7 0 8.7-.9 12-2.6 3.2-1.7 5.7-4.1 7.4-7.2s2.5-6.7 2.5-10.8c0-5.8-1.7-10.5-5.1-14.3s-8.3-5.6-14.6-5.6c-3.6 0-6.8.7-9.7 2.2s-5.1 3.4-6.7 5.9-2.5 5.5-2.5 8.8h-41l-.2-.7c-.3-9.6 2.1-18.1 7.1-25.4 5.1-7.3 12.2-13 21.3-17s19.5-6.1 31.1-6.1c18.7 0 33.8 4.3 45.2 12.9s17.1 20.8 17.1 36.5c0 8.7-2.3 16.2-6.9 22.4s-11.5 11.5-20.6 15.9c9.2 3.4 16.6 8.6 22 15.6s8.2 15.3 8.2 25c0 10.6-2.8 19.9-8.4 27.6s-13.3 13.7-23 17.8-20.6 6.4-33 6.4z" fill="url(#SVGID_00000042009243674796950540000002564310168623699845_)"/></g></g></g></svg>