<svg enable-background="new 0 0 32 32" height="512" viewBox="0 0 32 32" width="512" xmlns="http://www.w3.org/2000/svg"><g id="BG"><path d="m26.042 32.042h-20c-3.314 0-6-2.686-6-6v-20c0-3.314 2.686-6 6-6h20c3.314 0 6 2.686 6 6v20c0 3.313-2.687 6-6 6z" fill="#ffe6e2"/></g><g id="bold"><g fill="#fc573b"><path d="m21.308 15.5h1.543l1.125-3.514c.055-.169.014-.355-.104-.487-.12-.132-.3-.189-.474-.155l-3.744.781c.917.866 1.53 2.049 1.654 3.375z"/><path d="m22.851 16.5h-1.543c-.121 1.299-.711 2.462-1.597 3.323l3.679.831c.036.008.074.012.11.012.139 0 .273-.058.368-.162.121-.132.162-.319.107-.49z"/><path d="m9.149 15.5h1.543c.124-1.326.737-2.509 1.655-3.375l-3.744-.781c-.174-.035-.354.022-.474.155-.118.132-.159.318-.104.487z"/><path d="m10.692 16.5h-1.543l-1.125 3.514c-.055.171-.014.358.107.49s.304.191.479.15l3.679-.831c-.886-.861-1.476-2.024-1.597-3.323z"/></g><path d="m16 11.334c-2.573 0-4.667 2.093-4.667 4.667s2.094 4.667 4.667 4.667 4.667-2.093 4.667-4.667-2.094-4.667-4.667-4.667zm0 6.666c-1.103 0-2-.897-2-2s.897-2 2-2 2 .897 2 2-.897 2-2 2z" fill="#fd907e"/></g></svg>