<svg id="Capa_1" enable-background="new 0 0 512 512" height="512" viewBox="0 0 512 512" width="512" xmlns="http://www.w3.org/2000/svg"><g><g><path d="m213.5 34.297-213.5 369.792 60.092 12.906-17.592 60.708h213.5l27.68-174.983-27.68-210.997z" fill="#b9f"/><path d="m448.817 413.032 63.183-8.943-213.5-369.792-42.5 57.426v385.98h213.5z" fill="#a467ff"/></g><g><path d="m120.184 384.389h135.816l17.771-91.577-17.771-143.663z" fill="#d9b3ff"/><path d="m256 149.149v235.24h135.816z" fill="#b9f"/><path d="m213.5 34.297 42.5 114.852 11.904-71.016-11.904-43.836z" fill="#d9b3ff"/><path d="m256 34.297v114.852l42.5-114.852z" fill="#b9f"/></g><path d="m0 404.089 42.5 73.614 77.684-93.314z" fill="#d9b3ff"/><path d="m391.816 384.389 77.684 93.314 42.5-73.614z" fill="#b9f"/></g></svg>