<svg enable-background="new 0 0 32 32" height="512" viewBox="0 0 32 32" width="512" xmlns="http://www.w3.org/2000/svg"><g id="BG"><path d="m26.042 32.042h-20c-3.314 0-6-2.686-6-6v-20c0-3.314 2.686-6 6-6h20c3.314 0 6 2.686 6 6v20c0 3.313-2.687 6-6 6z" fill="#ffe6e2"/></g><g id="bold"><g fill="#fc573b"><path d="m12.667 8h-1.5c-.644 0-1.167.523-1.167 1.167v4.333c0 .643.523 1.167 1.167 1.167h1.5z"/><path d="m13.667 8h4.667v6.667h-4.667z"/><path d="m20.833 8h-1.5v6.667h1.5c.643 0 1.167-.523 1.167-1.167v-4.333c0-.644-.523-1.167-1.167-1.167z"/></g><path d="m16 14.667c-2.573 0-4.667 2.093-4.667 4.667s2.094 4.666 4.667 4.666 4.667-2.093 4.667-4.667-2.094-4.666-4.667-4.666zm0 7c-1.286 0-2.333-1.047-2.333-2.333s1.047-2.334 2.333-2.334 2.333 1.047 2.333 2.333-1.047 2.334-2.333 2.334z" fill="#fd907e"/></g></svg>