<svg enable-background="new 0 0 32 32" height="512" viewBox="0 0 32 32" width="512" xmlns="http://www.w3.org/2000/svg"><g id="BG"><path d="m26 32h-20c-3.314 0-6-2.686-6-6v-20c0-3.314 2.686-6 6-6h20c3.314 0 6 2.686 6 6v20c0 3.314-2.686 6-6 6z" fill="#e3f8fa"/></g><g id="bold"><path d="m23.333 11.333h-1.833-.302l-4.016-2.945c-.707-.518-1.657-.518-2.365 0l-4.015 2.945h-.302-1.833c-.369 0-.667.298-.667.667s.299.667.667.667h1.333v6.831c0 .646.346 1.251.903 1.579l4.843 2.854c.079.046.166.069.254.069s.175-.023.254-.069l4.843-2.854c.557-.328.903-.933.903-1.58v-6.831h1.333c.369.001.667-.298.667-.666s-.298-.667-.667-.667zm-7.728-1.869c.236-.174.553-.174.789 0l2.549 1.869h-5.886z" fill="#26c6da"/><path d="m19.227 17.905-2.985 3.158c-.063.066-.15.104-.242.104s-.179-.038-.242-.104l-2.985-3.158c-.805-.852-.805-2.238 0-3.089.792-.838 2.181-.837 2.972 0l.255.27.255-.27c.791-.837 2.18-.838 2.972 0 .806.851.806 2.237 0 3.089z" fill="#8ce1eb"/></g></svg>