<svg enable-background="new 0 0 32 32" height="512" viewBox="0 0 32 32" width="512" xmlns="http://www.w3.org/2000/svg"><g id="BG"><path d="m26 32h-20c-3.314 0-6-2.686-6-6v-20c0-3.314 2.686-6 6-6h20c3.314 0 6 2.686 6 6v20c0 3.314-2.686 6-6 6z" fill="#f5e6fe"/></g><g id="bold"><circle cx="16" cy="17.333" fill="#d9a4fc" r="1.833"/><path d="m23.333 11.333h-1.833-.302l-4.016-2.945c-.707-.518-1.657-.518-2.365 0l-4.015 2.945h-.302-1.833c-.369 0-.667.298-.667.667s.299.667.667.667h1.333v6.831c0 .646.346 1.251.903 1.579l4.843 2.854c.079.046.166.069.254.069s.175-.023.254-.069l4.843-2.854c.557-.328.903-.933.903-1.58v-6.831h1.333c.369.001.667-.298.667-.666s-.298-.667-.667-.667zm-7.728-1.869c.236-.174.553-.174.789 0l2.549 1.869h-5.886zm.395 11.703c-2.114 0-3.833-1.719-3.833-3.833s1.719-3.834 3.833-3.834 3.833 1.719 3.833 3.833-1.719 3.834-3.833 3.834z" fill="#be63f9"/></g></svg>