<svg fill="none" height="512" viewBox="0 0 100 100" width="512" xmlns="http://www.w3.org/2000/svg" xmlns:xlink="http://www.w3.org/1999/xlink"><linearGradient id="lg1"><stop offset=".0001" stop-color="#96ec6d"/><stop offset=".520833" stop-color="#3bb870"/><stop offset="1" stop-color="#167966"/></linearGradient><linearGradient id="paint0_linear_884_2378" gradientUnits="userSpaceOnUse" x1="20.834" x2="99.735" xlink:href="#lg1" y1="8.87" y2="59.796"/><linearGradient id="paint1_linear_884_2378" gradientUnits="userSpaceOnUse" x1="33.334" x2="78.42" y1="26.497" y2="55.598"><stop offset=".0001" stop-color="#a1f07b"/><stop offset=".520833" stop-color="#3dd37c"/><stop offset="1" stop-color="#0fa084"/></linearGradient><linearGradient id="paint2_linear_884_2378" gradientUnits="userSpaceOnUse" x1="23.162" x2="69.433" xlink:href="#lg1" y1="6.918" y2="42.876"/><linearGradient id="lg2"><stop offset="0" stop-color="#32b78f"/><stop offset="1" stop-color="#67e77b"/></linearGradient><linearGradient id="paint3_linear_884_2378" gradientUnits="userSpaceOnUse" x1="69.852" x2="59.766" xlink:href="#lg2" y1="70.914" y2="31.792"/><linearGradient id="paint4_linear_884_2378" gradientUnits="userSpaceOnUse" x1="37.46" x2="35.162" xlink:href="#lg2" y1="91.665" y2="62.271"/><path d="m50 8.33545 25.2585 20.83225v41.6646l-25.2585 20.8323-25.2585-20.8323v-41.6646z" fill="url(#paint0_linear_884_2378)"/><path d="m50 26.1919 14.4332 11.904v23.8079l-14.4332 11.9039-14.4332-11.9039v-23.8079z" fill="url(#paint1_linear_884_2378)"/><path d="m50.3311 8.60877v17.96543l-14.6043 11.5193-10.9856-8.6033v-.3225l25.2585-20.83225z" fill="url(#paint2_linear_884_2378)"/><path d="m75.2585 29.1909v41.6413l-.0986.0814-10.7136-9.4532v-23.1807z" fill="url(#paint3_linear_884_2378)"/><path d="m50.0964 91.5848-.0967.0798-25.1765-20.7647 10.9228-8.8086 14.3504 11.8267z" fill="url(#paint4_linear_884_2378)"/></svg>