<svg id="Capa_1" enable-background="new 0 0 512 512" height="512" viewBox="0 0 512 512" width="512" xmlns="http://www.w3.org/2000/svg"><g><g><path d="m256 0 25.212 250.495 39.608 46.016 7.819 50.931 146.355-91.442z" fill="#a467ff"/></g><path d="m37.006 256 135.151 91.442 14.345-55.609 42.952-35.877 26.546-255.956z" fill="#b9f"/><g><path d="m256 512 218.994-256h-113.663l-84.419 165.896z" fill="#b9f"/></g><g><path d="m256 0-105.331 256 72.665 91.442 32.666-91.442 20.912 10.769z" fill="#d9b3ff"/><path d="m256 0v256l32.666 91.442 72.665-91.442z" fill="#b9f"/></g><path d="m37.006 256 218.994 256-19.02-75.974-86.311-180.026z" fill="#d9b3ff"/><path d="m150.669 256 105.331 256 16.612-78.431-16.612-177.569z" fill="#b9f"/><path d="m256 512 105.331-256h-105.331z" fill="#a467ff"/></g></svg>