<svg id="圖層_2" enable-background="new 0 0 210 210" height="512" viewBox="0 0 210 210" width="512" xmlns="http://www.w3.org/2000/svg"><path d="m105 22.9-51 83.6 51 80.6 51-80.6z" fill="#e5cfff"/><path d="m105 22.9-51 83.6h25.5z" fill="#a35cca"/><path d="m54 106.5 51 80.6-25.5-80.6z" fill="#6941bf"/><path d="m156 106.5-51-83.6 25.5 83.6z" fill="#bab2e8"/><path d="m79.5 106.5 25.5 80.6 25.5-80.6z" fill="#4d23b5"/><path d="m157.4 106.2v-.1c0-.1-.1-.3-.2-.4l-51-83.6c-.1-.1-.1-.2-.2-.2 0 0 0 0 0-.1 0 0-.1-.1-.1-.1s-.1-.1-.1-.1c-.1 0-.1-.1-.2-.1s0 0-.1 0h-.1c-.1 0-.2 0-.3 0h-.1s0 0 0 0h-.1c-.1 0-.2 0-.3 0h-.1s0 0-.1 0c-.1 0-.1.1-.2.1 0 0-.1.1-.1.1s-.1 0-.1.1v.1c-.1.1-.1.1-.2.2l-51 83.6s0 .1-.1.1c0 .1-.1.1-.1.2v.2.2.2.2c0 .1 0 .1.1.2 0 .1 0 .1.1.2l51 80.7s.1.1.1.1.1.1.1.1.1 0 .1.1c0 0 .1.1.1.1s.1.1.1.1c.1 0 .1 0 .2.1h.1.1.3s0 0 0 0h.3.1.1.1c.1 0 .1-.1.2-.1 0 0 .1-.1.1-.1s.1-.1.1-.1 0-.1.1-.1.1-.1.1-.1l51-80.7c0-.1 0-.1.1-.2 0-.1 0-.1.1-.2 0-.1 0-.2 0-.3v-.1c.1-.1.1-.2 0-.3zm-4.1-1.2h-21.7l-21.7-71.2 13.8 22.6zm-71.7 3h46.9l-23.5 74.2zm-.1-3 23.5-77 23.5 77zm18.6-71.2-21.7 71.2h-21.7l29.6-48.6zm-21.7 74.2 21.7 68.6-43.4-68.6zm53.2 0h21.7l-43.3 68.6z" fill="#530091"/></svg>