<svg id="Icons" height="512" viewBox="0 0 60 60" width="512" xmlns="http://www.w3.org/2000/svg"><path d="m26.015 59.47a.5.5 0 0 1 -.266-.924l2.238-1.405-3.919 2.259a.5.5 0 0 1 -.513-.857l.781-.485-2.169 1.252a.5.5 0 0 1 -.515-.857l4.327-2.7-4.979 2.876a.5.5 0 0 1 -.52-.854l11.789-7.544-12.855 7.421a.5.5 0 0 1 -.52-.852l14.6-9.407-15.868 9.159a.5.5 0 0 1 -.514-.858l7.059-4.382-7.771 4.488a.5.5 0 0 1 -.514-.857l10.672-6.673-11.552 6.668a.5.5 0 0 1 -.514-.857l8.786-5.442-9.55 5.513a.5.5 0 0 1 -.517-.855l15.981-10.085-17.151 9.9a.5.5 0 0 1 -.516-.856l15.9-9.969-17.012 9.824a.5.5 0 0 1 -.517-.854l19.942-12.657-20.558 11.867a.5.5 0 0 1 -.517-.856l19.377-12.271-18.86 10.888a.5.5 0 0 1 -.514-.857l14.568-9.1-14.054 8.114a.5.5 0 0 1 -.518-.855l18.266-11.625-17.748 10.246a.5.5 0 0 1 -.516-.855l14.924-9.406-14.408 8.318a.5.5 0 0 1 -.518-.854l15.71-9.98-15.192 8.771a.5.5 0 0 1 -.515-.857l11.1-6.95-10.585 6.11a.5.5 0 0 1 -.519-.853l15.339-9.824-14.82 8.554a.5.5 0 0 1 -.52-.853l14.933-9.606-14.413 8.322a.5.5 0 0 1 -.519-.854l13.124-8.407-12.605 7.273a.5.5 0 0 1 -.514-.856l6.063-3.786-5.549 3.2a.5.5 0 0 1 -.516-.856l8.219-5.186-7.703 4.454a.5.5 0 0 1 -.518-.855l9.889-6.315-9.079 5.244a.5.5 0 0 1 -.523-.85l12.489-8.178-8.972 5.184a.5.5 0 0 1 -.526-.85l10.014-6.65-6.634 3.825a.5.5 0 0 1 -.531-.846l8.182-5.566-4.834 2.787a.5.5 0 0 1 -.53-.847l3.977-2.687-1.267.732a.5.5 0 0 1 -.539-.841l3.821-2.7-.955.551a.5.5 0 0 1 -.556-.829l3.492-2.7-.348.2a.5.5 0 0 1 -.559-.826l1.861-1.46a.5.5 0 0 1 -.117-.8l1.8-1.777-.01-.016a.5.5 0 0 1 .182-.683l1.388-.8a.5.5 0 0 1 .6.789l-.466.459.915-.528a.5.5 0 0 1 .558.826l-.561.441.682-.394a.5.5 0 0 1 .556.828l-3.492 2.7 3.921-2.268a.5.5 0 0 1 .539.841l-3.816 2.7 4.162-2.4a.5.5 0 0 1 .53.847l-3.984 2.687 4.279-2.472a.5.5 0 0 1 .531.846l-8.181 5.568 8.724-5.036a.5.5 0 0 1 .526.849l-10.013 6.65 10.573-6.1a.5.5 0 0 1 .523.851l-12.483 8.168 13.1-7.56a.5.5 0 0 1 .518.855l-9.893 6.315 10.318-5.957a.5.5 0 0 1 .517.856l-8.217 5.184 8.557-4.939a.5.5 0 0 1 .515.856l-6.075 3.794 6.333-3.656a.5.5 0 0 1 .519.853l-13.118 8.4 13.663-7.888a.5.5 0 0 1 .521.853l-14.941 9.611 15.564-8.985a.5.5 0 0 1 .519.853l-15.341 9.827 15.962-9.215a.5.5 0 0 1 .515.857l-11.087 6.942 11.482-6.625a.5.5 0 0 1 .518.855l-15.707 9.973 16.3-9.408a.5.5 0 0 1 .517.856l-14.936 9.411 15.458-8.925a.5.5 0 0 1 .519.854l-18.262 11.622 18.941-10.938a.5.5 0 0 1 .515.856l-14.58 9.108 15.055-8.692a.5.5 0 0 1 .517.856l-19.369 12.272 20.053-11.58a.5.5 0 0 1 .517.855l-19.948 12.662 20.181-11.65a.5.5 0 0 1 .515.856l-15.895 9.965 15.38-8.879a.5.5 0 0 1 .516.855l-15.98 10.084 15.464-8.927a.5.5 0 0 1 .513.857l-8.79 5.445 8.277-4.778a.5.5 0 0 1 .514.856l-10.665 6.668 10.151-5.86a.5.5 0 0 1 .513.858l-7.066 4.387 6.553-3.783a.5.5 0 0 1 .52.853l-14.595 9.406 14.075-8.126a.5.5 0 0 1 .519.853l-11.792 7.547 11.273-6.508a.5.5 0 0 1 .514.857l-4.31 2.69 3.8-2.191a.5.5 0 0 1 .513.857l-.8.5.286-.165a.5.5 0 0 1 .515.857l-2.229 1.4 1.714-.989a.5.5 0 0 1 .526.85l-8.365 5.552 7.839-4.525a.5.5 0 0 1 .535.844l-8.142 5.644 7.604-4.397a.5.5 0 0 1 .525.849l-1.789 1.181 1.264-.73a.5.5 0 0 1 .53.847l-3.868 2.623a.492.492 0 0 1 .277.226.5.5 0 0 1 -.182.682l-9.743 5.622a.5.5 0 0 1 -.53-.846l1.944-1.317-3.748 2.163a.5.5 0 0 1 -.525-.849l1.788-1.18-3.516 2.029a.5.5 0 0 1 -.535-.843l8.14-5.644-11.237 6.487a.5.5 0 0 1 -.527-.849l8.362-5.551-11.085 6.4a.5.5 0 0 1 -.25.07z" fill="#b65af7"/><path d="m23.376 59.47a.5.5 0 0 1 -.265-.925l2.446-1.524-3.7 2.135a.5.5 0 0 1 -.523-.851l13.892-9.057-15.2 8.778a.5.5 0 0 1 -.513-.857l4.107-2.547-4.709 2.719a.5.5 0 0 1 -.512-.859l3.364-2.076-3.932 2.27a.5.5 0 0 1 -.514-.858l6.35-3.937-7.035 4.059a.5.5 0 0 1 -.52-.853l16.355-10.478-17.667 10.202a.5.5 0 0 1 -.519-.855l17.49-11.166-18.836 10.875a.5.5 0 0 1 -.513-.858l8.687-5.355-9.426 5.448a.5.5 0 0 1 -.513-.858l11.688-7.242-12.549 7.249a.5.5 0 0 1 -.518-.855l19.795-12.552-20.306 11.722a.5.5 0 0 1 -.514-.857l14.776-9.2-14.262 8.231a.5.5 0 0 1 -.512-.857l11.332-7.009-10.82 6.244a.5.5 0 0 1 -.518-.854l18.715-11.92-18.2 10.5a.5.5 0 0 1 -.51-.859l3.492-2.135-2.979 1.725a.5.5 0 0 1 -.513-.857l9.191-5.695-8.678 5.01a.5.5 0 0 1 -.515-.856l12.985-8.161-12.47 7.2a.5.5 0 0 1 -.51-.86l1.972-1.208-1.462.844a.5.5 0 0 1 -.518-.854l14.45-9.2-13.932 8.04a.5.5 0 0 1 -.52-.853l15.074-9.69-14.554 8.403a.5.5 0 0 1 -.519-.854l13.559-8.695-13.04 7.528a.5.5 0 0 1 -.512-.857l2.761-1.708-2.249 1.3a.5.5 0 0 1 -.512-.859l.721-.444-.209.12a.5.5 0 0 1 -.52-.853l11.511-7.393-10.991 6.343a.5.5 0 0 1 -.518-.855l8.811-5.609-6.833 3.947a.5.5 0 0 1 -.515-.856l3.005-1.885-.648.374a.5.5 0 0 1 -.528-.848l10.718-7.176-7.172 4.144a.5.5 0 0 1 -.529-.849l6.681-4.468-3.652 2.107a.5.5 0 0 1 -.528-.849l2.9-1.926-.38.218a.5.5 0 0 1 -.546-.836l5.554-4.076-2.166 1.251a.5.5 0 0 1 -.551-.832l2.773-2.092a.5.5 0 0 1 -.485-.858l2.2-1.795a.5.5 0 0 1 -.172-.827l1.616-1.561-.005-.007a.5.5 0 0 1 .182-.683l1.4-.806a.5.5 0 0 1 .6.792l-.163.158.551-.318a.5.5 0 0 1 .566.821l-1.322 1.069 1.532-.884a.5.5 0 0 1 .551.832l-2.721 2.053 3.046-1.759a.5.5 0 0 1 .546.836l-5.56 4.077 6.1-3.52a.5.5 0 0 1 .528.848l-2.9 1.927 3.125-1.8a.5.5 0 0 1 .528.849l-6.685 4.468 7.105-4.1a.5.5 0 0 1 .529.848l-10.711 7.169 11.331-6.542a.5.5 0 0 1 .515.856l-3.022 1.895 3.207-1.851a.5.5 0 0 1 .519.854l-8.816 5.611 9.2-5.309a.5.5 0 0 1 .521.854l-11.51 7.387 12.005-6.932a.5.5 0 0 1 .513.858l-.729.449.851-.491a.5.5 0 0 1 .512.858l-2.757 1.706 2.923-1.687a.5.5 0 0 1 .52.854l-13.564 8.7 14.129-8.156a.5.5 0 0 1 .521.853l-15.065 9.681 15.694-9.061a.5.5 0 0 1 .518.855l-14.453 9.203 15.015-8.668a.5.5 0 0 1 .511.859l-1.987 1.217 2.134-1.23a.5.5 0 0 1 .516.856l-13 8.166 13.455-7.767a.5.5 0 0 1 .513.857l-9.17 5.688 9.489-5.478a.5.5 0 0 1 .511.859l-3.511 2.147 3.684-2.128a.5.5 0 0 1 .519.854l-18.714 11.916 19.413-11.208a.5.5 0 0 1 .513.858l-11.32 7 11.677-6.742a.5.5 0 0 1 .515.858l-14.786 9.211 15.252-8.8a.5.5 0 0 1 .517.855l-19.792 12.545 20.066-11.584a.5.5 0 0 1 .512.858l-11.682 7.23 11.17-6.451a.5.5 0 0 1 .512.859l-8.684 5.352 8.172-4.711a.5.5 0 0 1 .518.855l-17.5 11.172 16.984-9.8a.5.5 0 0 1 .519.854l-16.349 10.463 15.828-9.144a.5.5 0 0 1 .513.858l-6.355 3.942 5.842-3.373a.5.5 0 0 1 .512.859l-3.351 2.068 2.839-1.639a.5.5 0 0 1 .513.858l-4.1 2.542 3.587-2.071a.5.5 0 0 1 .523.852l-13.894 9.063 13.371-7.72a.5.5 0 0 1 .514.857l-2.464 1.536 1.95-1.126a.5.5 0 0 1 .527.849l-10.838 7.211 10.311-5.952a.5.5 0 0 1 .527.849l-7.939 5.3 7.412-4.279a.5.5 0 0 1 .524.851l-3.672 2.411 3.148-1.816a.5.5 0 0 1 .533.845l-4.894 3.37 4.361-2.517a.5.5 0 0 1 .5.865l-15.259 8.807a.5.5 0 0 1 -.533-.844l4.9-3.371-7.3 4.215a.5.5 0 0 1 -.525-.85l3.663-2.406-5.647 3.256a.5.5 0 0 1 -.528-.848l7.945-5.3-10.66 6.148a.5.5 0 0 1 -.527-.848l10.838-7.211-13.961 8.059a.5.5 0 0 1 -.25.07z" fill="#b65af7"/><path d="m26.249 51.474a.5.5 0 0 1 -.29-.908l8.068-5.732-10.412 6.012a.5.5 0 0 1 -.524-.846l4.738-3.1-5.492 3.171a.5.5 0 0 1 -.524-.851l5.832-3.82-6.653 3.84a.5.5 0 0 1 -.518-.854l2.331-1.486-2.9 1.671a.5.5 0 0 1 -.519-.853l5.254-3.369-5.986 3.455a.5.5 0 0 1 -.525-.85l10.571-6.966-11.42 6.59a.5.5 0 0 1 -.527-.849l12.3-8.183-11.773 6.8a.5.5 0 0 1 -.528-.848l11.672-7.813-11.146 6.431a.5.5 0 0 1 -.525-.849l9.358-6.185-8.834 5.1a.5.5 0 0 1 -.531-.847l10.622-7.211-10.092 5.826a.5.5 0 0 1 -.528-.847l8.679-5.83-8.152 4.706a.5.5 0 0 1 -.52-.853l2.388-1.533-1.868 1.078a.5.5 0 0 1 -.525-.85l5.534-3.657-5.01 2.892a.5.5 0 0 1 -.524-.851l4.01-2.633-3.486 2.012a.5.5 0 0 1 -.522-.852l2.239-1.459-1.559.9a.5.5 0 0 1 -.536-.843l6.988-4.87-3.645 2.1a.5.5 0 0 1 -.536-.842l3.451-2.41-.7.4a.5.5 0 0 1 -.555-.829l3.7-2.837-.534.307a.5.5 0 0 1 -.578-.809l2.771-2.407a.5.5 0 0 1 -.273-.819l2.121-2.414a.5.5 0 0 1 .237-.546l.562-.326a.5.5 0 0 1 .626.762l-.8.918 1.025-.591a.5.5 0 0 1 .578.81l-2.262 1.966 2.652-1.531a.5.5 0 0 1 .554.829l-3.7 2.835 4.137-2.387a.5.5 0 0 1 .536.842l-3.451 2.407 3.754-2.167a.5.5 0 0 1 .536.842l-7 4.876 7.528-4.345a.5.5 0 0 1 .522.851l-2.221 1.448 2.415-1.393a.5.5 0 0 1 .524.851l-4.01 2.633 4.276-2.468a.5.5 0 0 1 .525.849l-5.539 3.664 5.882-3.395a.5.5 0 0 1 .521.853l-2.376 1.526 2.557-1.477a.5.5 0 0 1 .529.848l-8.681 5.83 9.211-5.314a.5.5 0 0 1 .531.847l-10.624 7.209 11.292-6.519a.5.5 0 0 1 .526.849l-9.353 6.181 9.865-5.7a.5.5 0 0 1 .529.848l-11.676 7.82 12.344-7.126a.5.5 0 0 1 .527.848l-12.3 8.185 12.308-7.106a.5.5 0 0 1 .525.85l-10.567 6.972 10.043-5.8a.5.5 0 0 1 .519.853l-5.242 3.364 4.723-2.727a.5.5 0 0 1 .518.855l-2.329 1.479 1.813-1.046a.5.5 0 0 1 .523.851l-5.825 3.813 5.3-3.061a.5.5 0 0 1 .524.85l-4.741 3.111 4.222-2.438a.5.5 0 0 1 .54.84l-8.068 5.727 7.531-4.347a.5.5 0 0 1 .548.834l-6.05 4.5 5.5-3.178a.5.5 0 0 1 .538.842l-1.425 1 .888-.513a.5.5 0 0 1 .54.84l-.361.257a.512.512 0 0 1 .5.245.5.5 0 0 1 -.183.683l-8.679 5.008a.5.5 0 0 1 -.54-.84l.058-.042-1.529.883a.5.5 0 0 1 -.536-.838l1.426-1-3.194 1.842a.5.5 0 0 1 -.547-.834l6.052-4.5-9.237 5.335a.493.493 0 0 1 -.251.068z" fill="#e395f1"/><path d="m37.971 59.244a.5.5 0 0 1 -.283-.913l1.038-.709-.821.474a.5.5 0 0 1 -.554-.829l4.49-3.455-4.441 2.561a.5.5 0 0 1 -.556-.827l3.633-2.828-3.546 2.047a.5.5 0 0 1 -.576-.813l3.8-3.246-3.771 2.177a.5.5 0 0 1 -.563-.823l1.954-1.56-1.785 1.03a.5.5 0 0 1 -.5-.865l7.5-4.33a.5.5 0 0 1 .563.823l-1.953 1.56 2.757-1.592a.5.5 0 0 1 .576.812l-3.8 3.247 5.121-2.956a.5.5 0 0 1 .556.827l-3.63 2.828 4.7-2.713a.5.5 0 0 1 .555.829l-4.491 3.455 5.674-3.275a.5.5 0 0 1 .532.845l-4.074 2.785a.467.467 0 0 1 .155.166.5.5 0 0 1 -.182.682l-7.828 4.519a.494.494 0 0 1 -.25.067z" fill="#7d30c9"/><path d="m49.537 50.89a.5.5 0 0 1 -.451-.716l.737-1.542-1.905 1.1a.5.5 0 0 1 -.628-.105.5.5 0 0 1 -.016-.636l1.7-2.163-3.033 1.75a.5.5 0 0 1 -.593-.8l2.211-2.1-3.306 1.908a.5.5 0 0 1 -.558-.827l1.272-.991-1.7.98a.5.5 0 0 1 -.577-.812l3.892-3.336-3.311 1.911a.5.5 0 0 1 -.55-.833l1.288-.966-.738.426a.5.5 0 0 1 -.554-.83l1.774-1.356-1.22.7a.5.5 0 0 1 -.576-.812l3.872-3.324-3.3 1.9a.5.5 0 0 1 -.567-.821l3.149-2.569-2.582 1.49a.5.5 0 0 1 -.558-.827l2.252-1.755-1.694.979a.5.5 0 0 1 -.571-.817l3.473-2.893-2.9 1.675a.5.5 0 0 1 -.575-.814l2.846-2.422-2.271 1.312a.5.5 0 0 1 -.669-.705l.322-.5a.5.5 0 0 1 -.153-.923l1.311-.757a.5.5 0 0 1 .669.7l-.173.267 5.224-2.995a.5.5 0 0 1 .574.813l-2.848 2.423 3.192-1.841a.5.5 0 0 1 .57.816l-3.47 2.892 2.9-1.674a.5.5 0 0 1 .557.827l-2.253 1.755 1.7-.979a.5.5 0 0 1 .566.821l-3.148 2.569 2.582-1.49a.5.5 0 0 1 .575.812l-3.872 3.323 3.3-1.9a.5.5 0 0 1 .553.83l-1.778 1.353 1.221-.7a.5.5 0 0 1 .667.157.5.5 0 0 1 -.117.676l-1.289.965.739-.425a.5.5 0 0 1 .576.811l-3.888 3.34 3.311-1.915a.5.5 0 0 1 .557.827l-1.277.991.716-.413a.5.5 0 0 1 .593.8l-2.209 2.095 1.617-.934a.5.5 0 0 1 .643.741l-1.7 2.163 1.057-.609a.5.5 0 0 1 .7.648l-.737 1.542.036-.02a.5.5 0 0 1 .5.865l-1.433.827a.5.5 0 0 1 -.246.067z" fill="#9734e4"/><path d="m45.781 29.462a.5.5 0 0 1 -.393-.809l1.693-2.162-4.722 2.726a.5.5 0 0 1 -.557-.826l.655-.513-.786.453a.5.5 0 0 1 -.562-.823l1.006-.8-1.179.681a.5.5 0 0 1 -.595-.795l2.738-2.6-3.3 1.906a.5.5 0 0 1 -.577-.81l2.052-1.776-2.409 1.386a.5.5 0 0 1 -.569-.818l1.539-1.273-1.792 1.035a.5.5 0 0 1 -.594-.8l2.761-2.634-3.336 1.93a.5.5 0 0 1 -.584-.8l2.379-2.14-2.82 1.628a.5.5 0 0 1 -.555-.829l.255-.2-.342.2a.5.5 0 0 1 -.6-.792l2.831-2.736-3.436 1.983a.5.5 0 0 1 -.562-.823l1.054-.843-1.234.712a.5.5 0 0 1 -.581-.808l2.241-1.978-2.637 1.522a.5.5 0 0 1 -.577-.81l2.056-1.781-2.412 1.392a.5.5 0 0 1 -.568-.818l1.525-1.259-1.776 1.024a.5.5 0 0 1 -.575-.812l1.946-1.666-1.625.937a.5.5 0 0 1 -.569-.817l1.031-.857-.462.266a.5.5 0 0 1 -.612-.777l2.042-2.15-1.43.826a.5.5 0 0 1 -.6-.787l.925-.926-.321.185a.5.5 0 0 1 -.61-.779l.486-.507a.491.491 0 0 1 -.5-.156.5.5 0 0 1 -.015-.637l.522-.662a.51.51 0 0 1 -.5-.146.5.5 0 0 1 -.037-.626l.3-.43a.493.493 0 0 1 -.189-.084.5.5 0 0 1 -.2-.506l.231-1.124a.5.5 0 0 1 .009-.86l.382-.223a.5.5 0 0 1 .74.533l-.161.784.491-.283a.5.5 0 0 1 .657.722l-.127.178.118-.069a.5.5 0 0 1 .643.742l-.494.628.633-.365a.5.5 0 0 1 .61.779l-.439.458.545-.315a.5.5 0 0 1 .6.786l-.927.929 1.144-.66a.5.5 0 0 1 .612.777l-2.038 2.151 2.558-1.475a.5.5 0 0 1 .569.817l-1.031.857 1.218-.7a.5.5 0 0 1 .575.812l-1.948 1.668 2.279-1.32a.5.5 0 0 1 .568.818l-1.523 1.258 1.773-1.024a.5.5 0 0 1 .577.811l-2.056 1.781 2.412-1.393a.5.5 0 0 1 .581.808l-2.237 1.975 2.638-1.519a.5.5 0 0 1 .563.823l-1.054.843 1.233-.712a.5.5 0 0 1 .6.792l-2.836 2.739 3.437-1.984a.5.5 0 0 1 .554.829l-.25.193.338-.2a.5.5 0 0 1 .584.8l-2.382 2.142 2.823-1.629a.5.5 0 0 1 .594.795l-2.761 2.634 3.336-1.926a.5.5 0 0 1 .569.818l-1.536 1.271 1.788-1.026a.5.5 0 0 1 .577.811l-2.053 1.777 2.407-1.389a.5.5 0 0 1 .595.8l-2.738 2.6 3.3-1.906a.5.5 0 0 1 .561.823l-1 .8 1.177-.679a.5.5 0 0 1 .558.826l-.658.515.789-.455a.5.5 0 0 1 .644.741l-1.693 2.162 2.283-1.317a.5.5 0 0 1 .5.865l-4.518 2.609a.5.5 0 0 1 -.25.062z" fill="#7d30c9"/><path d="m9.04 50.854a.5.5 0 0 1 -.317-.886l3.214-2.635-2.657 1.533a.5.5 0 0 1 -.567-.818l3.279-2.7-2.712 1.566a.5.5 0 0 1 -.568-.818l3.321-2.741-2.753 1.589a.5.5 0 0 1 -.669-.159.5.5 0 0 1 .123-.677l.651-.477-.105.059a.5.5 0 0 1 -.561-.824l2.681-2.128-2.12 1.221a.5.5 0 0 1 -.551-.832l1.482-1.119-.931.537a.5.5 0 0 1 -.563-.822l2.877-2.314-2.314 1.336a.5.5 0 0 1 -.563-.822l2.865-2.3-2.3 1.329a.5.5 0 0 1 -.553-.829l1.847-1.423-1.3.748a.5.5 0 0 1 -.588-.8l2.852-2.616-2.26 1.308a.5.5 0 0 1 -.593-.8l1.337-1.26-.744.429a.5.5 0 0 1 -.668-.706l1.05-1.603-.382.22a.5.5 0 0 1 -.739-.536l.241-1.145a.5.5 0 0 1 .008-.86l.39-.226a.506.506 0 0 1 .544.028.5.5 0 0 1 .2.509l-.17.8 1.23-.71a.5.5 0 0 1 .668.706l-1.052 1.614 2.634-1.522a.5.5 0 0 1 .593.8l-1.338 1.261 2.5-1.442a.5.5 0 0 1 .588.8l-2.851 2.617 4-2.307a.5.5 0 0 1 .553.829l-1.847 1.416 1.3-.747a.5.5 0 0 1 .563.822l-2.866 2.3 2.3-1.33a.5.5 0 0 1 .563.822l-2.876 2.312 2.314-1.335a.5.5 0 0 1 .551.832l-1.482 1.119.933-.538a.5.5 0 0 1 .663.151.5.5 0 0 1 -.1.673l-2.675 2.127 2.115-1.221a.5.5 0 0 1 .545.836l-.654.481.11-.063a.5.5 0 0 1 .568.819l-3.321 2.74 2.754-1.59a.5.5 0 0 1 .568.818l-3.279 2.7 2.713-1.567a.5.5 0 0 1 .568.819l-3.212 2.634 2.646-1.528a.5.5 0 1 1 .5.865l-7.951 4.584a.491.491 0 0 1 -.25.067z" fill="#9734e4"/><path d="m25.868 59.47a.5.5 0 0 1 -.295-.905l2.464-1.8-4.562 2.635a.5.5 0 0 1 -.561-.824l4.716-3.743-4.886 2.82a.5.5 0 0 1 -.557-.827l2.284-1.781-1.168.674a.5.5 0 0 1 -.586-.8l1.245-1.132-.12.069a.5.5 0 0 1 -.7-.655l.716-1.44a.522.522 0 0 1 -.112-.134.5.5 0 0 1 .184-.684l.6-.346a.5.5 0 0 1 .7.656l-.452.907 2.722-1.569a.5.5 0 0 1 .586.8l-1.247 1.132 3.362-1.94a.5.5 0 0 1 .558.827l-2.281 1.779 4.522-2.609a.5.5 0 0 1 .561.824l-4.719 3.745 6.808-3.929a.5.5 0 0 1 .545.837l-2.465 1.8 2.3-1.33a.5.5 0 0 1 .564.823l-2.419 1.946 2.28-1.316a.5.5 0 0 1 .562.824l-.462.366.213-.122a.5.5 0 0 1 .627.76l-1.079 1.247.889-.513a.5.5 0 0 1 .735.552l-.213.873a.5.5 0 0 1 .408.907l-.919.53a.5.5 0 0 1 -.736-.551l.21-.86-2.442 1.407a.5.5 0 0 1 -.628-.759l1.08-1.241-3.478 2a.5.5 0 0 1 -.562-.824l.459-.364-2.059 1.188a.5.5 0 0 1 -.564-.822l2.421-1.948-4.8 2.77a.493.493 0 0 1 -.249.07z" fill="#9734e4"/><g fill="#262626"><path d="m51.509 26.764c-6.431-8.616-13.248-17.058-19.819-25.587-1.927-2.064-3.59.43-4.69 1.841q-8.874 11.409-17.747 22.817a3.813 3.813 0 0 0 -.989 3.427c.295 7.315-.587 14.915.336 22.1a7.844 7.844 0 0 0 2.351 1.614c9.858 7.165 13.09 7.041 24.94 6.582 5.25-.193 9.3-5.016 13.963-7.193 3.71-.422 1.48-21.383 1.655-25.601zm-6.861 20.077-.923-.541c.011-5.331.039-10.738-.011-16.062l6.552-2.314q-.014 11.1.007 22.213zm-9.087 3.61c-.12.051-.126.017 0 0zm.207-.12c-3.633.334-7.451.007-11.146.118-2.286-1.4-4.571-2.822-6.844-4.219-.1-5.414-.016-10.817-.043-16.235q6.1-7.844 12.2-15.688c4.117 5.269 8.2 10.584 12.329 15.832-.266 5.368.136 10.808 0 16.194-2.146 1.36-4.364 2.62-6.496 3.998zm-25.851-.264-.185.109c-.038-7.385.063-14.81-.022-22.214l6.567 2.319c.029 5.335-.243 10.733 0 16.062zm21.937-46.325q9.028 11.594 18.046 23.191l-6.539 2.309c-4.179-5.443-8.428-10.837-12.63-16.263v-10.755a15.525 15.525 0 0 1 1.123 1.518zm-19.144 19.691q8.285-10.646 16.557-21.306v11.013q-6.267 8.043-12.523 16.093l-6.728-2.376c.92-1.131 1.8-2.273 2.694-3.424zm3.29 31.099c-1.9-1.2-3.762-2.272-5.67-3.478l6.493-3.8c2.268 1.426 4.444 2.608 6.673 4.047l-1.941 6.721c-1.831-1.259-3.69-2.322-5.555-3.49zm19.49 3.909c-4.245-.013-8.466 0-12.707.042q1-3.467 2-6.932c3.457.025 6.891-.056 10.348.041q1 3.455 2 6.909c-.567.017-1.175-.06-1.644-.06zm4.463-1.3-1.406.866q-.984-3.411-1.969-6.821c2.113-1.423 4.276-2.649 6.429-4l6.735 3.947c-3.258 1.989-6.542 4.001-9.792 6.009z"/><path d="m26.67 26c-1.29-1.6-3.27 3.127-4.34 4 1.29 1.6 3.27-3.127 4.34-4z"/><path d="m31.27 25.544c-.916-.282-9.847 11.346-5.589 8.5.902-1.971 6.624-7.228 5.589-8.5z"/></g></svg>