<svg enable-background="new 0 0 32 32" height="512" viewBox="0 0 32 32" width="512" xmlns="http://www.w3.org/2000/svg"><g id="BG"><path d="m26.042 32.042h-20c-3.314 0-6-2.686-6-6v-20c0-3.314 2.686-6 6-6h20c3.314 0 6 2.686 6 6v20c0 3.313-2.687 6-6 6z" fill="#f5e6fe"/></g><g id="bold"><g fill="#be63f9"><path d="m22.167 8h-2.833v5.774l2.65-.725c.795-.217 1.35-.945 1.35-1.769v-2.113c-.001-.644-.524-1.167-1.167-1.167z"/><path d="m12.667 8h-2.834c-.643 0-1.166.523-1.166 1.167v2.114c0 .824.555 1.551 1.35 1.769l2.65.725z"/><path d="m18.333 14.002v-6.002h-4.667v6.002c0 .015-.007.028-.009.042l2.21.604c.043.012.088.018.132.018s.089-.006.132-.018l2.21-.604c0-.014-.008-.027-.008-.042z"/></g><path d="m16 14.667c-2.573 0-4.667 2.093-4.667 4.667s2.094 4.666 4.667 4.666 4.667-2.093 4.667-4.667-2.094-4.666-4.667-4.666zm0 7c-1.286 0-2.333-1.047-2.333-2.333s1.047-2.334 2.333-2.334 2.333 1.047 2.333 2.333-1.047 2.334-2.333 2.334z" fill="#d9a4fc"/></g></svg>