<svg id="Capa_1" enable-background="new 0 0 512 512" height="512" viewBox="0 0 512 512" width="512" xmlns="http://www.w3.org/2000/svg" xmlns:xlink="http://www.w3.org/1999/xlink"><linearGradient id="SVGID_1_" gradientUnits="userSpaceOnUse" x1="256" x2="256" y1="512" y2="0"><stop offset="0" stop-color="#addcff"/><stop offset=".5028" stop-color="#eaf6ff"/><stop offset="1" stop-color="#eaf6ff"/></linearGradient><linearGradient id="SVGID_2_" gradientUnits="userSpaceOnUse" x1="256" x2="256" y1="105" y2="407"><stop offset="0" stop-color="#5558ff"/><stop offset="1" stop-color="#00c0ff"/></linearGradient><g><g><circle cx="256" cy="256" fill="url(#SVGID_1_)" r="256"/></g><g><g><path d="m256 291.529c-14.667 0-26.597 11.953-26.597 26.647s11.93 26.647 26.597 26.647 26.597-11.953 26.597-26.647-11.93-26.647-26.597-26.647zm78.544 5.56c3.177-10.956.952-18.606-1.766-23.325-2.727-4.728-8.225-10.479-19.281-13.193-2.71-11.068-8.45-16.585-13.169-19.317-4.719-2.715-12.355-4.953-23.281-1.77-7.879-8.232-15.602-10.131-21.047-10.131s-13.168 1.899-21.047 10.131c-10.926-3.209-18.562-.945-23.281 1.77-4.719 2.732-10.459 8.24-13.169 19.317-11.056 2.715-16.554 8.466-19.281 13.193s-4.944 12.378-1.766 23.325c-8.216 7.894-10.113 15.631-10.113 21.087s1.896 13.194 10.113 21.087c-3.177 10.947-.961 18.598 1.766 23.325s8.234 10.478 19.281 13.193c2.71 11.077 8.45 16.585 13.169 19.317 4.719 2.715 12.329 4.944 23.281 1.77 7.879 8.233 15.601 10.132 21.047 10.132s13.177-1.899 21.047-10.131c10.952 3.175 18.562.945 23.281-1.77 4.719-2.732 10.459-8.25 13.169-19.317 11.047-2.715 16.554-8.466 19.281-13.193 2.719-4.719 4.944-12.37 1.766-23.325 8.216-7.885 10.113-15.631 10.113-21.087s-1.897-13.194-10.113-21.088zm-78.544 65.499c-24.441 0-44.328-19.925-44.328-44.412s19.887-44.412 44.328-44.412 44.328 19.925 44.328 44.412c0 24.488-19.887 44.412-44.328 44.412zm0-151c6.84 0 16.355 1.7 26.155 8.839 1.74-.182 3.455-.269 5.152-.269 3.369 0 6.569.527 9.711 1.213l-49.787-116.371h-38.581l45.642 106.703c.552-.021 1.187-.115 1.708-.115zm-31.307 8.561c1.706 0 3.42.087 5.16.269 2.381-1.734 4.742-3.124 7.056-4.269l-43.87-102.56-33.626 67.378c-2.069 4.155-.606 9.204 3.368 11.589l49.176 29.561c4.064-1.207 8.283-1.968 12.736-1.968zm127.894-39.181-35.462-71.059c-1.507-3.01-4.571-4.91-7.931-4.91h-42.678l46.714 109.191 35.989-21.634c3.974-2.384 5.437-7.433 3.368-11.588z" fill="url(#SVGID_2_)"/></g></g></g></svg>