<svg enable-background="new 0 0 32 32" height="512" viewBox="0 0 32 32" width="512" xmlns="http://www.w3.org/2000/svg"><g id="BG"><path d="m26.042 32.042h-20c-3.314 0-6-2.686-6-6v-20c0-3.314 2.686-6 6-6h20c3.314 0 6 2.686 6 6v20c0 3.313-2.687 6-6 6z" fill="#fff9dd"/></g><g id="bold"><path d="m12 10.667h.034c-.019.052-.034.107-.034.166v4.49c.562-.561 1.244-.999 2-1.286v-3.371h1v3.094c.325-.058.658-.094 1-.094s.675.036 1 .094v-3.094h1v3.371c.756.287 1.438.725 2 1.286v-4.49c0-.059-.015-.114-.034-.167h.034c.736 0 1.333-.597 1.333-1.333s-.597-1.333-1.333-1.333h-8c-.736 0-1.333.597-1.333 1.333 0 .737.597 1.334 1.333 1.334z" fill="#ffd200"/><path d="m16 14.667c-2.573 0-4.667 2.093-4.667 4.667s2.094 4.666 4.667 4.666 4.667-2.093 4.667-4.667-2.094-4.666-4.667-4.666zm0 7c-1.286 0-2.333-1.047-2.333-2.333s1.047-2.334 2.333-2.334 2.333 1.047 2.333 2.333-1.047 2.334-2.333 2.334z" fill="#ffe777"/></g></svg>