<svg height="512" viewBox="0 0 64 64" width="512" xmlns="http://www.w3.org/2000/svg" xmlns:xlink="http://www.w3.org/1999/xlink"><linearGradient id="linear-gradient" gradientUnits="userSpaceOnUse" x1="4" x2="60" y1="32" y2="32"><stop offset="0" stop-color="#fff2f4"/><stop offset="1" stop-color="#ffc2cc"/></linearGradient><linearGradient id="linear-gradient-2" gradientUnits="userSpaceOnUse" x1="12.955" x2="51.045" y1="31.999" y2="31.999"><stop offset="0" stop-color="#ffa68d"/><stop offset="1" stop-color="#fd3a84"/></linearGradient><g id="Kotak"><rect fill="url(#linear-gradient)" height="56" rx="6" width="56" x="4" y="4"/></g><g id="Objek"><path d="m16.0293 32.34247a2.64778 2.64778 0 0 0 .96422 2.957l2.6999 1.9642a1.17589 1.17589 0 0 1 .44283.6071l1.03568 3.17844a2.63918 2.63918 0 0 0 2.51415 1.82848h3.3427a1.1743 1.1743 0 0 1 .71425.23572l2.6999 1.95705a2.64395 2.64395 0 0 0 3.11414 0l2.6999-1.95705a1.1743 1.1743 0 0 1 .71425-.23572h3.3427a2.63918 2.63918 0 0 0 2.51415-1.82848l1.03568-3.17844a1.17589 1.17589 0 0 1 .44283-.6071l2.6999-1.9642a2.64778 2.64778 0 0 0 .96422-2.957l-1.0357-3.17847a1.22269 1.22269 0 0 1 0-.75l1.03567-3.17843a2.65125 2.65125 0 0 0 -.96422-2.957l-2.6999-1.9642a1.176 1.176 0 0 1 -.44283-.60714l-1.03568-3.17844a2.63925 2.63925 0 0 0 -2.51415-1.82849h-3.3427a1.2152 1.2152 0 0 1 -.71425-.22856l-2.6999-1.9642a2.63659 2.63659 0 0 0 -3.11414 0l-2.6999 1.9642a1.2152 1.2152 0 0 1 -.71425.22856h-3.3427a2.63925 2.63925 0 0 0 -2.51415 1.82849l-1.03568 3.17844a1.176 1.176 0 0 1 -.44283.60714l-2.6999 1.9642a2.65125 2.65125 0 0 0 -.96422 2.957l1.03573 3.1785a1.22269 1.22269 0 0 1 0 .75zm15.9707-12.39947a8.846 8.846 0 1 1 -8.84247 8.84962 8.85524 8.85524 0 0 1 8.84247-8.84962zm-7.414 8.84962a7.414 7.414 0 1 1 7.414 7.41399 7.42255 7.42255 0 0 1 -7.414-7.41396zm-11.628 16.90638a.715.715 0 0 1 .5428-.6214 12.46028 12.46028 0 0 0 6.29972-3.63557l.0143.05a3.7606 3.7606 0 0 0 .69281 1.2785 4.00877 4.00877 0 0 0 3.17844 1.53566h3.27129l1.43564 1.04286c-3.29985 4.41408-8.89962 6.50684-9.171 6.60685a.69582.69582 0 0 1 -.24282.04285.7107.7107 0 0 1 -.57144-1.13568 5.52956 5.52956 0 0 0 .77141-3.14269 13.99213 13.99213 0 0 1 -5.814-1.29995.72677.72677 0 0 1 -.40715-.72143zm37.54118-.6214a.715.715 0 0 1 .5428.6214.72677.72677 0 0 1 -.40709.7214 14.02631 14.02631 0 0 1 -5.814 1.29995 5.52956 5.52956 0 0 0 .77141 3.14269.7107.7107 0 0 1 -.57144 1.13568.69582.69582 0 0 1 -.24282-.04285c-.27142-.1-5.87119-2.19277-9.171-6.60685l1.43566-1.04283h3.27129a4.00877 4.00877 0 0 0 3.17844-1.53566 3.7606 3.7606 0 0 0 .69281-1.2785l.0143-.05a12.46028 12.46028 0 0 0 6.29965 3.6356z" fill="url(#linear-gradient-2)"/></g></svg>