<svg enable-background="new 0 0 32 32" height="512" viewBox="0 0 32 32" width="512" xmlns="http://www.w3.org/2000/svg"><g id="BG"><path d="m26 32h-20c-3.314 0-6-2.686-6-6v-20c0-3.314 2.686-6 6-6h20c3.314 0 6 2.686 6 6v20c0 3.314-2.686 6-6 6z" fill="#f5e6fe"/></g><g id="bold"><path d="m23.5 8h-15c-.276 0-.5.224-.5.5v1c0 .643.523 1.167 1.167 1.167h2.833v1.333h-1.5c-.276 0-.5.224-.5.5v11c0 .16.076.311.206.404.13.094.296.121.448.072l5.346-1.73 5.346 1.73c.051.016.102.024.154.024.104 0 .208-.033.294-.096.13-.094.206-.244.206-.404v-11c0-.276-.224-.5-.5-.5h-1.5v-1.333h2.833c.644 0 1.167-.524 1.167-1.167v-1c0-.276-.224-.5-.5-.5zm-10.167 2.667h5.333v1.333h-5.333zm2.667 9.833c-1.746 0-3.167-1.421-3.167-3.167s1.421-3.167 3.167-3.167 3.167 1.421 3.167 3.167-1.421 3.167-3.167 3.167z" fill="#be63f9"/><circle cx="16" cy="17.333" fill="#d9a4fc" r="1.167"/></g></svg>