<svg id="Layer_1" enable-background="new 0 0 100 100" viewBox="0 0 100 100" xmlns="http://www.w3.org/2000/svg" xmlns:xlink="http://www.w3.org/1999/xlink"><linearGradient id="SVGID_1_" gradientUnits="userSpaceOnUse" x1="3.37" x2="94.972" y1="3.201" y2="95.135"><stop offset=".1843576" stop-color="#29abe2"/><stop offset=".8211977" stop-color="#6200d2"/></linearGradient><path clip-rule="evenodd" d="m47.074955 3.5075836c1.7185516-1.3434424 4.1315498-1.3434424 5.8501015 0l7.8816719 6.160511 9.9061241-1.3943148c2.1602936-.3040471 4.2498245.9023571 5.0668259 2.9251928l3.745369 9.2760372 9.2758026 3.7455158c2.0230255.816761 3.2295227 2.9063339 2.9255295 5.0665379l-1.3945999 9.9060287 6.1607513 7.8818626c1.3432922 1.7185516 1.3432922 4.1315498 0 5.8501015l-6.1607513 7.8816719 1.3945999 9.9061241c.3039932 2.1602936-.902504 4.2498245-2.9255295 5.0668182l-9.2758026 3.7453766-3.745369 9.2758026c-.8170013 2.0230255-2.9065323 3.2295227-5.0668259 2.9255219l-9.9061241-1.3945999-7.8816719 6.160759c-1.7185516 1.3432922-4.1315498 1.3432922-5.8501015 0l-7.8818626-6.160759-9.9060287 1.3945999c-2.1602058.3040009-4.2497787-.9024963-5.0665398-2.9255219l-3.7455158-9.2758026-9.2760382-3.7453766c-2.0228348-.8169937-3.2292395-2.9065247-2.9251928-5.0668182l1.3943148-9.9061241-6.160511-7.8816719c-1.3434422-1.7185516-1.3434422-4.1315498 0-5.8501015l6.160511-7.8818626-1.3943149-9.9060286c-.3040466-2.1602039.9023581-4.2497768 2.9251928-5.0665379l9.2760382-3.7455158 3.7455158-9.2760372c.816761-2.0228357 2.9063339-3.2292399 5.0665398-2.9251928l9.9060287 1.3943148zm20.5337715 40.3511467c1.8548813-1.8548737 1.8548813-4.8624763 0-6.717495-1.8548737-1.854969-4.8625717-1.854969-6.7174454 0l-15.6412735 15.6413193-6.1412277-6.1412735c-1.8550186-1.8548737-4.8625259-1.8548737-6.7175484 0-1.8549671 1.8548775-1.8549671 4.8625755 0 6.7174492l9.5000496 9.4999962c1.8548775 1.8548737 4.8625755 1.8548737 6.7174492 0z" fill="url(#SVGID_1_)" fill-rule="evenodd"/></svg>