<svg viewBox="80 120 690 490" fill="none" xmlns="http://www.w3.org/2000/svg" xmlns:xlink="http://www.w3.org/1999/xlink" overflow="visible" width="690px" height="490px"><g id="Master/Scene/Celebration"><g id="Celebration" transform="translate(50 100) scale(1 1)"><g id="Celebration/Confetti"><g id="Group 53"><path id="Fill 1" fill-rule="evenodd" clip-rule="evenodd" d="M156.595 119.987C155.938 120.876 155.02 121.412 154.064 121.919C152.908 122.53 151.655 123.06 150.356 123.472C150.941 122.45 151.705 121.525 152.678 120.751C153.399 120.177 154.254 119.707 155.133 119.43C155.552 119.299 155.999 119.158 156.439 119.138C156.508 119.134 156.744 119.12 156.874 119.118C156.941 119.108 156.998 119.115 157.052 119.127C157.032 119.172 157.017 119.21 157.016 119.211C156.929 119.475 156.768 119.755 156.595 119.987M157.069 118.858C157.131 118.865 157.111 118.967 157.078 119.059C157.073 119.056 157.071 119.054 157.068 119.049C157.057 119.054 157.065 118.858 157.069 118.858M141.688 104.289C143.103 103.722 145.103 103.613 146.007 105.105C146.828 106.461 145.174 107.485 144.029 108.061C141.981 109.092 139.445 109.537 137.178 109.713C136.636 109.754 136.097 109.767 135.558 109.773C135.788 109.415 136.028 109.066 136.285 108.737C137.663 106.971 139.58 105.135 141.688 104.289M160.548 115.58C159.037 114.184 156.993 114.004 155.053 114.35C149.756 115.297 146.23 119.47 144.718 124.334C143.16 124.297 141.622 124.006 140.179 123.378C136.774 121.901 133.866 118.562 133.92 114.706C135.01 114.762 136.101 114.755 137.178 114.67C140.485 114.412 144.051 113.76 146.974 112.103C149.693 110.561 151.799 107.671 151.017 104.407C150.248 101.2 147.039 99.0346 143.848 98.9275C140.383 98.8105 137.24 100.848 134.788 103.107C132.954 104.795 131.356 106.84 130.298 109.123C130.055 109.058 129.81 109.013 129.569 108.936C125.231 107.575 121.346 104.135 120.202 99.6276C119.114 95.3361 120.988 90.7274 124.858 88.6074C127.651 87.0765 125.159 82.7939 122.362 84.3259C116.858 87.3412 114.231 93.6554 115.196 99.7634C116.177 105.97 121.121 110.883 126.749 113.173C127.491 113.476 128.257 113.726 129.033 113.937C128.699 119.228 131.788 124.239 136.386 126.976C138.726 128.368 141.288 129.055 143.899 129.206C143.873 129.968 143.883 130.728 143.954 131.476C144.564 137.886 148.494 146.515 156.188 145.976C157.521 145.882 158.66 144.903 158.66 143.497C158.66 142.228 157.527 140.924 156.188 141.018C152.198 141.298 149.982 136.793 149.227 133.414C148.9 131.954 148.76 130.412 148.844 128.891C151.329 128.447 153.763 127.603 155.993 126.492C158.789 125.098 161.666 122.781 161.979 119.431C162.112 118.011 161.605 116.555 160.548 115.58" fill="#ED6389"/><path id="Fill 5" fill-rule="evenodd" clip-rule="evenodd" d="M593.85 131.537C595.564 127.925 598.643 124.644 602.896 124.713C604.246 124.734 606.763 125.303 607.018 126.96C607.251 128.466 605.789 130.548 604.852 131.616C602.669 134.104 599.428 135.753 596.205 136.004C594.913 136.105 593.654 136.008 592.451 135.723C592.765 134.267 593.227 132.851 593.85 131.537M609.231 154.071C605.974 155.696 602.021 155.151 598.929 153.395C595.439 151.413 593.291 147.986 592.422 144.093C592.18 143.008 592.045 141.887 592.002 140.756C592.947 140.945 593.923 141.049 594.925 141.057C599.71 141.096 604.591 139.1 607.931 135.628C609.657 133.833 611.131 131.515 611.727 129.063C612.53 125.759 611.048 122.717 608.133 121.071C602.884 118.108 596.207 120.26 592.438 124.624C590.268 127.135 588.777 130.216 587.917 133.465C587.544 133.16 587.184 132.833 586.84 132.475C584.472 129.996 583.07 126.539 582.966 123.117C582.708 114.56 591.261 107.789 599.513 109.056C600.836 109.259 602.181 108.719 602.566 107.308C602.888 106.123 602.166 104.432 600.832 104.227C590.387 102.624 579.403 109.661 578.121 120.626C577.266 127.936 581.008 135.322 587.084 138.878C587.059 139.421 587.035 139.963 587.045 140.503C587.155 146.847 589.777 153.025 594.961 156.777C599.817 160.293 606.348 161.085 611.737 158.395C614.6 156.965 612.088 152.644 609.231 154.071" fill="#ED6389"/><path id="Fill 7" fill-rule="evenodd" clip-rule="evenodd" d="M223.617 135.025C221.392 131.628 217.537 130.421 213.67 131.253C205.34 133.045 200.827 142.453 201.596 150.411C201.974 154.32 203.173 158.142 203.465 162.047C201.876 161.551 200.367 160.756 198.908 159.966C196.467 158.646 194.021 157.237 191.346 156.453C188.57 155.642 185.273 155.476 182.814 157.254C180.475 158.947 179.576 161.738 179.853 164.559C180.114 167.209 181.005 169.684 181.677 172.24C182.279 174.529 182.298 176.888 181.727 179.186C180.615 183.66 177.469 187.719 173.054 189.221C167.938 190.96 162.053 189.684 158.231 185.801C155.978 183.515 152.473 187.053 154.726 189.341C158.651 193.327 164.391 195.428 169.942 194.927C175.593 194.416 180.484 191.543 183.703 186.822C186.792 182.293 187.871 176.402 186.5 171.077C185.869 168.63 184.757 166.121 184.755 163.558C184.754 162.805 184.851 162.143 185.328 161.628C186.094 160.803 187.365 160.774 188.402 160.904C191.41 161.283 194.121 163.064 196.739 164.468C199.659 166.037 202.633 167.337 205.975 167.542C207.383 167.628 208.359 166.322 208.453 165.04C208.79 160.434 207.366 156.023 206.692 151.52C206.096 147.54 206.636 143.665 208.962 140.326C210.759 137.748 214.221 135.165 217.514 136.178C218.478 136.474 219.37 137.356 219.764 138.284C220.225 139.37 220.214 140.365 219.691 140.981C218.821 142.007 218.693 143.514 219.691 144.52C220.581 145.421 222.321 145.552 223.196 144.52C225.493 141.813 225.556 137.986 223.617 135.025" fill="#E0BFDB"/><path id="Fill 9" fill-rule="evenodd" clip-rule="evenodd" d="M380.572 119.867C378.499 121.84 376.062 123.63 373.639 125.153C369.694 127.636 363.454 129.797 359.476 126.097C355.814 122.69 356.761 116.203 358.102 111.94C358.618 110.297 359.839 107.906 361.72 109.483C364.299 111.647 362.426 115.829 361.48 118.319C361.203 119.046 361.43 119.838 361.898 120.448C361.657 120.661 361.414 120.869 361.178 121.09C358.815 123.302 362.379 126.835 364.737 124.628C368.904 120.727 374.661 117.471 380.444 116.835C381.166 116.757 381.859 116.608 381.963 117.418C382.086 118.36 381.213 119.256 380.572 119.867M385.881 114.046C382.94 110.016 376.503 112.314 372.731 113.806C370.872 114.541 369.095 115.422 367.399 116.43C368.221 113.366 368.418 110.133 366.498 107.392C364.112 103.985 359.605 102.732 356.239 105.568C353.598 107.792 352.813 111.636 352.339 114.871C351.78 118.702 351.77 122.599 353.418 126.183C354.984 129.588 358.31 131.983 361.973 132.698C365.857 133.457 369.662 132.735 373.217 131.098C376.9 129.4 380.171 126.751 383.261 124.172C386.171 121.744 388.454 117.571 385.881 114.046" fill="#E0BFDB"/><path id="Fill 11" fill-rule="evenodd" clip-rule="evenodd" d="M539.549 137.192C539.684 137.633 539.78 138.076 539.868 138.529C539.746 137.896 539.858 138.475 539.87 138.632C539.891 138.888 539.901 139.146 539.902 139.403C539.902 139.597 539.897 139.789 539.886 139.981C539.883 140.051 539.825 140.812 539.858 140.416C539.892 140.024 539.794 140.768 539.778 140.844C539.74 141.033 539.696 141.223 539.648 141.409C539.534 141.851 539.383 142.276 539.231 142.705C539.013 143.317 539.465 142.24 539.183 142.826C539.084 143.033 538.984 143.238 538.877 143.442C538.678 143.82 538.46 144.188 538.223 144.544C538.095 144.737 537.959 144.923 537.825 145.111C537.452 145.636 538.006 144.936 537.671 145.303C537.086 145.945 536.491 146.54 535.824 147.1C535.602 147.275 535.617 147.264 535.869 147.069C535.763 147.146 535.656 147.222 535.546 147.297C535.383 147.408 535.218 147.515 535.049 147.62C534.658 147.86 534.253 148.081 533.837 148.275C533.704 148.338 533.142 148.545 533.725 148.333C533.541 148.4 533.358 148.47 533.172 148.532C532.737 148.675 532.293 148.792 531.844 148.881C531.715 148.905 531.586 148.927 531.456 148.948C531.779 148.91 531.843 148.901 531.648 148.923C531.419 148.924 531.187 148.965 530.958 148.973C530.49 148.991 530.025 148.972 529.559 148.929C528.223 148.805 526.944 150.171 527.002 151.438C527.068 152.903 528.128 153.816 529.559 153.948C538.982 154.818 547.172 144.653 544.481 135.858C544.097 134.601 542.67 133.68 541.335 134.105C540.041 134.515 539.137 135.844 539.549 137.192" fill="#E0BFDB"/><path id="Fill 13" fill-rule="evenodd" clip-rule="evenodd" d="M224.916 49.7458C225.147 50.1431 225.357 50.5485 225.543 50.97C225.339 50.5061 225.59 51.1142 225.625 51.2171C225.698 51.4328 225.765 51.6496 225.825 51.8685C225.945 52.3081 226.033 52.7518 226.109 53.2016C226.014 52.6419 226.123 53.3669 226.129 53.4355C226.147 53.6634 226.16 53.8903 226.167 54.1192C226.179 54.577 226.168 55.0358 226.135 55.4916C226.132 55.5471 226.051 56.2993 226.125 55.7356C226.095 55.9645 226.056 56.1924 226.013 56.4173C225.844 57.3259 225.589 58.2193 225.252 59.0754C225.412 58.669 225.186 59.2105 225.135 59.3204C225.039 59.5292 224.937 59.7349 224.831 59.9386C224.619 60.346 224.388 60.7413 224.14 61.1244C224.015 61.316 223.887 61.5046 223.754 61.6881C224.005 61.3433 223.651 61.8071 223.578 61.8949C223.291 62.2417 222.986 62.5735 222.665 62.8871C222.505 63.0434 222.336 63.1886 222.174 63.3419C221.8 63.6938 222.426 63.1846 221.973 63.5073C221.641 63.7452 221.311 63.9772 220.961 64.1839C220.769 64.2968 220.573 64.3957 220.38 64.5035C220.281 64.554 220.182 64.6024 220.082 64.6488C220.29 64.561 220.314 64.5509 220.153 64.6165C219.702 64.797 219.244 64.9412 218.775 65.0612C217.502 65.3869 216.741 66.8763 217.081 68.163C217.437 69.5092 218.788 70.2493 220.063 69.9236C229.109 67.6124 233.908 55.4755 229.103 47.2017C227.492 44.4266 223.298 46.9576 224.916 49.7458" fill="#E0BFDB"/><path id="Fill 15" fill-rule="evenodd" clip-rule="evenodd" d="M95.051 157.687C88.0552 164.336 88.3332 177.137 95.8432 183.306C96.8636 184.146 98.2938 184.313 99.2918 183.306C100.15 182.441 100.318 180.672 99.2918 179.828C93.7184 175.249 93.3057 166.103 98.5006 161.166C100.789 158.99 97.3358 155.517 95.051 157.687" fill="#FFCC37"/><path id="Fill 17" fill-rule="evenodd" clip-rule="evenodd" d="M341.609 166.927C343.49 171.403 343.832 177.612 340.234 181.379C338.714 182.972 336.618 183.641 334.718 182.448C332.863 181.28 331.798 178.951 331.818 176.794C331.852 173.468 333.931 170.457 336.129 168.12C337.411 166.756 338.803 165.503 340.281 164.358C340.79 165.181 341.237 166.042 341.609 166.927M319.919 167.661C320.007 170.001 319.789 172.481 318.887 174.627C318.062 176.588 316.702 178.154 314.528 178.195C311.937 178.245 309.842 175.939 309.222 173.605C307.775 168.154 311.605 162.336 315.988 159.402C316.772 158.878 317.595 158.408 318.447 158.001C319.272 161.161 319.797 164.395 319.919 167.661M360.96 156.108C358.135 152.727 353.23 152.687 349.331 153.896C346.512 154.771 343.79 156.108 341.252 157.693C340.103 156.519 338.837 155.459 337.457 154.553C332.723 151.443 327.052 150.664 321.665 151.778C321.134 150.355 320.547 148.952 319.899 147.576C318.17 143.904 315.503 140.271 311.087 140.012C309.134 139.898 307.173 140.595 305.83 142.027C303.656 144.345 307.148 147.844 309.329 145.518C311.147 143.581 313.62 146.39 314.53 147.942C315.512 149.616 316.3 151.416 316.974 153.256C316.943 153.269 316.912 153.281 316.883 153.293C309.955 156.316 304.455 162.996 304.021 170.686C303.779 174.997 305.626 179.189 309.3 181.558C312.651 183.719 316.963 183.603 320.091 181.131C326.074 176.405 325.235 166.988 324.048 160.394C323.81 159.071 323.509 157.761 323.162 156.464C325.559 156.024 328.037 156.071 330.425 156.727C332.96 157.424 335.255 158.781 337.169 160.563C334.041 163.003 331.085 165.827 329.093 169.279C327.101 172.729 326.121 177.021 327.588 180.852C328.885 184.235 331.59 187.254 335.317 187.866C343.701 189.242 348.203 179.749 347.899 172.757C347.727 168.793 346.454 164.95 344.355 161.621C344.563 161.499 344.762 161.361 344.971 161.243C347.856 159.607 351.773 157.428 355.219 158.205C356.499 158.495 357.373 159.166 357.879 160.375C358.213 161.175 358.228 161.919 357.732 162.448C355.559 164.767 359.05 168.264 361.231 165.938C363.902 163.088 363.333 158.95 360.96 156.108" fill="#FFCC37"/><path id="Fill 19" fill-rule="evenodd" clip-rule="evenodd" d="M397.901 49.4056C392.239 53.0111 391.128 61.3779 396.445 65.8408C399.184 68.1403 402.376 68.7432 405.847 68.1503C407.008 67.952 408.654 67.313 409.828 67.7256C410.966 68.1252 410.926 69.7327 410.907 70.7342C410.836 74.3447 409.927 77.771 411.5 81.2183C412.851 84.1748 415.759 85.8934 419.011 85.5268C420.306 85.3816 421.53 85.0381 422.768 84.6385C423.923 84.2649 425.261 83.7802 426.169 83.8112C426.764 83.8302 425.986 83.644 426.517 83.8823C426.114 83.7 426.762 84.1507 426.539 83.8973C426.812 84.2088 426.88 84.3621 426.929 84.8007C427.104 86.3721 426.563 87.9746 426.618 89.553C426.746 93.2406 429.225 96.5557 432.787 97.6514C436.509 98.7941 440.49 97.0214 442.576 93.8846C444.367 91.1895 440.014 88.6787 438.233 91.3577C437.145 92.9932 434.777 93.509 433.174 92.3292C431.102 90.8059 431.723 88.4303 431.91 86.2309C432.164 83.2604 431.118 80.2327 428.094 79.1401C425.835 78.3248 423.443 79.1641 421.276 79.8592C419.673 80.374 417.679 81.2974 416.5 79.8672C414.701 77.6849 415.725 74.1875 415.892 71.6737C416.099 68.5389 415.453 65.0335 412.429 63.403C409.538 61.8426 406.613 63.2648 403.622 63.4251C401.275 63.5513 398.937 62.062 398.19 59.8135C397.454 57.6022 398.478 54.9772 400.44 53.7292C403.157 51.9986 400.638 47.662 397.901 49.4056" fill="#FFCC37"/><path id="Fill 21" fill-rule="evenodd" clip-rule="evenodd" d="M525.755 76.2167C524.924 75.825 524.114 75.3933 523.328 74.9163C522.926 74.6716 522.529 74.4156 522.141 74.1494C521.956 74.0229 521.775 73.8944 521.594 73.7628C521.493 73.6909 521.394 73.6158 521.294 73.5428C520.93 73.2797 521.65 73.8255 521.402 73.6282C519.939 72.4716 518.6 71.1856 517.407 69.7525C517.009 69.2735 516.182 69 515.583 69C514.95 69 514.194 69.2796 513.759 69.7525C513.306 70.2419 512.971 70.8854 513.002 71.5701C513.035 72.2876 513.299 72.8366 513.759 73.3876C516.295 76.4388 519.555 78.9595 523.15 80.6547C523.789 80.9559 524.435 81.107 525.139 80.9138C525.737 80.7503 526.386 80.2897 526.681 79.7336C527.287 78.5904 527.058 76.8315 525.755 76.2167" fill="#FFCC37"/><path id="Fill 23" fill-rule="evenodd" clip-rule="evenodd" d="M271.799 38.4516C271.707 37.1297 270.658 36 269.172 36C267.821 36 266.451 37.1238 266.544 38.4516C266.945 44.1638 266.767 49.8946 266.013 55.5764C265.855 56.7689 267.134 57.8554 268.292 57.9839C269.462 58.1143 270.972 57.4475 271.174 56.2285C271.246 55.801 271.317 55.3734 271.387 54.9459C271.428 54.6978 271.432 54.4506 271.415 54.2065C272.023 48.9738 272.167 43.7058 271.799 38.4516" fill="#FFCC37"/><path id="Fill 25" fill-rule="evenodd" clip-rule="evenodd" d="M297.291 104.184C294.494 100.821 288.999 100.233 285.5 102.846C283.846 104.08 282.878 106.212 281.111 107.246C279.892 107.958 278.162 107.807 277.011 106.902C275.806 105.957 275.405 104.059 274.776 102.753C273.89 100.907 272.373 99.3068 270.269 98.8771C267.784 98.371 265.413 99.5672 263.709 101.28C262.156 102.843 261.326 104.822 260.016 106.547C259.087 107.768 257.889 108.698 256.48 107.576C254.441 105.95 254.921 102.683 255.13 100.447C255.252 99.1297 253.897 98 252.637 98C251.187 98 250.268 99.1257 250.145 100.447C249.889 103.196 249.849 106.005 251.085 108.555C252.075 110.599 254.069 112.361 256.351 112.852C258.762 113.37 261.11 112.492 262.831 110.814C264.449 109.238 265.253 107.17 266.615 105.427C267.414 104.404 268.955 102.9 269.927 104.195C270.835 105.405 271.222 107.374 272.152 108.775C274.625 112.506 280.237 113.83 284.037 111.21C285.179 110.423 286.028 109.425 286.907 108.377C287.528 107.636 288.181 106.764 289.103 106.37C290.771 105.658 292.628 106.277 293.766 107.644C294.618 108.669 296.407 108.513 297.291 107.644C298.323 106.632 298.145 105.211 297.291 104.184" fill="#00AFA9"/><path id="Fill 29" fill-rule="evenodd" clip-rule="evenodd" d="M596.99 54.3098C596.896 56.015 596.695 57.7093 596.39 59.3896C595.798 62.6465 594.885 65.8705 593.615 68.9291C592.889 70.6762 591.577 73.659 589.446 74.0059C587.426 74.3337 586.004 71.7356 585.19 70.2596C583.643 67.4611 582.327 64.5321 581.232 61.5293C580.658 59.9526 580.142 58.3561 579.686 56.7426C579.382 55.6692 578.985 54.6198 578.975 53.6182C579.208 53.7497 579.447 53.8743 579.672 54.0098C580.922 54.7673 582.074 55.6433 583.139 56.6439C584.834 58.2395 586.22 60.0692 587.328 62.0814C587.175 63.2903 587.101 64.5091 587.122 65.728C587.177 68.9311 592.163 68.9411 592.108 65.728C592.103 65.4769 592.109 65.2277 592.113 64.9766C593.111 64.1932 593.201 62.9176 592.716 61.7794C592.645 61.614 592.564 61.4525 592.49 61.2881C592.748 59.9477 593.137 58.6321 593.67 57.3585C594.226 56.033 594.96 54.7633 595.776 53.5853C596.005 53.2564 596.618 52.7272 596.903 52.3186C596.95 52.482 596.985 52.6136 596.98 52.5877C597.074 53.1448 597.022 53.7517 596.99 54.3098M578.426 53.2933C578.255 53.3292 578.195 53.1846 578.426 53.2933ZM579.094 52.8388C579.092 52.8438 579.087 52.8458 579.084 52.8508C579.085 52.8468 579.086 52.8388 579.085 52.8378C579.136 52.6654 579.139 52.6654 579.094 52.8388M601.008 49.264C599.745 47.1621 597.167 46.3987 594.968 47.5069C592.966 48.5155 591.564 50.7519 590.48 52.6365C589.92 53.6072 589.432 54.6158 589.009 55.6513C588.161 54.6068 587.236 53.6261 586.239 52.7312C583.78 50.5237 578.949 46.3917 575.671 49.2899C572.777 51.8492 574.324 56.2951 575.265 59.3836C576.549 63.5953 578.234 67.7023 580.264 71.609C581.993 74.9367 584.352 78.5165 588.419 78.96C592.268 79.3786 595.283 76.4426 597.021 73.3202C599.075 69.6307 600.322 65.2965 601.113 61.1695C601.546 58.9082 601.845 56.609 601.976 54.3098C602.072 52.6066 601.907 50.7589 601.008 49.264" fill="#00AFA9"/><path id="Fill 31" fill-rule="evenodd" clip-rule="evenodd" d="M97.7579 215.949C97.5212 216.186 97.2775 216.415 97.0159 216.629C97.0149 216.631 96.5215 216.997 96.7892 216.811C97.0578 216.622 96.5934 216.932 96.5405 216.965C96.2559 217.142 95.9613 217.306 95.6587 217.456C95.477 217.546 95.2882 217.622 95.1055 217.71C95.2982 217.617 95.3831 217.611 95.1334 217.697C94.4853 217.92 93.8292 218.102 93.1491 218.22C93.0453 218.238 92.3852 218.292 92.9933 218.251C92.8555 218.261 92.7177 218.278 92.5799 218.288C92.2004 218.315 91.8199 218.325 91.4394 218.32C91.0939 218.313 90.7484 218.265 90.4038 218.26C90.0343 218.254 90.9841 218.364 90.3479 218.252C90.1781 218.222 90.0084 218.195 89.8396 218.16C89.5021 218.094 89.1685 218.011 88.839 217.916C88.6752 217.869 88.5124 217.817 88.3506 217.763C88.2877 217.741 87.7594 217.536 88.074 217.667C88.3906 217.799 87.8124 217.544 87.8124 217.544C87.6586 217.473 87.5078 217.398 87.358 217.319C87.0584 217.162 86.7728 216.988 86.4901 216.806C86.2954 216.682 86.1626 216.555 86.4232 216.765C86.2924 216.66 86.1606 216.557 86.0348 216.448C85.7531 216.206 85.4935 215.948 85.2428 215.678C84.357 214.723 82.6194 214.827 81.7126 215.678C80.703 216.626 80.8238 218.037 81.7126 218.994C86.588 224.25 96.2399 224.328 101.289 219.265C102.21 218.341 102.264 216.866 101.289 215.949C100.357 215.074 98.6826 215.023 97.7579 215.949" fill="#00AFA9"/><path id="Fill 33" fill-rule="evenodd" clip-rule="evenodd" d="M90.8678 37.863C88.4575 32.0325 80.5285 31.3667 76.7614 36.2888C74.8492 38.7891 74.341 42.0477 75.0018 45.0747C75.271 46.308 75.7591 47.5065 75.9399 48.7586C76.0644 49.6262 76.204 49.9869 75.4076 50.1578C74.2386 50.4083 72.8486 49.9849 71.6344 50.1221C70.0004 50.3059 68.5211 51.0065 67.4063 52.2249C65.2712 54.5592 64.8684 57.782 65.4288 60.7713C65.7201 62.3225 66.2875 63.8032 66.7696 65.3028C66.9082 65.7361 67.0217 66.9873 67.339 67.3242C67.4234 67.4146 66.9725 68.1977 67.557 67.0866C67.6222 67.032 67.6976 67.0022 67.7829 67.0002C67.6042 67.0648 67.4214 67.1145 67.2356 67.1512C66.4814 67.2963 65.0884 67.1582 64.0981 67.2278C62.5103 67.3391 60.9989 67.833 59.7053 68.7641C56.8672 70.8083 55.2723 74.4127 56.3269 77.8382C57.3954 81.3035 60.3541 83.5275 63.9063 83.9856C65.2531 84.1596 66.4171 82.7196 66.4171 81.5012C66.4171 80.0146 65.2571 79.1917 63.9063 79.0168C62.3326 78.8141 60.9587 77.0422 61.02 75.5197C61.0842 73.8989 62.4872 72.4291 64.0981 72.1966C66.3799 71.8677 68.6848 72.5235 70.6643 70.9693C73.2403 68.949 72.2069 65.7679 71.3402 63.1623C70.6592 61.1151 69.6379 58.6863 70.4885 56.5726C71.3743 54.3734 73.3498 55.2101 75.3694 55.1147C78.2256 54.9816 80.5697 53.2176 80.9383 50.3387C81.2506 47.897 80.1178 45.7644 79.7733 43.4131C79.4961 41.525 80.167 39.0694 82.035 38.177C83.2482 37.5976 85.5229 37.9663 86.0261 39.1837C86.5383 40.4249 87.6952 41.3044 89.1143 40.9188C90.3024 40.5958 91.384 39.1121 90.8678 37.863" fill="#FFCC37"/><path id="Fill 35" fill-rule="evenodd" clip-rule="evenodd" d="M647.808 172.74C644.439 177.042 641.071 181.343 637.701 185.645C636.89 186.682 636.65 188.26 637.701 189.26C638.603 190.116 640.323 190.369 641.192 189.26C644.56 184.958 647.929 180.656 651.299 176.355C652.11 175.318 652.35 173.74 651.299 172.74C650.397 171.884 648.677 171.631 647.808 172.74" fill="#F06647"/><g id="Group 39"><path id="Fill 37" fill-rule="evenodd" clip-rule="evenodd" d="M67.2942 265.146C61.0905 260.704 54.8867 256.262 48.683 251.82C47.6044 251.048 45.9587 251.628 45.3327 252.706C44.6137 253.943 45.13 255.309 46.2114 256.083C52.4152 260.525 58.618 264.967 64.8217 269.409C65.9012 270.182 67.547 269.602 68.1729 268.523C68.891 267.285 68.3757 265.919 67.2942 265.146" fill="#F06647"/></g><path id="Fill 40" fill-rule="evenodd" clip-rule="evenodd" d="M185.625 214.079C183.769 213.805 182.089 214.231 180.76 215.59C179.646 216.729 178.985 218.371 179 219.952C179.018 221.794 179.993 223.401 181.595 224.325C182.315 224.741 183.148 224.99 183.952 225.195C184.326 225.292 184.703 225.374 185.074 225.483C185.495 225.609 185.52 225.578 185.732 225.76C185.773 225.795 185.552 225.603 185.597 225.6C185.643 225.677 185.691 225.754 185.738 225.831C185.717 225.787 185.696 225.744 185.675 225.699C185.876 225.664 185.304 225.179 185.66 225.725C185.59 225.617 185.839 225.256 185.609 225.742C185.769 225.402 185.388 226.064 185.325 226.157C185.245 226.27 184.94 226.628 184.703 226.884C183.569 228.113 182.244 229.259 181.399 230.716C179.472 234.039 180.496 238.468 183.617 240.7C187.18 243.247 192.427 241.855 194.625 238.241C196.296 235.493 191.943 232.993 190.275 235.735C189.72 236.648 188.684 237.112 187.566 237.03C186.71 236.969 185.887 236.29 185.587 235.319C185.243 234.206 185.487 233.405 186.329 232.435C187.461 231.131 188.802 230.007 189.752 228.551C190.771 226.988 191.054 224.987 190.087 223.325C189.104 221.632 187.4 220.936 185.574 220.476C185.199 220.383 184.814 220.302 184.449 220.173C184.361 220.141 183.909 219.888 184.107 220.059C183.902 219.848 183.889 219.845 184.068 220.051C183.93 219.798 183.926 219.798 184.058 220.051C183.993 219.765 183.987 219.769 184.039 220.063C184.032 219.914 184.034 219.766 184.048 219.616C183.82 220.33 184.352 218.933 184.073 219.549C184.119 219.446 184.618 218.724 184.322 219.102C184.537 218.908 184.536 218.891 184.318 219.048C184.438 218.963 184.564 218.888 184.696 218.822C184.432 218.933 184.438 218.946 184.716 218.864C184.573 218.924 184.429 218.926 184.286 218.868C185.629 219.066 186.993 218.535 187.384 217.133C187.711 215.961 186.978 214.278 185.625 214.079" fill="#41AFE4"/><g id="Group 44"><path id="Fill 42" fill-rule="evenodd" clip-rule="evenodd" d="M165.864 55.9611C169.15 56.8253 172.767 55.4014 174.533 52.3889C176.301 49.3753 175.638 45.2002 173.186 42.7876C170.675 40.3157 167.233 40.373 163.998 40.6372C162.569 40.7538 161.062 40.9367 159.753 40.4996C158.792 40.179 158.123 39.4163 157.83 38.4808C157.034 35.9325 159.128 33.4747 161.81 33.3672C164.952 33.2406 164.968 28.2154 161.81 28.343C158.505 28.4756 155.185 30.2763 153.662 33.3873C152.131 36.5144 152.598 40.2524 154.775 42.9283C156.976 45.6353 160.478 45.9368 163.672 45.6876C165.067 45.578 166.665 45.3349 167.994 45.567C169.068 45.7569 169.918 46.2543 170.383 47.2913C171.337 49.4196 169.387 51.7006 167.166 51.1167C164.111 50.3139 162.808 55.1582 165.864 55.9611" fill="#41AFE4"/></g><path id="Fill 45" fill-rule="evenodd" clip-rule="evenodd" d="M461.745 61.2423C461.461 61.1489 461.8 61.2654 461.86 61.3136C461.587 61.0967 461.903 61.3939 461.931 61.428C461.754 61.2082 462.261 61.958 462.307 62.0383C462.685 62.7028 462.994 63.4074 463.413 64.0499C464.596 65.8647 466.389 67.1325 468.646 66.9889C470.946 66.8424 472.909 65.3086 474.127 63.4416C475.44 61.433 475.494 59.0119 475.924 56.7343C476.139 55.595 476.731 53.186 478.326 53.2562C478.087 53.2452 478.512 53.4861 478.531 53.5112C478.995 54.1275 479.289 54.8793 479.619 55.5709C480.355 57.1097 481.358 58.5702 483.064 59.1263C485.584 59.9464 487.765 58.3424 489.225 56.4553C492.461 52.2745 493.582 46.9916 492.72 41.8312C492.497 40.4932 490.832 39.7464 489.616 40.0786C488.189 40.4691 487.629 41.8232 487.853 43.1652C488.441 46.6875 487.464 50.5029 485.304 53.3486C485.133 53.5734 484.436 54.1114 484.387 54.3343C484.341 54.535 484.318 54.2249 484.343 54.3564C484.332 54.2981 484.609 54.3513 484.624 54.3544C485.155 54.4527 484.617 54.3373 484.616 54.3373C484.766 54.3423 484.879 54.6946 484.622 54.2811C484.842 54.6344 484.382 53.8444 484.335 53.7591C483.649 52.4833 483.169 51.1453 482.174 50.0542C479.218 46.817 474.588 48.5344 472.426 51.7235C471.266 53.4349 471.032 55.5248 470.733 57.5112C470.503 59.042 470.304 61.0104 468.771 61.8345C468.33 62.0704 468.254 62.0313 468.062 61.8747C467.751 61.6187 467.375 60.8418 467.071 60.2626C466.144 58.504 465.053 57.0535 463.086 56.4031C459.997 55.3812 458.673 60.2265 461.745 61.2423" fill="#41AFE4"/><path id="Fill 47" fill-rule="evenodd" clip-rule="evenodd" d="M639.697 238.337C641.11 239.575 642.424 240.933 643.617 242.406C643.899 242.754 644.173 243.11 644.444 243.469C644.758 243.885 644.2 243.125 644.377 243.377C644.45 243.48 644.524 243.58 644.595 243.683C644.725 243.866 644.853 244.052 644.98 244.239C645.526 245.048 646.037 245.883 646.515 246.74C647.155 247.885 648.716 248.395 649.812 247.65C650.906 246.907 651.361 245.399 650.676 244.175C648.688 240.615 646.119 237.385 643.105 234.745C642.601 234.303 642.078 234 641.401 234C640.81 234 640.104 234.277 639.697 234.745C638.88 235.682 638.662 237.43 639.697 238.337" fill="#41AFE4"/><path id="Fill 49" fill-rule="evenodd" clip-rule="evenodd" d="M641.955 69.9454C640.523 69.1215 639.433 67.747 639.152 66.2207C641.96 66.6146 644.583 68.1067 646.219 70.4186C644.807 70.8024 643.315 70.7261 641.955 69.9454M656.146 50.8458C655.663 49.5778 654.441 48.7076 653.039 49.0915C651.816 49.425 650.789 50.9061 651.275 52.1811C653.131 57.0572 654.047 63.5611 650.418 67.6997C647.428 63.3752 642.12 60.6905 636.801 61.1265C635.66 61.22 634.704 61.845 634.365 62.9713C633.124 67.1029 635.176 71.2646 638.543 73.7173C641.308 75.7288 644.73 76.0815 647.89 75.1481C648.089 78.3663 646.646 81.6238 644.158 83.7318C643.119 84.613 643.247 86.3783 644.158 87.2846C645.188 88.3075 646.689 88.1668 647.73 87.2846C651.9 83.7509 653.748 77.874 652.573 72.599C654.886 70.6397 656.576 67.9137 657.366 65.0331C658.652 60.3428 657.85 55.321 656.146 50.8458" fill="#41AFE4"/><path id="Fill 51" fill-rule="evenodd" clip-rule="evenodd" d="M393.872 187.467C393.86 187.848 393.841 188.229 393.811 188.609C393.796 188.778 393.781 188.946 393.762 189.115C393.758 189.158 393.701 189.629 393.73 189.418C393.761 189.188 393.656 189.86 393.659 189.844C393.63 190.01 393.598 190.178 393.565 190.343C393.498 190.677 393.424 191.008 393.341 191.336C393.166 192.036 392.954 192.728 392.709 193.408C392.579 193.768 392.44 194.125 392.292 194.478C392.393 194.236 392.286 194.497 392.241 194.593C392.15 194.786 392.059 194.978 391.964 195.168C391.317 196.471 390.54 197.704 389.652 198.865C389.391 199.204 389.841 198.641 389.569 198.971C389.46 199.103 389.348 199.234 389.235 199.363C388.981 199.656 388.719 199.942 388.45 200.222C387.909 200.781 387.337 201.307 386.742 201.811C385.701 202.69 385.806 204.398 386.742 205.296C387.774 206.29 389.323 206.178 390.366 205.296C395.666 200.82 398.785 194.226 398.999 187.467C399.04 186.177 397.791 184.944 396.436 185.002C395.011 185.063 393.916 186.085 393.872 187.467" fill="#41AFE4"/></g></g></g><g id="Master/Worms/Fin" transform="translate(18 285) scale(0.9966777408637874 1)"><g id="Master/Worms/Fin"><g id="Body/Fin" transform="translate(83.918 150.8) scale(1 1)"><g id="Body/Fin/Blue"><g id="Group 10"><g id="Group 3"><path id="Fill 1" fill-rule="evenodd" clip-rule="evenodd" d="M135.896 164.221H0.999817V68.4481C0.999817 31.1971 31.1978 1.0001 68.4478 1.0001C105.699 1.0001 135.896 31.1971 135.896 68.4481V164.221Z" fill="#5473B8"/></g><path id="Fill 4" fill-rule="evenodd" clip-rule="evenodd" d="M66.305 55.4006C66.305 68.8856 55.373 79.8176 41.888 79.8176C28.403 79.8176 17.471 68.8856 17.471 55.4006C17.471 41.9156 28.403 30.9836 41.888 30.9836C55.373 30.9836 66.305 41.9156 66.305 55.4006" fill="#FFCC37"/><path id="Fill 6" fill-rule="evenodd" clip-rule="evenodd" d="M119.426 55.4006C119.426 68.8856 108.494 79.8176 95.0086 79.8176C81.5226 79.8176 70.5916 68.8856 70.5916 55.4006C70.5916 41.9156 81.5226 30.9836 95.0086 30.9836C108.494 30.9836 119.426 41.9156 119.426 55.4006" fill="#FFCC37"/><path id="Fill 8" fill-rule="evenodd" clip-rule="evenodd" d="M1 164.221H135.896V100.148H1V164.221Z" fill="#385E9F"/></g></g></g><g id="Eyes/Fin" transform="translate(126.918 194.8) scale(1 1)"><g id="Eyes/Fin/Open"><g id="Eyes"><path id="Fill 8" fill-rule="evenodd" clip-rule="evenodd" d="M15.3588 15.2683V15.2683C13.5528 15.2683 12.0898 13.8043 12.0898 11.9993V8.72428C12.0898 6.91828 13.5528 5.45428 15.3588 5.45428C17.1638 5.45428 18.6278 6.91828 18.6278 8.72428V11.9993C18.6278 13.8043 17.1638 15.2683 15.3588 15.2683" fill="#0F1335"/><path id="Fill 10" fill-rule="evenodd" clip-rule="evenodd" d="M33.8784 15.2683V15.2683C32.0734 15.2683 30.6094 13.8043 30.6094 11.9993V8.72428C30.6094 6.91828 32.0734 5.45428 33.8784 5.45428C35.6844 5.45428 37.1474 6.91828 37.1474 8.72428V11.9993C37.1474 13.8043 35.6844 15.2683 33.8784 15.2683" fill="#0F1335"/></g></g></g><g id="Mouth/Fin" transform="translate(130.918 211.8) scale(0.9761904761904762 1)"><g id="Mouth/Fin/Smiling Black"><g id="Group 3"><path id="Fill 1" fill-rule="evenodd" clip-rule="evenodd" d="M12.918 8H30.769C30.769 8 29.698 17.377 21.392 17.377C13.085 17.377 12.918 8 12.918 8" fill="#101335"/></g></g></g><g id="Hair/Fin" transform="translate(65.918 60.8) scale(1 1)"><g id="Hair/Fin/Head Wrap"><g id="Group 7"><g id="Group 3"><path id="Fill 1" fill-rule="evenodd" clip-rule="evenodd" d="M94.381 99.3628L153.893 155.725C153.893 118.619 123.551 88.5958 86.445 88.5958C49.338 88.5958 19 118.619 19 155.725L78.648 99.2308L67.054 121.977C66.785 122.504 66.995 123.149 67.522 123.418C68.049 123.687 68.694 123.477 68.963 122.95L82.726 95.9468L77.475 122.254C77.36 122.834 77.736 123.398 78.316 123.514C78.897 123.63 79.461 123.254 79.577 122.673L85.38 93.5988V122.464C85.38 123.055 85.859 123.535 86.451 123.535C87.042 123.535 87.522 123.055 87.522 122.464V93.3418L93.384 122.674C93.5 123.254 94.064 123.63 94.645 123.514C95.225 123.398 95.601 122.834 95.485 122.254L90.223 95.9238L103.998 122.95C104.266 123.477 104.912 123.687 105.439 123.418C105.966 123.149 106.175 122.504 105.907 121.977L94.381 99.3628Z" fill="#E9AE21"/></g><g id="Group 6"><path id="Fill 4" fill-rule="evenodd" clip-rule="evenodd" d="M115.489 76.0448C115.489 92.0858 102.485 105.09 86.4444 105.09C70.4034 105.09 57.3994 92.0858 57.3994 76.0448C57.3994 60.0038 70.4034 46.9998 86.4444 46.9998C102.485 46.9998 115.489 60.0038 115.489 76.0448" fill="#BF62A2"/></g></g></g></g><g id="Clothes/Fin" transform="translate(83.918 245.4) scale(1 1)"><g id="Clothes/Fin/Purple Sprinkles"><g id="Group 34"><path id="Fill 1" fill-rule="evenodd" clip-rule="evenodd" d="M1 70.0058H135.896V11.1298H1V70.0058Z" fill="#BF62A2"/><g id="Group 33"><g id="Group 4"><path id="Fill 2" fill-rule="evenodd" clip-rule="evenodd" d="M45.9158 58.9381C44.7978 58.2711 43.4878 58.0791 42.2298 58.3981C40.9678 58.7171 39.9058 59.5071 39.2388 60.6251C38.5728 61.7411 38.3808 63.0501 38.6998 64.3111L40.1378 70.0061H50.1818L48.1418 61.9261C47.8228 60.6661 47.0318 59.6041 45.9158 58.9381" fill="#604299"/></g><path id="Fill 5" fill-rule="evenodd" clip-rule="evenodd" d="M75.1479 15.8434C74.9639 17.1314 75.2939 18.4134 76.0749 19.4534C77.0299 20.7264 78.4929 21.3974 79.9749 21.3974C80.9919 21.3974 82.0169 21.0804 82.8909 20.4244L94.2939 11.8654C94.5829 11.6484 94.8359 11.3984 95.0659 11.1304H79.0519L77.0449 12.6364C76.0049 13.4164 75.3319 14.5554 75.1479 15.8434" fill="#604299"/><path id="Fill 7" fill-rule="evenodd" clip-rule="evenodd" d="M22.3062 21.0294C22.8592 22.2064 23.8382 23.0974 25.0622 23.5384C25.6052 23.7344 26.1602 23.8274 26.7082 23.8274C28.7022 23.8274 30.5782 22.5914 31.2932 20.6094L34.7112 11.1304H24.3592L22.1322 17.3064C21.6902 18.5304 21.7532 19.8524 22.3062 21.0294" fill="#604299"/><path id="Fill 9" fill-rule="evenodd" clip-rule="evenodd" d="M44.5617 13.8944C44.7827 15.1764 45.4897 16.2954 46.5527 17.0454L58.2037 25.2644C58.8167 25.6964 59.5057 25.9764 60.2257 26.0924C60.7517 26.1784 61.2957 26.1764 61.8367 26.0834C63.1207 25.8614 64.2397 25.1534 64.9867 24.0934C65.7367 23.0314 66.0287 21.7394 65.8077 20.4574C65.5867 19.1754 64.8797 18.0564 63.8167 17.3064L55.0617 11.1304H44.8947C44.5187 11.9924 44.3977 12.9454 44.5617 13.8944" fill="#604299"/><path id="Fill 11" fill-rule="evenodd" clip-rule="evenodd" d="M70.8248 38.3455C69.8988 37.4315 68.6928 36.9455 67.3738 36.9415C66.0738 36.9495 64.8528 37.4645 63.9388 38.3905C63.0248 39.3165 62.5268 40.5425 62.5348 41.8425L62.6268 56.0965C62.6428 58.7715 64.8248 60.9365 67.4988 60.9355H67.5288C70.2128 60.9175 72.3828 58.7195 72.3648 56.0355L72.2728 41.7805C72.2648 40.4805 71.7508 39.2605 70.8248 38.3455" fill="#604299"/><path id="Fill 13" fill-rule="evenodd" clip-rule="evenodd" d="M44.0291 31.7047C43.5961 30.4777 42.7111 29.4927 41.5361 28.9327C40.3611 28.3717 39.0391 28.3017 37.8151 28.7357C35.2851 29.6297 33.9531 32.4167 34.8471 34.9477L39.6011 48.3897C40.3061 50.3857 42.1891 51.6357 44.1961 51.6357C44.7341 51.6357 45.2801 51.5457 45.8161 51.3567C48.3471 50.4617 49.6771 47.6737 48.7821 45.1427L44.0291 31.7047Z" fill="#604299"/><g id="Group 17"><path id="Fill 15" fill-rule="evenodd" clip-rule="evenodd" d="M102.289 27.3875C101.744 30.0165 103.439 32.5985 106.068 33.1445C106.4 33.2125 106.735 33.2475 107.067 33.2475C108.006 33.2475 108.926 32.9745 109.729 32.4475C110.816 31.7325 111.56 30.6385 111.825 29.3655L114.719 15.4065C114.983 14.1325 114.735 12.8315 114.02 11.7445C113.874 11.5215 113.702 11.3225 113.525 11.1295H106.379C105.787 11.7715 105.364 12.5535 105.183 13.4315L102.289 27.3875Z" fill="#604299"/></g><path id="Fill 18" fill-rule="evenodd" clip-rule="evenodd" d="M91.7808 32.5203C91.2918 29.8803 88.7488 28.1273 86.1098 28.6173C83.4698 29.1043 81.7178 31.6483 82.2048 34.2913L84.7968 48.3103C85.2298 50.6513 87.2818 52.2943 89.5838 52.2943C89.8758 52.2943 90.1728 52.2673 90.4698 52.2123C91.7488 51.9763 92.8598 51.2563 93.5958 50.1843C94.3338 49.1123 94.6088 47.8183 94.3718 46.5393L91.7808 32.5203Z" fill="#604299"/><path id="Fill 20" fill-rule="evenodd" clip-rule="evenodd" d="M122.7 37.0907L108.875 40.5817C106.274 41.2397 104.691 43.8917 105.348 46.4947C105.666 47.7557 106.456 48.8167 107.574 49.4827C108.338 49.9397 109.193 50.1737 110.06 50.1737C110.46 50.1737 110.863 50.1237 111.261 50.0227L125.081 46.5337C126.344 46.2147 127.406 45.4237 128.073 44.3067C128.739 43.1897 128.93 41.8817 128.612 40.6207C127.955 38.0177 125.304 36.4327 122.7 37.0907" fill="#604299"/><g id="Group 24"><path id="Fill 22" fill-rule="evenodd" clip-rule="evenodd" d="M13.7795 38.1867C14.5815 38.0437 15.3195 37.7117 15.9415 37.2197C16.3125 36.9267 16.6425 36.5777 16.9215 36.1787C17.6645 35.1127 17.9495 33.8217 17.7225 32.5417C17.4945 31.2597 16.7825 30.1447 15.7155 29.3997L4.02551 21.2387C3.10651 20.5967 2.04151 20.3377 0.999512 20.3897V31.0027L10.1385 37.3837C11.2055 38.1287 12.4985 38.4147 13.7795 38.1867" fill="#604299"/></g><path id="Fill 25" fill-rule="evenodd" clip-rule="evenodd" d="M127.222 60.6348C126.296 59.7208 125.059 59.2428 123.772 59.2318C122.471 59.2398 121.251 59.7538 120.336 60.6798C119.422 61.6058 118.924 62.8328 118.932 64.1318L118.971 70.0058H128.709L128.671 64.0708C128.663 62.7698 128.149 61.5488 127.222 60.6348" fill="#604299"/><path id="Fill 27" fill-rule="evenodd" clip-rule="evenodd" d="M94.2417 59.9105C93.1907 60.6775 92.5017 61.8075 92.3017 63.0925C92.1007 64.3775 92.4127 65.6635 93.1797 66.7135L95.5817 70.0055H107.638L101.044 60.9705C99.4597 58.8045 96.4077 58.3275 94.2417 59.9105" fill="#604299"/><path id="Fill 29" fill-rule="evenodd" clip-rule="evenodd" d="M25.9965 47.8546L12.1755 51.3446C9.57251 52.0016 7.98851 54.6546 8.64651 57.2606C9.20451 59.4636 11.1915 60.9356 13.3685 60.9356C13.7615 60.9356 14.1605 60.8876 14.5585 60.7876L28.3795 57.2976C30.9825 56.6406 32.5665 53.9876 31.9085 51.3816C31.2505 48.7806 28.5955 47.1996 25.9965 47.8546" fill="#604299"/><path id="Fill 31" fill-rule="evenodd" clip-rule="evenodd" d="M127.413 16.8988C126.122 17.0498 124.966 17.6948 124.16 18.7148C123.352 19.7348 122.991 21.0088 123.143 22.3018C123.294 23.5938 123.94 24.7488 124.96 25.5548L135.895 34.1998V21.7858L131 17.9158C129.979 17.1088 128.711 16.7468 127.413 16.8988" fill="#604299"/></g></g></g></g></g></g><g id="Master/Worms/Jae" transform="translate(439 285) scale(0.9966777408637874 1)"><g id="Master/Worms/Jae"><g id="Body/Jae" transform="translate(47.918 130.42) scale(1 1)"><g id="Body/Jae/Charcoal"><g id="Group 9"><path id="Fill 1" fill-rule="evenodd" clip-rule="evenodd" d="M0.000610352 104.107V183.221H208.214V104.107C208.214 46.61 161.604 0 104.108 0C46.6106 0 0.000610352 46.61 0.000610352 104.107Z" fill="#3A3E5B"/><path id="Fill 3" fill-rule="evenodd" clip-rule="evenodd" d="M100.977 63.6695C100.977 83.3655 85.0099 99.3325 65.3149 99.3325C45.6189 99.3325 29.6519 83.3655 29.6519 63.6695C29.6519 43.9735 45.6189 28.0065 65.3149 28.0065C85.0099 28.0065 100.977 43.9735 100.977 63.6695" fill="#F06647"/><path id="Fill 5" fill-rule="evenodd" clip-rule="evenodd" d="M178.563 63.6695C178.563 83.3655 162.596 99.3325 142.9 99.3325C123.205 99.3325 107.238 83.3655 107.238 63.6695C107.238 43.9735 123.205 28.0065 142.9 28.0065C162.596 28.0065 178.563 43.9735 178.563 63.6695" fill="#F06647"/><path id="Fill 7" fill-rule="evenodd" clip-rule="evenodd" d="M0 183.221H208.214V112.697H0V183.221Z" fill="#252A42"/></g></g></g><g id="Eyes/Jae" transform="translate(124.918 186.42) scale(1 1)"><g id="Eyes/Jae/Open"><g id="Eyes"><path id="Fill 11" fill-rule="evenodd" clip-rule="evenodd" d="M16.8481 17.6242V17.6242C15.0421 17.6242 13.5781 16.1602 13.5781 14.3552V11.0802C13.5781 9.27421 15.0421 7.81021 16.8481 7.81021C18.6541 7.81021 20.1171 9.27421 20.1171 11.0802V14.3552C20.1171 16.1602 18.6541 17.6242 16.8481 17.6242" fill="#101335"/><path id="Fill 13" fill-rule="evenodd" clip-rule="evenodd" d="M37.3677 17.6242V17.6242C35.5617 17.6242 34.0977 16.1602 34.0977 14.3552V11.0802C34.0977 9.27421 35.5617 7.81021 37.3677 7.81021C39.1737 7.81021 40.6377 9.27421 40.6377 11.0802V14.3552C40.6377 16.1602 39.1737 17.6242 37.3677 17.6242" fill="#101335"/></g></g></g><g id="Mouth/Jae" transform="translate(132.77 206.476) scale(0.975 1)"><g id="Mouth/Jae/Surprised"><g id="Group 3"><path id="Fill 1" fill-rule="evenodd" clip-rule="evenodd" d="M28.995 16.0388C28.995 21.0308 24.948 25.0778 19.957 25.0778C14.965 25.0778 10.918 21.0308 10.918 16.0388C10.918 11.0468 14.965 6.9998 19.957 6.9998C24.948 6.9998 28.995 11.0468 28.995 16.0388" fill="white"/></g></g></g><g id="Hair/Jae" transform="translate(5.91797 0.420013) scale(1 1)"><g id="Hair/Jae/Mickey Head"><g id="Group 9"><path id="Fill 1" fill-rule="evenodd" clip-rule="evenodd" d="M227.14 169.416C208.588 145.881 179.203 130.641 146.155 130.641C113.105 130.641 83.9949 145.803 65.1689 169.416H227.14Z" fill="#ED6389"/><g id="Group 5"><path id="Fill 3" fill-rule="evenodd" clip-rule="evenodd" d="M242.809 108.752C242.809 128.718 226.623 144.904 206.658 144.904C186.691 144.904 170.505 128.718 170.505 108.752C170.505 88.786 186.691 72.6 206.658 72.6C226.623 72.6 242.809 88.786 242.809 108.752" fill="#41AFE4"/></g><g id="Group 8"><path id="Fill 6" fill-rule="evenodd" clip-rule="evenodd" d="M121.804 108.752C121.804 128.718 105.618 144.904 85.652 144.904C65.686 144.904 49.499 128.718 49.499 108.752C49.499 88.786 65.686 72.6 85.652 72.6C105.618 72.6 121.804 88.786 121.804 108.752" fill="#41AFE4"/></g></g></g></g><g id="Clothes/Jae" transform="translate(47.918 251.42) scale(1 1)"><g id="Clothes/Jae/Purple Sprinkles"><g id="Group 28"><path id="Fill 1" fill-rule="evenodd" clip-rule="evenodd" d="M0 64.5816H208.215V1.00061H0V64.5816Z" fill="#BF62A2"/><g id="Group 27"><path id="Fill 2" fill-rule="evenodd" clip-rule="evenodd" d="M115.879 8.84682C117.355 10.8118 119.612 11.8478 121.899 11.8478C123.469 11.8478 125.052 11.3588 126.4 10.3458L138.852 0.999817H115.157C114.808 1.70782 114.564 2.47182 114.448 3.27482C114.165 5.26382 114.673 7.24182 115.879 8.84682" fill="#604299"/><path id="Fill 4" fill-rule="evenodd" clip-rule="evenodd" d="M32.8883 11.2799C33.7423 13.0959 35.2523 14.4719 37.1413 15.1529C37.9803 15.4549 38.8373 15.5979 39.6823 15.5979C42.7613 15.5979 45.6573 13.6909 46.7593 10.6319L50.2323 0.999939H34.2533L32.6183 5.53394C31.9373 7.42294 32.0343 9.46294 32.8883 11.2799" fill="#604299"/><path id="Fill 6" fill-rule="evenodd" clip-rule="evenodd" d="M70.3128 5.13049L88.2948 17.8165C89.2418 18.4835 90.3048 18.9155 91.4168 19.0955C92.2288 19.2275 93.0678 19.2245 93.9038 19.0805C95.8848 18.7385 97.6128 17.6455 98.7648 16.0095C99.9228 14.3695 100.375 12.3765 100.033 10.3965C99.6918 8.41749 98.5998 6.69149 96.9588 5.53249L90.5338 1.00049H67.4028C67.8638 2.67049 68.8778 4.11849 70.3128 5.13049" fill="#604299"/><g id="Group 10"><path id="Fill 8" fill-rule="evenodd" clip-rule="evenodd" d="M107.777 38.0081C106.348 36.5971 104.486 35.8471 102.451 35.8411C100.443 35.8541 98.5586 36.6481 97.1486 38.0771C95.7376 39.5061 94.9676 41.4001 94.9816 43.4051L95.1176 64.5821H110.149L110.012 43.3101C110.001 41.3021 109.207 39.4191 107.777 38.0081" fill="#604299"/></g><path id="Fill 11" fill-rule="evenodd" clip-rule="evenodd" d="M66.4175 27.7575C65.7485 25.8635 64.3825 24.3435 62.5695 23.4785C60.7555 22.6115 58.7155 22.5045 56.8255 23.1745C52.9205 24.5545 50.8645 28.8565 52.2445 32.7625L59.5815 53.5105C60.6705 56.5915 63.5775 58.5215 66.6755 58.5215C67.5045 58.5215 68.3495 58.3825 69.1755 58.0905C73.0815 56.7085 75.1355 52.4045 73.7535 48.4995L66.4175 27.7575Z" fill="#604299"/><path id="Fill 13" fill-rule="evenodd" clip-rule="evenodd" d="M162.174 29.9796C162.688 30.0856 163.204 30.1386 163.717 30.1386C165.166 30.1386 166.585 29.7176 167.825 28.9036C169.503 27.8016 170.653 26.1126 171.06 24.1466L175.528 2.60161C175.638 2.06761 175.685 1.53161 175.681 1.00061H160.508L156.342 21.0936C155.5 25.1516 158.116 29.1376 162.174 29.9796" fill="#604299"/><path id="Fill 15" fill-rule="evenodd" clip-rule="evenodd" d="M140.122 29.0163C139.368 24.9413 135.443 22.2353 131.368 22.9933C127.294 23.7443 124.59 27.6703 125.342 31.7503L129.342 53.3893C130.012 57.0023 133.178 59.5373 136.731 59.5373C137.183 59.5373 137.641 59.4963 138.099 59.4123C140.073 59.0473 141.787 57.9353 142.925 56.2803C144.062 54.6273 144.487 52.6293 144.122 50.6553L140.122 29.0163Z" fill="#604299"/><path id="Fill 17" fill-rule="evenodd" clip-rule="evenodd" d="M166.508 41.4592C162.493 42.4752 160.051 46.5682 161.065 50.5862C161.556 52.5322 162.775 54.1702 164.499 55.1992C165.68 55.9032 166.999 56.2642 168.337 56.2642C168.955 56.2642 169.577 56.1882 170.191 56.0322L191.523 50.6462C193.471 50.1542 195.111 48.9342 196.14 47.2092C197.168 45.4852 197.463 43.4652 196.973 41.5192C195.958 37.5022 191.867 35.0562 187.848 36.0712L166.508 41.4592Z" fill="#604299"/><g id="Group 21"><path id="Fill 19" fill-rule="evenodd" clip-rule="evenodd" d="M19.726 37.7625C20.964 37.5425 22.103 37.0295 23.063 36.2705C23.636 35.8185 24.145 35.2795 24.576 34.6635C25.723 33.0185 26.163 31.0245 25.812 29.0495C25.461 27.0715 24.362 25.3495 22.714 24.1995L4.671 11.6025C3.251 10.6125 1.609 10.2115 0 10.2935V26.6745L14.107 36.5235C15.753 37.6735 17.748 38.1135 19.726 37.7625" fill="#604299"/></g><path id="Fill 22" fill-rule="evenodd" clip-rule="evenodd" d="M47.7085 58.1295C46.6925 54.1135 42.5955 51.6735 38.5835 52.6855L17.2495 58.0725C14.1125 58.8645 11.9435 61.5345 11.6235 64.5815H46.3465C47.7175 62.8155 48.2985 60.4625 47.7085 58.1295" fill="#604299"/><g id="Group 26"><path id="Fill 24" fill-rule="evenodd" clip-rule="evenodd" d="M195.122 4.90437C193.129 5.13737 191.345 6.13237 190.1 7.70737C188.854 9.28237 188.296 11.2484 188.53 13.2434C188.765 15.2374 189.761 17.0214 191.335 18.2644L208.215 31.6084V12.4474L200.658 6.47437C199.083 5.22837 197.126 4.67037 195.122 4.90437" fill="#604299"/></g></g></g></g></g></g></g><g id="Master/Worms/Mol" transform="translate(146 285) scale(0.9966777408637874 1)"><g id="Master/Worms/Mol"><g id="Body/Mol" transform="translate(99.918 45.84) scale(1 1)"><g id="Body/Mol/Orange"><g id="Group 11"><g id="Group 3"><path id="Fill 1" fill-rule="evenodd" clip-rule="evenodd" d="M7.2251 70.6675V268.042H96.5611V70.6675C96.5611 45.9985 76.5621 25.9995 51.8931 25.9995C27.2241 25.9995 7.2251 45.9985 7.2251 70.6675Z" fill="#F06647"/></g><path id="Fill 4" fill-rule="evenodd" clip-rule="evenodd" d="M49.7115 71.0884C49.7115 84.8164 38.5835 95.9444 24.8555 95.9444C11.1285 95.9444 0.000488281 84.8164 0.000488281 71.0884C0.000488281 57.3604 11.1285 46.2334 24.8555 46.2334C38.5835 46.2334 49.7115 57.3604 49.7115 71.0884" fill="#CBD3D8"/><g id="Group 8"><path id="Fill 6" fill-rule="evenodd" clip-rule="evenodd" d="M103.786 71.0884C103.786 84.8164 92.6582 95.9444 78.9302 95.9444C65.2032 95.9444 54.0752 84.8164 54.0752 71.0884C54.0752 57.3604 65.2032 46.2334 78.9302 46.2334C92.6582 46.2334 103.786 57.3604 103.786 71.0884" fill="#CBD3D8"/></g><path id="Fill 9" fill-rule="evenodd" clip-rule="evenodd" d="M7.2251 268.042H96.4901V123.015H7.2251V268.042Z" fill="#DD4328"/></g></g></g><g id="Eyes/Mol" transform="translate(127.918 109.84) scale(1 1)"><g id="Eyes/Mol/Open"><g id="Eyes"><path id="Fill 10" fill-rule="evenodd" clip-rule="evenodd" d="M14.6333 12.3554V12.3554C12.8273 12.3554 11.3643 10.8914 11.3643 9.08642V5.81142C11.3643 4.00542 12.8273 2.54242 14.6333 2.54242C16.4383 2.54242 17.9023 4.00542 17.9023 5.81142V9.08642C17.9023 10.8914 16.4383 12.3554 14.6333 12.3554" fill="#101335"/><path id="Fill 12" fill-rule="evenodd" clip-rule="evenodd" d="M33.1528 12.3554V12.3554C31.3478 12.3554 29.8838 10.8914 29.8838 9.08642V5.81142C29.8838 4.00542 31.3478 2.54242 33.1528 2.54242C34.9588 2.54242 36.4218 4.00542 36.4218 5.81142V9.08642C36.4218 10.8914 34.9588 12.3554 33.1528 12.3554" fill="#101335"/></g></g></g><g id="Mouth/Mol" transform="translate(133.656 123.909) scale(0.9736842105263158 1)"><g id="Mouth/Mol/Smiling Black"><g id="Group 3"><path id="Fill 1" fill-rule="evenodd" clip-rule="evenodd" d="M10.918 6.00006H28.769C28.769 6.00006 27.698 15.3771 19.392 15.3771C11.085 15.3771 10.918 6.00006 10.918 6.00006" fill="#101335"/></g></g></g><g id="Hair/Mol" transform="translate(88.918 7.84003) scale(1 1)"><g id="Hair/Mol/Blue Waves"><g id="Group 3"><path id="Fill 1" fill-rule="evenodd" clip-rule="evenodd" d="M116.547 108.742C121.367 105.838 120.61 98.5539 115.298 96.7272C111.138 95.2959 109.508 90.2212 112.042 86.591C115.278 81.9543 111.658 75.6112 106.07 76.1281V76.1281C101.695 76.5327 98.1647 72.5666 99.0197 68.2081C100.112 62.6408 94.2537 58.3359 89.3567 61.1064C85.5217 63.276 80.7027 61.1064 79.7307 56.7721C78.4897 51.2362 71.4077 49.7139 68.0477 54.2596C65.4177 57.82 60.1417 57.82 57.5117 54.2596C54.1517 49.7139 47.0697 51.2362 45.8287 56.7721C44.8567 61.1064 40.0377 63.276 36.2027 61.1064C31.3057 58.3359 25.4477 62.6408 26.5397 68.2081C27.3957 72.5666 23.8647 76.5327 19.4897 76.1281C13.9017 75.6112 10.2817 81.9543 13.5177 86.591C16.0517 90.2212 14.4217 95.2959 10.2617 96.7272C4.94973 98.5539 4.19273 105.838 9.01373 108.742C12.7887 111.017 13.3397 116.323 10.1147 119.341C5.99573 123.196 8.23373 130.161 13.8057 130.831C15.6587 131.054 17.1957 132.02 18.2237 133.367V120.436C21.1367 120.075 25.4467 118.478 27.6817 112.521C31.2547 102.996 34.9517 108.459 43.3297 103.848C51.7087 99.2377 44.8087 89.2674 53.8027 86.6497C61.0497 84.5417 63.3907 77.2589 64.0277 74.5067C64.6177 76.4295 68.0087 86.0114 77.2037 86.6689C87.4277 87.4002 84.9487 97.7822 92.0747 100.007C99.2007 102.233 104.055 102.546 104.364 111.007C104.507 114.9 105.978 117.975 107.525 120.165V133.135C108.549 131.912 110.01 131.041 111.755 130.831C117.326 130.161 119.564 123.196 115.445 119.341C112.22 116.323 112.772 111.017 116.547 108.742" fill="#41AFE4"/></g></g></g><g id="Clothes/Mol" transform="translate(107.117 168.84) scale(1 1)"><g id="Clothes/Mol/Pink Polkas"><g id="Group 31"><path id="Fill 1" fill-rule="evenodd" clip-rule="evenodd" d="M0 145.967H89.336V11.8H0V145.967Z" fill="#E0BFDB"/><g id="Group 30"><path id="Fill 2" fill-rule="evenodd" clip-rule="evenodd" d="M69.6711 68.921C64.3621 68.921 60.0591 73.221 60.0591 78.525C60.0591 83.83 64.3621 88.13 69.6711 88.13C74.9801 88.13 79.2831 83.83 79.2831 78.525C79.2831 73.221 74.9801 68.921 69.6711 68.921" fill="#F285B6"/><g id="Group 6"><path id="Fill 4" fill-rule="evenodd" clip-rule="evenodd" d="M77.9033 36.8405C77.9033 42.1445 82.2063 46.4445 87.5153 46.4445C88.1383 46.4445 88.7463 46.3815 89.3363 46.2675V27.4135C88.7463 27.2995 88.1383 27.2355 87.5153 27.2355C82.2063 27.2355 77.9033 31.5365 77.9033 36.8405" fill="#F285B6"/></g><path id="Fill 7" fill-rule="evenodd" clip-rule="evenodd" d="M56.3183 43.6623C56.3183 38.3573 52.0143 34.0573 46.7053 34.0573C41.3973 34.0573 37.0933 38.3573 37.0933 43.6623C37.0933 48.9663 41.3973 53.2663 46.7053 53.2663C52.0143 53.2663 56.3183 48.9663 56.3183 43.6623" fill="#F285B6"/><path id="Fill 9" fill-rule="evenodd" clip-rule="evenodd" d="M26.2424 77.0187C20.9334 77.0187 16.6304 81.3187 16.6304 86.6237C16.6304 91.9277 20.9334 96.2277 26.2424 96.2277C31.5514 96.2277 35.8544 91.9277 35.8544 86.6237C35.8544 81.3187 31.5514 77.0187 26.2424 77.0187" fill="#F285B6"/><path id="Fill 11" fill-rule="evenodd" clip-rule="evenodd" d="M50.6828 106.382C45.3738 106.382 41.0708 110.682 41.0708 115.987C41.0708 121.291 45.3738 125.591 50.6828 125.591C55.9918 125.591 60.2948 121.291 60.2948 115.987C60.2948 110.682 55.9918 106.382 50.6828 106.382" fill="#F285B6"/><path id="Fill 13" fill-rule="evenodd" clip-rule="evenodd" d="M82.6211 112.759C82.6211 117.054 85.4441 120.689 89.3361 121.917V103.6C85.4441 104.828 82.6211 108.463 82.6211 112.759" fill="#F285B6"/><path id="Fill 15" fill-rule="evenodd" clip-rule="evenodd" d="M73.0085 139.63C68.8495 139.63 65.3185 142.274 63.9795 145.966H82.0375C80.6985 142.274 77.1665 139.63 73.0085 139.63" fill="#F285B6"/><path id="Fill 17" fill-rule="evenodd" clip-rule="evenodd" d="M18.6872 139.521C14.4872 139.521 10.9262 142.216 9.61719 145.967H27.7562C26.4482 142.216 22.8872 139.521 18.6872 139.521" fill="#F285B6"/><g id="Group 21"><path id="Fill 19" fill-rule="evenodd" clip-rule="evenodd" d="M61.3513 16.9059C65.0323 16.9059 68.2273 14.8369 69.8413 11.7999H52.8613C54.4763 14.8369 57.6703 16.9059 61.3513 16.9059" fill="#F285B6"/></g><g id="Group 24"><path id="Fill 22" fill-rule="evenodd" clip-rule="evenodd" d="M15.5886 16.9059C19.2696 16.9059 22.4636 14.8369 24.0786 11.7999H7.09863C8.71263 14.8369 11.9076 16.9059 15.5886 16.9059" fill="#F285B6"/></g><g id="Group 27"><path id="Fill 25" fill-rule="evenodd" clip-rule="evenodd" d="M6.385 119.7C6.385 115.529 3.719 111.989 0 110.662V128.738C3.719 127.411 6.385 123.871 6.385 119.7" fill="#F285B6"/></g><path id="Fill 28" fill-rule="evenodd" clip-rule="evenodd" d="M12.3825 47.1686C12.3825 41.8646 8.07949 37.5646 2.77049 37.5646C1.80649 37.5646 0.878488 37.7096 0.000488281 37.9736V56.3646C0.878488 56.6276 1.80649 56.7736 2.77049 56.7736C8.07949 56.7736 12.3825 52.4736 12.3825 47.1686" fill="#F285B6"/></g></g></g></g></g></g><g id="Master/Worms/Poh" transform="translate(262 285) scale(0.9966777408637874 1)"><g id="Master/Worms/Poh"><g id="Body/Poh" transform="translate(92.457 113.4) scale(1 1)"><g id="Body/Poh/Periwinkle"><g id="Group 11"><g id="Group 3"><path id="Fill 1" fill-rule="evenodd" clip-rule="evenodd" d="M118.501 81.3973C118.501 74.8333 115.577 68.9623 110.977 64.9783C115.577 60.9943 118.501 55.1233 118.501 48.5593C118.501 36.5593 108.772 26.8313 96.7722 26.8313C96.5582 26.8313 96.3502 26.8563 96.1372 26.8633C96.5372 25.2143 96.7722 23.5013 96.7722 21.7293C96.7722 9.7283 87.0442 0.000299931 75.0442 0.000299931C69.0782 0.000299931 63.6772 2.4083 59.7502 6.3003C55.8242 2.4083 50.4232 0.000299931 44.4572 0.000299931C32.4562 0.000299931 22.7282 9.7283 22.7282 21.7293C22.7282 23.5013 22.9642 25.2143 23.3632 26.8633C23.1502 26.8563 22.9422 26.8313 22.7282 26.8313C10.7282 26.8313 1.00024 36.5593 1.00024 48.5593C1.00024 55.1233 3.92324 60.9943 8.52424 64.9783C3.92324 68.9623 1.00024 74.8333 1.00024 81.3973C1.00024 87.9613 3.92324 93.8323 8.52424 97.8163C3.92324 101.8 1.00024 107.671 1.00024 114.235C1.00024 120.799 3.92324 126.669 8.52424 130.653C3.92324 134.638 1.00024 140.508 1.00024 147.072C1.00024 153.637 3.92324 159.507 8.52424 163.492C3.92324 167.476 1.00024 173.346 1.00024 179.91C1.00024 191.305 9.77625 200.634 20.9362 201.548L20.9332 201.639H96.7722C108.772 201.639 118.501 191.91 118.501 179.91C118.501 173.346 115.578 167.476 110.977 163.492C115.578 159.507 118.501 153.637 118.501 147.072C118.501 140.508 115.578 134.638 110.977 130.653C115.578 126.669 118.501 120.799 118.501 114.235C118.501 107.671 115.578 101.8 110.977 97.8163C115.578 93.8323 118.501 87.9613 118.501 81.3973" fill="#96A5D4"/></g><g id="Group 6"><path id="Fill 4" fill-rule="evenodd" clip-rule="evenodd" d="M2.11824 88.2821L2.33624 88.4791C4.63924 90.6791 7.57324 90.6791 9.87624 88.4791L10.0362 88.3251C12.3542 86.1101 15.3122 86.1261 17.6202 88.3671C19.9422 90.6231 22.9242 90.6231 25.2462 88.3671C27.5542 86.1261 30.5122 86.1101 32.8292 88.3241L32.9802 88.4691C35.2822 90.6681 38.2172 90.6681 40.5192 88.4691L40.7012 88.2951C43.0032 86.0951 45.9372 86.0951 48.2392 88.2951L48.3592 88.4091C50.6612 90.6091 53.5962 90.6091 55.8982 88.4091L56.1412 88.1761C58.4432 85.9761 61.3792 85.9761 63.6812 88.1761L63.8002 88.2901C66.1022 90.4901 69.0372 90.4901 71.3392 88.2901L71.3962 88.2361C73.6982 86.0361 76.6332 86.0361 78.9352 88.2361L79.0722 88.3661C81.3742 90.5661 84.3082 90.5661 86.6112 88.3661L86.7062 88.2761C89.0082 86.0761 91.9432 86.0761 94.2452 88.2761L94.3512 88.3771C96.6532 90.5771 99.5892 90.5771 101.89 88.3771L102.147 88.1321C104.449 85.9321 107.385 85.9321 109.686 88.1321L109.896 88.3321C112.198 90.5321 115.031 90.6261 117.333 88.4271C116.072 92.0991 113.852 95.3261 110.976 97.8161C115.578 101.8 118.501 107.671 118.501 114.235C118.501 120.8 115.578 126.67 110.976 130.654C115.578 134.638 118.501 140.509 118.501 147.073C118.501 153.637 115.578 159.507 110.976 163.492C115.578 167.476 118.501 173.346 118.501 179.91C118.501 191.91 108.772 201.639 96.7722 201.639H20.9322L20.9352 201.549C9.77624 200.635 1.00024 191.305 1.00024 179.91C1.00024 173.346 3.92324 167.476 8.52424 163.492C3.92324 159.507 1.00024 153.637 1.00024 147.073C1.00024 140.509 3.92324 134.638 8.52424 130.654C3.92324 126.67 1.00024 120.8 1.00024 114.235C1.00024 107.671 3.92324 101.8 8.52424 97.8161C5.61024 95.2931 3.37024 92.0141 2.11824 88.2821" fill="#7083B2"/></g><path id="Fill 7" fill-rule="evenodd" clip-rule="evenodd" d="M58.2013 46.8197C58.2013 56.5687 50.2983 64.4717 40.5493 64.4717C30.7993 64.4717 22.8953 56.5687 22.8953 46.8197C22.8953 37.0697 30.7993 29.1677 40.5493 29.1677C50.2983 29.1677 58.2013 37.0697 58.2013 46.8197" fill="#E0BFDB"/><path id="Fill 9" fill-rule="evenodd" clip-rule="evenodd" d="M96.6048 46.8197C96.6048 56.5687 88.7018 64.4717 78.9528 64.4717C69.2038 64.4717 61.2998 56.5687 61.2998 46.8197C61.2998 37.0697 69.2038 29.1677 78.9528 29.1677C88.7018 29.1677 96.6048 37.0697 96.6048 46.8197" fill="#E0BFDB"/></g></g></g><g id="Eyes/Poh" transform="translate(131.918 153.017) scale(1 1)"><g id="Eyes/Poh/Upset"><g id="Group 6"><g id="Group 3"><path id="Fill 1" fill-rule="evenodd" clip-rule="evenodd" d="M35.6168 9H28.7988C27.6938 9 26.7988 8.104 26.7988 7C26.7988 5.896 27.6938 5 28.7988 5H35.6168C36.7208 5 37.6168 5.896 37.6168 7C37.6168 8.104 36.7208 9 35.6168 9" fill="#101335"/></g><path id="Fill 4" fill-rule="evenodd" clip-rule="evenodd" d="M10.817 9H4C2.895 9 2 8.104 2 7C2 5.896 2.895 5 4 5H10.817C11.921 5 12.817 5.896 12.817 7C12.817 8.104 11.921 9 10.817 9" fill="#101335"/></g></g></g><g id="Mouth/Poh" transform="translate(131.904 166.433) scale(0.975609756097561 1)"><g id="Mouth/Poh/Smiling"><g id="Group 3"><path id="Fill 1" fill-rule="evenodd" clip-rule="evenodd" d="M11.918 5.00006H29.769C29.769 5.00006 28.698 14.3771 20.392 14.3771C12.086 14.3771 11.918 5.00006 11.918 5.00006" fill="white"/></g></g></g><g id="Hair/Poh" transform="translate(80.918 60.5) scale(1 1)"><g id="Hair/Poh/Santa Cap"><g id="Group 11"><path id="Fill 1" fill-rule="evenodd" clip-rule="evenodd" d="M34.6621 70.7272C34.6621 70.7272 35.6891 21.6562 89.6661 23.0282C143.638 24.4002 148.702 91.5702 148.702 91.5702H145.167C145.167 91.5702 133.079 55.7612 116.91 60.2772C108.494 62.6272 107.69 70.7272 107.69 70.7272H34.6621Z" fill="#D83E3D"/><path id="Fill 3" fill-rule="evenodd" clip-rule="evenodd" d="M158.854 102.45C158.854 109.18 153.398 114.636 146.667 114.636C139.938 114.636 134.482 109.18 134.482 102.45C134.482 95.7204 139.938 90.2644 146.667 90.2644C153.398 90.2644 158.854 95.7204 158.854 102.45" fill="white"/><g id="Group 7"><path id="Fill 5" fill-rule="evenodd" clip-rule="evenodd" d="M146.668 91.2643C140.5 91.2643 135.482 96.2823 135.482 102.45C135.482 108.618 140.5 113.636 146.668 113.636C152.836 113.636 157.855 108.618 157.855 102.45C157.855 96.2823 152.836 91.2643 146.668 91.2643M146.668 115.636C139.397 115.636 133.482 109.721 133.482 102.45C133.482 95.1793 139.397 89.2643 146.668 89.2643C153.939 89.2643 159.855 95.1793 159.855 102.45C159.855 109.721 153.939 115.636 146.668 115.636" fill="#ED6389"/></g><g id="Group 10"><path id="Fill 8" fill-rule="evenodd" clip-rule="evenodd" d="M34.6619 70.7272C34.6619 70.7272 31.8289 56.3572 40.1829 49.6422L118.838 59.9302C118.838 59.9302 116.779 67.4952 107.69 70.7272H34.6619Z" fill="#ED6389"/></g></g></g></g><g id="Clothes/Poh" transform="translate(92.918 199) scale(1 1)"><g id="Clothes/Poh/Mix Scribbles"><g id="Group 27"><g id="Group 3"><path id="Fill 1" fill-rule="evenodd" clip-rule="evenodd" d="M8.07429 12.2082L8.30529 12.4242C10.3513 14.3792 12.9593 14.3792 15.0043 12.4242L15.1473 12.2882C17.2073 10.3192 19.8353 10.3342 21.8853 12.3252C23.9483 14.3292 26.5963 14.3292 28.6603 12.3252C30.7103 10.3342 33.3383 10.3192 35.3973 12.2872L35.5313 12.4152C37.5763 14.3702 40.1833 14.3702 42.2293 12.4152L42.3903 12.2612C44.4353 10.3072 47.0433 10.3072 49.0883 12.2612L49.1943 12.3622C51.2393 14.3162 53.8463 14.3162 55.8923 12.3622L56.1093 12.1552C58.1543 10.2012 60.7623 10.2012 62.8063 12.1552L62.9133 12.2562C64.9583 14.2112 67.5653 14.2112 69.6103 12.2562L69.6613 12.2082C71.7073 10.2542 74.3143 10.2542 76.3593 12.2082L76.4813 12.3242C78.5263 14.2792 81.1343 14.2792 83.1793 12.3242L83.2633 12.2442C85.3083 10.2892 87.9163 10.2892 89.9623 12.2442L90.0553 12.3342C92.1003 14.2882 94.7093 14.2882 96.7543 12.3342L96.9823 12.1162C99.0273 10.1612 101.635 10.1612 103.679 12.1162L103.866 12.2932C105.911 14.2482 108.481 14.1632 110.526 12.2082C115.128 16.1922 118.051 22.0632 118.051 28.6272C118.051 35.1912 115.128 41.0622 110.526 45.0452C115.128 49.0302 118.051 54.9002 118.051 61.4642C118.051 68.0292 115.128 73.8992 110.526 77.8842C115.128 81.8682 118.051 87.7382 118.051 94.3022C118.051 106.302 108.323 116.031 96.3233 116.031H20.4833L20.4863 115.94C9.32629 115.026 0.550293 105.697 0.550293 94.3022C0.550293 87.7382 3.47329 81.8682 8.07429 77.8842C3.47329 73.8992 0.550293 68.0292 0.550293 61.4642C0.550293 54.9002 3.47329 49.0302 8.07429 45.0452C3.47329 41.0622 0.550293 35.1912 0.550293 28.6272C0.550293 22.0632 3.47329 16.1922 8.07429 12.2082" fill="#5473B8"/></g><path id="Fill 4" fill-rule="evenodd" clip-rule="evenodd" d="M63.8915 87.5754C66.4435 88.8194 69.1755 89.7214 71.9765 90.2224C77.6825 91.2424 84.0055 90.7094 88.8485 87.2594C93.1285 84.2094 96.0475 79.3904 95.9125 74.0454C95.8615 72.0344 92.7305 72.0274 92.7825 74.0454C92.8965 78.5184 90.3505 82.6034 86.6315 84.9904C82.2205 87.8214 76.6195 88.0764 71.6205 86.9664C61.9995 84.8294 52.9745 77.5884 52.2575 67.1904C52.1205 65.1924 48.9895 65.1774 49.1275 67.1904C49.6635 74.9534 54.1055 81.3194 60.2325 85.4604C60.9535 85.1734 61.7035 84.9234 62.5315 84.7644C64.2925 84.4264 65.1425 86.7974 63.8915 87.5754" fill="#E0BFDB"/><path id="Fill 6" fill-rule="evenodd" clip-rule="evenodd" d="M63.8918 87.5754C65.1428 86.7974 64.2928 84.4264 62.5318 84.7644C61.7038 84.9234 60.9538 85.1734 60.2328 85.4604C52.3968 88.5814 50.4159 98.7214 44.2369 103.931C42.3479 105.523 40.1158 106.366 37.6348 106.183C34.8398 105.977 32.1999 104.833 29.4009 104.606C25.6609 104.302 20.9339 106.127 20.3189 110.276C20.0259 112.246 23.0409 113.096 23.3359 111.107C24.0789 106.112 31.0389 108.034 34.1409 108.741C38.7339 109.786 42.7979 109.256 46.4499 106.144C49.6839 103.388 51.6739 99.5794 53.8769 96.0264C56.1349 92.3874 58.9108 88.6374 63.3638 87.7824C63.5728 87.7424 63.7438 87.6674 63.8918 87.5754" fill="#E0BFDB"/><path id="Fill 8" fill-rule="evenodd" clip-rule="evenodd" d="M108.801 109.392C107.061 111.189 105.322 112.987 103.582 114.784C106.509 113.747 109.145 112.1 111.342 109.996C110.962 109.058 109.714 108.448 108.801 109.392" fill="#E0BFDB"/><path id="Fill 10" fill-rule="evenodd" clip-rule="evenodd" d="M2.98078 100.133C3.19978 96.2441 2.59978 92.3441 1.29378 88.6881C0.812781 90.4781 0.550781 92.3591 0.550781 94.3021C0.550781 96.8551 1.01178 99.2941 1.82078 101.568C2.41978 101.4 2.93578 100.925 2.98078 100.133" fill="#E0BFDB"/><path id="Fill 12" fill-rule="evenodd" clip-rule="evenodd" d="M12.4707 71.1658C18.2637 68.1408 25.0667 66.7338 29.5367 61.6218C30.8577 60.1108 28.6527 57.8888 27.3247 59.4088C22.6877 64.7098 15.2457 65.7838 9.42171 69.2828C7.40971 70.4908 5.73171 71.9748 4.30371 73.6508C4.89471 74.5168 5.54871 75.3348 6.25371 76.1058C7.95471 74.0498 10.0387 72.4358 12.4707 71.1658" fill="#E0BFDB"/><path id="Fill 14" fill-rule="evenodd" clip-rule="evenodd" d="M52.7831 44.114C56.3251 46.808 60.4281 48.445 64.8691 48.805C69.2521 49.16 73.6651 48.299 77.9131 47.303C86.1601 45.371 95.3911 42.182 103.297 46.905C109.069 50.354 112.938 56.049 118.017 60.263C117.93 58.667 117.668 57.119 117.254 55.635C113.878 52.378 110.869 48.593 107.211 45.801C100.207 40.456 92.0271 40.793 83.8241 42.66C75.5761 44.537 66.4261 47.879 58.2731 43.867C49.1441 39.377 44.7271 29.376 40.5841 20.68C39.4571 18.315 38.3551 15.938 37.2711 13.553C36.6661 13.31 36.0781 12.938 35.5311 12.415L35.3971 12.287C34.5551 11.483 33.6181 11.028 32.6641 10.885C33.7631 13.368 34.8751 15.845 36.0201 18.306C40.2981 27.498 44.4691 37.789 52.7831 44.114" fill="#E0BFDB"/><path id="Fill 16" fill-rule="evenodd" clip-rule="evenodd" d="M88.4523 11.2063C86.8983 10.4843 85.2083 10.7093 83.7383 11.8583C84.4003 12.2373 85.1153 12.4973 85.9103 12.4953C86.9563 12.4933 87.8533 11.9823 88.4523 11.2063" fill="#E0BFDB"/><path id="Fill 18" fill-rule="evenodd" clip-rule="evenodd" d="M7.05166 37.2976C4.79966 37.3656 2.89366 36.0506 1.34766 34.4596C1.88466 36.3806 2.67766 38.1936 3.69066 39.8596C4.74966 40.2506 5.86966 40.4636 7.05166 40.4276C9.06066 40.3666 9.07066 37.2366 7.05166 37.2976" fill="#E0BFDB"/><path id="Fill 20" fill-rule="evenodd" clip-rule="evenodd" d="M66.0921 13.7048C69.7351 14.1108 73.9981 17.0008 71.3361 21.0158C68.4591 25.3558 61.0921 23.8488 58.0001 20.6318C57.8361 20.4618 57.6951 20.2798 57.5431 20.1028C57.6731 15.4818 61.6021 13.2048 66.0921 13.7048M54.4161 21.1118C54.7851 25.7888 58.0431 30.0848 61.9301 32.6858C68.1901 36.8748 75.7301 36.6038 82.5641 34.0098C89.8951 31.2258 96.0821 26.3908 102.812 22.4968C103.608 24.3728 104.463 26.2108 105.379 27.9848C107.691 32.4588 110.921 36.7068 115.271 39.2328C115.775 38.3378 116.217 37.4048 116.592 36.4368C111.057 33.1718 107.935 26.7778 105.632 20.9388C108.488 19.4638 111.681 18.1268 114.93 17.4228C114.349 16.4638 113.695 15.5538 112.977 14.6988C110.028 15.4348 107.221 16.5988 104.51 17.9888C103.669 15.7308 102.885 13.4258 102.198 11.0938C101.118 10.5838 99.9731 10.5338 98.8771 10.9288C99.6411 13.8318 100.557 16.7288 101.633 19.5578C99.0021 21.0738 96.4501 22.7388 93.9341 24.3538C87.3111 28.6048 79.7121 33.3578 71.5031 32.8318C66.7021 32.5238 61.1731 29.4818 58.7661 25.0028C61.1971 26.3908 64.0451 27.0238 67.0311 26.6568C71.7601 26.0758 76.3481 22.0198 75.1101 16.8508C74.5101 14.3498 72.6061 12.6628 70.3371 11.6608C70.1081 11.8248 69.8801 11.9998 69.6621 12.2078L69.6121 12.2568C67.5661 14.2108 64.9581 14.2108 62.9131 12.2568L62.8071 12.1558C62.2961 11.6668 61.7501 11.3008 61.1871 11.0568C58.5491 11.8618 56.2641 13.5738 55.1701 16.2438C54.7931 15.3518 54.4971 14.4208 54.2511 13.4678C53.2421 13.8998 52.1821 13.9208 51.1621 13.5728C51.5961 15.4198 52.1961 17.2288 53.0831 18.9718C53.4711 19.7318 53.9211 20.4428 54.4161 21.1118" fill="#74BAB9"/><path id="Fill 22" fill-rule="evenodd" clip-rule="evenodd" d="M19.9298 18.2322C20.3358 19.6152 20.5348 21.0462 20.3938 22.4972C20.0608 25.9092 17.6838 28.4152 14.2638 28.8252C11.2778 29.1842 8.23075 27.3362 8.91975 23.9742C9.70475 20.1492 14.1188 17.9402 17.7018 17.9782C18.4608 17.9852 19.2008 18.0862 19.9298 18.2322M18.1818 14.8612C14.3288 14.6792 10.4858 16.2442 7.98075 19.2112C5.71375 21.8952 4.80475 25.7692 6.89075 28.8502C10.4238 34.0652 18.9498 32.2872 21.9868 27.4992C23.6288 24.9082 23.9788 22.1862 23.5208 19.5202C28.5338 22.1922 32.0548 27.9472 31.8808 33.5702C31.6398 41.3702 24.9898 47.7472 17.7808 49.6942C13.2708 50.9122 8.79075 50.1612 4.29875 49.2862C3.69775 50.1692 3.16375 51.1002 2.69775 52.0682C7.15075 52.9592 11.6558 53.8992 16.2058 53.2112C20.0818 52.6262 23.7538 50.9782 26.8468 48.5842C32.8108 43.9682 36.4178 36.3362 34.4508 28.8122C32.8888 22.8442 28.1768 17.5682 22.2988 15.6332C21.5558 13.9892 20.5638 12.4102 19.4508 10.9382C18.3278 10.6762 17.1708 10.8872 16.1038 11.5542C16.9888 12.5712 17.8128 13.6912 18.4988 14.8922C18.3928 14.8852 18.2888 14.8672 18.1818 14.8612" fill="#74BAB9"/><g id="Group 26"><path id="Fill 24" fill-rule="evenodd" clip-rule="evenodd" d="M79.1673 67.1374C80.0213 70.4444 78.4653 74.5014 75.3753 76.1224C71.9363 77.9284 68.4883 75.4094 67.3033 72.1234C65.3863 66.8054 68.8773 62.4464 73.3833 59.7754C76.1483 61.4714 78.3243 63.8774 79.1673 67.1374M41.4993 85.8464C42.2973 87.5324 42.6843 93.2154 39.2363 91.6564C35.9763 90.1824 35.8203 84.2694 35.8853 81.3104C38.2163 82.1484 40.4513 83.6344 41.4993 85.8464M103.455 61.2954C98.1993 56.4894 91.0933 53.6454 83.9533 53.6924C80.3763 53.7154 76.5903 54.5364 73.2523 56.1694C69.6213 54.3474 65.4283 53.4614 61.5623 53.4104C53.4543 53.3034 45.2513 56.6694 39.8893 62.8164C36.2843 66.9494 33.9453 72.0974 33.1133 77.4854C26.5363 76.7744 19.8163 79.7204 16.8403 85.8624C14.8953 89.8764 14.4963 94.3214 13.6523 98.6404C12.8113 102.949 11.3223 106.833 8.15631 109.979C8.00831 110.126 7.84731 110.252 7.69531 110.393C8.48031 111.104 9.32931 111.742 10.2123 112.333C12.5763 110.031 14.3853 107.2 15.4793 104.077C16.9373 99.9114 17.1453 95.4534 18.2403 91.1984C19.1973 87.4754 20.9323 84.1114 24.3753 82.1804C26.8933 80.7684 29.9303 80.2294 32.8053 80.5764C32.7253 82.3334 32.7973 84.0984 33.0513 85.8484C33.5333 89.1824 34.8553 93.4414 38.4003 94.6854C41.4533 95.7574 44.3833 93.7904 45.0723 90.7494C46.4553 84.6494 41.5863 79.8214 36.1563 78.1144C36.6323 74.9134 37.7073 71.7994 39.3123 68.9914C43.4603 61.7284 51.1343 57.1214 59.4593 56.5934C62.7213 56.3864 66.5633 56.8504 70.0123 58.1374C68.0773 59.5724 66.4253 61.3484 65.2523 63.4864C63.4583 66.7544 63.1633 70.5254 64.6823 73.9514C66.0743 77.0914 68.9253 79.6054 72.4453 79.8484C80.2643 80.3884 84.2563 70.8374 81.5563 64.5214C80.4593 61.9544 78.6883 59.8744 76.5353 58.2264C77.8473 57.7114 79.1603 57.3364 80.3843 57.1224C87.1843 55.9354 94.5023 58.1124 99.8813 62.3464C102.584 64.4744 104.83 67.1604 106.352 70.2504C108.377 74.3624 108.752 79.0544 109.127 83.5514C109.256 85.0974 109.378 86.6754 109.549 88.2504C108.136 89.1394 106.813 90.1264 105.631 91.1644C99.0603 96.9304 95.0593 105.02 88.6693 110.942C86.9733 107.462 84.6603 104.29 82.0853 101.83C79.1563 99.0314 75.3893 97.1094 71.2743 97.1274C67.6113 97.1434 63.9003 98.7664 61.9693 101.985C59.2603 106.501 60.9143 112.214 64.2923 116.031H69.1453C68.1683 115.464 67.2443 114.728 66.4123 113.749C64.4683 111.459 63.1843 108.101 64.0173 105.106C65.0733 101.308 69.2483 99.8204 72.8573 100.358C77.0743 100.987 80.3943 104.073 82.7773 107.426C84.0323 109.19 85.1803 111.098 86.1153 113.099C84.5393 114.244 82.7463 115.264 80.8713 116.031H90.6043C90.4123 115.349 90.2053 114.67 89.9633 114C97.0473 107.905 101.117 99.0474 108.266 93.0124C108.811 92.5544 109.411 92.1094 110.037 91.6754C110.396 93.6584 110.91 95.6024 111.73 97.4344C112.734 99.6794 114.238 101.718 116.053 103.404C116.531 102.367 116.93 101.286 117.243 100.169C116.499 99.3434 115.834 98.4534 115.287 97.5224C113.94 95.2294 113.285 92.6234 112.894 89.9624C114.262 89.2594 115.715 88.6694 117.191 88.2554C116.891 87.2214 116.516 86.2204 116.072 85.2584C114.859 85.6174 113.664 86.0714 112.509 86.6214C112.418 85.5864 112.34 84.5564 112.256 83.5514C112.133 82.0754 112.002 80.5934 111.827 79.1164C111.409 78.6894 110.979 78.2754 110.527 77.8834C110.873 77.5844 111.205 77.2704 111.531 76.9504C111.148 74.5344 110.579 72.1584 109.609 69.8924C108.213 66.6274 106.074 63.6904 103.455 61.2954" fill="#74BAB9"/></g></g></g></g></g></g></g></svg>