<svg viewBox="90 152.21590909090912 680.0000000000001 420.59659090909093" fill="none" xmlns="http://www.w3.org/2000/svg" xmlns:xlink="http://www.w3.org/1999/xlink" overflow="visible" width="680.0000000000001px" height="420.59659090909093px"><g id="Master/Spot Illustration/Staying Home"><g id="Background" transform="translate(40 101) scale(1 1)"><g id="Background/Sunrise"><g id="Group 10"><path id="Fill 1" fill-rule="evenodd" clip-rule="evenodd" d="M431.846 231.977C456.095 227.516 479.331 217.636 499.368 203.268C505.975 198.531 512.801 192.203 512.847 184.073C512.894 175.603 504.96 168.698 496.606 167.309C488.251 165.92 479.781 168.808 472.129 172.437C457.784 179.241 444.77 188.84 434.034 200.538C430.474 204.416 427.057 208.61 422.455 211.169C417.853 213.728 411.621 214.237 407.629 210.804C400.363 204.557 405.91 192.859 411.486 185.067C421.685 170.814 431.257 155.166 432.803 137.708C433.253 132.619 432.9 127.15 429.964 122.967C425.15 116.108 414.738 115.223 407.255 118.997C399.773 122.771 394.692 129.998 390.524 137.267C385.364 146.268 381.107 155.788 377.839 165.634C375.584 172.432 373.719 179.546 369.48 185.32C365.241 191.093 357.838 195.271 350.951 193.307C343.541 191.196 339.6 183.113 337.93 175.591C334.292 159.204 337.118 141.956 333.956 125.469C330.793 108.984 317.938 91.8489 301.216 93.3229C284.05 94.8359 274.418 115.312 276.405 132.429C278.391 149.547 288.015 164.679 294.025 180.83C297.203 189.371 298.806 200.389 291.94 206.38C286.104 211.471 276.736 209.998 270.435 205.498C264.134 200.997 259.974 194.186 255.255 188.045C248.341 179.049 239.924 171.209 230.46 164.951C223.682 160.468 216.138 156.725 208.039 156.069C199.939 155.412 191.2 158.333 186.507 164.966C180.116 173.999 183.102 187.138 190.309 195.534C197.516 203.93 207.943 208.72 217.99 213.358C226.628 217.345 235.232 221.404 243.804 225.533C249.366 228.211 255.049 231.019 259.251 235.541C263.453 240.064 265.911 246.741 263.798 252.54C259.739 263.684 244.269 263.611 232.469 262.427C221.499 261.327 209.97 261.149 199.979 265.81C189.988 270.47 182.089 281.219 183.981 292.081C186.402 305.97 203.072 313.039 217.078 311.42C231.084 309.803 451.043 309.006 457.831 310.717C477.981 315.796 500.056 315.649 518.777 306.63C527.998 302.189 536.971 294.247 537.131 284.013C537.353 269.86 521.307 261.332 507.328 259.111C494.083 257.005 480.43 257.503 467.374 260.569C457.653 262.851 447.892 266.57 437.99 265.288C428.087 264.005 418.169 255.162 420.29 245.404C421.29 240.807 425.041 233.686 431.846 231.977" fill="#FDD7C6"/><path id="Fill 3" fill-rule="evenodd" clip-rule="evenodd" d="M249.562 132.259C246.034 133.208 242.832 130.611 241.393 127.571C239.42 123.404 240.395 118.863 240.249 114.453C240.11 110.26 238.514 105.64 234.385 103.839C232.125 102.854 229.83 103.243 227.462 102.983C225.865 102.807 224.5 101.972 223.473 100.754C220.726 97.4982 221.649 92.6792 224.132 89.5512C224.971 88.4942 225.164 87.0472 224.132 86.0162C223.262 85.1452 221.441 84.9522 220.597 86.0162C217.533 89.8752 215.705 95.1392 217.429 99.9962C219.058 104.592 222.994 107.766 227.901 108.009C230.022 108.113 232.372 107.66 233.822 109.573C235.031 111.167 235.254 113.235 235.262 115.166C235.274 117.89 234.935 120.59 235.23 123.311C235.5 125.807 236.093 128.22 237.258 130.458C239.794 135.33 245.407 138.556 250.891 137.08C253.995 136.245 252.678 131.42 249.562 132.259" fill="#F0D3E6"/><g id="Group 7"><path id="Fill 5" fill-rule="evenodd" clip-rule="evenodd" d="M370.655 110.522C371.137 107.516 370.328 104.674 368.676 102.152C367.243 99.9656 365.36 98.0896 364.098 95.7876C362.098 92.1356 363.626 87.1346 367.405 85.1246C369.893 83.8016 372.921 84.1206 375.302 82.3556C377.794 80.5096 378.738 77.3266 378.552 74.3226C378.152 67.8336 372.785 61.2824 372.01 60.3571C371.18 59.3661 370.358 57.9666 369.29 57.3416C368.008 56.5926 366.686 57.1576 365.87 58.2386C365.415 58.8396 364.96 59.4406 364.506 60.0426C363.755 61.0356 364.266 62.9676 365.403 63.4626C369.651 65.3136 373.003 69.2546 373.524 73.9606C373.771 76.1966 373.311 78.2836 370.962 78.9636C368.517 79.6706 366.087 79.8906 363.936 81.3946C359.84 84.2606 357.608 89.3286 358.359 94.2806C358.721 96.6656 359.924 98.7766 361.352 100.684C362.739 102.539 364.507 104.346 365.387 106.522C367.825 112.553 360.585 116.462 356.044 118.131C354.777 118.597 353.918 119.827 354.298 121.206C354.633 122.427 356.1 123.421 357.373 122.952C363.196 120.811 369.572 117.271 370.655 110.522Z" fill="#F0D3E6"/></g><path id="Fill 8" fill-rule="evenodd" clip-rule="evenodd" d="M458.505 153.481C462.413 155.818 467.489 155.714 471.397 153.415C476.013 150.697 477.362 145.7 478.012 140.723C478.486 137.089 478.821 132.302 482.214 130.084C483.875 128.998 485.583 129.708 487.429 130.421C489.828 131.35 492.294 131.935 494.746 130.82C497.234 129.689 498.677 127.222 499.571 124.75C500.397 122.466 500.536 119.674 502.326 117.877C504.6 115.595 501.066 112.059 498.79 114.342C497.031 116.107 496.182 118.384 495.534 120.743C495.066 122.444 494.683 124.56 493.321 125.818C491.935 127.098 490.091 126.117 488.575 125.529C486.408 124.69 484.13 124.128 481.829 124.807C477.652 126.041 475.044 130.258 474 134.259C472.91 138.437 473.553 143.493 470.978 147.184C468.797 150.311 464.196 151.057 461.028 149.164C458.26 147.508 455.743 151.83 458.505 153.481" fill="#F0D3E6"/></g></g></g><g id="Window 1" transform="translate(289 236) scale(0.9962825278810409 1)"><g id="Window 1/Yellow Arch"><g id="Group 3"><path id="Fill 1" fill-rule="evenodd" clip-rule="evenodd" d="M134.859 -0.000854492V-0.000854492C60.885 -0.000854492 0.917969 59.9671 0.917969 133.94V297.882H268.8V133.94C268.8 59.9671 208.832 -0.000854492 134.859 -0.000854492M134.859 9.99915C167.964 9.99915 199.089 22.8921 222.498 46.3011C245.908 69.7101 258.8 100.835 258.8 133.94V287.882H10.918V133.94C10.918 100.835 23.81 69.7101 47.219 46.3011C70.629 22.8921 101.753 9.99915 134.859 9.99915" fill="#E9BE50"/></g><g id="Group 3_2"><mask id="mask0be966370-243b-4976-8b54-fceb30e94902" mask-type="alpha" maskUnits="userSpaceOnUse" x="10" y="10" width="249" height="278" fill="#ffffff"><path id="Clip 2" fill-rule="evenodd" clip-rule="evenodd" d="M10.918 10H258.8V287.882H10.918V10Z" fill="#ffffff"/></mask><g mask="url(#mask0be966370-243b-4976-8b54-fceb30e94902)"><path id="Fill 1_2" fill-rule="evenodd" clip-rule="evenodd" d="M134.859 9.99915C167.964 9.99915 199.089 22.8921 222.498 46.3011C245.908 69.7101 258.8 100.834 258.8 133.94V287.882H10.918V133.94C10.918 100.834 23.81 69.7101 47.219 46.3011C70.629 22.8921 101.753 9.99915 134.859 9.99915" fill="white"/></g></g></g></g><g id="Dialogue Box 2" transform="translate(567 286) scale(1 1)"><g id="Dialogue Box 2/Rose Rectircle"><g id="Group 3"><path id="Fill 1" fill-rule="evenodd" clip-rule="evenodd" d="M11.597 65.3988L30.234 74.0258C34.211 99.5038 56.248 119.001 82.843 119.001L145.748 119.001C175.159 119.001 199 95.1588 199 65.7488C199 36.3378 175.159 12.4978 145.748 12.4978L82.843 12.4978C56.253 12.4978 34.22 31.9858 30.237 57.4578L11.597 65.3988Z" fill="#F1758E"/></g></g></g><g id="Plant 2" transform="translate(40 399) scale(0.9945945945945946 1)"><g id="Plant 2/Flowering Cactus"><g id="Plant 2"><path id="Fill 5" fill-rule="evenodd" clip-rule="evenodd" d="M68.5918 102.332H133.001L123.419 136.22H78.1748L68.5918 102.332Z" fill="#E0BFDB"/><path id="Fill 7" fill-rule="evenodd" clip-rule="evenodd" d="M85.7138 94.9833C85.7138 99.1483 82.3378 102.524 78.1728 102.524C74.0088 102.524 70.6328 99.1483 70.6328 94.9833C70.6328 90.8193 74.0088 87.4433 78.1728 87.4433C82.3378 87.4433 85.7138 90.8193 85.7138 94.9833" fill="#00AFA9"/><path id="Fill 9" fill-rule="evenodd" clip-rule="evenodd" d="M70.6337 94.9833C70.6337 99.1483 67.2577 102.524 63.0927 102.524C58.9287 102.524 55.5527 99.1483 55.5527 94.9833C55.5527 90.8193 58.9287 87.4433 63.0927 87.4433C67.2577 87.4433 70.6337 90.8193 70.6337 94.9833" fill="#00AFA9"/><path id="Fill 11" fill-rule="evenodd" clip-rule="evenodd" d="M70.6337 110.065C70.6337 114.229 67.2577 117.605 63.0927 117.605C58.9287 117.605 55.5527 114.229 55.5527 110.065C55.5527 105.9 58.9287 102.524 63.0927 102.524C67.2577 102.524 70.6337 105.9 70.6337 110.065" fill="#00AFA9"/><path id="Fill 13" fill-rule="evenodd" clip-rule="evenodd" d="M70.6337 125.146C70.6337 129.311 67.2577 132.687 63.0927 132.687C58.9287 132.687 55.5527 129.311 55.5527 125.146C55.5527 120.981 58.9287 117.605 63.0927 117.605C67.2577 117.605 70.6337 120.981 70.6337 125.146" fill="#00AFA9"/><path id="Fill 15" fill-rule="evenodd" clip-rule="evenodd" d="M70.6337 140.227C70.6337 144.392 67.2577 147.769 63.0927 147.769C58.9287 147.769 55.5527 144.392 55.5527 140.227C55.5527 136.063 58.9287 132.688 63.0927 132.688C67.2577 132.688 70.6337 136.063 70.6337 140.227" fill="#00AFA9"/><g id="Group 19"><path id="Fill 17" fill-rule="evenodd" clip-rule="evenodd" d="M64.6237 144.218V144.218C65.9207 143.025 68.0247 143.708 68.3727 145.436C68.6047 146.589 69.6817 147.372 70.8507 147.237C72.6017 147.033 73.9017 148.822 73.1677 150.425V150.426C72.6767 151.495 73.0887 152.762 74.1137 153.339C75.6497 154.203 75.6497 156.415 74.1137 157.281C73.0887 157.858 72.6767 159.124 73.1677 160.194C73.9017 161.796 72.6017 163.586 70.8507 163.382C69.6817 163.246 68.6047 164.03 68.3727 165.183C68.0247 166.911 65.9207 167.595 64.6237 166.401C63.7577 165.604 62.4267 165.604 61.5607 166.401C60.2637 167.595 58.1597 166.911 57.8117 165.183C57.5797 164.03 56.5027 163.246 55.3337 163.382C53.5827 163.586 52.2827 161.796 53.0167 160.194C53.5067 159.124 53.0957 157.858 52.0707 157.281C50.5337 156.415 50.5337 154.203 52.0707 153.339C53.0957 152.762 53.5067 151.495 53.0167 150.426V150.425C52.2827 148.822 53.5827 147.033 55.3337 147.237C56.5027 147.372 57.5797 146.589 57.8117 145.436C58.1597 143.708 60.2637 143.025 61.5607 144.218C62.4267 145.015 63.7577 145.015 64.6237 144.218" fill="#5473B8"/></g><path id="Fill 20" fill-rule="evenodd" clip-rule="evenodd" d="M70.6337 155.309C70.6337 159.473 67.2577 162.849 63.0927 162.849C58.9287 162.849 55.5527 159.473 55.5527 155.309C55.5527 151.144 58.9287 147.768 63.0927 147.768C67.2577 147.768 70.6337 151.144 70.6337 155.309" fill="#F9A471"/><path id="Fill 22" fill-rule="evenodd" clip-rule="evenodd" d="M68.267 155.309C68.267 158.167 65.95 160.484 63.092 160.484C60.233 160.484 57.916 158.167 57.916 155.309C57.916 152.451 60.233 150.133 63.092 150.133C65.95 150.133 68.267 152.451 68.267 155.309" fill="#F06647"/><path id="Fill 24" fill-rule="evenodd" clip-rule="evenodd" d="M100.796 94.9833C100.796 99.1483 97.4198 102.524 93.2548 102.524C89.0908 102.524 85.7148 99.1483 85.7148 94.9833C85.7148 90.8193 89.0908 87.4433 93.2548 87.4433C97.4198 87.4433 100.796 90.8193 100.796 94.9833" fill="#00AFA9"/><path id="Fill 26" fill-rule="evenodd" clip-rule="evenodd" d="M100.796 79.9023C100.796 84.0663 97.4198 87.4433 93.2548 87.4433C89.0908 87.4433 85.7148 84.0663 85.7148 79.9023C85.7148 75.7373 89.0908 72.3613 93.2548 72.3613C97.4198 72.3613 100.796 75.7373 100.796 79.9023" fill="#00AFA9"/><path id="Fill 28" fill-rule="evenodd" clip-rule="evenodd" d="M100.796 64.8212C100.796 68.9852 97.4198 72.3612 93.2548 72.3612C89.0908 72.3612 85.7148 68.9852 85.7148 64.8212C85.7148 60.6562 89.0908 57.2802 93.2548 57.2802C97.4198 57.2802 100.796 60.6562 100.796 64.8212" fill="#00AFA9"/><path id="Fill 30" fill-rule="evenodd" clip-rule="evenodd" d="M85.7138 64.8212C85.7138 68.9852 82.3378 72.3612 78.1728 72.3612C74.0088 72.3612 70.6328 68.9852 70.6328 64.8212C70.6328 60.6562 74.0088 57.2802 78.1728 57.2802C82.3378 57.2802 85.7138 60.6562 85.7138 64.8212" fill="#00AFA9"/><path id="Fill 32" fill-rule="evenodd" clip-rule="evenodd" d="M70.6337 64.8212C70.6337 68.9852 67.2577 72.3612 63.0927 72.3612C58.9287 72.3612 55.5527 68.9852 55.5527 64.8212C55.5527 60.6562 58.9287 57.2802 63.0927 57.2802C67.2577 57.2802 70.6337 60.6562 70.6337 64.8212" fill="#00AFA9"/><g id="Group 36"><path id="Fill 34" fill-rule="evenodd" clip-rule="evenodd" d="M64.6237 38.6484V38.6484C65.9207 37.4544 68.0247 38.1374 68.3727 39.8664C68.6047 41.0194 69.6817 41.8014 70.8507 41.6674C72.6017 41.4624 73.9017 43.2524 73.1677 44.8554C72.6767 45.9244 73.0887 47.1914 74.1137 47.7684C75.6497 48.6334 75.6497 50.8454 74.1137 51.7104C73.0887 52.2874 72.6767 53.5534 73.1677 54.6234C73.9017 56.2254 72.6017 58.0154 70.8507 57.8124C69.6817 57.6764 68.6047 58.4594 68.3727 59.6124C68.0247 61.3404 65.9207 62.0244 64.6237 60.8314C63.7577 60.0344 62.4267 60.0344 61.5607 60.8314C60.2637 62.0244 58.1597 61.3404 57.8117 59.6124C57.5797 58.4594 56.5027 57.6764 55.3337 57.8124C53.5827 58.0154 52.2827 56.2254 53.0167 54.6234C53.5067 53.5534 53.0957 52.2874 52.0707 51.7104C50.5337 50.8454 50.5337 48.6334 52.0707 47.7684C53.0957 47.1914 53.5067 45.9244 53.0167 44.8554C52.2827 43.2524 53.5827 41.4624 55.3337 41.6674C56.5027 41.8014 57.5797 41.0194 57.8117 39.8664C58.1597 38.1374 60.2637 37.4544 61.5607 38.6484C62.4267 39.4444 63.7577 39.4444 64.6237 38.6484" fill="#5473B8"/></g><path id="Fill 37" fill-rule="evenodd" clip-rule="evenodd" d="M70.6337 49.7392C70.6337 53.9042 67.2577 57.2802 63.0927 57.2802C58.9287 57.2802 55.5527 53.9042 55.5527 49.7392C55.5527 45.5752 58.9287 42.1982 63.0927 42.1982C67.2577 42.1982 70.6337 45.5752 70.6337 49.7392" fill="#F9A471"/><path id="Fill 39" fill-rule="evenodd" clip-rule="evenodd" d="M68.267 49.7392C68.267 52.5972 65.95 54.9152 63.092 54.9152C60.233 54.9152 57.916 52.5972 57.916 49.7392C57.916 46.8812 60.233 44.5632 63.092 44.5632C65.95 44.5632 68.267 46.8812 68.267 49.7392" fill="#F06647"/><path id="Fill 41" fill-rule="evenodd" clip-rule="evenodd" d="M115.878 94.9833C115.878 99.1483 112.502 102.524 108.337 102.524C104.173 102.524 100.797 99.1483 100.797 94.9833C100.797 90.8193 104.173 87.4433 108.337 87.4433C112.502 87.4433 115.878 90.8193 115.878 94.9833" fill="#00AFA9"/><path id="Fill 43" fill-rule="evenodd" clip-rule="evenodd" d="M115.878 110.065C115.878 114.229 112.502 117.605 108.337 117.605C104.173 117.605 100.797 114.229 100.797 110.065C100.797 105.9 104.173 102.524 108.337 102.524C112.502 102.524 115.878 105.9 115.878 110.065" fill="#00AFA9"/><path id="Fill 45" fill-rule="evenodd" clip-rule="evenodd" d="M130.958 94.9833C130.958 99.1483 127.582 102.524 123.417 102.524C119.253 102.524 115.877 99.1483 115.877 94.9833C115.877 90.8193 119.253 87.4433 123.417 87.4433C127.582 87.4433 130.958 90.8193 130.958 94.9833" fill="#00AFA9"/><path id="Fill 47" fill-rule="evenodd" clip-rule="evenodd" d="M124.903 68.8105V68.8105C126.2 67.6175 128.304 68.3005 128.652 70.0295C128.884 71.1825 129.961 71.9645 131.13 71.8295C132.881 71.6255 134.181 73.4155 133.447 75.0185C132.956 76.0875 133.368 77.3545 134.393 77.9315C135.929 78.7955 135.929 81.0075 134.393 81.8735C133.368 82.4505 132.956 83.7165 133.447 84.7865C134.181 86.3885 132.881 88.1785 131.13 87.9745C129.961 87.8395 128.884 88.6225 128.652 89.7755C128.304 91.5035 126.2 92.1875 124.903 90.9935C124.037 90.1975 122.705 90.1975 121.84 90.9935C120.543 92.1875 118.439 91.5035 118.091 89.7755C117.859 88.6225 116.782 87.8395 115.613 87.9745C113.862 88.1785 112.562 86.3885 113.296 84.7865C113.786 83.7165 113.375 82.4505 112.35 81.8735C110.813 81.0075 110.813 78.7955 112.35 77.9315C113.375 77.3545 113.786 76.0875 113.296 75.0185C112.562 73.4155 113.862 71.6255 115.613 71.8295C116.782 71.9645 117.859 71.1825 118.091 70.0295C118.439 68.3005 120.543 67.6175 121.84 68.8105C122.705 69.6075 124.037 69.6075 124.903 68.8105" fill="#5473B8"/><path id="Fill 49" fill-rule="evenodd" clip-rule="evenodd" d="M130.913 79.9023C130.913 84.0663 127.537 87.4433 123.372 87.4433C119.208 87.4433 115.832 84.0663 115.832 79.9023C115.832 75.7373 119.208 72.3613 123.372 72.3613C127.537 72.3613 130.913 75.7373 130.913 79.9023" fill="#F9A471"/><path id="Fill 51" fill-rule="evenodd" clip-rule="evenodd" d="M128.546 79.9023C128.546 82.7603 126.229 85.0783 123.37 85.0783C120.512 85.0783 118.195 82.7603 118.195 79.9023C118.195 77.0443 120.512 74.7263 123.37 74.7263C126.229 74.7263 128.546 77.0443 128.546 79.9023" fill="#F06647"/><path id="Fill 53" fill-rule="evenodd" clip-rule="evenodd" d="M109.868 114.055V114.055C111.165 112.862 113.269 113.545 113.617 115.274C113.849 116.427 114.926 117.209 116.095 117.074C117.846 116.87 119.146 118.66 118.412 120.263C117.921 121.332 118.333 122.599 119.358 123.176C120.894 124.04 120.894 126.253 119.358 127.118C118.333 127.695 117.921 128.961 118.412 130.031C119.146 131.633 117.846 133.423 116.095 133.22C114.926 133.084 113.849 133.867 113.617 135.02C113.269 136.748 111.165 137.432 109.868 136.238C109.002 135.442 107.67 135.442 106.805 136.238C105.508 137.432 103.404 136.748 103.056 135.02C102.824 133.867 101.747 133.084 100.578 133.22C98.8269 133.423 97.5269 131.633 98.2609 130.031C98.7509 128.961 98.3399 127.695 97.3149 127.118C95.7779 126.253 95.7779 124.04 97.3149 123.176C98.3399 122.599 98.7509 121.332 98.2609 120.263C97.5269 118.66 98.8269 116.87 100.578 117.074C101.747 117.209 102.824 116.427 103.056 115.274C103.404 113.545 105.508 112.862 106.805 114.055C107.67 114.852 109.002 114.852 109.868 114.055" fill="#5473B8"/><path id="Fill 55" fill-rule="evenodd" clip-rule="evenodd" d="M115.878 125.146C115.878 129.311 112.502 132.687 108.337 132.687C104.173 132.687 100.797 129.311 100.797 125.146C100.797 120.981 104.173 117.605 108.337 117.605C112.502 117.605 115.878 120.981 115.878 125.146" fill="#F9A471"/><path id="Fill 57" fill-rule="evenodd" clip-rule="evenodd" d="M113.511 125.146C113.511 128.004 111.194 130.322 108.335 130.322C105.477 130.322 103.16 128.004 103.16 125.146C103.16 122.288 105.477 119.97 108.335 119.97C111.194 119.97 113.511 122.288 113.511 125.146" fill="#F06647"/></g></g></g><g id="Master/Worms/Jae" transform="translate(353 219) scale(0.9966777408637874 1)"><g id="Master/Worms/Jae"><g id="Body/Jae" transform="translate(47.918 130.42) scale(1 1)"><g id="Body/Jae/Charcoal"><g id="Group 9"><path id="Fill 1" fill-rule="evenodd" clip-rule="evenodd" d="M0.000610352 104.107V183.221H208.214V104.107C208.214 46.61 161.604 0 104.108 0C46.6106 0 0.000610352 46.61 0.000610352 104.107Z" fill="#3A3E5B"/><path id="Fill 3" fill-rule="evenodd" clip-rule="evenodd" d="M100.977 63.6695C100.977 83.3655 85.0099 99.3325 65.3149 99.3325C45.6189 99.3325 29.6519 83.3655 29.6519 63.6695C29.6519 43.9735 45.6189 28.0065 65.3149 28.0065C85.0099 28.0065 100.977 43.9735 100.977 63.6695" fill="#F06647"/><path id="Fill 5" fill-rule="evenodd" clip-rule="evenodd" d="M178.563 63.6695C178.563 83.3655 162.596 99.3325 142.9 99.3325C123.205 99.3325 107.238 83.3655 107.238 63.6695C107.238 43.9735 123.205 28.0065 142.9 28.0065C162.596 28.0065 178.563 43.9735 178.563 63.6695" fill="#F06647"/><path id="Fill 7" fill-rule="evenodd" clip-rule="evenodd" d="M0 183.221H208.214V112.697H0V183.221Z" fill="#252A42"/></g></g></g><g id="Eyes/Jae" transform="translate(124.918 186.42) scale(1 1)"><g id="Eyes/Jae/Naughty"><g id="Group 7"><g id="Group 3"><path id="Fill 1" fill-rule="evenodd" clip-rule="evenodd" d="M38.6802 16.7879V16.7879C36.8742 16.7879 35.4102 15.3239 35.4102 13.5189V10.2439C35.4102 8.43791 36.8742 6.97391 38.6802 6.97391C40.4862 6.97391 41.9502 8.43791 41.9502 10.2439V13.5189C41.9502 15.3239 40.4862 16.7879 38.6802 16.7879" fill="#101335"/></g><g id="Group 6"><path id="Fill 4" fill-rule="evenodd" clip-rule="evenodd" d="M10.0023 19.891C9.34526 19.891 8.70126 19.567 8.31826 18.974C7.72126 18.045 7.98826 16.808 8.91726 16.209L13.8893 13.006L9.32126 9.604C8.43626 8.944 8.25226 7.691 8.91226 6.805C9.57226 5.92 10.8253 5.736 11.7113 6.396L17.6043 10.786C18.3543 11.345 18.7833 12.237 18.7513 13.172C18.7203 14.106 18.2313 14.967 17.4443 15.474L11.0833 19.572C10.7483 19.788 10.3733 19.891 10.0023 19.891" fill="#101335"/></g></g></g></g><g id="Mouth/Jae" transform="translate(132.77 206.476) scale(0.975 1)"><g id="Mouth/Jae/Smiling Black"><g id="Group 3"><path id="Fill 1" fill-rule="evenodd" clip-rule="evenodd" d="M8.91797 5H30.788C30.788 5 29.476 16.489 19.3 16.489C9.12297 16.489 8.91797 5 8.91797 5" fill="#101335"/></g></g></g><g id="Hair/Jae" transform="translate(5.91797 0.420013) scale(1 1)"><g id="Hair/Jae/Blue Waves"><g id="Group 3"><path id="Fill 1" fill-rule="evenodd" clip-rule="evenodd" d="M271.055 209.668C282.288 202.978 280.525 186.198 268.146 181.99C258.452 178.694 254.655 167.003 260.559 158.639V158.639C268.1 147.958 259.663 133.347 246.644 134.537H246.643C236.448 135.469 228.222 126.334 230.215 116.291C232.759 103.466 219.11 93.5493 207.7 99.9323H207.699C198.764 104.931 187.534 99.9313 185.27 89.9463V89.9463C182.378 77.1953 165.874 73.6873 158.047 84.1603C151.917 92.3603 139.624 92.3603 133.494 84.1603C125.666 73.6873 109.163 77.1953 106.272 89.9463V89.9463C104.008 99.9313 92.7778 104.931 83.8418 99.9323C72.4318 93.5493 58.7818 103.466 61.3258 116.291C63.3198 126.334 55.0938 135.469 44.8978 134.537C31.8778 133.347 23.4418 147.958 30.9828 158.639V158.639C36.8878 167.003 33.0888 178.694 23.3958 181.99C11.0168 186.198 9.25279 202.978 20.4868 209.668C29.2828 214.907 30.5678 227.132 23.0528 234.086C13.4558 242.965 18.6698 259.012 31.6538 260.554C35.9718 261.068 39.5538 263.294 41.9498 266.396V236.606C48.7368 235.776 58.7788 232.099 63.9878 218.372C72.3138 196.433 80.9258 209.018 100.45 198.395C119.973 187.772 103.895 164.804 124.853 158.775C141.739 153.918 147.194 137.141 148.678 130.801C150.052 135.231 157.955 157.304 179.381 158.819C203.204 160.503 197.429 184.421 214.033 189.548C230.637 194.674 241.947 195.396 242.669 214.888C243.001 223.853 246.429 230.939 250.034 235.983V265.862C252.419 263.044 255.824 261.038 259.888 260.554C272.871 259.012 278.085 242.965 268.489 234.086C260.974 227.132 262.258 214.907 271.055 209.668" fill="#41AFE4"/></g></g></g><g id="Clothes/Jae" transform="translate(47.918 251.42) scale(1 1)"><g id="Clothes/Jae/Snow Crystals"><g id="Group 18"><path id="Fill 1" fill-rule="evenodd" clip-rule="evenodd" d="M0 63.5815H208.214V0.00050354H0V63.5815Z" fill="#5473B8"/><path id="Fill 2" fill-rule="evenodd" clip-rule="evenodd" d="M0 31.7905H208.214V-0.00050354H0V31.7905Z" fill="#9FD5DD"/><g id="Group 17"><path id="Fill 3" fill-rule="evenodd" clip-rule="evenodd" d="M28.9738 14.2062H23.0388L25.6308 11.6142C26.2308 11.0152 26.2308 10.0422 25.6308 9.4432C25.0318 8.8432 24.0598 8.8432 23.4598 9.4432L20.8678 12.0362V6.1002C20.8678 5.2532 20.1798 4.5652 19.3318 4.5652C18.4838 4.5652 17.7958 5.2532 17.7958 6.1002V12.0352L15.2038 9.4432C14.6048 8.8432 13.6328 8.8432 13.0338 9.4432C12.4338 10.0422 12.4338 11.0152 13.0338 11.6142L15.6248 14.2062H9.69176C8.84276 14.2062 8.15576 14.8942 8.15576 15.7422C8.15576 16.5902 8.84276 17.2772 9.69176 17.2772H15.6248L13.0338 19.8702C12.4338 20.4692 12.4338 21.4412 13.0338 22.0412C13.3328 22.3412 13.7258 22.4912 14.1198 22.4912C14.5118 22.4912 14.9048 22.3412 15.2038 22.0412L17.7958 19.4492V25.3832C17.7958 26.2322 18.4838 26.9182 19.3318 26.9182C20.1798 26.9182 20.8678 26.2322 20.8678 25.3832V19.4482L23.4598 22.0412C23.7598 22.3412 24.1528 22.4912 24.5448 22.4912C24.9388 22.4912 25.3308 22.3412 25.6308 22.0412C26.2308 21.4412 26.2308 20.4692 25.6308 19.8702L23.0388 17.2772H28.9738C29.8218 17.2772 30.5088 16.5902 30.5088 15.7422C30.5088 14.8942 29.8218 14.2062 28.9738 14.2062" fill="white"/><path id="Fill 5" fill-rule="evenodd" clip-rule="evenodd" d="M85.5695 14.2062H79.6335L82.2255 11.6142C82.8265 11.0152 82.8265 10.0422 82.2255 9.4432C81.6265 8.8432 80.6545 8.8432 80.0545 9.4432L77.4635 12.0352V6.1002C77.4635 5.2532 76.7755 4.5652 75.9275 4.5652C75.0805 4.5652 74.3925 5.2532 74.3925 6.1002V12.0362L71.7995 9.4432C71.2005 8.8432 70.2285 8.8432 69.6295 9.4432C69.0285 10.0422 69.0285 11.0152 69.6295 11.6142L72.2205 14.2062H66.2865C65.4385 14.2062 64.7515 14.8942 64.7515 15.7422C64.7515 16.5902 65.4385 17.2772 66.2865 17.2772H72.2205L69.6295 19.8702C69.0285 20.4692 69.0285 21.4412 69.6295 22.0412C69.9285 22.3412 70.3215 22.4912 70.7145 22.4912C71.1065 22.4912 71.5005 22.3412 71.7995 22.0412L74.3925 19.4482V25.3832C74.3925 26.2322 75.0805 26.9182 75.9275 26.9182C76.7755 26.9182 77.4635 26.2322 77.4635 25.3832V19.4492L80.0545 22.0412C80.3545 22.3412 80.7485 22.4912 81.1405 22.4912C81.5335 22.4912 81.9255 22.3412 82.2255 22.0412C82.8265 21.4412 82.8265 20.4692 82.2255 19.8702L79.6335 17.2772H85.5695C86.4175 17.2772 87.1045 16.5902 87.1045 15.7422C87.1045 14.8942 86.4175 14.2062 85.5695 14.2062" fill="white"/><path id="Fill 7" fill-rule="evenodd" clip-rule="evenodd" d="M142.164 14.2062H136.229L138.822 11.6142C139.422 11.0152 139.422 10.0422 138.822 9.4432C138.223 8.8432 137.251 8.8432 136.65 9.4432L134.059 12.0362V6.1002C134.059 5.2532 133.371 4.5652 132.522 4.5652C131.675 4.5652 130.987 5.2532 130.987 6.1002V12.0352L128.395 9.4432C127.796 8.8432 126.824 8.8432 126.225 9.4432C125.625 10.0422 125.625 11.0152 126.225 11.6142L128.816 14.2062H122.882C122.034 14.2062 121.347 14.8942 121.347 15.7422C121.347 16.5902 122.034 17.2772 122.882 17.2772H128.816L126.225 19.8702C125.625 20.4692 125.625 21.4412 126.225 22.0412C126.524 22.3412 126.917 22.4912 127.31 22.4912C127.703 22.4912 128.096 22.3412 128.395 22.0412L130.987 19.4492V25.3832C130.987 26.2322 131.675 26.9182 132.522 26.9182C133.371 26.9182 134.059 26.2322 134.059 25.3832V19.4482L136.65 22.0412C136.95 22.3412 137.344 22.4912 137.736 22.4912C138.129 22.4912 138.522 22.3412 138.822 22.0412C139.422 21.4412 139.422 20.4692 138.822 19.8702L136.229 17.2772H142.164C143.012 17.2772 143.699 16.5902 143.699 15.7422C143.699 14.8942 143.012 14.2062 142.164 14.2062" fill="white"/><path id="Fill 9" fill-rule="evenodd" clip-rule="evenodd" d="M179.478 17.2772H185.413L182.82 19.8702C182.22 20.4692 182.22 21.4412 182.82 22.0412C183.12 22.3402 183.513 22.4912 183.906 22.4912C184.298 22.4912 184.691 22.3402 184.991 22.0412L187.583 19.4482V25.3832C187.583 26.2322 188.271 26.9182 189.12 26.9182C189.967 26.9182 190.655 26.2322 190.655 25.3832V19.4492L193.247 22.0412C193.546 22.3402 193.939 22.4912 194.332 22.4912C194.725 22.4912 195.118 22.3402 195.417 22.0412C196.017 21.4412 196.017 20.4692 195.417 19.8702L192.826 17.2772H198.76C199.609 17.2772 200.296 16.5902 200.296 15.7422C200.296 14.8942 199.609 14.2062 198.76 14.2062H192.826L195.417 11.6142C196.017 11.0152 196.017 10.0422 195.417 9.4432C194.818 8.8432 193.846 8.8432 193.247 9.4432L190.655 12.0352V6.1002C190.655 5.2532 189.967 4.5652 189.12 4.5652C188.271 4.5652 187.583 5.2532 187.583 6.1002V12.0362L184.991 9.4432C184.391 8.8432 183.419 8.8432 182.82 9.4432C182.22 10.0422 182.22 11.0152 182.82 11.6142L185.413 14.2062H179.478C178.629 14.2062 177.942 14.8942 177.942 15.7422C177.942 16.5902 178.629 17.2772 179.478 17.2772" fill="white"/><path id="Fill 11" fill-rule="evenodd" clip-rule="evenodd" d="M55.4835 45.8275H49.5485L52.1405 43.2355C52.7405 42.6365 52.7405 41.6635 52.1405 41.0645C51.5415 40.4645 50.5695 40.4645 49.9685 41.0645L47.3775 43.6565V37.7215C47.3775 36.8745 46.6895 36.1865 45.8415 36.1865C44.9945 36.1865 44.3065 36.8745 44.3065 37.7215V43.6575L41.7135 41.0645C41.1145 40.4645 40.1425 40.4645 39.5435 41.0645C38.9435 41.6635 38.9435 42.6365 39.5435 43.2355L42.1345 45.8275H36.2005C35.3525 45.8275 34.6655 46.5145 34.6655 47.3635C34.6655 48.2115 35.3525 48.8985 36.2005 48.8985H42.1345L39.5435 51.4915C38.9435 52.0895 38.9435 53.0625 39.5435 53.6625C39.8425 53.9625 40.2355 54.1125 40.6285 54.1125C41.0215 54.1125 41.4145 53.9625 41.7135 53.6625L44.3065 51.0695V57.0045C44.3065 57.8525 44.9945 58.5395 45.8415 58.5395C46.6895 58.5395 47.3775 57.8525 47.3775 57.0045V51.0705L49.9685 53.6625C50.2695 53.9625 50.6625 54.1125 51.0545 54.1125C51.4475 54.1125 51.8405 53.9625 52.1405 53.6625C52.7405 53.0625 52.7405 52.0895 52.1405 51.4915L49.5475 48.8985H55.4835C56.3315 48.8985 57.0185 48.2115 57.0185 47.3635C57.0185 46.5145 56.3315 45.8275 55.4835 45.8275" fill="white"/><path id="Fill 13" fill-rule="evenodd" clip-rule="evenodd" d="M113.905 45.8275H107.969L110.561 43.2355C111.162 42.6365 111.162 41.6635 110.561 41.0645C109.962 40.4645 108.99 40.4645 108.39 41.0645L105.799 43.6565V37.7215C105.799 36.8745 105.111 36.1865 104.263 36.1865C103.415 36.1865 102.727 36.8745 102.727 37.7215V43.6575L100.135 41.0645C99.5364 40.4645 98.5644 40.4645 97.9644 41.0645C97.3644 41.6635 97.3644 42.6365 97.9644 43.2355L100.555 45.8275H94.6224C93.7744 45.8275 93.0874 46.5145 93.0874 47.3635C93.0874 48.2115 93.7744 48.8985 94.6224 48.8985H100.556L97.9644 51.4915C97.3644 52.0895 97.3644 53.0625 97.9644 53.6625C98.2634 53.9625 98.6574 54.1125 99.0504 54.1125C99.4424 54.1125 99.8364 53.9625 100.135 53.6625L102.727 51.0695V57.0045C102.727 57.8525 103.415 58.5395 104.263 58.5395C105.111 58.5395 105.799 57.8525 105.799 57.0045V51.0705L108.39 53.6625C108.69 53.9625 109.083 54.1125 109.476 54.1125C109.869 54.1125 110.261 53.9625 110.561 53.6625C111.162 53.0625 111.162 52.0895 110.561 51.4915L107.969 48.8985H113.905C114.753 48.8985 115.44 48.2115 115.44 47.3635C115.44 46.5145 114.753 45.8275 113.905 45.8275" fill="white"/><path id="Fill 15" fill-rule="evenodd" clip-rule="evenodd" d="M172.066 45.8275H166.131L168.723 43.2355C169.323 42.6365 169.323 41.6635 168.723 41.0645C168.124 40.4645 167.152 40.4645 166.551 41.0645L163.96 43.6565V37.7215C163.96 36.8745 163.272 36.1865 162.424 36.1865C161.577 36.1865 160.889 36.8745 160.889 37.7215V43.6575L158.296 41.0645C157.697 40.4645 156.725 40.4645 156.126 41.0645C155.526 41.6635 155.526 42.6365 156.126 43.2355L158.717 45.8275H152.783C151.935 45.8275 151.248 46.5145 151.248 47.3635C151.248 48.2115 151.935 48.8985 152.783 48.8985H158.717L156.126 51.4915C155.526 52.0895 155.526 53.0625 156.126 53.6625C156.425 53.9625 156.818 54.1125 157.211 54.1125C157.604 54.1125 157.997 53.9625 158.296 53.6625L160.889 51.0695V57.0045C160.889 57.8525 161.577 58.5395 162.424 58.5395C163.272 58.5395 163.96 57.8525 163.96 57.0045V51.0705L166.551 53.6625C166.852 53.9625 167.245 54.1125 167.637 54.1125C168.03 54.1125 168.423 53.9625 168.723 53.6625C169.323 53.0625 169.323 52.0895 168.723 51.4915L166.13 48.8985H172.066C172.914 48.8985 173.601 48.2115 173.601 47.3635C173.601 46.5145 172.914 45.8275 172.066 45.8275" fill="white"/></g></g></g></g></g></g><g id="Master/Worms/Poh" transform="translate(147 219) scale(0.9966777408637874 1)"><g id="Master/Worms/Poh"><g id="Body/Poh" transform="translate(92.457 113.4) scale(1 1)"><g id="Body/Poh/Lavender"><g id="Group 11"><g id="Group 3"><path id="Fill 1" fill-rule="evenodd" clip-rule="evenodd" d="M118.501 81.3972C118.501 74.8332 115.578 68.9622 110.977 64.9782C115.578 60.9942 118.501 55.1232 118.501 48.5592C118.501 36.5592 108.773 26.8312 96.7728 26.8312C96.5588 26.8312 96.3508 26.8562 96.1378 26.8632C96.5368 25.2142 96.7728 23.5012 96.7728 21.7292C96.7728 9.72824 87.0448 0.000244141 75.0448 0.000244141C69.0788 0.000244141 63.6778 2.40824 59.7508 6.30024C55.8238 2.40824 50.4228 0.000244141 44.4568 0.000244141C32.4568 0.000244141 22.7288 9.72824 22.7288 21.7292C22.7288 23.5012 22.9638 25.2142 23.3638 26.8632C23.1508 26.8562 22.9428 26.8312 22.7288 26.8312C10.7288 26.8312 0.999756 36.5592 0.999756 48.5592C0.999756 55.1232 3.92376 60.9942 8.52376 64.9782C3.92376 68.9622 0.999756 74.8332 0.999756 81.3972C0.999756 87.9612 3.92376 93.8322 8.52376 97.8162C3.92376 101.8 0.999756 107.671 0.999756 114.235C0.999756 120.799 3.92376 126.669 8.52376 130.654C3.92376 134.638 0.999756 140.508 0.999756 147.073C0.999756 153.637 3.92376 159.507 8.52376 163.492C3.92376 167.476 0.999756 173.346 0.999756 179.91C0.999756 191.305 9.77576 200.634 20.9368 201.548L20.9338 201.639H96.7728C108.773 201.639 118.501 191.91 118.501 179.91C118.501 173.346 115.578 167.476 110.977 163.492C115.578 159.507 118.501 153.637 118.501 147.073C118.501 140.508 115.578 134.638 110.977 130.654C115.578 126.669 118.501 120.799 118.501 114.235C118.501 107.671 115.578 101.8 110.977 97.8162C115.578 93.8322 118.501 87.9612 118.501 81.3972" fill="#E0BFDB"/></g><path id="Fill 4" fill-rule="evenodd" clip-rule="evenodd" d="M58.201 46.8196C58.201 56.5686 50.298 64.4716 40.549 64.4716C30.8 64.4716 22.896 56.5686 22.896 46.8196C22.896 37.0706 30.8 29.1676 40.549 29.1676C50.298 29.1676 58.201 37.0706 58.201 46.8196" fill="#00AFA9"/><path id="Fill 6" fill-rule="evenodd" clip-rule="evenodd" d="M96.6053 46.8196C96.6053 56.5686 88.7023 64.4716 78.9533 64.4716C69.2033 64.4716 61.2993 56.5686 61.2993 46.8196C61.2993 37.0706 69.2033 29.1676 78.9533 29.1676C88.7023 29.1676 96.6053 37.0706 96.6053 46.8196" fill="#00AFA9"/><g id="Group 10"><path id="Fill 8" fill-rule="evenodd" clip-rule="evenodd" d="M2.119 88.2819L2.337 88.4789C4.639 90.6789 7.574 90.6789 9.876 88.4789L10.037 88.3249C12.354 86.1099 15.313 86.1259 17.62 88.3669C19.943 90.6229 22.924 90.6229 25.247 88.3669C27.554 86.1259 30.512 86.1099 32.83 88.3239L32.98 88.4689C35.282 90.6689 38.218 90.6689 40.519 88.4689L40.701 88.2949C43.003 86.0949 45.938 86.0949 48.24 88.2949L48.359 88.4089C50.661 90.6089 53.597 90.6089 55.898 88.4089L56.142 88.1759C58.444 85.9759 61.379 85.9759 63.682 88.1759L63.801 88.2899C66.102 90.4899 69.037 90.4899 71.34 88.2899L71.396 88.2359C73.698 86.0359 76.634 86.0359 78.935 88.2359L79.072 88.3659C81.374 90.5659 84.309 90.5659 86.611 88.3659L86.707 88.2759C89.009 86.0759 91.943 86.0759 94.246 88.2759L94.351 88.3769C96.654 90.5769 99.589 90.5769 101.89 88.3769L102.148 88.1319C104.45 85.9319 107.385 85.9319 109.687 88.1319L109.896 88.3319C112.198 90.5319 115.032 90.6259 117.334 88.4269C116.073 92.0989 113.852 95.3259 110.976 97.8159C115.578 101.801 118.501 107.671 118.501 114.235C118.501 120.8 115.578 126.67 110.976 130.654C115.578 134.638 118.501 140.509 118.501 147.073C118.501 153.637 115.578 159.508 110.976 163.492C115.578 167.476 118.501 173.346 118.501 179.91C118.501 191.91 108.773 201.639 96.773 201.639H20.933L20.936 201.549C9.776 200.635 1 191.305 1 179.91C1 173.346 3.924 167.476 8.524 163.492C3.924 159.508 1 153.637 1 147.073C1 140.509 3.924 134.638 8.524 130.654C3.924 126.67 1 120.8 1 114.235C1 107.671 3.924 101.801 8.524 97.8159C5.611 95.2939 3.371 92.0139 2.119 88.2819" fill="#C591C1"/></g></g></g></g><g id="Eyes/Poh" transform="translate(131.918 153.017) scale(1 1)"><g id="Eyes/Poh/Naughty"><g id="Group 7"><g id="Group 3"><path id="Fill 1" fill-rule="evenodd" clip-rule="evenodd" d="M8.50139 12.5768C8.00939 12.5768 7.52539 12.3338 7.23939 11.8898C6.79039 11.1928 6.99139 10.2638 7.68839 9.81579L11.5354 7.33679L7.99939 4.70279C7.33539 4.20779 7.19739 3.26779 7.69239 2.60379C8.18839 1.93879 9.12639 1.80279 9.79239 2.29779L14.3064 5.65979C14.8724 6.08179 15.1954 6.75579 15.1724 7.46179C15.1474 8.16679 14.7784 8.81679 14.1854 9.19879L9.31339 12.3378C9.06239 12.4998 8.77939 12.5768 8.50139 12.5768" fill="#101335"/></g><g id="Group 6"><path id="Fill 4" fill-rule="evenodd" clip-rule="evenodd" d="M29.4054 10.026V10.026C28.0224 10.026 26.9014 8.905 26.9014 7.522V5.013C26.9014 3.63 28.0224 2.508 29.4054 2.508C30.7894 2.508 31.9104 3.63 31.9104 5.013V7.522C31.9104 8.905 30.7894 10.026 29.4054 10.026" fill="#101335"/></g></g></g></g><g id="Mouth/Poh" transform="translate(131.904 166.433) scale(0.975609756097561 1)"><g id="Mouth/Poh/Similing Black"><g id="Group 3"><path id="Fill 1" fill-rule="evenodd" clip-rule="evenodd" d="M29.769 5.00006C29.769 5.00006 28.698 14.3771 20.392 14.3771C12.086 14.3771 11.918 5.00006 11.918 5.00006H29.769Z" fill="#101335"/></g></g></g><g id="Hair/Poh" transform="translate(80.918 60.5) scale(1 1)"><g id="Hair/Poh/Flower Bun"><g id="Group 5"><path id="Fill 1" fill-rule="evenodd" clip-rule="evenodd" d="M49.3843 51.2237C49.6513 50.9767 49.7813 50.6277 49.7433 50.2647C49.7063 49.9027 49.5053 49.5867 49.1943 49.4007C47.6703 48.4847 46.8383 46.8147 47.0263 45.0437C47.2113 43.2717 48.3713 41.8177 50.0523 41.2467C50.3953 41.1317 50.6563 40.8657 50.7693 40.5197C50.8813 40.1737 50.8253 39.8037 50.6163 39.5057C49.5943 38.0477 49.5103 36.1837 50.3993 34.6437C51.2863 33.1017 52.9363 32.2477 54.7033 32.4147C55.0643 32.4477 55.4113 32.3127 55.6543 32.0427C55.8973 31.7727 55.9953 31.4127 55.9263 31.0557C55.5813 29.3067 56.2593 27.5717 57.6963 26.5277C59.1323 25.4827 60.9863 25.3777 62.5343 26.2507C62.8503 26.4297 63.2223 26.4487 63.5533 26.3007C63.8853 26.1527 64.1213 25.8647 64.2013 25.5097C64.5953 23.7727 65.9183 22.4657 67.6553 22.0997C69.3913 21.7327 71.1283 22.3937 72.1903 23.8237C72.4073 24.1157 72.7393 24.2847 73.1033 24.2847C73.4663 24.2847 73.7983 24.1197 74.0153 23.8277C75.0783 22.4027 76.8183 21.7497 78.5533 22.1247C80.2883 22.4997 81.6113 23.8127 82.0023 25.5517C82.0823 25.9067 82.3182 26.1967 82.6502 26.3457C82.9812 26.4937 83.3523 26.4777 83.6693 26.3007C85.2193 25.4347 87.0723 25.5487 88.5083 26.5997C89.9433 27.6507 90.6193 29.3887 90.2733 31.1357C90.2023 31.4937 90.3013 31.8537 90.5433 32.1247C90.7853 32.3957 91.1323 32.5337 91.4933 32.5007C93.2613 32.3427 94.9092 33.2047 95.7962 34.7497C96.6832 36.2957 96.5973 38.1577 95.5723 39.6117C95.3633 39.9087 95.3083 40.2777 95.4193 40.6247C95.5313 40.9717 95.7922 41.2377 96.1362 41.3557C97.8162 41.9337 98.9743 43.3937 99.1583 45.1667C99.3433 46.9387 98.5103 48.6047 96.9863 49.5127C96.6733 49.6987 96.4732 50.0127 96.4352 50.3747C96.3972 50.7367 96.5283 51.0867 96.7933 51.3347C98.0963 52.5477 98.5643 54.3537 98.0143 56.0477C97.4653 57.7407 96.0313 58.9177 94.2663 59.1277C93.9053 59.1697 93.5952 59.3737 93.4132 59.6887C93.2332 60.0047 93.2103 60.3767 93.3533 60.7117C94.0523 62.3517 93.7482 64.1907 92.5602 65.5127C91.3712 66.8337 89.5803 67.3257 87.8853 66.7927C87.5393 66.6847 87.1723 66.7447 86.8783 66.9577C86.5853 67.1707 86.4133 67.5027 86.4083 67.8667C86.3833 69.6487 85.3613 71.2027 83.7383 71.9247C82.1163 72.6477 80.2803 72.3617 78.9463 71.1837C78.6743 70.9437 78.3143 70.8487 77.9593 70.9227C77.6043 70.9977 77.3133 71.2307 77.1613 71.5607C76.4173 73.1777 74.8523 74.1797 73.0763 74.1747C71.3023 74.1707 69.7383 73.1617 68.9953 71.5417C68.8433 71.2107 68.5533 70.9767 68.1983 70.9007C67.8433 70.8247 67.4843 70.9177 67.2103 71.1567C65.8743 72.3277 64.0383 72.6027 62.4173 71.8737C60.7963 71.1457 59.7753 69.5857 59.7523 67.8037C59.7473 67.4397 59.5763 67.1077 59.2823 66.8927C58.9893 66.6777 58.6233 66.6167 58.2773 66.7237C56.5763 67.2437 54.7903 66.7477 53.6033 65.4207C52.4163 64.0937 52.1143 62.2537 52.8153 60.6177C52.9583 60.2827 52.9363 59.9097 52.7553 59.5937C52.5733 59.2777 52.2643 59.0717 51.9033 59.0277C50.1413 58.8137 48.7063 57.6267 48.1583 55.9307C47.6113 54.2347 48.0803 52.4307 49.3843 51.2237" fill="#41AFE4"/><path id="Fill 3" fill-rule="evenodd" clip-rule="evenodd" d="M89.6136 48.0874C89.6136 57.1464 82.2696 64.4904 73.2106 64.4904C64.1506 64.4904 56.8066 57.1464 56.8066 48.0874C56.8066 39.0284 64.1506 31.6844 73.2106 31.6844C82.2696 31.6844 89.6136 39.0284 89.6136 48.0874" fill="#775CA6"/></g></g></g><g id="Clothes/Poh" transform="translate(92.918 199) scale(1 1)"><g id="Clothes/Poh/Smooth Mixie"><g id="Group 17"><g id="Group 3"><path id="Fill 1" fill-rule="evenodd" clip-rule="evenodd" d="M8.07429 12.2082L8.30529 12.4242C10.3513 14.3792 12.9593 14.3792 15.0043 12.4242L15.1473 12.2882C17.2063 10.3192 19.8353 10.3342 21.8843 12.3252C23.9483 14.3292 26.5963 14.3292 28.6603 12.3252C30.7103 10.3342 33.3383 10.3192 35.3973 12.2872L35.5313 12.4152C37.5763 14.3702 40.1833 14.3702 42.2283 12.4152L42.3903 12.2612C44.4353 10.3072 47.0433 10.3072 49.0883 12.2612L49.1943 12.3622C51.2393 14.3162 53.8463 14.3162 55.8923 12.3622L56.1083 12.1552C58.1543 10.2012 60.7623 10.2012 62.8063 12.1552L62.9133 12.2562C64.9583 14.2112 67.5653 14.2112 69.6103 12.2562L69.6613 12.2082C71.7063 10.2542 74.3143 10.2542 76.3593 12.2082L76.4803 12.3242C78.5263 14.2792 81.1343 14.2792 83.1783 12.3242L83.2633 12.2442C85.3083 10.2892 87.9163 10.2892 89.9613 12.2442L90.0553 12.3342C92.1003 14.2882 94.7093 14.2882 96.7543 12.3342L96.9823 12.1162C99.0273 10.1612 101.635 10.1612 103.679 12.1162L103.866 12.2932C105.911 14.2482 108.481 14.1632 110.526 12.2082C115.128 16.1922 118.051 22.0632 118.051 28.6272C118.051 35.1912 115.128 41.0622 110.526 45.0452C115.128 49.0302 118.051 54.9002 118.051 61.4642C118.051 68.0292 115.128 73.8992 110.526 77.8842C115.128 81.8682 118.051 87.7382 118.051 94.3022C118.051 106.302 108.323 116.031 96.3223 116.031H20.4833L20.4853 115.94C9.32629 115.026 0.550293 105.697 0.550293 94.3022C0.550293 87.7382 3.47229 81.8682 8.07429 77.8842C3.47229 73.8992 0.550293 68.0292 0.550293 61.4642C0.550293 54.9002 3.47229 49.0302 8.07429 45.0452C3.47229 41.0622 0.550293 35.1912 0.550293 28.6272C0.550293 22.0632 3.47229 16.1922 8.07429 12.2082" fill="#00AFA9"/></g><path id="Fill 4" fill-rule="evenodd" clip-rule="evenodd" d="M101.999 22.5051C97.3623 27.8711 96.7823 36.5401 100.589 43.5871C101.637 45.5261 102.921 47.2471 104.343 48.7711C96.9833 51.5191 89.3523 51.9901 82.6323 50.0021C72.8403 47.1031 65.4713 38.6601 64.7133 29.4691C64.3143 24.6371 66.0943 19.4071 69.4723 15.4791C71.0573 13.6361 72.8923 12.1921 74.8673 11.1801C73.1413 10.3701 71.2353 10.7041 69.6613 12.2081L69.6103 12.2561C68.8363 12.9971 67.9803 13.4541 67.1063 13.6331C63.2193 18.2091 61.2573 24.0611 61.7233 29.7161C62.5803 40.1111 70.8283 49.6361 81.7803 52.8791C89.5353 55.1731 98.3613 54.4891 106.732 51.0551C110.073 53.9141 113.807 55.8951 116.912 57.2121C117.171 57.3211 117.428 57.4221 117.687 57.5261C117.449 56.2391 117.099 54.9931 116.645 53.7971C114.451 52.7721 112.05 51.4321 109.781 49.6721C110.705 49.2111 111.622 48.7151 112.529 48.1871C112.754 48.0551 112.957 47.9191 113.177 47.7861C112.531 46.9941 111.832 46.2491 111.084 45.5541C111.061 45.5681 111.04 45.5821 111.017 45.5961C109.801 46.3051 108.566 46.9491 107.318 47.5271C105.747 45.9851 104.333 44.2061 103.228 42.1611C100.001 36.1871 100.429 28.9101 104.269 24.4661C106.279 22.1391 109.58 20.7071 112.911 20.7071C112.959 20.7071 113.008 20.7071 113.056 20.7081C114.423 20.7251 115.691 20.9821 116.825 21.4421C116.391 20.2071 115.844 19.0261 115.204 17.9051C114.52 17.7951 113.819 17.7171 113.094 17.7081C108.784 17.6491 104.641 19.4471 101.999 22.5051" fill="#E0BFDB"/><path id="Fill 6" fill-rule="evenodd" clip-rule="evenodd" d="M85.8384 108.682C82.3594 104.343 78.7644 99.8569 74.0274 96.6329C68.0104 92.5359 58.5974 90.5649 52.1504 95.9149C48.0484 99.3189 46.6074 104.417 45.2124 109.347C44.6244 111.426 44.0164 113.575 43.2214 115.512C43.1494 115.688 43.0624 115.857 42.9844 116.031H46.2324C46.9704 114.117 47.5474 112.113 48.0994 110.163C49.4274 105.468 50.6824 101.032 54.0664 98.2239C59.0854 94.0569 67.0594 95.5179 72.3404 99.1129C76.7044 102.084 80.1584 106.392 83.4984 110.558C84.5474 111.868 85.6334 113.222 86.7364 114.524C87.1704 115.036 87.6104 115.535 88.0524 116.031H92.1214C91.0704 114.927 90.0374 113.777 89.0254 112.583C87.9474 111.313 86.8754 109.975 85.8384 108.682" fill="#E0BFDB"/><path id="Fill 8" fill-rule="evenodd" clip-rule="evenodd" d="M17.3383 60.6814C18.8683 58.0714 19.1913 54.9954 18.2693 51.7864C17.0673 47.5984 13.8423 43.7034 9.85427 41.6224C7.78627 40.5434 5.61327 39.8274 3.38827 39.3324C4.21027 40.7754 5.19027 42.1174 6.30927 43.3294C7.04427 43.6094 7.76827 43.9174 8.46627 44.2814C11.7003 45.9704 14.4163 49.2414 15.3853 52.6144C15.8653 54.2884 16.1473 56.7834 14.7503 59.1634C12.2073 63.4984 6.55227 64.2674 0.80127 64.7284C0.95427 65.7384 1.17627 66.7244 1.46427 67.6834C7.62627 67.1704 14.1193 66.1664 17.3383 60.6814" fill="#E0BFDB"/><g id="Group 12"><path id="Fill 10" fill-rule="evenodd" clip-rule="evenodd" d="M9.87529 93.3611C7.06629 92.0491 3.87529 91.5891 0.678293 91.9531C0.595293 92.7251 0.550293 93.5081 0.550293 94.3021C0.550293 94.5411 0.576293 94.7731 0.584293 95.0091C1.32229 94.9061 2.06329 94.8481 2.79529 94.8481C4.84829 94.8481 6.84229 95.2551 8.60429 96.0791C15.3553 99.2351 19.2573 107.747 18.0943 115.597C18.8793 115.75 19.6743 115.874 20.4863 115.941L20.4823 116.031H21.0723C22.4673 106.853 17.9243 97.1241 9.87529 93.3611" fill="#E0BFDB"/></g><path id="Fill 13" fill-rule="evenodd" clip-rule="evenodd" d="M102.316 87.1306C101.207 87.6846 100.052 88.1446 98.8715 88.5106C98.6285 88.3226 98.3925 88.1266 98.1665 87.9226C93.8925 84.0666 93.0735 76.9766 96.4485 73.0476C97.8495 71.4166 100.136 70.4836 102.554 70.4836C103.087 70.4836 103.627 70.5286 104.166 70.6216C106.764 71.0736 108.707 72.5126 109.495 74.5696C111.302 79.2886 107.265 84.6626 102.316 87.1306M44.7105 81.2976C39.3805 83.1566 32.0725 82.0456 29.5565 77.0136C28.5545 75.0086 28.4965 72.5766 29.3885 70.1646C30.4775 67.2236 32.8735 64.6726 35.6405 63.5086C37.3515 62.7886 39.2465 62.4346 41.2325 62.4346C44.8475 62.4346 48.7695 63.6076 52.4455 65.8756C54.0845 66.8866 55.6265 68.0596 57.1005 69.3316C54.8895 74.8136 50.3295 79.3386 44.7105 81.2976M104.679 67.6666C100.68 66.9716 96.5575 68.3176 94.1725 71.0926C89.9595 75.9976 90.5645 84.2356 95.3105 89.3176C91.0615 89.9436 86.6445 89.4276 82.6735 87.7526C76.9515 85.3376 72.2635 80.6366 68.3185 76.4216L66.9165 74.9136C64.8835 72.7256 62.8165 70.4986 60.5905 68.4306C60.9685 67.1786 61.2405 65.8936 61.3945 64.5886C62.4355 55.8086 58.1385 46.6976 50.7035 41.9166C47.2125 39.6716 43.1775 38.3666 39.2775 37.1056C33.6965 35.3006 28.4245 33.5956 25.0895 29.3866C21.7635 25.1906 21.2285 18.7866 23.6705 13.5006C23.0475 13.2516 22.4435 12.8686 21.8845 12.3246C21.6605 12.1076 21.4255 11.9226 21.1895 11.7526C18.0225 18.1266 18.6235 26.0576 22.7385 31.2496C26.6375 36.1706 32.5935 38.0966 38.3535 39.9596C42.0725 41.1626 45.9185 42.4056 49.0805 44.4396C55.5725 48.6146 59.3245 56.5696 58.4155 64.2346C58.3365 64.9066 58.2205 65.5716 58.0725 66.2286C56.7885 65.1796 55.4435 64.2006 54.0195 63.3226C47.5035 59.3016 40.1975 58.3386 34.4775 60.7426C30.9185 62.2406 27.9625 65.3736 26.5755 69.1226C25.3905 72.3216 25.4965 75.5996 26.8735 78.3546C30.1595 84.9306 39.0255 86.4556 45.6975 84.1306C51.7725 82.0126 56.7665 77.2766 59.4375 71.4726C61.2655 73.2366 63.0035 75.1096 64.7165 76.9556L66.1285 78.4706C70.2835 82.9126 75.2425 87.8716 81.5065 90.5156C86.7855 92.7436 92.7635 93.1526 98.3035 91.7796C102.98 94.7536 109.283 95.4836 115.388 93.6386C116.272 93.3716 117.136 93.0566 117.986 92.7106C117.91 91.6646 117.763 90.6376 117.544 89.6386C116.554 90.0686 115.552 90.4546 114.521 90.7666C110.318 92.0376 105.912 91.8726 102.298 90.4436C102.756 90.2476 103.209 90.0376 103.656 89.8156C107.761 87.7666 111.302 83.9866 112.49 79.8226C111.875 79.1376 111.222 78.4866 110.526 77.8836C111.347 77.1726 112.111 76.3996 112.818 75.5756C112.721 74.8796 112.56 74.1836 112.296 73.4966C111.138 70.4736 108.291 68.2936 104.679 67.6666" fill="#E0BFDB"/><path id="Fill 15" fill-rule="evenodd" clip-rule="evenodd" d="M44.3536 19.2536C49.5566 20.0906 54.9556 16.8446 56.1466 12.1626C56.1506 12.1476 56.1526 12.1316 56.1566 12.1166C56.1406 12.1306 56.1246 12.1406 56.1096 12.1556L55.8926 12.3626C54.6976 13.5036 53.3106 13.9586 51.9576 13.7666C50.3136 15.6266 47.5036 16.7246 44.8326 16.2916C43.0396 16.0026 41.2856 15.1096 39.7466 13.7896C38.3046 14.0936 36.8086 13.6356 35.5316 12.4156L35.3966 12.2876C34.9276 11.8386 34.4266 11.5066 33.9126 11.2646C36.2906 15.6066 40.1496 18.5766 44.3536 19.2536" fill="#E0BFDB"/></g></g></g></g></g></g></svg>