<svg viewBox="70 122.1732954545455 690 420.5965909090907" fill="none" xmlns="http://www.w3.org/2000/svg" xmlns:xlink="http://www.w3.org/1999/xlink" overflow="visible" width="690px" height="420.5965909090907px"><g id="Master/Spot Illustration/Staying Home"><g id="Background" transform="translate(40 101) scale(1 1)"><g id="Background/Party"><g id="Group 9"><g id="Group 3"><path id="Fill 1" fill-rule="evenodd" clip-rule="evenodd" d="M172.115 108.862C172.226 98.9372 172.266 88.6522 168.217 79.5912C164.168 70.5282 154.809 63.0332 144.986 64.4532C133.874 66.0602 127.128 77.8132 124.968 88.8322C122.265 102.614 124.157 117.257 130.275 129.899C117.498 125.36 105.382 118.961 92.3079 115.364C79.2349 111.767 64.5029 111.278 52.8239 118.169C41.1459 125.058 34.2789 140.972 40.6879 152.922C44.6769 160.362 52.5739 164.747 60.2219 168.324C78.0879 176.68 96.9609 182.883 116.301 186.756C87.1069 187.737 58.9349 204.612 44.2929 229.887C39.0069 239.013 35.4609 250.54 40.2659 259.929C44.4829 268.169 53.9339 272.309 62.9959 274.192C88.9489 279.584 115.604 271.59 140.902 263.679C122.953 277.494 119.972 306.431 133.646 324.488C147.319 342.544 174.666 347.876 194.832 337.564C214.998 327.254 226.631 303.176 223.705 280.716C239.64 297.851 262.038 310.356 285.414 309.3C308.789 308.245 331.918 290.87 334.709 267.637C335.435 261.6 334.774 255.243 331.819 249.927C326.277 239.956 314.321 235.814 303.409 232.485C292.713 229.222 282.018 225.96 271.322 222.697C300.479 220.947 328.631 206.325 346.83 183.476C355.57 172.505 362.196 159.258 362.545 145.236C362.893 131.213 355.944 116.514 343.359 110.318C331.719 104.588 317.84 106.819 305.294 110.123C285.018 115.462 265.396 123.277 247.003 133.341C262.8 117.239 277.055 99.6252 289.511 80.8182C294.624 73.0972 299.613 64.5152 299.086 55.2702C298.376 42.8002 287.213 32.7162 275.025 29.9882C262.836 27.2592 250.054 30.5362 238.598 35.5122C208.433 48.6192 183.847 74.0562 171.777 104.65" fill="#ebeaee"/></g><g id="Group 8"><path id="Fill 6" fill-rule="evenodd" clip-rule="evenodd" d="M651.303 122.67C655.572 120.602 661.743 121.857 664.3 126.041C665.397 127.837 665.894 130.033 665.331 131.981C664.713 134.115 662.706 135.012 660.602 135.469C658.018 136.031 655.311 136.049 652.795 136.917C650.108 137.843 647.852 139.558 646.695 142.207C644.046 148.273 647.778 154.781 653.872 156.661C656.856 157.581 659.811 157.043 662.799 156.471C664.839 156.079 668.031 155.407 669.015 157.821C669.76 159.649 668.876 161.776 667.242 162.949C664.962 164.587 662.416 164.36 659.779 164.673C656.271 165.088 653.859 167.21 652.389 170.367C651.299 172.71 650.694 175.274 650.743 177.866C650.838 182.918 653.568 188.004 658.843 189.101C662.369 189.834 665.711 188.633 669.202 188.368C672.044 188.151 674.412 189.034 675.823 191.614C676.918 193.614 676.857 196.012 675.382 197.806C673.798 199.733 671.188 200.612 668.852 199.952C665.75 199.075 664.426 203.898 667.523 204.774C673.384 206.43 680.286 202.567 681.393 196.427C682.52 190.175 677.894 184.083 671.627 183.396C668.318 183.032 665.153 184.254 661.876 184.36C660.53 184.404 659.355 184.22 658.32 183.577C657.574 183.114 657.103 182.546 656.626 181.66C655.753 180.041 655.552 177.677 655.87 175.788C656.209 173.776 657.109 170.594 659.282 169.824C660.665 169.335 662.296 169.565 663.737 169.388C665.525 169.167 667.239 168.684 668.834 167.83C671.562 166.372 673.665 163.798 674.125 160.701C674.589 157.573 673.527 154.283 670.827 152.464C667.885 150.482 664.326 151.1 661.068 151.728C658.319 152.257 655.633 152.571 653.211 150.856C651.267 149.479 650.334 147.086 651.041 144.783C651.793 142.333 654.134 141.584 656.426 141.158C659.249 140.634 662.114 140.528 664.78 139.361C671.361 136.478 672.005 128.043 668.056 122.693C663.668 116.749 655.282 115.201 648.779 118.353C647.564 118.941 647.239 120.673 647.882 121.774C648.608 123.014 650.084 123.261 651.303 122.67" fill="#dbdae1"/></g></g></g></g><g id="Window 1" transform="translate(289 236) scale(0.9962825278810409 1)"><g id="Window 1/Grey Cathedral"><g id="Group 6"><g id="Group 3"><mask id="mask0dabeae7d-d569-4b3e-bf80-990ab6879125" mask-type="alpha" maskUnits="userSpaceOnUse" x="7" y="6" width="255" height="292" fill="#ffffff"><path id="Clip 2" fill-rule="evenodd" clip-rule="evenodd" d="M7.91797 6H261.792V297.782H7.91797V6Z" fill="#ffffff"/></mask><g mask="url(#mask0dabeae7d-d569-4b3e-bf80-990ab6879125)"><path id="Fill 1" fill-rule="evenodd" clip-rule="evenodd" d="M134.855 5.9996L50.524 50.0716C24.335 63.7596 7.91797 90.8626 7.91797 120.413V297.782H261.792V120.413C261.792 90.8626 245.375 63.7596 219.186 50.0716L134.855 5.9996ZM134.855 16.6926L214.796 58.4716C237.938 70.5656 252.315 94.3006 252.315 120.413V288.306H17.395V120.413C17.395 94.3006 31.771 70.5656 54.913 58.4716L134.855 16.6926V16.6926Z" fill="#d2d1da"/></g></g><path id="Fill 4" fill-rule="evenodd" clip-rule="evenodd" d="M134.855 16.6929L214.796 58.4709C237.938 70.5659 252.315 94.2999 252.315 120.413V288.305H17.3945V120.413C17.3945 94.2999 31.7705 70.5659 54.9125 58.4709L134.855 16.6929" fill="#ffffff"/></g></g></g><g id="Dialogue Box 2" transform="translate(567 286) scale(1 1)"><g id="Dialogue Box 2/Pink Rectircle"><g id="Group 3"><path id="Fill 1" fill-rule="evenodd" clip-rule="evenodd" d="M187 58.1697V58.1697C187 80.3557 169.016 98.3397 146.831 98.3397H99.437C98.486 98.3397 97.566 98.6787 96.842 99.2947L80.938 112.847C78.341 115.06 74.344 113.215 74.344 109.803V102.34C74.344 100.131 72.553 98.3397 70.344 98.3397H61.858C39.673 98.3397 21.688 80.3557 21.688 58.1697C21.688 35.9837 39.673 17.9997 61.858 17.9997H146.831C169.016 17.9997 187 35.9837 187 58.1697" fill="#dbdae1"/></g></g></g><g id="Plant 2" transform="translate(40 399) scale(0.9945945945945946 1)"><g id="Plant 2/Dry Stem"><g id="Group 20"><path id="Stroke 1 (Stroke)" fill-rule="evenodd" clip-rule="evenodd" d="M81.4521 22.1147C80.0714 22.1147 78.9521 23.234 78.9521 24.6147V36.7327C78.9521 43.0406 84.0666 48.1547 90.3751 48.1547H99.0711C102.619 48.1547 105.494 51.0306 105.494 54.5767V68.8787C105.494 70.2594 106.613 71.3787 107.994 71.3787C109.375 71.3787 110.494 70.2594 110.494 68.8787V54.5767C110.494 48.2688 105.38 43.1547 99.0711 43.1547H90.3751C86.8277 43.1547 83.9521 40.2788 83.9521 36.7327V24.6147C83.9521 23.234 82.8329 22.1147 81.4521 22.1147Z" fill="#d2d2da"/><path id="Stroke 3 (Stroke)" fill-rule="evenodd" clip-rule="evenodd" d="M133.584 30.4719C132.203 30.4719 131.084 31.5912 131.084 32.9719V48.3269C131.084 51.3872 128.602 53.8689 125.542 53.8689H107.993C106.612 53.8689 105.493 54.9882 105.493 56.3689C105.493 57.7496 106.612 58.8689 107.993 58.8689H125.542C131.364 58.8689 136.084 54.1486 136.084 48.3269V32.9719C136.084 31.5912 134.965 30.4719 133.584 30.4719Z" fill="#d2d2da"/><path id="Stroke 5 (Stroke)" fill-rule="evenodd" clip-rule="evenodd" d="M108.494 5.3089C107.113 5.3089 105.994 6.42819 105.994 7.8089V54.5769C105.994 55.9576 107.113 57.0769 108.494 57.0769C109.875 57.0769 110.994 55.9576 110.994 54.5769V7.8089C110.994 6.42819 109.875 5.3089 108.494 5.3089Z" fill="#d2d2da"/><path id="Stroke 7 (Stroke)" fill-rule="evenodd" clip-rule="evenodd" d="M120.788 23.0562C119.408 23.0562 118.288 24.1755 118.288 25.5562V37.0252C118.288 41.7422 122.113 45.5652 126.828 45.5652H130.566C131.947 45.5652 133.066 44.4459 133.066 43.0652C133.066 41.6845 131.947 40.5652 130.566 40.5652H126.828C124.874 40.5652 123.288 38.9802 123.288 37.0252V25.5562C123.288 24.1755 122.169 23.0562 120.788 23.0562Z" fill="#d2d2da"/><path id="Stroke 9 (Stroke)" fill-rule="evenodd" clip-rule="evenodd" d="M95.2227 28.6931C93.8419 28.6931 92.7227 29.8124 92.7227 31.1931V45.6551C92.7227 47.0358 93.8419 48.1551 95.2227 48.1551C96.6034 48.1551 97.7227 47.0358 97.7227 45.6551V31.1931C97.7227 29.8124 96.6034 28.6931 95.2227 28.6931Z" fill="#d2d2da"/><path id="Stroke 11 (Stroke)" fill-rule="evenodd" clip-rule="evenodd" d="M95.5026 5.1002C94.1219 5.1002 93.0026 6.21949 93.0026 7.6002V16.1532C93.0026 22.4799 98.1319 27.6092 104.459 27.6092H107.6C108.98 27.6092 110.1 26.4899 110.1 25.1092C110.1 23.7285 108.98 22.6092 107.6 22.6092H104.459C100.893 22.6092 98.0026 19.7185 98.0026 16.1532V7.6002C98.0026 6.21949 96.8833 5.1002 95.5026 5.1002Z" fill="#d2d2da"/><path id="Fill 13" fill-rule="evenodd" clip-rule="evenodd" d="M119.674 79.954H101.668V63.613H119.674V79.954Z" fill="#6a6783"/><path id="Fill 15" fill-rule="evenodd" clip-rule="evenodd" d="M110.671 121.46C117.969 121.46 123.885 115.544 123.885 108.246C123.885 100.948 117.969 95.0317 110.671 95.0317C103.373 95.0317 97.457 100.948 97.457 108.246C97.457 115.544 103.373 121.46 110.671 121.46M110.713 76.9997C128.499 76.9997 142.918 91.4187 142.918 109.204C142.918 119.908 137.692 129.387 129.656 135.242H91.77C83.734 129.387 78.508 119.908 78.508 109.204C78.508 91.4187 92.927 76.9997 110.713 76.9997" fill="#828098"/><path id="Fill 16" fill-rule="evenodd" clip-rule="evenodd" d="M116.806 119.932C115.38 122.103 113.955 124.274 112.529 126.445C111.423 128.128 110.318 129.812 109.212 131.496C113.18 128.671 117.115 125.801 120.95 122.799C127.346 117.791 133.183 112.292 139.06 106.703C140.158 105.659 141.28 104.634 142.432 103.648C142.745 105.45 142.918 107.3 142.918 109.192C142.918 111.414 142.681 113.579 142.251 115.674C137.891 122.338 133.588 129.043 128.617 135.23H123.431C130.062 127.536 135.382 118.82 141.001 110.332C138.561 112.674 136.185 115.092 133.696 117.335C127.56 122.862 120.997 127.897 114.314 132.739C113.157 133.578 111.989 134.402 110.825 135.23H101.98C105.001 130.629 108.022 126.03 111.043 121.429C113.119 121.371 115.076 120.841 116.806 119.932" fill="#9290a5"/><path id="Fill 17" fill-rule="evenodd" clip-rule="evenodd" d="M97.458 108.234C97.458 109.979 97.804 111.64 98.418 113.166C96.766 115.601 95.122 118.044 93.451 120.467C92.575 121.737 91.679 122.993 90.799 124.259C91.767 123.515 92.726 122.758 93.668 121.983C95.919 120.131 98.029 118.15 100.069 116.096C100.87 117.174 101.829 118.126 102.916 118.917C101.145 120.71 99.315 122.446 97.375 124.081C94.227 126.733 90.918 129.184 87.569 131.576C86.234 130.197 85.025 128.697 83.953 127.098C88.528 120.581 93.053 114.028 97.499 107.422C97.482 107.692 97.458 107.96 97.458 108.234" fill="#9290a5"/><path id="Fill 18" fill-rule="evenodd" clip-rule="evenodd" d="M128.237 102.527C126.77 104.761 125.302 106.996 123.835 109.23C123.86 108.9 123.885 108.57 123.885 108.234C123.885 106.498 123.541 104.844 122.932 103.326C125.098 100.027 127.265 96.7291 129.431 93.4301C126.807 95.8591 124.084 98.1721 121.362 100.489C120.573 99.4031 119.625 98.4451 118.549 97.6441C121.4 95.2261 124.269 92.8321 126.992 90.2671C128.752 88.6091 130.454 86.8911 132.119 85.1391C133.738 86.5821 135.216 88.1801 136.516 89.9201C136.352 90.1711 136.187 90.4211 136.023 90.6721C133.427 94.6231 130.832 98.5751 128.237 102.527" fill="#9290a5"/><path id="Fill 19" fill-rule="evenodd" clip-rule="evenodd" d="M104.838 96.3914C107.531 92.2924 110.2 88.1784 112.842 84.0464C113.217 83.4614 113.58 82.8704 113.953 82.2844C113.058 83.1954 112.168 84.1104 111.28 85.0254C107.459 88.9614 103.562 92.7254 99.3688 96.2654C93.3868 101.317 87.7758 106.814 82.0168 112.114C81.0268 113.024 80.0388 113.99 79.0228 114.927C78.6878 113.066 78.5088 111.15 78.5088 109.192C78.5088 107.574 78.6318 105.984 78.8618 104.43C80.4468 102.187 82.0878 99.9834 83.7538 97.8014C88.4968 91.5914 93.4458 85.5454 98.3388 79.4544C100.45 78.5764 102.675 77.9214 104.984 77.5064C104.536 78.0714 104.086 78.6344 103.64 79.1964C101.266 82.1914 98.8498 85.1544 96.4498 88.1284C91.6818 94.0404 86.9128 99.9804 82.5258 106.187C84.2308 104.605 85.9368 103.025 87.6438 101.446C94.2198 95.3614 101.15 89.7024 107.404 83.2754C109.421 81.2024 111.437 79.1284 113.506 77.1164C116.092 77.3384 118.59 77.8674 120.965 78.6634C117.515 84.1454 114.032 89.6044 110.494 95.0294C108.464 95.0564 106.549 95.5464 104.838 96.3914" fill="#9290a5"/></g></g></g><g id="Master/Worms/Jae" transform="translate(353 219) scale(0.9966777408637874 1)"><g id="Master/Worms/Jae"><g id="Body/Jae" transform="translate(47.918 130.42) scale(1 1)"><g id="Body/Jae/Yellow"><g id="Group 9"><path id="Fill 1" fill-rule="evenodd" clip-rule="evenodd" d="M0.000732422 104.107V183.221H208.214V104.107C208.214 46.61 161.604 0 104.108 0C46.6107 0 0.000732422 46.61 0.000732422 104.107Z" fill="#d2d2da"/><path id="Fill 3" fill-rule="evenodd" clip-rule="evenodd" d="M100.977 63.6694C100.977 83.3654 85.0099 99.3324 65.3139 99.3324C45.6189 99.3324 29.6519 83.3654 29.6519 63.6694C29.6519 43.9734 45.6189 28.0064 65.3139 28.0064C85.0099 28.0064 100.977 43.9734 100.977 63.6694" fill="#b8b7c4"/><path id="Fill 5" fill-rule="evenodd" clip-rule="evenodd" d="M178.563 63.6694C178.563 83.3654 162.596 99.3324 142.9 99.3324C123.205 99.3324 107.238 83.3654 107.238 63.6694C107.238 43.9734 123.205 28.0064 142.9 28.0064C162.596 28.0064 178.563 43.9734 178.563 63.6694" fill="#b8b7c4"/><path id="Fill 7" fill-rule="evenodd" clip-rule="evenodd" d="M0 183.22H208.214V112.696H0V183.22Z" fill="#b5b3c2"/></g></g></g><g id="Eyes/Jae" transform="translate(124.918 186.42) scale(1 1)"><g id="Eyes/Jae/Upset"><g id="Group 6"><g id="Group 3"><path id="Fill 1" fill-rule="evenodd" clip-rule="evenodd" d="M42.6178 14H35.8008C34.6958 14 33.8008 13.105 33.8008 12C33.8008 10.896 34.6958 10 35.8008 10H42.6178C43.7218 10 44.6178 10.896 44.6178 12C44.6178 13.105 43.7218 14 42.6178 14" fill="#190c40"/></g><path id="Fill 4" fill-rule="evenodd" clip-rule="evenodd" d="M17.819 14H11.001C9.89598 14 9.00098 13.105 9.00098 12C9.00098 10.896 9.89598 10 11.001 10H17.819C18.923 10 19.819 10.896 19.819 12C19.819 13.105 18.923 14 17.819 14" fill="#190c40"/></g></g></g><g id="Mouth/Jae" transform="translate(132.77 206.476) scale(0.975 1)"><g id="Mouth/Jae/Smiling White"><g id="Group 3"><path id="Fill 1" fill-rule="evenodd" clip-rule="evenodd" d="M8.91797 2H32.827C32.827 2 31.393 14.56 20.268 14.56C9.14297 14.56 8.91797 2 8.91797 2" fill="#ffffff"/></g></g></g><g id="Hair/Jae" transform="translate(5.91797 0.420013) scale(1 1)"><g id="Hair/Jae/Blue Puff"><g id="Group 3"><path id="Fill 1" fill-rule="evenodd" clip-rule="evenodd" d="M106 103.289C106 95.8174 110.958 91.5004 110.958 91.5004C126.832 107.23 146.809 95.1904 162.959 95.1904C176.503 95.1904 188.949 107.008 188.949 121.966C188.949 129.581 186.004 135 183.762 138.022C183.762 138.022 171.717 134.385 158.854 133.601C157.112 144.771 147.448 153.358 135.79 153.358C122.899 153.358 112.448 142.907 112.448 130.016C112.448 125.779 113.578 121.806 115.552 118.38C109.329 115.227 106 109.574 106 103.289" fill="#a5a3b4"/></g></g></g><g id="Clothes/Jae" transform="translate(47.918 251.42) scale(1 1)"><g id="Clothes/Jae/Smooth Mixie"><g id="Group 15"><path id="Fill 1" fill-rule="evenodd" clip-rule="evenodd" d="M0 64.5816H208.214V1.0006H0V64.5816Z" fill="#9d9bae"/><g id="Group 14"><path id="Fill 2" fill-rule="evenodd" clip-rule="evenodd" d="M186 9.1363C178.411 19.5673 175.736 32.3183 179.018 42.4123C181.42 49.8073 186.709 55.0183 194.311 57.4823L194.617 57.5493C199.58 58.1263 204.114 56.8023 208.084 53.6343C208.129 53.5983 208.17 53.5573 208.214 53.5223V49.1753C207.537 49.9073 206.834 50.5723 206.104 51.1543C202.852 53.7433 199.168 54.8443 195.139 54.4143C188.625 52.2573 184.094 47.7713 182.035 41.4323C179.063 32.2863 181.564 20.6263 188.565 11.0023C191.451 7.0363 195.082 3.6893 199.191 1.0003H193.801C190.861 3.3623 188.225 6.0783 186 9.1363" fill="#c9c8d2"/><path id="Fill 4" fill-rule="evenodd" clip-rule="evenodd" d="M22.791 16.7403C27.33 12.6093 29.84 6.7083 29.818 1.0003H26.659C26.689 5.8283 24.541 10.8573 20.654 14.3933C20.042 14.9513 19.388 15.4723 18.697 15.9563C13.981 19.2643 7.584 20.8083 1.085 20.1263C0.722 20.0883 0.361 20.0313 0 19.9793V23.1813C0.252 23.2133 0.502 23.2563 0.754 23.2823C9.214 24.1703 17.241 21.7853 22.791 16.7403" fill="#c9c8d2"/><g id="Group 8"><path id="Fill 6" fill-rule="evenodd" clip-rule="evenodd" d="M34.4375 48.2291C29.1015 44.3541 21.9165 42.6781 14.2055 43.5091C9.17751 44.0501 4.36151 45.6801 -0.000488281 48.1341V51.8131C4.38851 49.0591 9.34151 47.2241 14.5445 46.6641C21.4725 45.9171 27.8755 47.3851 32.5725 50.7971C37.1895 54.1491 39.9195 59.4831 39.7915 64.5821H42.9625C43.0765 58.4831 39.8615 52.1681 34.4375 48.2291" fill="#c9c8d2"/></g><path id="Fill 9" fill-rule="evenodd" clip-rule="evenodd" d="M157.578 56.1705C154.377 49.3465 147.451 44.0695 140.345 43.0385C133.682 42.0725 127.273 43.5825 121.508 46.1205C121.566 44.2785 121.713 42.5945 121.883 41.1555C123.639 26.3945 129.763 12.3855 139.166 1.0005H135.09C126.221 12.4715 120.457 26.2805 118.732 40.7805C118.502 42.7185 118.316 45.0715 118.31 47.6605C113.726 50.0535 109.635 52.9695 106.269 55.5695C102.414 58.5475 98.9261 61.5485 95.7651 64.5815H100.41C102.82 62.4025 105.418 60.2375 108.209 58.0815C111.789 55.3165 115.18 53.0385 118.42 51.2295C118.698 55.5335 119.563 60.2125 121.502 64.5815H125.01C122.57 59.7915 121.682 54.4085 121.513 49.6235C128.139 46.4525 134.151 45.3475 139.89 46.1795C145.983 47.0625 151.937 51.6195 154.705 57.5185C155.833 59.9215 156.299 62.3165 156.152 64.5815H159.348C159.492 61.8585 158.91 59.0075 157.578 56.1705" fill="#c9c8d2"/><g id="Group 13"><path id="Fill 11" fill-rule="evenodd" clip-rule="evenodd" d="M98.58 1.0001H93.91C94.083 3.2151 94.047 5.3901 93.775 7.5151C92.927 14.1351 88.961 20.7051 83.425 24.6591C79.047 27.7601 74.164 28.9481 69.572 28.0041C67.014 27.4791 64.578 26.3421 62.531 24.7181C55.876 19.4371 54.368 8.5141 58.968 1.0001H55.351C51.019 9.7641 53.051 21.2451 60.559 27.2031C62.993 29.1351 65.89 30.4881 68.934 31.1131C74.336 32.2231 80.062 30.8941 85.086 27.3711C85.146 27.3281 85.209 27.2851 85.269 27.2411C91.5 22.7901 95.966 15.3861 96.922 7.9191C97.056 6.8811 97.141 5.8351 97.177 4.7801C101.124 12.1541 102.147 21.4071 100.371 29.2881C97.09 43.8471 86.45 55.7521 77.35 64.5821H81.865C90.707 55.7031 100.282 44.1161 103.467 29.9851C105.583 20.5961 104 9.4151 98.58 1.0001" fill="#c9c8d2"/></g></g></g></g></g></g></g><g id="Master/Worms/Poh" transform="translate(147 219) scale(0.9966777408637874 1)"><g id="Master/Worms/Poh"><g id="Body/Poh" transform="translate(92.457 113.4) scale(1 1)"><g id="Body/Poh/Charcoal"><g id="Group 11"><g id="Group 3"><path id="Fill 1" fill-rule="evenodd" clip-rule="evenodd" d="M118.501 81.3973C118.501 74.8333 115.578 68.9623 110.977 64.9783C115.578 60.9943 118.501 55.1233 118.501 48.5593C118.501 36.5593 108.772 26.8313 96.772 26.8313C96.558 26.8313 96.35 26.8563 96.137 26.8633C96.537 25.2143 96.772 23.5013 96.772 21.7293C96.772 9.7283 87.045 0.000305176 75.044 0.000305176C69.078 0.000305176 63.677 2.40831 59.751 6.30031C55.824 2.40831 50.423 0.000305176 44.457 0.000305176C32.456 0.000305176 22.729 9.7283 22.729 21.7293C22.729 23.5013 22.964 25.2143 23.364 26.8633C23.15 26.8563 22.942 26.8313 22.729 26.8313C10.728 26.8313 1 36.5593 1 48.5593C1 55.1233 3.923 60.9943 8.524 64.9783C3.923 68.9623 1 74.8333 1 81.3973C1 87.9613 3.923 93.8323 8.524 97.8163C3.923 101.8 1 107.671 1 114.235C1 120.799 3.923 126.669 8.524 130.653C3.923 134.638 1 140.508 1 147.072C1 153.637 3.923 159.507 8.524 163.492C3.923 167.476 1 173.346 1 179.91C1 191.305 9.776 200.634 20.936 201.548L20.933 201.639H96.772C108.772 201.639 118.501 191.91 118.501 179.91C118.501 173.346 115.578 167.476 110.977 163.492C115.578 159.507 118.501 153.637 118.501 147.072C118.501 140.508 115.578 134.638 110.977 130.653C115.578 126.669 118.501 120.799 118.501 114.235C118.501 107.671 115.578 101.8 110.977 97.8163C115.578 93.8323 118.501 87.9613 118.501 81.3973" fill="#3f3b60"/></g><path id="Fill 4" fill-rule="evenodd" clip-rule="evenodd" d="M58.2012 46.8197C58.2012 56.5687 50.2982 64.4717 40.5492 64.4717C30.8002 64.4717 22.8962 56.5687 22.8962 46.8197C22.8962 37.0697 30.8002 29.1677 40.5492 29.1677C50.2982 29.1677 58.2012 37.0697 58.2012 46.8197" fill="#928fa4"/><path id="Fill 6" fill-rule="evenodd" clip-rule="evenodd" d="M96.6046 46.8197C96.6046 56.5687 88.7016 64.4717 78.9526 64.4717C69.2036 64.4717 61.2996 56.5687 61.2996 46.8197C61.2996 37.0697 69.2036 29.1677 78.9526 29.1677C88.7016 29.1677 96.6046 37.0697 96.6046 46.8197" fill="#928fa4"/><g id="Group 10"><path id="Fill 8" fill-rule="evenodd" clip-rule="evenodd" d="M2.11824 88.2821L2.33724 88.4791C4.63924 90.6791 7.57424 90.6791 9.87624 88.4791L10.0372 88.3251C12.3542 86.1101 15.3122 86.1261 17.6202 88.3671C19.9422 90.6231 22.9242 90.6231 25.2462 88.3671H25.2472C27.5542 86.1261 30.5122 86.1101 32.8292 88.3241L32.9802 88.4691C35.2822 90.6681 38.2172 90.6681 40.5192 88.4691L40.7012 88.2951C43.0032 86.0951 45.9372 86.0951 48.2402 88.2951L48.3592 88.4091C50.6612 90.6091 53.5962 90.6091 55.8982 88.4091L56.1412 88.1761C58.4442 85.9761 61.3792 85.9761 63.6812 88.1761L63.8002 88.2901C66.1022 90.4901 69.0372 90.4901 71.3392 88.2901L71.3962 88.2361C73.6982 86.0361 76.6332 86.0361 78.9352 88.2361L79.0722 88.3661C81.3742 90.5661 84.3092 90.5661 86.6112 88.3661L86.7062 88.2761C89.0082 86.0761 91.9432 86.0761 94.2452 88.2761L94.3512 88.3771C96.6532 90.5771 99.5892 90.5771 101.89 88.3771L102.147 88.1321C104.449 85.9321 107.385 85.9321 109.686 88.1321L109.896 88.3321C112.198 90.5321 115.031 90.6261 117.334 88.4271C116.072 92.0991 113.852 95.3261 110.976 97.8161C115.578 101.8 118.501 107.671 118.501 114.235C118.501 120.8 115.578 126.67 110.976 130.654C115.578 134.638 118.501 140.509 118.501 147.073C118.501 153.637 115.578 159.507 110.976 163.492C115.578 167.476 118.501 173.346 118.501 179.91C118.501 191.91 108.772 201.639 96.7722 201.639H20.9322L20.9352 201.549C9.77624 200.635 1.00024 191.305 1.00024 179.91C1.00024 173.346 3.92324 167.476 8.52424 163.492C3.92324 159.507 1.00024 153.637 1.00024 147.073C1.00024 140.509 3.92324 134.638 8.52424 130.654C3.92324 126.67 1.00024 120.8 1.00024 114.235C1.00024 107.671 3.92324 101.8 8.52424 97.8161C5.61124 95.2931 3.37024 92.0141 2.11824 88.2821" fill="#2b2842"/></g></g></g></g><g id="Eyes/Poh" transform="translate(131.918 153.017) scale(1 1)"><g id="Eyes/Poh/Open"><g id="Eyes"><path id="Fill 12" fill-rule="evenodd" clip-rule="evenodd" d="M10.7715 11.6831V11.6831C9.11548 11.6831 7.77148 10.3401 7.77148 8.6831V5.6781C7.77148 4.0211 9.11548 2.6781 10.7715 2.6781C12.4285 2.6781 13.7715 4.0211 13.7715 5.6781V8.6831C13.7715 10.3401 12.4285 11.6831 10.7715 11.6831" fill="#190c40"/><path id="Fill 14" fill-rule="evenodd" clip-rule="evenodd" d="M29.7646 11.6831V11.6831C28.1086 11.6831 26.7656 10.3401 26.7656 8.6831V5.6781C26.7656 4.0211 28.1086 2.6781 29.7646 2.6781C31.4216 2.6781 32.7646 4.0211 32.7646 5.6781V8.6831C32.7646 10.3401 31.4216 11.6831 29.7646 11.6831" fill="#190c40"/></g></g></g><g id="Mouth/Poh" transform="translate(131.904 166.433) scale(0.975609756097561 1)"><g id="Mouth/Poh/Teeth Out"><g id="Group 10"><g id="Group 3"><path id="Fill 1" fill-rule="evenodd" clip-rule="evenodd" d="M17.7237 12.2548H17.3377C15.8007 12.2548 14.5547 11.0078 14.5547 9.4708V5.9578H20.5067V9.4708C20.5067 11.0078 19.2607 12.2548 17.7237 12.2548" fill="#f0f0f3"/></g><g id="Group 6"><path id="Fill 4" fill-rule="evenodd" clip-rule="evenodd" d="M26.1319 12.2548H25.7469C24.2089 12.2548 22.9629 11.0078 22.9629 9.4708V5.9578H28.9159V9.4708C28.9159 11.0078 27.6699 12.2548 26.1319 12.2548" fill="#f0f0f3"/></g><g id="Group 9"><path id="Fill 7" fill-rule="evenodd" clip-rule="evenodd" d="M20.7707 7.7162C11.5567 7.7162 9.41867 4.6362 9.08367 4.0192C8.72367 3.3552 8.96967 2.5252 9.63367 2.1652C10.2777 1.8162 11.0847 2.0382 11.4587 2.6642C11.5537 2.7912 13.3027 4.9812 20.7707 4.9812C28.9177 4.9812 32.2847 2.3392 32.3177 2.3122C32.9037 1.8392 33.7607 1.9242 34.2377 2.5022C34.7137 3.0802 34.6407 3.9312 34.0667 4.4142C33.9067 4.5492 30.0297 7.7162 20.7707 7.7162" fill="#161522"/></g></g></g></g><g id="Hair/Poh" transform="translate(80.918 60.5) scale(1 1)"><g id="Hair/Poh/Head Wrap"><g id="Group 7"><g id="Group 3"><path id="Fill 1" fill-rule="evenodd" clip-rule="evenodd" d="M78.091 58.7515L129.216 107.171C140.987 67.9545 111.141 40.6495 71.24 40.6495C27.002 40.6495 2.97498 70.2245 13.264 107.171L64.506 58.6375L54.496 78.2765C54.264 78.7315 54.445 79.2895 54.9 79.5215C55.356 79.7525 55.912 79.5725 56.144 79.1175L68.028 55.8015L63.494 78.5165C63.395 79.0175 63.719 79.5045 64.22 79.6045C64.722 79.7045 65.208 79.3785 65.309 78.8775L70.319 53.7745V78.6975C70.319 79.2085 70.733 79.6225 71.244 79.6225C71.754 79.6225 72.169 79.2085 72.169 78.6975V53.5525L77.23 78.8785C77.33 79.3795 77.818 79.7045 78.319 79.6045C78.82 79.5035 79.144 79.0165 79.044 78.5155L74.501 55.7825L86.394 79.1175C86.626 79.5725 87.184 79.7525 87.638 79.5215C88.094 79.2895 88.275 78.7315 88.043 78.2765L78.091 58.7515Z" fill="#b8b6c4"/></g><g id="Group 6"><path id="Fill 4" fill-rule="evenodd" clip-rule="evenodd" d="M100.284 36.4448C100.284 52.4858 87.2813 65.4898 71.2403 65.4898C55.1983 65.4898 42.1953 52.4858 42.1953 36.4448C42.1953 20.4038 55.1983 7.3998 71.2403 7.3998C87.2813 7.3998 100.284 20.4038 100.284 36.4448" fill="#828098"/></g></g></g></g><g id="Clothes/Poh" transform="translate(92.918 199) scale(1 1)"><g id="Clothes/Poh/Water Waves"><g id="Clothes"><g id="Group 33"><path id="Fill 31" fill-rule="evenodd" clip-rule="evenodd" d="M8.04207 12.2172L8.27307 12.4332C10.3191 14.3882 12.9271 14.3882 14.9721 12.4332L15.1151 12.2972C17.1741 10.3282 19.8031 10.3432 21.8531 12.3342C23.9161 14.3382 26.5641 14.3382 28.6281 12.3342C30.6781 10.3432 33.3061 10.3282 35.3651 12.2962L35.4991 12.4242C37.5441 14.3792 40.1511 14.3792 42.1971 12.4242L42.3581 12.2702C44.4031 10.3162 47.0111 10.3162 49.0561 12.2702L49.1621 12.3712C51.2071 14.3252 53.8141 14.3252 55.8601 12.3712L56.0771 12.1642C58.1221 10.2102 60.7301 10.2102 62.7741 12.1642L62.8811 12.2652C64.9261 14.2202 67.5331 14.2202 69.5781 12.2652L69.6291 12.2172C71.6751 10.2632 74.2821 10.2632 76.3271 12.2172L76.4491 12.3332C78.4941 14.2882 81.1021 14.2882 83.1461 12.3332L83.2311 12.2532C85.2761 10.2982 87.8841 10.2982 89.9291 12.2532L90.0231 12.3432C92.0681 14.2972 94.6771 14.2972 96.7221 12.3432L96.9501 12.1252C98.9951 10.1702 101.603 10.1702 103.647 12.1252L103.834 12.3022C105.879 14.2572 108.449 14.1722 110.494 12.2172C115.096 16.2012 118.019 22.0722 118.019 28.6362C118.019 35.2002 115.096 41.0712 110.494 45.0542C115.096 49.0392 118.019 54.9092 118.019 61.4732C118.019 68.0382 115.096 73.9082 110.494 77.8932C115.096 81.8772 118.019 87.7472 118.019 94.3112C118.019 106.311 108.291 116.04 96.2911 116.04H20.4511L20.4531 115.949C9.29407 115.035 0.518066 105.706 0.518066 94.3112C0.518066 87.7472 3.44107 81.8772 8.04207 77.8932C3.44107 73.9082 0.518066 68.0382 0.518066 61.4732C0.518066 54.9092 3.44107 49.0392 8.04207 45.0542C3.44107 41.0712 0.518066 35.2002 0.518066 28.6362C0.518066 22.0722 3.44107 16.2012 8.04207 12.2172" fill="#a5a3b4"/></g><path id="Fill 34" fill-rule="evenodd" clip-rule="evenodd" d="M109.564 62.372C100.044 62.76 99.7556 51.401 92.2136 55.227C85.4676 58.649 81.5567 60.861 79.7227 55.898C78.4307 52.401 79.0187 49.535 75.8917 47.503C74.1647 46.38 72.0407 46.044 69.9797 45.993C62.1547 45.8 54.3337 49.585 49.6287 55.842C47.8387 58.224 46.4437 61.196 47.0347 64.118C47.8347 68.069 51.9257 70.468 55.8387 71.44C59.7517 72.413 63.9347 72.501 67.5667 74.253C71.1987 76.006 74.1247 80.323 72.4857 84.007C70.9627 87.429 66.2627 88.772 65.2157 92.369C64.3047 95.498 66.8257 98.76 69.8427 99.992C72.8607 101.224 76.2377 101.017 79.4957 101.101C80.7127 101.132 81.9977 101.229 83.0027 101.916C84.8147 103.156 84.9977 105.747 84.7167 107.924C84.3417 110.846 83.3896 113.802 81.5206 116.04H96.2906C108.292 116.04 118.019 106.311 118.019 94.311C118.019 93.213 117.931 92.136 117.773 91.082C117.439 91.121 117.109 91.157 116.765 91.202C109.573 92.143 104.732 99.724 102.367 101.049C92.5926 106.522 85.8146 86.905 105.678 85.373C108.892 85.125 112.111 84.555 115.175 83.595C113.945 81.438 112.361 79.508 110.495 77.893C115.096 73.908 118.019 68.038 118.019 61.474C118.019 60.034 117.871 58.631 117.603 57.271C115.782 60.155 112.999 62.232 109.564 62.372" fill="#d2d1da"/><path id="Fill 36" fill-rule="evenodd" clip-rule="evenodd" d="M59.2568 10.7163C59.2148 10.7183 59.1728 10.7263 59.1308 10.7293C59.1388 10.8003 59.1418 10.8693 59.1568 10.9423L59.2568 10.7163Z" fill="#d2d1da"/><path id="Fill 38" fill-rule="evenodd" clip-rule="evenodd" d="M103.834 12.3027L103.647 12.1247C101.603 10.1707 98.9953 10.1707 96.9503 12.1247L96.7223 12.3427C94.6773 14.2977 92.0693 14.2977 90.0233 12.3427L89.9293 12.2527C87.8843 10.2987 85.2763 10.2987 83.2313 12.2527L83.1473 12.3337C81.1023 14.2877 78.4943 14.2877 76.4483 12.3337L76.3273 12.2177C74.2823 10.2627 71.6753 10.2627 69.6293 12.2177L69.5793 12.2657C67.5333 14.2197 64.9263 14.2197 62.8813 12.2657L62.7743 12.1647C61.7173 11.1537 60.5093 10.6767 59.3053 10.7117C58.6133 14.1357 57.9443 17.6647 58.6303 21.0877C59.3273 24.5717 61.7953 27.9537 65.2903 28.5947C70.1573 29.4877 74.1603 25.1257 78.0093 22.0157C81.6693 19.0587 86.4563 16.9207 91.0293 18.0277C95.6033 19.1347 99.1333 24.5877 96.9393 28.7497C96.1793 30.1937 94.8763 31.2947 94.1103 32.7357C91.9253 36.8537 96.1303 42.6507 100.724 41.8507C104.083 41.2657 106.399 38.1237 109.567 36.8597C112.167 35.8217 114.286 36.4147 115.924 37.9287C117.265 35.1127 118.019 31.9647 118.019 28.6357C118.019 22.6337 115.569 17.2147 111.632 13.2837C110.966 13.3047 110.292 13.1547 109.646 12.8957C107.77 14.1527 105.605 13.9947 103.834 12.3027" fill="#d2d1da"/><path id="Fill 40" fill-rule="evenodd" clip-rule="evenodd" d="M50.4836 87.3056C45.6906 80.7196 35.0186 79.5336 28.8956 84.9066C27.0896 86.4906 25.6926 88.4986 23.8766 90.0706C21.7766 91.8866 19.0206 93.0906 16.2576 92.8266C13.4946 92.5626 10.8296 90.6016 10.2366 87.8896C8.66758 80.7126 20.6516 76.8496 20.7216 69.5026C20.7576 65.6626 17.4136 62.6756 14.0746 60.7776C10.7366 58.8796 6.94158 57.3496 4.77158 54.1816C4.13358 53.2516 3.65358 52.2166 3.08358 51.2456C1.44858 54.2926 0.517578 57.7726 0.517578 61.4736C0.517578 68.0376 3.44058 73.9086 8.04258 77.8926C3.44058 81.8766 0.517578 87.7466 0.517578 94.3106C0.517578 105.707 9.29458 115.036 20.4546 115.95L20.4516 116.04H22.4826C28.4926 111.107 38.9946 112.846 46.1306 108.587C53.1266 104.412 55.2776 93.8916 50.4836 87.3056" fill="#d2d1da"/><path id="Fill 42" fill-rule="evenodd" clip-rule="evenodd" d="M10.2619 15.4428C13.4809 22.0468 2.74689 28.6298 4.41389 35.7858C5.28489 39.5258 9.24089 41.6388 12.9329 42.6948C16.6239 43.7518 20.6729 44.3418 23.5309 46.9078C24.8019 48.0508 25.7639 49.5328 27.1629 50.5148C31.2739 53.3978 38.0179 49.4188 37.4829 44.4278C37.3849 43.5228 37.1009 42.6238 37.2119 41.7208C37.5069 39.3398 40.2739 38.1588 42.6579 37.8928C45.0409 37.6268 47.6949 37.7138 49.5049 36.1408C52.3659 33.6548 50.9709 28.6468 47.9759 26.3248C44.9809 24.0018 41.0439 23.4128 37.4619 22.1738C33.8809 20.9348 30.1749 18.4548 29.7049 14.6938C29.5599 13.5288 29.7409 12.4008 30.0989 11.2988C29.5889 11.5468 29.0929 11.8828 28.6279 12.3338C26.5649 14.3388 23.9159 14.3388 21.8529 12.3338C19.8029 10.3428 17.1749 10.3288 15.1159 12.2968L14.9719 12.4338C12.9269 14.3878 10.3199 14.3878 8.27489 12.4338L8.04189 12.2168C7.84489 12.3888 7.65489 12.5678 7.46289 12.7458C8.65989 13.3318 9.67689 14.2418 10.2619 15.4428" fill="#d2d1da"/><path id="Fill 44" fill-rule="evenodd" clip-rule="evenodd" d="M60.4776 10.9272C60.4776 10.9272 51.6526 1.4242 39.3666 0.3862C39.3666 0.3862 36.4246 10.5952 39.3666 21.4972C39.3666 21.4972 51.4796 19.3912 60.4776 10.9272" fill="#d2d2da"/><path id="Fill 46" fill-rule="evenodd" clip-rule="evenodd" d="M58.0586 10.9272C58.0586 10.9272 66.8836 1.4242 79.1706 0.3862C79.1706 0.3862 82.1126 10.5952 79.1706 21.4972C79.1706 21.4972 67.0576 19.3912 58.0586 10.9272" fill="#d2d2da"/></g></g></g></g></g></g></svg>