<svg viewBox="110 142.2017045454545 650.0000000000001 400.56818181818187" fill="none" xmlns="http://www.w3.org/2000/svg" xmlns:xlink="http://www.w3.org/1999/xlink" overflow="visible" width="650.0000000000001px" height="400.56818181818187px"><g id="Master/Spot Illustration/Staying Home"><g id="Background" transform="translate(40 101) scale(1 1)"><g id="Background/Squeaky"><g id="Background"><path id="Fill 1" fill-rule="evenodd" clip-rule="evenodd" d="M563.061 65.4922C572.241 58.9222 587.717 60.2562 593.756 66.2502C606.963 79.3592 596.864 103.412 606.293 119.455C615.181 134.579 636.821 135.886 649.978 147.487C663.959 159.815 664.667 184.221 651.425 197.338C644.793 203.907 635.832 207.452 627.924 212.411C620.016 217.371 612.546 224.91 612.253 234.24C611.949 243.911 619.437 253.602 615.827 262.58C614.242 266.521 610.791 269.352 607.474 272.008C595.807 281.346 582.446 291.22 567.579 289.704C557.711 288.699 548.602 282.66 538.695 283.17C516.219 284.328 507.233 316.03 485.595 322.218C475.222 325.184 463.685 321.299 455.717 314.025C447.749 306.753 442.985 296.531 440.333 286.074C438.287 278.006 437.13 269.147 431.453 263.06C419.745 250.506 394.085 255.188 387.487 239.341C382.228 226.708 394.581 214.451 403.41 203.997C410.306 195.832 415.806 184.903 412.596 174.71C409.311 164.279 398.213 158.406 392.644 148.995C386.293 138.259 388.665 123.162 398.002 114.891C411.242 103.164 435.182 104.55 442.697 88.5392C446.101 81.2852 444.68 72.7052 446.672 64.9432C450.051 51.7752 464.455 42.4812 477.845 44.8302C490.821 47.1052 500.134 58.0592 510.225 66.5302C510.225 66.5302 530.792 88.5852 563.061 65.4922" fill="#e7edf3"/><path id="Combined Shape" fill-rule="evenodd" clip-rule="evenodd" d="M311.044 83.916C310.295 95.403 305.167 107.238 295.616 114.089C286.724 120.467 274.568 122.655 264.65 117.305C261.911 115.826 259.458 113.877 257.433 111.591L257.443 111.567C266.996 106.138 274.498 96.5657 274.334 85.162C274.291 82.222 273.817 78.803 272.335 76.205C270.916 73.717 268.208 72.284 265.372 72.293C259.541 72.311 254.349 76.405 251.201 80.999C248.037 85.617 246.416 91.437 246.473 97.016C246.518 101.474 247.757 105.732 249.876 109.56L249.871 109.566C243.992 111.65 237.566 111.839 231.684 108.867C227.653 106.83 224.348 103.738 222.854 99.799C221.368 95.881 221.149 92.174 221.627 87.949C221.771 86.6847 222.046 85.2822 222.413 83.8629H222.554L222.628 83.782C226.674 84.3227 230.829 83.7629 234.627 82.053C239.86 79.696 245.526 72.737 241.586 66.958C237.925 61.59 230.182 63.376 225.99 67.042C222.911 69.735 220.873 73.574 219.335 77.301C219.271 77.4555 219.208 77.6108 219.146 77.7668C216.961 76.886 214.973 75.5378 213.378 73.723C210.297 70.219 209.186 65.001 210.133 60.483C210.615 58.184 211.563 55.985 213.089 54.182C213.96 53.151 214.099 51.657 213.089 50.646C212.194 49.752 210.429 49.61 209.553 50.646C201.183 60.543 204.46 76.8 216.506 82.068C216.851 82.2187 217.198 82.3606 217.548 82.4937L217.548 82.4937L217.587 82.5269C215.599 90.1781 215.79 98.781 220.175 105.408C223.642 110.647 229.505 114.188 235.583 115.535C241.385 116.819 247.269 116.016 252.71 113.849L252.773 113.871C261.123 124.306 275.372 127.684 287.861 123.581C301.364 119.145 310.86 107.524 314.44 93.995C315.312 90.703 315.823 87.312 316.044 83.916C316.132 82.567 314.832 81.416 313.544 81.416C312.118 81.416 311.132 82.563 311.044 83.916ZM219.146 77.7668L219.215 77.7943L219.165 77.8074L219.1 77.8844L219.146 77.7668ZM254.474 107.498C254.475 107.498 254.476 107.497 254.477 107.496C254.478 107.497 254.478 107.498 254.479 107.499L254.474 107.498ZM260.219 103.551C258.46 105.038 256.527 106.375 254.477 107.496C252.009 103.212 250.892 98.2283 251.743 93.138C252.484 88.702 254.325 84.324 257.522 81.133C258.948 79.708 260.702 78.504 262.558 77.873C263.596 77.52 264.797 77.157 265.907 77.31C266.757 77.426 267.22 77.735 267.636 78.194C267.703 78.2678 267.748 78.3147 267.776 78.3419L267.804 78.384C267.894 78.5193 267.974 78.6578 268.054 78.7975L268.11 78.896C268.13 78.9312 268.157 78.9866 268.179 79.031C268.272 79.2757 268.353 79.5268 268.433 79.7742L268.459 79.854C268.876 81.146 269.17 82.482 269.273 83.837C269.486 86.623 269.125 89.361 268.279 92.021C266.81 96.645 263.887 100.451 260.219 103.551ZM268.179 79.031C268.146 78.9437 268.111 78.8572 268.074 78.772C268.237 79.1511 268.231 79.1381 268.189 79.0507L268.179 79.031ZM267.74 78.249C267.683 78.1757 267.639 78.1333 267.776 78.3419C267.865 78.4262 267.796 78.3222 267.74 78.249ZM224.043 78.9365L224.024 78.9823L223.988 78.9314L224.043 78.9365ZM227.563 72.6601C227.545 72.6846 227.524 72.714 227.498 72.749C226.465 74.152 225.577 75.656 224.81 77.221C224.548 77.7565 224.29 78.3326 224.043 78.9365C224.782 79.0035 225.526 79.025 226.27 79.001C230.566 78.862 236.198 76.912 237.617 72.365C238.163 70.619 237.531 68.972 235.57 68.613C233.664 68.266 231.511 69.188 229.842 70.312L229.825 70.3236C230.02 70.1544 229.911 70.2271 229.808 70.3058C229.705 70.3844 229.608 70.4691 229.825 70.3236L229.8 70.345C229.764 70.3756 229.729 70.4061 229.693 70.4365L229.693 70.4366C229.591 70.5232 229.489 70.6095 229.389 70.699C229.155 70.91 228.928 71.131 228.708 71.356C228.452 71.621 228.206 71.894 227.967 72.174C227.854 72.306 227.744 72.44 227.634 72.5739L227.634 72.574L227.634 72.574C227.606 72.6084 227.583 72.6368 227.563 72.6601ZM227.559 72.648C227.493 72.733 227.429 72.822 227.563 72.6601C227.693 72.482 227.625 72.563 227.559 72.648Z" fill="#d6dce1"/></g></g></g><g id="Window 1" transform="translate(289 236) scale(0.9962825278810409 1)"><g id="Window 1/Red Chat"><g id="Group 10"><path id="Fill 1" fill-rule="evenodd" clip-rule="evenodd" d="M0.917969 297.883H268.8V0H0.917969V297.883ZM10.918 287.883H258.8V10H10.918V287.883Z" fill="#999da1"/><path id="Fill 2" fill-rule="evenodd" clip-rule="evenodd" d="M0.917969 40.709H268.8V0H0.917969V40.709Z" fill="#e8ad60"/><g id="Group 9"><path id="Fill 3" fill-rule="evenodd" clip-rule="evenodd" d="M26.0735 20.3546C26.0735 24.2696 22.8995 27.4436 18.9855 27.4436C15.0705 27.4436 11.8965 24.2696 11.8965 20.3546C11.8965 16.4396 15.0705 13.2666 18.9855 13.2666C22.8995 13.2666 26.0735 16.4396 26.0735 20.3546" fill="#ffffff"/><path id="Fill 5" fill-rule="evenodd" clip-rule="evenodd" d="M49.2336 20.3546C49.2336 24.2696 46.0596 27.4436 42.1456 27.4436C38.2306 27.4436 35.0566 24.2696 35.0566 20.3546C35.0566 16.4396 38.2306 13.2666 42.1456 13.2666C46.0596 13.2666 49.2336 16.4396 49.2336 20.3546" fill="#ffffff"/><path id="Fill 7" fill-rule="evenodd" clip-rule="evenodd" d="M72.3938 20.3546C72.3938 24.2696 69.2198 27.4436 65.3058 27.4436C61.3908 27.4436 58.2168 24.2696 58.2168 20.3546C58.2168 16.4396 61.3908 13.2666 65.3058 13.2666C69.2198 13.2666 72.3938 16.4396 72.3938 20.3546" fill="#ffffff"/></g></g><path id="Fill 1_2" fill-rule="evenodd" clip-rule="evenodd" d="M10.918 288.168H258.8V41H10.918V288.168Z" fill="#ffffff"/></g></g><g id="Dialogue Box 2" transform="translate(567 286) scale(1 1)"><g id="Dialogue Box 2/Periwinkle Rectircle"><g id="Group 3"><path id="Fill 1" fill-rule="evenodd" clip-rule="evenodd" d="M187 58.1698V58.1698C187 80.3558 169.016 98.3398 146.831 98.3398H99.437C98.486 98.3398 97.566 98.6788 96.842 99.2948L80.938 112.847C78.341 115.06 74.344 113.215 74.344 109.803V102.34C74.344 100.131 72.553 98.3398 70.344 98.3398H61.858C39.673 98.3398 21.688 80.3558 21.688 58.1698C21.688 35.9838 39.673 17.9998 61.858 17.9998H146.831C169.016 17.9998 187 35.9838 187 58.1698" fill="#a2a7ab"/></g></g></g><g id="Plant 2" transform="translate(40 399) scale(0.9945945945945946 1)"><g id="Plant 2/Dry Stem"><g id="Group 20"><path id="Stroke 1 (Stroke)" fill-rule="evenodd" clip-rule="evenodd" d="M81.4521 22.1147C80.0714 22.1147 78.9521 23.234 78.9521 24.6147V36.7327C78.9521 43.0406 84.0666 48.1547 90.3751 48.1547H99.0711C102.619 48.1547 105.494 51.0306 105.494 54.5767V68.8787C105.494 70.2594 106.613 71.3787 107.994 71.3787C109.375 71.3787 110.494 70.2594 110.494 68.8787V54.5767C110.494 48.2688 105.38 43.1547 99.0711 43.1547H90.3751C86.8277 43.1547 83.9521 40.2788 83.9521 36.7327V24.6147C83.9521 23.234 82.8329 22.1147 81.4521 22.1147Z" fill="#ffc983"/><path id="Stroke 3 (Stroke)" fill-rule="evenodd" clip-rule="evenodd" d="M133.584 30.4719C132.203 30.4719 131.084 31.5912 131.084 32.9719V48.3269C131.084 51.3872 128.602 53.8689 125.542 53.8689H107.993C106.612 53.8689 105.493 54.9882 105.493 56.3689C105.493 57.7496 106.612 58.8689 107.993 58.8689H125.542C131.364 58.8689 136.084 54.1486 136.084 48.3269V32.9719C136.084 31.5912 134.965 30.4719 133.584 30.4719Z" fill="#ffc983"/><path id="Stroke 5 (Stroke)" fill-rule="evenodd" clip-rule="evenodd" d="M108.494 5.3089C107.113 5.3089 105.994 6.42819 105.994 7.8089V54.5769C105.994 55.9576 107.113 57.0769 108.494 57.0769C109.875 57.0769 110.994 55.9576 110.994 54.5769V7.8089C110.994 6.42819 109.875 5.3089 108.494 5.3089Z" fill="#ffc983"/><path id="Stroke 7 (Stroke)" fill-rule="evenodd" clip-rule="evenodd" d="M120.788 23.0562C119.408 23.0562 118.288 24.1755 118.288 25.5562V37.0252C118.288 41.7422 122.113 45.5652 126.828 45.5652H130.566C131.947 45.5652 133.066 44.4459 133.066 43.0652C133.066 41.6845 131.947 40.5652 130.566 40.5652H126.828C124.874 40.5652 123.288 38.9802 123.288 37.0252V25.5562C123.288 24.1755 122.169 23.0562 120.788 23.0562Z" fill="#ffc983"/><path id="Stroke 9 (Stroke)" fill-rule="evenodd" clip-rule="evenodd" d="M95.2227 28.6931C93.8419 28.6931 92.7227 29.8124 92.7227 31.1931V45.6551C92.7227 47.0358 93.8419 48.1551 95.2227 48.1551C96.6034 48.1551 97.7227 47.0358 97.7227 45.6551V31.1931C97.7227 29.8124 96.6034 28.6931 95.2227 28.6931Z" fill="#ffc983"/><path id="Stroke 11 (Stroke)" fill-rule="evenodd" clip-rule="evenodd" d="M95.5026 5.1002C94.1219 5.1002 93.0026 6.21949 93.0026 7.6002V16.1532C93.0026 22.4799 98.1319 27.6092 104.459 27.6092H107.6C108.98 27.6092 110.1 26.4899 110.1 25.1092C110.1 23.7285 108.98 22.6092 107.6 22.6092H104.459C100.893 22.6092 98.0026 19.7185 98.0026 16.1532V7.6002C98.0026 6.21949 96.8833 5.1002 95.5026 5.1002Z" fill="#ffc983"/><path id="Fill 13" fill-rule="evenodd" clip-rule="evenodd" d="M119.674 79.954H101.668V63.613H119.674V79.954Z" fill="#6a6783"/><path id="Fill 15" fill-rule="evenodd" clip-rule="evenodd" d="M110.671 121.46C117.969 121.46 123.885 115.544 123.885 108.246C123.885 100.948 117.969 95.0317 110.671 95.0317C103.373 95.0317 97.457 100.948 97.457 108.246C97.457 115.544 103.373 121.46 110.671 121.46M110.713 76.9997C128.499 76.9997 142.918 91.4187 142.918 109.204C142.918 119.908 137.692 129.387 129.656 135.242H91.77C83.734 129.387 78.508 119.908 78.508 109.204C78.508 91.4187 92.927 76.9997 110.713 76.9997" fill="#828098"/><path id="Fill 16" fill-rule="evenodd" clip-rule="evenodd" d="M116.806 119.932C115.38 122.103 113.955 124.274 112.529 126.445C111.423 128.128 110.318 129.812 109.212 131.496C113.18 128.671 117.115 125.801 120.95 122.799C127.346 117.791 133.183 112.292 139.06 106.703C140.158 105.659 141.28 104.634 142.432 103.648C142.745 105.45 142.918 107.3 142.918 109.192C142.918 111.414 142.681 113.579 142.251 115.674C137.891 122.338 133.588 129.043 128.617 135.23H123.431C130.062 127.536 135.382 118.82 141.001 110.332C138.561 112.674 136.185 115.092 133.696 117.335C127.56 122.862 120.997 127.897 114.314 132.739C113.157 133.578 111.989 134.402 110.825 135.23H101.98C105.001 130.629 108.022 126.03 111.043 121.429C113.119 121.371 115.076 120.841 116.806 119.932" fill="#8f9296"/><path id="Fill 17" fill-rule="evenodd" clip-rule="evenodd" d="M97.458 108.234C97.458 109.979 97.804 111.64 98.418 113.166C96.766 115.601 95.122 118.044 93.451 120.467C92.575 121.737 91.679 122.993 90.799 124.259C91.767 123.515 92.726 122.758 93.668 121.983C95.919 120.131 98.029 118.15 100.069 116.096C100.87 117.174 101.829 118.126 102.916 118.917C101.145 120.71 99.315 122.446 97.375 124.081C94.227 126.733 90.918 129.184 87.569 131.576C86.234 130.197 85.025 128.697 83.953 127.098C88.528 120.581 93.053 114.028 97.499 107.422C97.482 107.692 97.458 107.96 97.458 108.234" fill="#8f9296"/><path id="Fill 18" fill-rule="evenodd" clip-rule="evenodd" d="M128.237 102.527C126.77 104.761 125.302 106.996 123.835 109.23C123.86 108.9 123.885 108.57 123.885 108.234C123.885 106.498 123.541 104.844 122.932 103.326C125.098 100.027 127.265 96.7291 129.431 93.4301C126.807 95.8591 124.084 98.1721 121.362 100.489C120.573 99.4031 119.625 98.4451 118.549 97.6441C121.4 95.2261 124.269 92.8321 126.992 90.2671C128.752 88.6091 130.454 86.8911 132.119 85.1391C133.738 86.5821 135.216 88.1801 136.516 89.9201C136.352 90.1711 136.187 90.4211 136.023 90.6721C133.427 94.6231 130.832 98.5751 128.237 102.527" fill="#8f9296"/><path id="Fill 19" fill-rule="evenodd" clip-rule="evenodd" d="M104.838 96.3914C107.531 92.2924 110.2 88.1784 112.842 84.0464C113.217 83.4614 113.58 82.8704 113.953 82.2844C113.058 83.1954 112.168 84.1104 111.28 85.0254C107.459 88.9614 103.562 92.7254 99.3688 96.2654C93.3868 101.317 87.7758 106.814 82.0168 112.114C81.0268 113.024 80.0388 113.99 79.0228 114.927C78.6878 113.066 78.5088 111.15 78.5088 109.192C78.5088 107.574 78.6318 105.984 78.8618 104.43C80.4468 102.187 82.0878 99.9834 83.7538 97.8014C88.4968 91.5914 93.4458 85.5454 98.3388 79.4544C100.45 78.5764 102.675 77.9214 104.984 77.5064C104.536 78.0714 104.086 78.6344 103.64 79.1964C101.266 82.1914 98.8498 85.1544 96.4498 88.1284C91.6818 94.0404 86.9128 99.9804 82.5258 106.187C84.2308 104.605 85.9368 103.025 87.6438 101.446C94.2198 95.3614 101.15 89.7024 107.404 83.2754C109.421 81.2024 111.437 79.1284 113.506 77.1164C116.092 77.3384 118.59 77.8674 120.965 78.6634C117.515 84.1454 114.032 89.6044 110.494 95.0294C108.464 95.0564 106.549 95.5464 104.838 96.3914" fill="#8f9296"/></g></g></g><g id="Master/Worms/Jae" transform="translate(353 219) scale(0.9966777408637874 1)"><g id="Master/Worms/Jae"><g id="Body/Jae" transform="translate(47.918 130.42) scale(1 1)"><g id="Body/Jae/Periwinkle"><g id="Group 9"><path id="Fill 1" fill-rule="evenodd" clip-rule="evenodd" d="M0.000732422 104.107V183.221H208.214V104.107C208.214 46.61 161.604 0 104.108 0C46.6107 0 0.000732422 46.61 0.000732422 104.107Z" fill="#a2a7ab"/><path id="Fill 3" fill-rule="evenodd" clip-rule="evenodd" d="M100.977 63.6695C100.977 83.3655 85.0099 99.3325 65.3139 99.3325C45.6189 99.3325 29.6519 83.3655 29.6519 63.6695C29.6519 43.9735 45.6189 28.0065 65.3139 28.0065C85.0099 28.0065 100.977 43.9735 100.977 63.6695" fill="#c4c9ce"/><path id="Fill 5" fill-rule="evenodd" clip-rule="evenodd" d="M178.563 63.6695C178.563 83.3655 162.596 99.3325 142.9 99.3325C123.205 99.3325 107.238 83.3655 107.238 63.6695C107.238 43.9735 123.205 28.0065 142.9 28.0065C162.596 28.0065 178.563 43.9735 178.563 63.6695" fill="#c4c9ce"/><path id="Fill 7" fill-rule="evenodd" clip-rule="evenodd" d="M0 183.221H208.214V112.697H0V183.221Z" fill="#848199"/></g></g></g><g id="Eyes/Jae" transform="translate(124.918 186.42) scale(1 1)"><g id="Eyes/Jae/Upset"><g id="Group 6"><g id="Group 3"><path id="Fill 1" fill-rule="evenodd" clip-rule="evenodd" d="M42.6178 14H35.8008C34.6958 14 33.8008 13.105 33.8008 12C33.8008 10.896 34.6958 10 35.8008 10H42.6178C43.7218 10 44.6178 10.896 44.6178 12C44.6178 13.105 43.7218 14 42.6178 14" fill="#171522"/></g><path id="Fill 4" fill-rule="evenodd" clip-rule="evenodd" d="M17.819 14H11.001C9.89598 14 9.00098 13.105 9.00098 12C9.00098 10.896 9.89598 10 11.001 10H17.819C18.923 10 19.819 10.896 19.819 12C19.819 13.105 18.923 14 17.819 14" fill="#171522"/></g></g></g><g id="Mouth/Jae" transform="translate(132.77 206.476) scale(0.975 1)"><g id="Mouth/Jae/Laughing Teeth"><g id="Group 8"><g id="Group 3"><path id="Fill 1" fill-rule="evenodd" clip-rule="evenodd" d="M2.91797 1.99989C2.91797 1.99989 2.91797 18.0129 19.94 18.0129C37.778 18.0129 37.778 1.99989 37.778 1.99989H2.91797Z" fill="#171522"/></g><path id="Fill 4" fill-rule="evenodd" clip-rule="evenodd" d="M15.2252 8.58489H14.4412C12.9262 8.58489 11.6992 7.35689 11.6992 5.84289V1.99989H17.9662V5.84289C17.9662 7.35689 16.7392 8.58489 15.2252 8.58489" fill="#ffffff"/><path id="Fill 6" fill-rule="evenodd" clip-rule="evenodd" d="M25.5719 8.58489H24.7889C23.2739 8.58489 22.0469 7.35689 22.0469 5.84289V1.99989H28.3139V5.84289C28.3139 7.35689 27.0869 8.58489 25.5719 8.58489" fill="#ffffff"/></g></g></g><g id="Hair/Jae" transform="translate(5.91797 0.420013) scale(1 1)"><g id="Hair/Jae/Head Scarf"><g id="Group 5"><path id="Fill 1" fill-rule="evenodd" clip-rule="evenodd" d="M146.228 242.136C108.661 242.136 85.877 223.111 84.996 200.286C83.739 167.763 108.632 146.331 146.2 146.331C183.768 146.331 207.405 168.375 207.405 200.286C207.405 223.111 183.795 242.136 146.228 242.136M146.108 131.001H146.107C88.611 131.001 42 177.611 42 235.108V251.64H250.214V235.108C250.214 177.611 203.604 131.001 146.108 131.001" fill="#828098"/><path id="Fill 3" fill-rule="evenodd" clip-rule="evenodd" d="M101.888 160.386H189.791C189.791 160.386 176.003 146.331 146.213 146.331C115.565 146.331 101.888 160.386 101.888 160.386" fill="#c4c9ce"/></g></g></g><g id="Clothes/Jae" transform="translate(47.918 251.42) scale(1 1)"><g id="Clothes/Jae/Smooth Mixie"><g id="Group 15"><path id="Fill 1" fill-rule="evenodd" clip-rule="evenodd" d="M0 64.5816H208.214V1.0006H0V64.5816Z" fill="#999da1"/><g id="Group 14"><path id="Fill 2" fill-rule="evenodd" clip-rule="evenodd" d="M186 9.1363C178.411 19.5673 175.736 32.3183 179.018 42.4123C181.42 49.8073 186.709 55.0183 194.311 57.4823L194.617 57.5493C199.58 58.1263 204.114 56.8023 208.084 53.6343C208.129 53.5983 208.17 53.5573 208.214 53.5223V49.1753C207.537 49.9073 206.834 50.5723 206.104 51.1543C202.852 53.7433 199.168 54.8443 195.139 54.4143C188.625 52.2573 184.094 47.7713 182.035 41.4323C179.063 32.2863 181.564 20.6263 188.565 11.0023C191.451 7.0363 195.082 3.6893 199.191 1.0003H193.801C190.861 3.3623 188.225 6.0783 186 9.1363" fill="#c4c9ce"/><path id="Fill 4" fill-rule="evenodd" clip-rule="evenodd" d="M22.791 16.7403C27.33 12.6093 29.84 6.7083 29.818 1.0003H26.659C26.689 5.8283 24.541 10.8573 20.654 14.3933C20.042 14.9513 19.388 15.4723 18.697 15.9563C13.981 19.2643 7.584 20.8083 1.085 20.1263C0.722 20.0883 0.361 20.0313 0 19.9793V23.1813C0.252 23.2133 0.502 23.2563 0.754 23.2823C9.214 24.1703 17.241 21.7853 22.791 16.7403" fill="#c4c9ce"/><g id="Group 8"><path id="Fill 6" fill-rule="evenodd" clip-rule="evenodd" d="M34.4375 48.2291C29.1015 44.3541 21.9165 42.6781 14.2055 43.5091C9.17751 44.0501 4.36151 45.6801 -0.000488281 48.1341V51.8131C4.38851 49.0591 9.34151 47.2241 14.5445 46.6641C21.4725 45.9171 27.8755 47.3851 32.5725 50.7971C37.1895 54.1491 39.9195 59.4831 39.7915 64.5821H42.9625C43.0765 58.4831 39.8615 52.1681 34.4375 48.2291" fill="#c4c9ce"/></g><path id="Fill 9" fill-rule="evenodd" clip-rule="evenodd" d="M157.578 56.1705C154.377 49.3465 147.451 44.0695 140.345 43.0385C133.682 42.0725 127.273 43.5825 121.508 46.1205C121.566 44.2785 121.713 42.5945 121.883 41.1555C123.639 26.3945 129.763 12.3855 139.166 1.0005H135.09C126.221 12.4715 120.457 26.2805 118.732 40.7805C118.502 42.7185 118.316 45.0715 118.31 47.6605C113.726 50.0535 109.635 52.9695 106.269 55.5695C102.414 58.5475 98.9261 61.5485 95.7651 64.5815H100.41C102.82 62.4025 105.418 60.2375 108.209 58.0815C111.789 55.3165 115.18 53.0385 118.42 51.2295C118.698 55.5335 119.563 60.2125 121.502 64.5815H125.01C122.57 59.7915 121.682 54.4085 121.513 49.6235C128.139 46.4525 134.151 45.3475 139.89 46.1795C145.983 47.0625 151.937 51.6195 154.705 57.5185C155.833 59.9215 156.299 62.3165 156.152 64.5815H159.348C159.492 61.8585 158.91 59.0075 157.578 56.1705" fill="#c4c9ce"/><g id="Group 13"><path id="Fill 11" fill-rule="evenodd" clip-rule="evenodd" d="M98.58 1.0001H93.91C94.083 3.2151 94.047 5.3901 93.775 7.5151C92.927 14.1351 88.961 20.7051 83.425 24.6591C79.047 27.7601 74.164 28.9481 69.572 28.0041C67.014 27.4791 64.578 26.3421 62.531 24.7181C55.876 19.4371 54.368 8.5141 58.968 1.0001H55.351C51.019 9.7641 53.051 21.2451 60.559 27.2031C62.993 29.1351 65.89 30.4881 68.934 31.1131C74.336 32.2231 80.062 30.8941 85.086 27.3711C85.146 27.3281 85.209 27.2851 85.269 27.2411C91.5 22.7901 95.966 15.3861 96.922 7.9191C97.056 6.8811 97.141 5.8351 97.177 4.7801C101.124 12.1541 102.147 21.4071 100.371 29.2881C97.09 43.8471 86.45 55.7521 77.35 64.5821H81.865C90.707 55.7031 100.282 44.1161 103.467 29.9851C105.583 20.5961 104 9.4151 98.58 1.0001" fill="#c4c9ce"/></g></g></g></g></g></g></g><g id="Master/Worms/Poh" transform="translate(147 219) scale(0.9966777408637874 1)"><g id="Master/Worms/Poh"><g id="Body/Poh" transform="translate(92.457 113.4) scale(1 1)"><g id="Body/Poh/Lavender"><g id="Group 11"><g id="Group 3"><path id="Fill 1" fill-rule="evenodd" clip-rule="evenodd" d="M118.501 81.3972C118.501 74.8332 115.578 68.9622 110.977 64.9782C115.578 60.9942 118.501 55.1232 118.501 48.5592C118.501 36.5592 108.773 26.8312 96.7728 26.8312C96.5588 26.8312 96.3508 26.8562 96.1378 26.8632C96.5368 25.2142 96.7728 23.5012 96.7728 21.7292C96.7728 9.72824 87.0448 0.000244141 75.0448 0.000244141C69.0788 0.000244141 63.6778 2.40824 59.7508 6.30024C55.8238 2.40824 50.4228 0.000244141 44.4568 0.000244141C32.4568 0.000244141 22.7288 9.72824 22.7288 21.7292C22.7288 23.5012 22.9638 25.2142 23.3638 26.8632C23.1508 26.8562 22.9428 26.8312 22.7288 26.8312C10.7288 26.8312 0.999756 36.5592 0.999756 48.5592C0.999756 55.1232 3.92376 60.9942 8.52376 64.9782C3.92376 68.9622 0.999756 74.8332 0.999756 81.3972C0.999756 87.9612 3.92376 93.8322 8.52376 97.8162C3.92376 101.8 0.999756 107.671 0.999756 114.235C0.999756 120.799 3.92376 126.669 8.52376 130.654C3.92376 134.638 0.999756 140.508 0.999756 147.073C0.999756 153.637 3.92376 159.507 8.52376 163.492C3.92376 167.476 0.999756 173.346 0.999756 179.91C0.999756 191.305 9.77576 200.634 20.9368 201.548L20.9338 201.639H96.7728C108.773 201.639 118.501 191.91 118.501 179.91C118.501 173.346 115.578 167.476 110.977 163.492C115.578 159.507 118.501 153.637 118.501 147.073C118.501 140.508 115.578 134.638 110.977 130.654C115.578 126.669 118.501 120.799 118.501 114.235C118.501 107.671 115.578 101.8 110.977 97.8162C115.578 93.8322 118.501 87.9612 118.501 81.3972" fill="#c4c9ce"/></g><path id="Fill 4" fill-rule="evenodd" clip-rule="evenodd" d="M58.201 46.8196C58.201 56.5686 50.298 64.4716 40.549 64.4716C30.8 64.4716 22.896 56.5686 22.896 46.8196C22.896 37.0706 30.8 29.1676 40.549 29.1676C50.298 29.1676 58.201 37.0706 58.201 46.8196" fill="#999da1"/><path id="Fill 6" fill-rule="evenodd" clip-rule="evenodd" d="M96.6053 46.8196C96.6053 56.5686 88.7023 64.4716 78.9533 64.4716C69.2033 64.4716 61.2993 56.5686 61.2993 46.8196C61.2993 37.0706 69.2033 29.1676 78.9533 29.1676C88.7023 29.1676 96.6053 37.0706 96.6053 46.8196" fill="#999da1"/><g id="Group 10"><path id="Fill 8" fill-rule="evenodd" clip-rule="evenodd" d="M2.119 88.2819L2.337 88.4789C4.639 90.6789 7.574 90.6789 9.876 88.4789L10.037 88.3249C12.354 86.1099 15.313 86.1259 17.62 88.3669C19.943 90.6229 22.924 90.6229 25.247 88.3669C27.554 86.1259 30.512 86.1099 32.83 88.3239L32.98 88.4689C35.282 90.6689 38.218 90.6689 40.519 88.4689L40.701 88.2949C43.003 86.0949 45.938 86.0949 48.24 88.2949L48.359 88.4089C50.661 90.6089 53.597 90.6089 55.898 88.4089L56.142 88.1759C58.444 85.9759 61.379 85.9759 63.682 88.1759L63.801 88.2899C66.102 90.4899 69.037 90.4899 71.34 88.2899L71.396 88.2359C73.698 86.0359 76.634 86.0359 78.935 88.2359L79.072 88.3659C81.374 90.5659 84.309 90.5659 86.611 88.3659L86.707 88.2759C89.009 86.0759 91.943 86.0759 94.246 88.2759L94.351 88.3769C96.654 90.5769 99.589 90.5769 101.89 88.3769L102.148 88.1319C104.45 85.9319 107.385 85.9319 109.687 88.1319L109.896 88.3319C112.198 90.5319 115.032 90.6259 117.334 88.4269C116.073 92.0989 113.852 95.3259 110.976 97.8159C115.578 101.801 118.501 107.671 118.501 114.235C118.501 120.8 115.578 126.67 110.976 130.654C115.578 134.638 118.501 140.509 118.501 147.073C118.501 153.637 115.578 159.508 110.976 163.492C115.578 167.476 118.501 173.346 118.501 179.91C118.501 191.91 108.773 201.639 96.773 201.639H20.933L20.936 201.549C9.776 200.635 1 191.305 1 179.91C1 173.346 3.924 167.476 8.524 163.492C3.924 159.508 1 153.637 1 147.073C1 140.509 3.924 134.638 8.524 130.654C3.924 126.67 1 120.8 1 114.235C1 107.671 3.924 101.801 8.524 97.8159C5.611 95.2939 3.371 92.0139 2.119 88.2819" fill="#9ea2a6"/></g></g></g></g><g id="Eyes/Poh" transform="translate(131.918 153.017) scale(1 1)"><g id="Eyes/Poh/Naughty"><g id="Group 7"><g id="Group 3"><path id="Fill 1" fill-rule="evenodd" clip-rule="evenodd" d="M8.50139 12.5768C8.00939 12.5768 7.52539 12.3338 7.23939 11.8898C6.79039 11.1928 6.99139 10.2638 7.68839 9.81579L11.5354 7.33679L7.99939 4.70279C7.33539 4.20779 7.19739 3.26779 7.69239 2.60379C8.18839 1.93879 9.12639 1.80279 9.79239 2.29779L14.3064 5.65979C14.8724 6.08179 15.1954 6.75579 15.1724 7.46179C15.1474 8.16679 14.7784 8.81679 14.1854 9.19879L9.31339 12.3378C9.06239 12.4998 8.77939 12.5768 8.50139 12.5768" fill="#171522"/></g><g id="Group 6"><path id="Fill 4" fill-rule="evenodd" clip-rule="evenodd" d="M29.4054 10.026V10.026C28.0224 10.026 26.9014 8.905 26.9014 7.522V5.013C26.9014 3.63 28.0224 2.508 29.4054 2.508C30.7894 2.508 31.9104 3.63 31.9104 5.013V7.522C31.9104 8.905 30.7894 10.026 29.4054 10.026" fill="#171522"/></g></g></g></g><g id="Mouth/Poh" transform="translate(131.904 166.433) scale(0.975609756097561 1)"><g id="Mouth/Poh/Teeth Out"><g id="Group 10"><g id="Group 3"><path id="Fill 1" fill-rule="evenodd" clip-rule="evenodd" d="M17.7237 12.2548H17.3377C15.8007 12.2548 14.5547 11.0078 14.5547 9.4708V5.9578H20.5067V9.4708C20.5067 11.0078 19.2607 12.2548 17.7237 12.2548" fill="#ecf1f6"/></g><g id="Group 6"><path id="Fill 4" fill-rule="evenodd" clip-rule="evenodd" d="M26.1319 12.2548H25.7469C24.2089 12.2548 22.9629 11.0078 22.9629 9.4708V5.9578H28.9159V9.4708C28.9159 11.0078 27.6699 12.2548 26.1319 12.2548" fill="#ecf1f6"/></g><g id="Group 9"><path id="Fill 7" fill-rule="evenodd" clip-rule="evenodd" d="M20.7707 7.7162C11.5567 7.7162 9.41867 4.6362 9.08367 4.0192C8.72367 3.3552 8.96967 2.5252 9.63367 2.1652C10.2777 1.8162 11.0847 2.0382 11.4587 2.6642C11.5537 2.7912 13.3027 4.9812 20.7707 4.9812C28.9177 4.9812 32.2847 2.3392 32.3177 2.3122C32.9037 1.8392 33.7607 1.9242 34.2377 2.5022C34.7137 3.0802 34.6407 3.9312 34.0667 4.4142C33.9067 4.5492 30.0297 7.7162 20.7707 7.7162" fill="#161522"/></g></g></g></g><g id="Hair/Poh" transform="translate(80.918 60.5) scale(1 1)"><g id="Hair/Poh/Blue Waves"><g id="Group 3"><path id="Fill 1" fill-rule="evenodd" clip-rule="evenodd" d="M136.011 109.887C141.888 106.387 140.965 97.6083 134.49 95.4063C129.418 93.6813 127.431 87.5653 130.52 83.1893C134.465 77.6013 130.051 69.9563 123.24 70.5793C117.906 71.0673 113.602 66.2873 114.644 61.0333C115.976 54.3243 108.834 49.1353 102.865 52.4743C98.1893 55.0903 92.3143 52.4733 91.1293 47.2503C89.6163 40.5783 80.9823 38.7433 76.8873 44.2223C73.6803 48.5123 67.2483 48.5123 64.0413 44.2223C59.9463 38.7433 51.3123 40.5783 49.7993 47.2503C48.6153 52.4733 42.7393 55.0903 38.0643 52.4743C32.0943 49.1353 24.9523 54.3243 26.2833 61.0333C27.3263 66.2873 23.0233 71.0673 17.6893 70.5793C10.8763 69.9563 6.46334 77.6013 10.4083 83.1893C13.4973 87.5653 11.5103 93.6813 6.43934 95.4063C-0.0376639 97.6083 -0.960663 106.387 4.91734 109.887C9.51934 112.628 10.1923 119.024 6.25934 122.662C10.3723 131.195 24.9503 121.622 27.6763 114.441C32.0323 102.962 36.5383 109.547 46.7523 103.989C56.9673 98.4313 48.5553 86.4153 59.5203 83.2603C68.3553 80.7193 71.2083 71.9423 71.9863 68.6253C72.7043 70.9423 76.8393 82.4913 88.0483 83.2833C100.512 84.1643 97.4903 96.6783 106.178 99.3603C114.865 102.042 120.782 102.42 121.16 112.617C121.333 117.308 123.127 121.015 125.013 123.654C125.013 123.654 131.273 131.24 134.668 122.662C130.737 119.024 131.409 112.628 136.011 109.887" fill="#a1a5a9"/></g></g></g><g id="Clothes/Poh" transform="translate(92.918 199) scale(1 1)"><g id="Clothes/Poh/Mix Scribbles"><g id="Group 27"><g id="Group 3"><path id="Fill 1" fill-rule="evenodd" clip-rule="evenodd" d="M8.07429 12.2082L8.30529 12.4242C10.3513 14.3792 12.9593 14.3792 15.0043 12.4242L15.1473 12.2882C17.2073 10.3192 19.8353 10.3342 21.8853 12.3252C23.9483 14.3292 26.5963 14.3292 28.6603 12.3252C30.7103 10.3342 33.3383 10.3192 35.3973 12.2872L35.5313 12.4152C37.5763 14.3702 40.1833 14.3702 42.2293 12.4152L42.3903 12.2612C44.4353 10.3072 47.0433 10.3072 49.0883 12.2612L49.1943 12.3622C51.2393 14.3162 53.8463 14.3162 55.8923 12.3622L56.1093 12.1552C58.1543 10.2012 60.7623 10.2012 62.8063 12.1552L62.9133 12.2562C64.9583 14.2112 67.5653 14.2112 69.6103 12.2562L69.6613 12.2082C71.7073 10.2542 74.3143 10.2542 76.3593 12.2082L76.4813 12.3242C78.5263 14.2792 81.1343 14.2792 83.1793 12.3242L83.2633 12.2442C85.3083 10.2892 87.9163 10.2892 89.9623 12.2442L90.0553 12.3342C92.1003 14.2882 94.7093 14.2882 96.7543 12.3342L96.9823 12.1162C99.0273 10.1612 101.635 10.1612 103.679 12.1162L103.866 12.2932C105.911 14.2482 108.481 14.1632 110.526 12.2082C115.128 16.1922 118.051 22.0632 118.051 28.6272C118.051 35.1912 115.128 41.0622 110.526 45.0452C115.128 49.0302 118.051 54.9002 118.051 61.4642C118.051 68.0292 115.128 73.8992 110.526 77.8842C115.128 81.8682 118.051 87.7382 118.051 94.3022C118.051 106.302 108.323 116.031 96.3233 116.031H20.4833L20.4863 115.94C9.32629 115.026 0.550293 105.697 0.550293 94.3022C0.550293 87.7382 3.47329 81.8682 8.07429 77.8842C3.47329 73.8992 0.550293 68.0292 0.550293 61.4642C0.550293 54.9002 3.47329 49.0302 8.07429 45.0452C3.47329 41.0622 0.550293 35.1912 0.550293 28.6272C0.550293 22.0632 3.47329 16.1922 8.07429 12.2082" fill="#75728c"/></g><path id="Fill 4" fill-rule="evenodd" clip-rule="evenodd" d="M63.8915 87.5754C66.4435 88.8194 69.1755 89.7214 71.9765 90.2224C77.6825 91.2424 84.0055 90.7094 88.8485 87.2594C93.1285 84.2094 96.0475 79.3904 95.9125 74.0454C95.8615 72.0344 92.7305 72.0274 92.7825 74.0454C92.8965 78.5184 90.3505 82.6034 86.6315 84.9904C82.2205 87.8214 76.6195 88.0764 71.6205 86.9664C61.9995 84.8294 52.9745 77.5884 52.2575 67.1904C52.1205 65.1924 48.9895 65.1774 49.1275 67.1904C49.6635 74.9534 54.1055 81.3194 60.2325 85.4604C60.9535 85.1734 61.7035 84.9234 62.5315 84.7644C64.2925 84.4264 65.1425 86.7974 63.8915 87.5754" fill="#c4c9ce"/><path id="Fill 6" fill-rule="evenodd" clip-rule="evenodd" d="M63.8918 87.5754C65.1428 86.7974 64.2928 84.4264 62.5318 84.7644C61.7038 84.9234 60.9538 85.1734 60.2328 85.4604C52.3968 88.5814 50.4159 98.7214 44.2369 103.931C42.3479 105.523 40.1158 106.366 37.6348 106.183C34.8398 105.977 32.1999 104.833 29.4009 104.606C25.6609 104.302 20.9339 106.127 20.3189 110.276C20.0259 112.246 23.0409 113.096 23.3359 111.107C24.0789 106.112 31.0389 108.034 34.1409 108.741C38.7339 109.786 42.7979 109.256 46.4499 106.144C49.6839 103.388 51.6739 99.5794 53.8769 96.0264C56.1349 92.3874 58.9108 88.6374 63.3638 87.7824C63.5728 87.7424 63.7438 87.6674 63.8918 87.5754" fill="#c4c9ce"/><path id="Fill 8" fill-rule="evenodd" clip-rule="evenodd" d="M108.801 109.392C107.061 111.189 105.322 112.987 103.582 114.784C106.509 113.747 109.145 112.1 111.342 109.996C110.962 109.058 109.714 108.448 108.801 109.392" fill="#c4c9ce"/><path id="Fill 10" fill-rule="evenodd" clip-rule="evenodd" d="M2.98078 100.133C3.19978 96.2441 2.59978 92.3441 1.29378 88.6881C0.812781 90.4781 0.550781 92.3591 0.550781 94.3021C0.550781 96.8551 1.01178 99.2941 1.82078 101.568C2.41978 101.4 2.93578 100.925 2.98078 100.133" fill="#c4c9ce"/><path id="Fill 12" fill-rule="evenodd" clip-rule="evenodd" d="M12.4707 71.1658C18.2637 68.1408 25.0667 66.7338 29.5367 61.6218C30.8577 60.1108 28.6527 57.8888 27.3247 59.4088C22.6877 64.7098 15.2457 65.7838 9.42171 69.2828C7.40971 70.4908 5.73171 71.9748 4.30371 73.6508C4.89471 74.5168 5.54871 75.3348 6.25371 76.1058C7.95471 74.0498 10.0387 72.4358 12.4707 71.1658" fill="#c4c9ce"/><path id="Fill 14" fill-rule="evenodd" clip-rule="evenodd" d="M52.7831 44.114C56.3251 46.808 60.4281 48.445 64.8691 48.805C69.2521 49.16 73.6651 48.299 77.9131 47.303C86.1601 45.371 95.3911 42.182 103.297 46.905C109.069 50.354 112.938 56.049 118.017 60.263C117.93 58.667 117.668 57.119 117.254 55.635C113.878 52.378 110.869 48.593 107.211 45.801C100.207 40.456 92.0271 40.793 83.8241 42.66C75.5761 44.537 66.4261 47.879 58.2731 43.867C49.1441 39.377 44.7271 29.376 40.5841 20.68C39.4571 18.315 38.3551 15.938 37.2711 13.553C36.6661 13.31 36.0781 12.938 35.5311 12.415L35.3971 12.287C34.5551 11.483 33.6181 11.028 32.6641 10.885C33.7631 13.368 34.8751 15.845 36.0201 18.306C40.2981 27.498 44.4691 37.789 52.7831 44.114" fill="#c4c9ce"/><path id="Fill 16" fill-rule="evenodd" clip-rule="evenodd" d="M88.4523 11.2063C86.8983 10.4843 85.2083 10.7093 83.7383 11.8583C84.4003 12.2373 85.1153 12.4973 85.9103 12.4953C86.9563 12.4933 87.8533 11.9823 88.4523 11.2063" fill="#c4c9ce"/><path id="Fill 18" fill-rule="evenodd" clip-rule="evenodd" d="M7.05166 37.2976C4.79966 37.3656 2.89366 36.0506 1.34766 34.4596C1.88466 36.3806 2.67766 38.1936 3.69066 39.8596C4.74966 40.2506 5.86966 40.4636 7.05166 40.4276C9.06066 40.3666 9.07066 37.2366 7.05166 37.2976" fill="#c4c9ce"/><path id="Fill 20" fill-rule="evenodd" clip-rule="evenodd" d="M66.0921 13.7048C69.7351 14.1108 73.9981 17.0008 71.3361 21.0158C68.4591 25.3558 61.0921 23.8488 58.0001 20.6318C57.8361 20.4618 57.6951 20.2798 57.5431 20.1028C57.6731 15.4818 61.6021 13.2048 66.0921 13.7048M54.4161 21.1118C54.7851 25.7888 58.0431 30.0848 61.9301 32.6858C68.1901 36.8748 75.7301 36.6038 82.5641 34.0098C89.8951 31.2258 96.0821 26.3908 102.812 22.4968C103.608 24.3728 104.463 26.2108 105.379 27.9848C107.691 32.4588 110.921 36.7068 115.271 39.2328C115.775 38.3378 116.217 37.4048 116.592 36.4368C111.057 33.1718 107.935 26.7778 105.632 20.9388C108.488 19.4638 111.681 18.1268 114.93 17.4228C114.349 16.4638 113.695 15.5538 112.977 14.6988C110.028 15.4348 107.221 16.5988 104.51 17.9888C103.669 15.7308 102.885 13.4258 102.198 11.0938C101.118 10.5838 99.9731 10.5338 98.8771 10.9288C99.6411 13.8318 100.557 16.7288 101.633 19.5578C99.0021 21.0738 96.4501 22.7388 93.9341 24.3538C87.3111 28.6048 79.7121 33.3578 71.5031 32.8318C66.7021 32.5238 61.1731 29.4818 58.7661 25.0028C61.1971 26.3908 64.0451 27.0238 67.0311 26.6568C71.7601 26.0758 76.3481 22.0198 75.1101 16.8508C74.5101 14.3498 72.6061 12.6628 70.3371 11.6608C70.1081 11.8248 69.8801 11.9998 69.6621 12.2078L69.6121 12.2568C67.5661 14.2108 64.9581 14.2108 62.9131 12.2568L62.8071 12.1558C62.2961 11.6668 61.7501 11.3008 61.1871 11.0568C58.5491 11.8618 56.2641 13.5738 55.1701 16.2438C54.7931 15.3518 54.4971 14.4208 54.2511 13.4678C53.2421 13.8998 52.1821 13.9208 51.1621 13.5728C51.5961 15.4198 52.1961 17.2288 53.0831 18.9718C53.4711 19.7318 53.9211 20.4428 54.4161 21.1118" fill="#aaafb3"/><path id="Fill 22" fill-rule="evenodd" clip-rule="evenodd" d="M19.9298 18.2322C20.3358 19.6152 20.5348 21.0462 20.3938 22.4972C20.0608 25.9092 17.6838 28.4152 14.2638 28.8252C11.2778 29.1842 8.23075 27.3362 8.91975 23.9742C9.70475 20.1492 14.1188 17.9402 17.7018 17.9782C18.4608 17.9852 19.2008 18.0862 19.9298 18.2322M18.1818 14.8612C14.3288 14.6792 10.4858 16.2442 7.98075 19.2112C5.71375 21.8952 4.80475 25.7692 6.89075 28.8502C10.4238 34.0652 18.9498 32.2872 21.9868 27.4992C23.6288 24.9082 23.9788 22.1862 23.5208 19.5202C28.5338 22.1922 32.0548 27.9472 31.8808 33.5702C31.6398 41.3702 24.9898 47.7472 17.7808 49.6942C13.2708 50.9122 8.79075 50.1612 4.29875 49.2862C3.69775 50.1692 3.16375 51.1002 2.69775 52.0682C7.15075 52.9592 11.6558 53.8992 16.2058 53.2112C20.0818 52.6262 23.7538 50.9782 26.8468 48.5842C32.8108 43.9682 36.4178 36.3362 34.4508 28.8122C32.8888 22.8442 28.1768 17.5682 22.2988 15.6332C21.5558 13.9892 20.5638 12.4102 19.4508 10.9382C18.3278 10.6762 17.1708 10.8872 16.1038 11.5542C16.9888 12.5712 17.8128 13.6912 18.4988 14.8922C18.3928 14.8852 18.2888 14.8672 18.1818 14.8612" fill="#aaafb3"/><g id="Group 26"><path id="Fill 24" fill-rule="evenodd" clip-rule="evenodd" d="M79.1673 67.1374C80.0213 70.4444 78.4653 74.5014 75.3753 76.1224C71.9363 77.9284 68.4883 75.4094 67.3033 72.1234C65.3863 66.8054 68.8773 62.4464 73.3833 59.7754C76.1483 61.4714 78.3243 63.8774 79.1673 67.1374M41.4993 85.8464C42.2973 87.5324 42.6843 93.2154 39.2363 91.6564C35.9763 90.1824 35.8203 84.2694 35.8853 81.3104C38.2163 82.1484 40.4513 83.6344 41.4993 85.8464M103.455 61.2954C98.1993 56.4894 91.0933 53.6454 83.9533 53.6924C80.3763 53.7154 76.5903 54.5364 73.2523 56.1694C69.6213 54.3474 65.4283 53.4614 61.5623 53.4104C53.4543 53.3034 45.2513 56.6694 39.8893 62.8164C36.2843 66.9494 33.9453 72.0974 33.1133 77.4854C26.5363 76.7744 19.8163 79.7204 16.8403 85.8624C14.8953 89.8764 14.4963 94.3214 13.6523 98.6404C12.8113 102.949 11.3223 106.833 8.15631 109.979C8.00831 110.126 7.84731 110.252 7.69531 110.393C8.48031 111.104 9.32931 111.742 10.2123 112.333C12.5763 110.031 14.3853 107.2 15.4793 104.077C16.9373 99.9114 17.1453 95.4534 18.2403 91.1984C19.1973 87.4754 20.9323 84.1114 24.3753 82.1804C26.8933 80.7684 29.9303 80.2294 32.8053 80.5764C32.7253 82.3334 32.7973 84.0984 33.0513 85.8484C33.5333 89.1824 34.8553 93.4414 38.4003 94.6854C41.4533 95.7574 44.3833 93.7904 45.0723 90.7494C46.4553 84.6494 41.5863 79.8214 36.1563 78.1144C36.6323 74.9134 37.7073 71.7994 39.3123 68.9914C43.4603 61.7284 51.1343 57.1214 59.4593 56.5934C62.7213 56.3864 66.5633 56.8504 70.0123 58.1374C68.0773 59.5724 66.4253 61.3484 65.2523 63.4864C63.4583 66.7544 63.1633 70.5254 64.6823 73.9514C66.0743 77.0914 68.9253 79.6054 72.4453 79.8484C80.2643 80.3884 84.2563 70.8374 81.5563 64.5214C80.4593 61.9544 78.6883 59.8744 76.5353 58.2264C77.8473 57.7114 79.1603 57.3364 80.3843 57.1224C87.1843 55.9354 94.5023 58.1124 99.8813 62.3464C102.584 64.4744 104.83 67.1604 106.352 70.2504C108.377 74.3624 108.752 79.0544 109.127 83.5514C109.256 85.0974 109.378 86.6754 109.549 88.2504C108.136 89.1394 106.813 90.1264 105.631 91.1644C99.0603 96.9304 95.0593 105.02 88.6693 110.942C86.9733 107.462 84.6603 104.29 82.0853 101.83C79.1563 99.0314 75.3893 97.1094 71.2743 97.1274C67.6113 97.1434 63.9003 98.7664 61.9693 101.985C59.2603 106.501 60.9143 112.214 64.2923 116.031H69.1453C68.1683 115.464 67.2443 114.728 66.4123 113.749C64.4683 111.459 63.1843 108.101 64.0173 105.106C65.0733 101.308 69.2483 99.8204 72.8573 100.358C77.0743 100.987 80.3943 104.073 82.7773 107.426C84.0323 109.19 85.1803 111.098 86.1153 113.099C84.5393 114.244 82.7463 115.264 80.8713 116.031H90.6043C90.4123 115.349 90.2053 114.67 89.9633 114C97.0473 107.905 101.117 99.0474 108.266 93.0124C108.811 92.5544 109.411 92.1094 110.037 91.6754C110.396 93.6584 110.91 95.6024 111.73 97.4344C112.734 99.6794 114.238 101.718 116.053 103.404C116.531 102.367 116.93 101.286 117.243 100.169C116.499 99.3434 115.834 98.4534 115.287 97.5224C113.94 95.2294 113.285 92.6234 112.894 89.9624C114.262 89.2594 115.715 88.6694 117.191 88.2554C116.891 87.2214 116.516 86.2204 116.072 85.2584C114.859 85.6174 113.664 86.0714 112.509 86.6214C112.418 85.5864 112.34 84.5564 112.256 83.5514C112.133 82.0754 112.002 80.5934 111.827 79.1164C111.409 78.6894 110.979 78.2754 110.527 77.8834C110.873 77.5844 111.205 77.2704 111.531 76.9504C111.148 74.5344 110.579 72.1584 109.609 69.8924C108.213 66.6274 106.074 63.6904 103.455 61.2954" fill="#aaafb3"/></g></g></g></g></g></g></g></svg>